G04 #@! TF.GenerationSoftware,KiCad,Pcbnew,(5.0.2)-1*
G04 #@! TF.CreationDate,2019-10-14T17:28:43+02:00*
G04 #@! TF.ProjectId,motoHUD,6d6f746f-4855-4442-9e6b-696361645f70,rev?*
G04 #@! TF.SameCoordinates,Original*
G04 #@! TF.FileFunction,Legend,Bot*
G04 #@! TF.FilePolarity,Positive*
%FSLAX46Y46*%
G04 Gerber Fmt 4.6, Leading zero omitted, Abs format (unit mm)*
G04 Created by KiCad (PCBNEW (5.0.2)-1) date 14.10.2019 17:28:43*
%MOMM*%
%LPD*%
G01*
G04 APERTURE LIST*
%ADD10C,0.200000*%
%ADD11C,0.300000*%
%ADD12C,0.120000*%
%ADD13C,0.150000*%
G04 APERTURE END LIST*
D10*
X200219375Y-85953571D02*
X200094375Y-84953571D01*
X200112232Y-85096428D02*
X200031875Y-85025000D01*
X199880089Y-84953571D01*
X199665803Y-84953571D01*
X199531875Y-85025000D01*
X199478303Y-85167857D01*
X199576517Y-85953571D01*
X199478303Y-85167857D02*
X199389017Y-85025000D01*
X199237232Y-84953571D01*
X199022946Y-84953571D01*
X198889017Y-85025000D01*
X198835446Y-85167857D01*
X198933660Y-85953571D01*
X198005089Y-85953571D02*
X198139017Y-85882142D01*
X198201517Y-85810714D01*
X198255089Y-85667857D01*
X198201517Y-85239285D01*
X198112232Y-85096428D01*
X198031875Y-85025000D01*
X197880089Y-84953571D01*
X197665803Y-84953571D01*
X197531875Y-85025000D01*
X197469375Y-85096428D01*
X197415803Y-85239285D01*
X197469375Y-85667857D01*
X197558660Y-85810714D01*
X197639017Y-85882142D01*
X197790803Y-85953571D01*
X198005089Y-85953571D01*
X196951517Y-84953571D02*
X196380089Y-84953571D01*
X196674732Y-84453571D02*
X196835446Y-85739285D01*
X196781875Y-85882142D01*
X196647946Y-85953571D01*
X196505089Y-85953571D01*
X195790803Y-85953571D02*
X195924732Y-85882142D01*
X195987232Y-85810714D01*
X196040803Y-85667857D01*
X195987232Y-85239285D01*
X195897946Y-85096428D01*
X195817589Y-85025000D01*
X195665803Y-84953571D01*
X195451517Y-84953571D01*
X195317589Y-85025000D01*
X195255089Y-85096428D01*
X195201517Y-85239285D01*
X195255089Y-85667857D01*
X195344375Y-85810714D01*
X195424732Y-85882142D01*
X195576517Y-85953571D01*
X195790803Y-85953571D01*
X194647946Y-85953571D02*
X194460446Y-84453571D01*
X194549732Y-85167857D02*
X193692589Y-85167857D01*
X193790803Y-85953571D02*
X193603303Y-84453571D01*
X192889017Y-84453571D02*
X193040803Y-85667857D01*
X192987232Y-85810714D01*
X192924732Y-85882142D01*
X192790803Y-85953571D01*
X192505089Y-85953571D01*
X192353303Y-85882142D01*
X192272946Y-85810714D01*
X192183660Y-85667857D01*
X192031875Y-84453571D01*
X191505089Y-85953571D02*
X191317589Y-84453571D01*
X190960446Y-84453571D01*
X190755089Y-84525000D01*
X190630089Y-84667857D01*
X190576517Y-84810714D01*
X190540803Y-85096428D01*
X190567589Y-85310714D01*
X190674732Y-85596428D01*
X190764017Y-85739285D01*
X190924732Y-85882142D01*
X191147946Y-85953571D01*
X191505089Y-85953571D01*
X188862232Y-85953571D02*
X188737232Y-84953571D01*
X188772946Y-85239285D02*
X188683660Y-85096428D01*
X188603303Y-85025000D01*
X188451517Y-84953571D01*
X188308660Y-84953571D01*
X187353303Y-85882142D02*
X187505089Y-85953571D01*
X187790803Y-85953571D01*
X187924732Y-85882142D01*
X187978303Y-85739285D01*
X187906875Y-85167857D01*
X187817589Y-85025000D01*
X187665803Y-84953571D01*
X187380089Y-84953571D01*
X187246160Y-85025000D01*
X187192589Y-85167857D01*
X187210446Y-85310714D01*
X187942589Y-85453571D01*
X186665803Y-84953571D02*
X186433660Y-85953571D01*
X185951517Y-84953571D01*
X185487232Y-85810714D02*
X185424732Y-85882142D01*
X185505089Y-85953571D01*
X185567589Y-85882142D01*
X185487232Y-85810714D01*
X185505089Y-85953571D01*
X184692589Y-84596428D02*
X184612232Y-84525000D01*
X184460446Y-84453571D01*
X184103303Y-84453571D01*
X183969375Y-84525000D01*
X183906875Y-84596428D01*
X183853303Y-84739285D01*
X183871160Y-84882142D01*
X183969375Y-85096428D01*
X184933660Y-85953571D01*
X184005089Y-85953571D01*
X201781875Y-86903571D02*
X201612232Y-88403571D01*
X201192589Y-87332142D01*
X201040803Y-88403571D01*
X200496160Y-86903571D01*
X200094375Y-88260714D02*
X200031875Y-88332142D01*
X200112232Y-88403571D01*
X200174732Y-88332142D01*
X200094375Y-88260714D01*
X200112232Y-88403571D01*
X197656875Y-87617857D02*
X197451517Y-87689285D01*
X197389017Y-87760714D01*
X197335446Y-87903571D01*
X197362232Y-88117857D01*
X197451517Y-88260714D01*
X197531875Y-88332142D01*
X197683660Y-88403571D01*
X198255089Y-88403571D01*
X198067589Y-86903571D01*
X197567589Y-86903571D01*
X197433660Y-86975000D01*
X197371160Y-87046428D01*
X197317589Y-87189285D01*
X197335446Y-87332142D01*
X197424732Y-87475000D01*
X197505089Y-87546428D01*
X197656875Y-87617857D01*
X198156875Y-87617857D01*
X195987232Y-87403571D02*
X196112232Y-88403571D01*
X196630089Y-87403571D02*
X196728303Y-88189285D01*
X196674732Y-88332142D01*
X196540803Y-88403571D01*
X196326517Y-88403571D01*
X196174732Y-88332142D01*
X196094375Y-88260714D01*
X195397946Y-88403571D02*
X195272946Y-87403571D01*
X195308660Y-87689285D02*
X195219375Y-87546428D01*
X195139017Y-87475000D01*
X194987232Y-87403571D01*
X194844375Y-87403571D01*
X193826517Y-88403571D02*
X193639017Y-86903571D01*
X193817589Y-88332142D02*
X193969375Y-88403571D01*
X194255089Y-88403571D01*
X194389017Y-88332142D01*
X194451517Y-88260714D01*
X194505089Y-88117857D01*
X194451517Y-87689285D01*
X194362232Y-87546428D01*
X194281875Y-87475000D01*
X194130089Y-87403571D01*
X193844375Y-87403571D01*
X193710446Y-87475000D01*
X192531875Y-88332142D02*
X192683660Y-88403571D01*
X192969375Y-88403571D01*
X193103303Y-88332142D01*
X193156875Y-88189285D01*
X193085446Y-87617857D01*
X192996160Y-87475000D01*
X192844375Y-87403571D01*
X192558660Y-87403571D01*
X192424732Y-87475000D01*
X192371160Y-87617857D01*
X192389017Y-87760714D01*
X193121160Y-87903571D01*
X191174732Y-88332142D02*
X191326517Y-88403571D01*
X191612232Y-88403571D01*
X191746160Y-88332142D01*
X191808660Y-88260714D01*
X191862232Y-88117857D01*
X191808660Y-87689285D01*
X191719375Y-87546428D01*
X191639017Y-87475000D01*
X191487232Y-87403571D01*
X191201517Y-87403571D01*
X191067589Y-87475000D01*
X190540803Y-88403571D02*
X190353303Y-86903571D01*
X190326517Y-87832142D02*
X189969375Y-88403571D01*
X189844375Y-87403571D02*
X190487232Y-87975000D01*
X189326517Y-88403571D02*
X189201517Y-87403571D01*
X189139017Y-86903571D02*
X189219375Y-86975000D01*
X189156875Y-87046428D01*
X189076517Y-86975000D01*
X189139017Y-86903571D01*
X189156875Y-87046428D01*
X187371160Y-87046428D02*
X187290803Y-86975000D01*
X187139017Y-86903571D01*
X186781875Y-86903571D01*
X186647946Y-86975000D01*
X186585446Y-87046428D01*
X186531875Y-87189285D01*
X186549732Y-87332142D01*
X186647946Y-87546428D01*
X187612232Y-88403571D01*
X186683660Y-88403571D01*
X185567589Y-86903571D02*
X185424732Y-86903571D01*
X185290803Y-86975000D01*
X185228303Y-87046428D01*
X185174732Y-87189285D01*
X185139017Y-87475000D01*
X185183660Y-87832142D01*
X185290803Y-88117857D01*
X185380089Y-88260714D01*
X185460446Y-88332142D01*
X185612232Y-88403571D01*
X185755089Y-88403571D01*
X185889017Y-88332142D01*
X185951517Y-88260714D01*
X186005089Y-88117857D01*
X186040803Y-87832142D01*
X185996160Y-87475000D01*
X185889017Y-87189285D01*
X185799732Y-87046428D01*
X185719375Y-86975000D01*
X185567589Y-86903571D01*
X183826517Y-88403571D02*
X184683660Y-88403571D01*
X184255089Y-88403571D02*
X184067589Y-86903571D01*
X184237232Y-87117857D01*
X184397946Y-87260714D01*
X184549732Y-87332142D01*
X183112232Y-88403571D02*
X182826517Y-88403571D01*
X182674732Y-88332142D01*
X182594375Y-88260714D01*
X182424732Y-88046428D01*
X182317589Y-87760714D01*
X182246160Y-87189285D01*
X182299732Y-87046428D01*
X182362232Y-86975000D01*
X182496160Y-86903571D01*
X182781875Y-86903571D01*
X182933660Y-86975000D01*
X183014017Y-87046428D01*
X183103303Y-87189285D01*
X183147946Y-87546428D01*
X183094375Y-87689285D01*
X183031875Y-87760714D01*
X182897946Y-87832142D01*
X182612232Y-87832142D01*
X182460446Y-87760714D01*
X182380089Y-87689285D01*
X182290803Y-87546428D01*
D11*
X177571428Y-133678571D02*
X178428571Y-133678571D01*
X178000000Y-133678571D02*
X178000000Y-132178571D01*
X178142857Y-132392857D01*
X178285714Y-132535714D01*
X178428571Y-132607142D01*
X166571428Y-133678571D02*
X167428571Y-133678571D01*
X167000000Y-133678571D02*
X167000000Y-132178571D01*
X167142857Y-132392857D01*
X167285714Y-132535714D01*
X167428571Y-132607142D01*
X155571428Y-133678571D02*
X156428571Y-133678571D01*
X156000000Y-133678571D02*
X156000000Y-132178571D01*
X156142857Y-132392857D01*
X156285714Y-132535714D01*
X156428571Y-132607142D01*
X142571428Y-133678571D02*
X143428571Y-133678571D01*
X143000000Y-133678571D02*
X143000000Y-132178571D01*
X143142857Y-132392857D01*
X143285714Y-132535714D01*
X143428571Y-132607142D01*
X129571428Y-133678571D02*
X130428571Y-133678571D01*
X130000000Y-133678571D02*
X130000000Y-132178571D01*
X130142857Y-132392857D01*
X130285714Y-132535714D01*
X130428571Y-132607142D01*
X116571428Y-133678571D02*
X117428571Y-133678571D01*
X117000000Y-133678571D02*
X117000000Y-132178571D01*
X117142857Y-132392857D01*
X117285714Y-132535714D01*
X117428571Y-132607142D01*
D12*
G04 #@! TO.C,SW2*
X83100000Y-92150000D02*
X82900000Y-92150000D01*
X76900000Y-92150000D02*
X77100000Y-92150000D01*
X76900000Y-98850000D02*
X77100000Y-98850000D01*
X83100000Y-98850000D02*
X82900000Y-98850000D01*
X81200000Y-98850000D02*
X78800000Y-98850000D01*
X81200000Y-92150000D02*
X78800000Y-92150000D01*
X83100000Y-92150000D02*
X83100000Y-98850000D01*
X76900000Y-98850000D02*
X76900000Y-92150000D01*
G04 #@! TO.C,L1*
X84710000Y-119547369D02*
X84710000Y-117952631D01*
X80290000Y-119547369D02*
X80290000Y-117952631D01*
G04 #@! TO.C,SW1*
X83100000Y-103400000D02*
X82900000Y-103400000D01*
X76900000Y-103400000D02*
X77100000Y-103400000D01*
X76900000Y-110100000D02*
X77100000Y-110100000D01*
X83100000Y-110100000D02*
X82900000Y-110100000D01*
X81200000Y-110100000D02*
X78800000Y-110100000D01*
X81200000Y-103400000D02*
X78800000Y-103400000D01*
X83100000Y-103400000D02*
X83100000Y-110100000D01*
X76900000Y-110100000D02*
X76900000Y-103400000D01*
G04 #@! TO.C,U4*
X99410000Y-103600000D02*
X99410000Y-97590000D01*
X92590000Y-101350000D02*
X92590000Y-97590000D01*
X99410000Y-97590000D02*
X98150000Y-97590000D01*
X92590000Y-97590000D02*
X93850000Y-97590000D01*
G04 #@! TO.C,J7*
X204910000Y-101910000D02*
X204910000Y-94090000D01*
X195590000Y-95890000D02*
X195160000Y-95890000D01*
X204910000Y-101910000D02*
X202960000Y-101910000D01*
X200740000Y-101910000D02*
X197510000Y-101910000D01*
X195590000Y-100110000D02*
X195590000Y-101190000D01*
X195590000Y-94810000D02*
X195590000Y-95890000D01*
X200740000Y-94090000D02*
X197510000Y-94090000D01*
X204910000Y-94090000D02*
X202960000Y-94090000D01*
G04 #@! TO.C,Q2*
X114420000Y-111740000D02*
X115350000Y-111740000D01*
X117580000Y-111740000D02*
X116650000Y-111740000D01*
X117580000Y-111740000D02*
X117580000Y-113900000D01*
X114420000Y-111740000D02*
X114420000Y-113200000D01*
G04 #@! TO.C,C17*
X91460000Y-101988748D02*
X91460000Y-102511252D01*
X90040000Y-101988748D02*
X90040000Y-102511252D01*
G04 #@! TO.C,C18*
X102710000Y-102761252D02*
X102710000Y-102238748D01*
X101290000Y-102761252D02*
X101290000Y-102238748D01*
G04 #@! TO.C,C11*
X128790000Y-123761252D02*
X128790000Y-123238748D01*
X130210000Y-123761252D02*
X130210000Y-123238748D01*
G04 #@! TO.C,C33*
X160238748Y-86710000D02*
X160761252Y-86710000D01*
X160238748Y-85290000D02*
X160761252Y-85290000D01*
G04 #@! TO.C,C32*
X160789252Y-93270000D02*
X160266748Y-93270000D01*
X160789252Y-94690000D02*
X160266748Y-94690000D01*
G04 #@! TO.C,C31*
X131713748Y-87790000D02*
X132236252Y-87790000D01*
X131713748Y-89210000D02*
X132236252Y-89210000D01*
G04 #@! TO.C,C30*
X129238748Y-85210000D02*
X129761252Y-85210000D01*
X129238748Y-83790000D02*
X129761252Y-83790000D01*
G04 #@! TO.C,C34*
X131774000Y-100068748D02*
X131774000Y-100591252D01*
X130354000Y-100068748D02*
X130354000Y-100591252D01*
G04 #@! TO.C,C23*
X158710000Y-104213748D02*
X158710000Y-104736252D01*
X157290000Y-104213748D02*
X157290000Y-104736252D01*
G04 #@! TO.C,C24*
X124210000Y-112786252D02*
X124210000Y-112263748D01*
X122790000Y-112786252D02*
X122790000Y-112263748D01*
G04 #@! TO.C,D10*
X188365000Y-133350000D02*
X188365000Y-129290000D01*
X188365000Y-129290000D02*
X190635000Y-129290000D01*
X190635000Y-129290000D02*
X190635000Y-133350000D01*
G04 #@! TO.C,J1*
X118150000Y-134750000D02*
X118150000Y-133500000D01*
X119400000Y-134750000D02*
X118150000Y-134750000D01*
X127800000Y-129250000D02*
X123500000Y-129250000D01*
X127800000Y-132200000D02*
X127800000Y-129250000D01*
X128550000Y-132200000D02*
X127800000Y-132200000D01*
X119200000Y-129250000D02*
X123500000Y-129250000D01*
X119200000Y-132200000D02*
X119200000Y-129250000D01*
X118450000Y-132200000D02*
X119200000Y-132200000D01*
X128550000Y-134450000D02*
X126750000Y-134450000D01*
X128550000Y-133700000D02*
X128550000Y-134450000D01*
X126750000Y-133700000D02*
X128550000Y-133700000D01*
X126750000Y-134450000D02*
X126750000Y-133700000D01*
X120250000Y-134450000D02*
X118450000Y-134450000D01*
X120250000Y-133700000D02*
X120250000Y-134450000D01*
X118450000Y-133700000D02*
X120250000Y-133700000D01*
X118450000Y-134450000D02*
X118450000Y-133700000D01*
X125250000Y-134450000D02*
X121750000Y-134450000D01*
X125250000Y-133700000D02*
X125250000Y-134450000D01*
X121750000Y-133700000D02*
X125250000Y-133700000D01*
X121750000Y-134450000D02*
X121750000Y-133700000D01*
X128560000Y-134460000D02*
X118440000Y-134460000D01*
X128560000Y-128490000D02*
X128560000Y-134460000D01*
X118440000Y-128490000D02*
X128560000Y-128490000D01*
X118440000Y-134460000D02*
X118440000Y-128490000D01*
G04 #@! TO.C,J6*
X131440000Y-134460000D02*
X131440000Y-128490000D01*
X131440000Y-128490000D02*
X141560000Y-128490000D01*
X141560000Y-128490000D02*
X141560000Y-134460000D01*
X141560000Y-134460000D02*
X131440000Y-134460000D01*
X134750000Y-134450000D02*
X134750000Y-133700000D01*
X134750000Y-133700000D02*
X138250000Y-133700000D01*
X138250000Y-133700000D02*
X138250000Y-134450000D01*
X138250000Y-134450000D02*
X134750000Y-134450000D01*
X131450000Y-134450000D02*
X131450000Y-133700000D01*
X131450000Y-133700000D02*
X133250000Y-133700000D01*
X133250000Y-133700000D02*
X133250000Y-134450000D01*
X133250000Y-134450000D02*
X131450000Y-134450000D01*
X139750000Y-134450000D02*
X139750000Y-133700000D01*
X139750000Y-133700000D02*
X141550000Y-133700000D01*
X141550000Y-133700000D02*
X141550000Y-134450000D01*
X141550000Y-134450000D02*
X139750000Y-134450000D01*
X131450000Y-132200000D02*
X132200000Y-132200000D01*
X132200000Y-132200000D02*
X132200000Y-129250000D01*
X132200000Y-129250000D02*
X136500000Y-129250000D01*
X141550000Y-132200000D02*
X140800000Y-132200000D01*
X140800000Y-132200000D02*
X140800000Y-129250000D01*
X140800000Y-129250000D02*
X136500000Y-129250000D01*
X132400000Y-134750000D02*
X131150000Y-134750000D01*
X131150000Y-134750000D02*
X131150000Y-133500000D01*
G04 #@! TO.C,J2*
X157150000Y-134750000D02*
X157150000Y-133500000D01*
X158400000Y-134750000D02*
X157150000Y-134750000D01*
X164300000Y-129250000D02*
X161250000Y-129250000D01*
X164300000Y-132200000D02*
X164300000Y-129250000D01*
X165050000Y-132200000D02*
X164300000Y-132200000D01*
X158200000Y-129250000D02*
X161250000Y-129250000D01*
X158200000Y-132200000D02*
X158200000Y-129250000D01*
X157450000Y-132200000D02*
X158200000Y-132200000D01*
X165050000Y-134450000D02*
X163250000Y-134450000D01*
X165050000Y-133700000D02*
X165050000Y-134450000D01*
X163250000Y-133700000D02*
X165050000Y-133700000D01*
X163250000Y-134450000D02*
X163250000Y-133700000D01*
X159250000Y-134450000D02*
X157450000Y-134450000D01*
X159250000Y-133700000D02*
X159250000Y-134450000D01*
X157450000Y-133700000D02*
X159250000Y-133700000D01*
X157450000Y-134450000D02*
X157450000Y-133700000D01*
X161750000Y-134450000D02*
X160750000Y-134450000D01*
X161750000Y-133700000D02*
X161750000Y-134450000D01*
X160750000Y-133700000D02*
X161750000Y-133700000D01*
X160750000Y-134450000D02*
X160750000Y-133700000D01*
X165060000Y-134460000D02*
X157440000Y-134460000D01*
X165060000Y-128490000D02*
X165060000Y-134460000D01*
X157440000Y-128490000D02*
X165060000Y-128490000D01*
X157440000Y-134460000D02*
X157440000Y-128490000D01*
G04 #@! TO.C,J3*
X168440000Y-134460000D02*
X168440000Y-128490000D01*
X168440000Y-128490000D02*
X176060000Y-128490000D01*
X176060000Y-128490000D02*
X176060000Y-134460000D01*
X176060000Y-134460000D02*
X168440000Y-134460000D01*
X171750000Y-134450000D02*
X171750000Y-133700000D01*
X171750000Y-133700000D02*
X172750000Y-133700000D01*
X172750000Y-133700000D02*
X172750000Y-134450000D01*
X172750000Y-134450000D02*
X171750000Y-134450000D01*
X168450000Y-134450000D02*
X168450000Y-133700000D01*
X168450000Y-133700000D02*
X170250000Y-133700000D01*
X170250000Y-133700000D02*
X170250000Y-134450000D01*
X170250000Y-134450000D02*
X168450000Y-134450000D01*
X174250000Y-134450000D02*
X174250000Y-133700000D01*
X174250000Y-133700000D02*
X176050000Y-133700000D01*
X176050000Y-133700000D02*
X176050000Y-134450000D01*
X176050000Y-134450000D02*
X174250000Y-134450000D01*
X168450000Y-132200000D02*
X169200000Y-132200000D01*
X169200000Y-132200000D02*
X169200000Y-129250000D01*
X169200000Y-129250000D02*
X172250000Y-129250000D01*
X176050000Y-132200000D02*
X175300000Y-132200000D01*
X175300000Y-132200000D02*
X175300000Y-129250000D01*
X175300000Y-129250000D02*
X172250000Y-129250000D01*
X169400000Y-134750000D02*
X168150000Y-134750000D01*
X168150000Y-134750000D02*
X168150000Y-133500000D01*
G04 #@! TO.C,J4*
X144440000Y-134460000D02*
X144440000Y-128490000D01*
X144440000Y-128490000D02*
X154560000Y-128490000D01*
X154560000Y-128490000D02*
X154560000Y-134460000D01*
X154560000Y-134460000D02*
X144440000Y-134460000D01*
X147750000Y-134450000D02*
X147750000Y-133700000D01*
X147750000Y-133700000D02*
X151250000Y-133700000D01*
X151250000Y-133700000D02*
X151250000Y-134450000D01*
X151250000Y-134450000D02*
X147750000Y-134450000D01*
X144450000Y-134450000D02*
X144450000Y-133700000D01*
X144450000Y-133700000D02*
X146250000Y-133700000D01*
X146250000Y-133700000D02*
X146250000Y-134450000D01*
X146250000Y-134450000D02*
X144450000Y-134450000D01*
X152750000Y-134450000D02*
X152750000Y-133700000D01*
X152750000Y-133700000D02*
X154550000Y-133700000D01*
X154550000Y-133700000D02*
X154550000Y-134450000D01*
X154550000Y-134450000D02*
X152750000Y-134450000D01*
X144450000Y-132200000D02*
X145200000Y-132200000D01*
X145200000Y-132200000D02*
X145200000Y-129250000D01*
X145200000Y-129250000D02*
X149500000Y-129250000D01*
X154550000Y-132200000D02*
X153800000Y-132200000D01*
X153800000Y-132200000D02*
X153800000Y-129250000D01*
X153800000Y-129250000D02*
X149500000Y-129250000D01*
X145400000Y-134750000D02*
X144150000Y-134750000D01*
X144150000Y-134750000D02*
X144150000Y-133500000D01*
G04 #@! TO.C,J5*
X179440000Y-134460000D02*
X179440000Y-128490000D01*
X179440000Y-128490000D02*
X187060000Y-128490000D01*
X187060000Y-128490000D02*
X187060000Y-134460000D01*
X187060000Y-134460000D02*
X179440000Y-134460000D01*
X182750000Y-134450000D02*
X182750000Y-133700000D01*
X182750000Y-133700000D02*
X183750000Y-133700000D01*
X183750000Y-133700000D02*
X183750000Y-134450000D01*
X183750000Y-134450000D02*
X182750000Y-134450000D01*
X179450000Y-134450000D02*
X179450000Y-133700000D01*
X179450000Y-133700000D02*
X181250000Y-133700000D01*
X181250000Y-133700000D02*
X181250000Y-134450000D01*
X181250000Y-134450000D02*
X179450000Y-134450000D01*
X185250000Y-134450000D02*
X185250000Y-133700000D01*
X185250000Y-133700000D02*
X187050000Y-133700000D01*
X187050000Y-133700000D02*
X187050000Y-134450000D01*
X187050000Y-134450000D02*
X185250000Y-134450000D01*
X179450000Y-132200000D02*
X180200000Y-132200000D01*
X180200000Y-132200000D02*
X180200000Y-129250000D01*
X180200000Y-129250000D02*
X183250000Y-129250000D01*
X187050000Y-132200000D02*
X186300000Y-132200000D01*
X186300000Y-132200000D02*
X186300000Y-129250000D01*
X186300000Y-129250000D02*
X183250000Y-129250000D01*
X180400000Y-134750000D02*
X179150000Y-134750000D01*
X179150000Y-134750000D02*
X179150000Y-133500000D01*
G04 #@! TO.C,J8*
X116170000Y-88090000D02*
X118830000Y-88090000D01*
X116170000Y-93230000D02*
X116170000Y-88090000D01*
X118830000Y-93230000D02*
X118830000Y-88090000D01*
X116170000Y-93230000D02*
X118830000Y-93230000D01*
X116170000Y-94500000D02*
X116170000Y-95830000D01*
X116170000Y-95830000D02*
X117500000Y-95830000D01*
G04 #@! TO.C,R22*
X166710000Y-122761252D02*
X166710000Y-122238748D01*
X165290000Y-122761252D02*
X165290000Y-122238748D01*
G04 #@! TO.C,R23*
X168960000Y-122761252D02*
X168960000Y-122238748D01*
X167540000Y-122761252D02*
X167540000Y-122238748D01*
G04 #@! TO.C,R21*
X151040000Y-123761252D02*
X151040000Y-123238748D01*
X152460000Y-123761252D02*
X152460000Y-123238748D01*
G04 #@! TO.C,R11*
X123790000Y-123238748D02*
X123790000Y-123761252D01*
X125210000Y-123238748D02*
X125210000Y-123761252D01*
G04 #@! TO.C,R12*
X126290000Y-123761252D02*
X126290000Y-123238748D01*
X127710000Y-123761252D02*
X127710000Y-123238748D01*
G04 #@! TO.C,R211*
X200238748Y-115790000D02*
X200761252Y-115790000D01*
X200238748Y-117210000D02*
X200761252Y-117210000D01*
G04 #@! TO.C,R54*
X149713748Y-91290000D02*
X150236252Y-91290000D01*
X149713748Y-92710000D02*
X150236252Y-92710000D01*
G04 #@! TO.C,R53*
X160213748Y-91210000D02*
X160736252Y-91210000D01*
X160213748Y-89790000D02*
X160736252Y-89790000D01*
G04 #@! TO.C,R41*
X131290000Y-123786252D02*
X131290000Y-123263748D01*
X132710000Y-123786252D02*
X132710000Y-123263748D01*
G04 #@! TO.C,R42*
X133790000Y-123213748D02*
X133790000Y-123736252D01*
X135210000Y-123213748D02*
X135210000Y-123736252D01*
G04 #@! TO.C,R55*
X154713748Y-92710000D02*
X155236252Y-92710000D01*
X154713748Y-91290000D02*
X155236252Y-91290000D01*
G04 #@! TO.C,R43*
X136290000Y-123786252D02*
X136290000Y-123263748D01*
X137710000Y-123786252D02*
X137710000Y-123263748D01*
G04 #@! TO.C,R44*
X138790000Y-123238748D02*
X138790000Y-123761252D01*
X140210000Y-123238748D02*
X140210000Y-123761252D01*
G04 #@! TO.C,R45*
X143790000Y-123761252D02*
X143790000Y-123238748D01*
X145210000Y-123761252D02*
X145210000Y-123238748D01*
G04 #@! TO.C,R46*
X141290000Y-123263748D02*
X141290000Y-123786252D01*
X142710000Y-123263748D02*
X142710000Y-123786252D01*
G04 #@! TO.C,R51*
X162290000Y-104786252D02*
X162290000Y-104263748D01*
X163710000Y-104786252D02*
X163710000Y-104263748D01*
G04 #@! TO.C,R52*
X159790000Y-104786252D02*
X159790000Y-104263748D01*
X161210000Y-104786252D02*
X161210000Y-104263748D01*
G04 #@! TO.C,R61*
X125290000Y-112761252D02*
X125290000Y-112238748D01*
X126710000Y-112761252D02*
X126710000Y-112238748D01*
G04 #@! TO.C,R72*
X174506748Y-92687000D02*
X175029252Y-92687000D01*
X174506748Y-94107000D02*
X175029252Y-94107000D01*
G04 #@! TO.C,R71*
X174531748Y-91607000D02*
X175054252Y-91607000D01*
X174531748Y-90187000D02*
X175054252Y-90187000D01*
G04 #@! TO.C,R74*
X189261252Y-118710000D02*
X188738748Y-118710000D01*
X189261252Y-117290000D02*
X188738748Y-117290000D01*
G04 #@! TO.C,R73*
X174531748Y-96607000D02*
X175054252Y-96607000D01*
X174531748Y-95187000D02*
X175054252Y-95187000D01*
G04 #@! TO.C,R66*
X135290000Y-112213748D02*
X135290000Y-112736252D01*
X136710000Y-112213748D02*
X136710000Y-112736252D01*
G04 #@! TO.C,R65*
X132790000Y-112238748D02*
X132790000Y-112761252D01*
X134210000Y-112238748D02*
X134210000Y-112761252D01*
G04 #@! TO.C,R64*
X131710000Y-112263748D02*
X131710000Y-112786252D01*
X130290000Y-112263748D02*
X130290000Y-112786252D01*
G04 #@! TO.C,R63*
X127790000Y-112263748D02*
X127790000Y-112786252D01*
X129210000Y-112263748D02*
X129210000Y-112786252D01*
G04 #@! TO.C,R24*
X188963748Y-115710000D02*
X189486252Y-115710000D01*
X188963748Y-114290000D02*
X189486252Y-114290000D01*
G04 #@! TO.C,R25*
X189013748Y-112710000D02*
X189536252Y-112710000D01*
X189013748Y-111290000D02*
X189536252Y-111290000D01*
G04 #@! TO.C,R27*
X189511252Y-109710000D02*
X188988748Y-109710000D01*
X189511252Y-108290000D02*
X188988748Y-108290000D01*
G04 #@! TO.C,R28*
X188988748Y-105290000D02*
X189511252Y-105290000D01*
X188988748Y-106710000D02*
X189511252Y-106710000D01*
G04 #@! TO.C,R29*
X200761252Y-109790000D02*
X200238748Y-109790000D01*
X200761252Y-111210000D02*
X200238748Y-111210000D01*
G04 #@! TO.C,R210*
X200786252Y-114210000D02*
X200263748Y-114210000D01*
X200786252Y-112790000D02*
X200263748Y-112790000D01*
G04 #@! TO.C,U1*
X134965400Y-100500000D02*
X135262385Y-100796985D01*
X140000000Y-105534600D02*
X139703015Y-105237615D01*
X145034600Y-100500000D02*
X144737615Y-100203015D01*
X140000000Y-95465400D02*
X139703015Y-95762385D01*
X140000000Y-105534600D02*
X140296985Y-105237615D01*
X134965400Y-100500000D02*
X135262385Y-100203015D01*
X140296985Y-95762385D02*
X141272792Y-94786577D01*
X140000000Y-95465400D02*
X140296985Y-95762385D01*
X145034600Y-100500000D02*
X144737615Y-100796985D01*
D13*
G04 #@! TO.C,U6*
X162575000Y-108425000D02*
X162575000Y-108475000D01*
X158425000Y-108425000D02*
X158425000Y-108570000D01*
X158425000Y-113575000D02*
X158425000Y-113430000D01*
X162575000Y-113575000D02*
X162575000Y-113430000D01*
X162575000Y-108425000D02*
X158425000Y-108425000D01*
X162575000Y-113575000D02*
X158425000Y-113575000D01*
X162575000Y-108475000D02*
X163975000Y-108475000D01*
D12*
G04 #@! TO.C,Y1*
X153400000Y-90050000D02*
X137425000Y-90050000D01*
X137425000Y-90050000D02*
X137425000Y-84950000D01*
X137425000Y-84950000D02*
X153400000Y-84950000D01*
G04 #@! TO.C,C12*
X100540000Y-116761252D02*
X100540000Y-116238748D01*
X101960000Y-116761252D02*
X101960000Y-116238748D01*
G04 #@! TO.C,C13*
X86540000Y-124488748D02*
X86540000Y-125011252D01*
X87960000Y-124488748D02*
X87960000Y-125011252D01*
G04 #@! TO.C,C14*
X104710000Y-116238748D02*
X104710000Y-116761252D01*
X103290000Y-116238748D02*
X103290000Y-116761252D01*
G04 #@! TO.C,C15*
X105790000Y-116238748D02*
X105790000Y-116761252D01*
X107210000Y-116238748D02*
X107210000Y-116761252D01*
G04 #@! TO.C,C16*
X108620000Y-124250000D02*
G75*
G03X108620000Y-124250000I-4120000J0D01*
G01*
X108580000Y-124250000D02*
X100420000Y-124250000D01*
X108580000Y-124210000D02*
X100420000Y-124210000D01*
X108580000Y-124170000D02*
X100420000Y-124170000D01*
X108579000Y-124130000D02*
X100421000Y-124130000D01*
X108577000Y-124090000D02*
X100423000Y-124090000D01*
X108576000Y-124050000D02*
X100424000Y-124050000D01*
X108574000Y-124010000D02*
X100426000Y-124010000D01*
X108571000Y-123970000D02*
X100429000Y-123970000D01*
X108568000Y-123930000D02*
X100432000Y-123930000D01*
X108565000Y-123890000D02*
X100435000Y-123890000D01*
X108561000Y-123850000D02*
X100439000Y-123850000D01*
X108557000Y-123810000D02*
X100443000Y-123810000D01*
X108552000Y-123770000D02*
X100448000Y-123770000D01*
X108548000Y-123730000D02*
X100452000Y-123730000D01*
X108542000Y-123690000D02*
X100458000Y-123690000D01*
X108537000Y-123650000D02*
X100463000Y-123650000D01*
X108530000Y-123610000D02*
X100470000Y-123610000D01*
X108524000Y-123570000D02*
X100476000Y-123570000D01*
X108517000Y-123529000D02*
X105540000Y-123529000D01*
X103460000Y-123529000D02*
X100483000Y-123529000D01*
X108510000Y-123489000D02*
X105540000Y-123489000D01*
X103460000Y-123489000D02*
X100490000Y-123489000D01*
X108502000Y-123449000D02*
X105540000Y-123449000D01*
X103460000Y-123449000D02*
X100498000Y-123449000D01*
X108494000Y-123409000D02*
X105540000Y-123409000D01*
X103460000Y-123409000D02*
X100506000Y-123409000D01*
X108485000Y-123369000D02*
X105540000Y-123369000D01*
X103460000Y-123369000D02*
X100515000Y-123369000D01*
X108476000Y-123329000D02*
X105540000Y-123329000D01*
X103460000Y-123329000D02*
X100524000Y-123329000D01*
X108467000Y-123289000D02*
X105540000Y-123289000D01*
X103460000Y-123289000D02*
X100533000Y-123289000D01*
X108457000Y-123249000D02*
X105540000Y-123249000D01*
X103460000Y-123249000D02*
X100543000Y-123249000D01*
X108447000Y-123209000D02*
X105540000Y-123209000D01*
X103460000Y-123209000D02*
X100553000Y-123209000D01*
X108436000Y-123169000D02*
X105540000Y-123169000D01*
X103460000Y-123169000D02*
X100564000Y-123169000D01*
X108425000Y-123129000D02*
X105540000Y-123129000D01*
X103460000Y-123129000D02*
X100575000Y-123129000D01*
X108414000Y-123089000D02*
X105540000Y-123089000D01*
X103460000Y-123089000D02*
X100586000Y-123089000D01*
X108402000Y-123049000D02*
X105540000Y-123049000D01*
X103460000Y-123049000D02*
X100598000Y-123049000D01*
X108389000Y-123009000D02*
X105540000Y-123009000D01*
X103460000Y-123009000D02*
X100611000Y-123009000D01*
X108377000Y-122969000D02*
X105540000Y-122969000D01*
X103460000Y-122969000D02*
X100623000Y-122969000D01*
X108363000Y-122929000D02*
X105540000Y-122929000D01*
X103460000Y-122929000D02*
X100637000Y-122929000D01*
X108350000Y-122889000D02*
X105540000Y-122889000D01*
X103460000Y-122889000D02*
X100650000Y-122889000D01*
X108335000Y-122849000D02*
X105540000Y-122849000D01*
X103460000Y-122849000D02*
X100665000Y-122849000D01*
X108321000Y-122809000D02*
X105540000Y-122809000D01*
X103460000Y-122809000D02*
X100679000Y-122809000D01*
X108305000Y-122769000D02*
X105540000Y-122769000D01*
X103460000Y-122769000D02*
X100695000Y-122769000D01*
X108290000Y-122729000D02*
X105540000Y-122729000D01*
X103460000Y-122729000D02*
X100710000Y-122729000D01*
X108274000Y-122689000D02*
X105540000Y-122689000D01*
X103460000Y-122689000D02*
X100726000Y-122689000D01*
X108257000Y-122649000D02*
X105540000Y-122649000D01*
X103460000Y-122649000D02*
X100743000Y-122649000D01*
X108240000Y-122609000D02*
X105540000Y-122609000D01*
X103460000Y-122609000D02*
X100760000Y-122609000D01*
X108222000Y-122569000D02*
X105540000Y-122569000D01*
X103460000Y-122569000D02*
X100778000Y-122569000D01*
X108204000Y-122529000D02*
X105540000Y-122529000D01*
X103460000Y-122529000D02*
X100796000Y-122529000D01*
X108186000Y-122489000D02*
X105540000Y-122489000D01*
X103460000Y-122489000D02*
X100814000Y-122489000D01*
X108166000Y-122449000D02*
X105540000Y-122449000D01*
X103460000Y-122449000D02*
X100834000Y-122449000D01*
X108147000Y-122409000D02*
X105540000Y-122409000D01*
X103460000Y-122409000D02*
X100853000Y-122409000D01*
X108127000Y-122369000D02*
X105540000Y-122369000D01*
X103460000Y-122369000D02*
X100873000Y-122369000D01*
X108106000Y-122329000D02*
X105540000Y-122329000D01*
X103460000Y-122329000D02*
X100894000Y-122329000D01*
X108084000Y-122289000D02*
X105540000Y-122289000D01*
X103460000Y-122289000D02*
X100916000Y-122289000D01*
X108062000Y-122249000D02*
X105540000Y-122249000D01*
X103460000Y-122249000D02*
X100938000Y-122249000D01*
X108040000Y-122209000D02*
X105540000Y-122209000D01*
X103460000Y-122209000D02*
X100960000Y-122209000D01*
X108017000Y-122169000D02*
X105540000Y-122169000D01*
X103460000Y-122169000D02*
X100983000Y-122169000D01*
X107993000Y-122129000D02*
X105540000Y-122129000D01*
X103460000Y-122129000D02*
X101007000Y-122129000D01*
X107969000Y-122089000D02*
X105540000Y-122089000D01*
X103460000Y-122089000D02*
X101031000Y-122089000D01*
X107944000Y-122049000D02*
X105540000Y-122049000D01*
X103460000Y-122049000D02*
X101056000Y-122049000D01*
X107918000Y-122009000D02*
X105540000Y-122009000D01*
X103460000Y-122009000D02*
X101082000Y-122009000D01*
X107892000Y-121969000D02*
X105540000Y-121969000D01*
X103460000Y-121969000D02*
X101108000Y-121969000D01*
X107865000Y-121929000D02*
X105540000Y-121929000D01*
X103460000Y-121929000D02*
X101135000Y-121929000D01*
X107838000Y-121889000D02*
X105540000Y-121889000D01*
X103460000Y-121889000D02*
X101162000Y-121889000D01*
X107809000Y-121849000D02*
X105540000Y-121849000D01*
X103460000Y-121849000D02*
X101191000Y-121849000D01*
X107780000Y-121809000D02*
X105540000Y-121809000D01*
X103460000Y-121809000D02*
X101220000Y-121809000D01*
X107750000Y-121769000D02*
X105540000Y-121769000D01*
X103460000Y-121769000D02*
X101250000Y-121769000D01*
X107720000Y-121729000D02*
X105540000Y-121729000D01*
X103460000Y-121729000D02*
X101280000Y-121729000D01*
X107689000Y-121689000D02*
X105540000Y-121689000D01*
X103460000Y-121689000D02*
X101311000Y-121689000D01*
X107656000Y-121649000D02*
X105540000Y-121649000D01*
X103460000Y-121649000D02*
X101344000Y-121649000D01*
X107624000Y-121609000D02*
X105540000Y-121609000D01*
X103460000Y-121609000D02*
X101376000Y-121609000D01*
X107590000Y-121569000D02*
X105540000Y-121569000D01*
X103460000Y-121569000D02*
X101410000Y-121569000D01*
X107555000Y-121529000D02*
X105540000Y-121529000D01*
X103460000Y-121529000D02*
X101445000Y-121529000D01*
X107519000Y-121489000D02*
X105540000Y-121489000D01*
X103460000Y-121489000D02*
X101481000Y-121489000D01*
X107483000Y-121449000D02*
X101517000Y-121449000D01*
X107445000Y-121409000D02*
X101555000Y-121409000D01*
X107407000Y-121369000D02*
X101593000Y-121369000D01*
X107367000Y-121329000D02*
X101633000Y-121329000D01*
X107326000Y-121289000D02*
X101674000Y-121289000D01*
X107284000Y-121249000D02*
X101716000Y-121249000D01*
X107241000Y-121209000D02*
X101759000Y-121209000D01*
X107197000Y-121169000D02*
X101803000Y-121169000D01*
X107151000Y-121129000D02*
X101849000Y-121129000D01*
X107104000Y-121089000D02*
X101896000Y-121089000D01*
X107056000Y-121049000D02*
X101944000Y-121049000D01*
X107005000Y-121009000D02*
X101995000Y-121009000D01*
X106954000Y-120969000D02*
X102046000Y-120969000D01*
X106900000Y-120929000D02*
X102100000Y-120929000D01*
X106845000Y-120889000D02*
X102155000Y-120889000D01*
X106787000Y-120849000D02*
X102213000Y-120849000D01*
X106728000Y-120809000D02*
X102272000Y-120809000D01*
X106666000Y-120769000D02*
X102334000Y-120769000D01*
X106602000Y-120729000D02*
X102398000Y-120729000D01*
X106534000Y-120689000D02*
X102466000Y-120689000D01*
X106464000Y-120649000D02*
X102536000Y-120649000D01*
X106390000Y-120609000D02*
X102610000Y-120609000D01*
X106313000Y-120569000D02*
X102687000Y-120569000D01*
X106231000Y-120529000D02*
X102769000Y-120529000D01*
X106145000Y-120489000D02*
X102855000Y-120489000D01*
X106052000Y-120449000D02*
X102948000Y-120449000D01*
X105953000Y-120409000D02*
X103047000Y-120409000D01*
X105846000Y-120369000D02*
X103154000Y-120369000D01*
X105729000Y-120329000D02*
X103271000Y-120329000D01*
X105598000Y-120289000D02*
X103402000Y-120289000D01*
X105448000Y-120249000D02*
X103552000Y-120249000D01*
X105268000Y-120209000D02*
X103732000Y-120209000D01*
X105033000Y-120169000D02*
X103967000Y-120169000D01*
X106815000Y-128659698D02*
X106815000Y-127859698D01*
X107215000Y-128259698D02*
X106415000Y-128259698D01*
G04 #@! TO.C,C21*
X87788748Y-87710000D02*
X88311252Y-87710000D01*
X87788748Y-86290000D02*
X88311252Y-86290000D01*
G04 #@! TO.C,C22*
X178988748Y-112960000D02*
X179511252Y-112960000D01*
X178988748Y-111540000D02*
X179511252Y-111540000D01*
G04 #@! TO.C,C25*
X139210000Y-112238748D02*
X139210000Y-112761252D01*
X137790000Y-112238748D02*
X137790000Y-112761252D01*
G04 #@! TO.C,D1*
X121000000Y-121250000D02*
X121000000Y-125150000D01*
X123000000Y-121250000D02*
X123000000Y-125150000D01*
X121000000Y-121250000D02*
X123000000Y-121250000D01*
G04 #@! TO.C,D2*
X110750000Y-132500000D02*
X110750000Y-130500000D01*
X110750000Y-130500000D02*
X114650000Y-130500000D01*
X110750000Y-132500000D02*
X114650000Y-132500000D01*
G04 #@! TO.C,D3*
X191250000Y-119750000D02*
X191250000Y-121750000D01*
X191250000Y-121750000D02*
X187350000Y-121750000D01*
X191250000Y-119750000D02*
X187350000Y-119750000D01*
G04 #@! TO.C,D4*
X105150000Y-129850000D02*
X105150000Y-133150000D01*
X105150000Y-133150000D02*
X98250000Y-133150000D01*
X105150000Y-129850000D02*
X98250000Y-129850000D01*
G04 #@! TO.C,D5*
X90500000Y-116500000D02*
X90500000Y-112600000D01*
X88500000Y-116500000D02*
X88500000Y-112600000D01*
X90500000Y-116500000D02*
X88500000Y-116500000D01*
G04 #@! TO.C,F1*
X113602064Y-127090000D02*
X112397936Y-127090000D01*
X113602064Y-128910000D02*
X112397936Y-128910000D01*
G04 #@! TO.C,R13*
X89790000Y-124488748D02*
X89790000Y-125011252D01*
X91210000Y-124488748D02*
X91210000Y-125011252D01*
G04 #@! TO.C,R14*
X93710000Y-125011252D02*
X93710000Y-124488748D01*
X92290000Y-125011252D02*
X92290000Y-124488748D01*
G04 #@! TO.C,R15*
X94790000Y-125011252D02*
X94790000Y-124488748D01*
X96210000Y-125011252D02*
X96210000Y-124488748D01*
G04 #@! TO.C,R16*
X105210000Y-102238748D02*
X105210000Y-102761252D01*
X103790000Y-102238748D02*
X103790000Y-102761252D01*
G04 #@! TO.C,R17*
X87290000Y-101988748D02*
X87290000Y-102511252D01*
X88710000Y-101988748D02*
X88710000Y-102511252D01*
G04 #@! TO.C,R26*
X200238748Y-106790000D02*
X200761252Y-106790000D01*
X200238748Y-108210000D02*
X200761252Y-108210000D01*
G04 #@! TO.C,R32*
X108540000Y-116761252D02*
X108540000Y-116238748D01*
X109960000Y-116761252D02*
X109960000Y-116238748D01*
G04 #@! TO.C,R62*
X121710000Y-112761252D02*
X121710000Y-112238748D01*
X120290000Y-112761252D02*
X120290000Y-112238748D01*
D13*
G04 #@! TO.C,U2*
X182000000Y-115545000D02*
X182000000Y-116200000D01*
X176500000Y-115545000D02*
X176500000Y-116295000D01*
X176500000Y-121955000D02*
X176500000Y-121205000D01*
X182000000Y-121955000D02*
X182000000Y-121205000D01*
X182000000Y-115545000D02*
X176500000Y-115545000D01*
X182000000Y-121955000D02*
X176500000Y-121955000D01*
X182000000Y-116200000D02*
X183750000Y-116200000D01*
G04 #@! TO.C,U3*
X182000000Y-104200000D02*
X183750000Y-104200000D01*
X182000000Y-109955000D02*
X176500000Y-109955000D01*
X182000000Y-103545000D02*
X176500000Y-103545000D01*
X182000000Y-109955000D02*
X182000000Y-109205000D01*
X176500000Y-109955000D02*
X176500000Y-109205000D01*
X176500000Y-103545000D02*
X176500000Y-104295000D01*
X182000000Y-103545000D02*
X182000000Y-104200000D01*
D12*
G04 #@! TO.C,U5*
X92610000Y-130350000D02*
X92610000Y-132150000D01*
X89390000Y-132150000D02*
X89390000Y-129700000D01*
G04 #@! TO.C,Y2*
X126125000Y-85075000D02*
X126125000Y-86425000D01*
X124375000Y-85075000D02*
X124375000Y-86425000D01*
G04 #@! TO.C,SW2*
D13*
X84354761Y-94116666D02*
X84402380Y-94259523D01*
X84402380Y-94497619D01*
X84354761Y-94592857D01*
X84307142Y-94640476D01*
X84211904Y-94688095D01*
X84116666Y-94688095D01*
X84021428Y-94640476D01*
X83973809Y-94592857D01*
X83926190Y-94497619D01*
X83878571Y-94307142D01*
X83830952Y-94211904D01*
X83783333Y-94164285D01*
X83688095Y-94116666D01*
X83592857Y-94116666D01*
X83497619Y-94164285D01*
X83450000Y-94211904D01*
X83402380Y-94307142D01*
X83402380Y-94545238D01*
X83450000Y-94688095D01*
X83402380Y-95021428D02*
X84402380Y-95259523D01*
X83688095Y-95450000D01*
X84402380Y-95640476D01*
X83402380Y-95878571D01*
X83497619Y-96211904D02*
X83450000Y-96259523D01*
X83402380Y-96354761D01*
X83402380Y-96592857D01*
X83450000Y-96688095D01*
X83497619Y-96735714D01*
X83592857Y-96783333D01*
X83688095Y-96783333D01*
X83830952Y-96735714D01*
X84402380Y-96164285D01*
X84402380Y-96783333D01*
G04 #@! TO.C,L1*
X83002380Y-124293333D02*
X83002380Y-123817142D01*
X82002380Y-123817142D01*
X83002380Y-125150476D02*
X83002380Y-124579047D01*
X83002380Y-124864761D02*
X82002380Y-124864761D01*
X82145238Y-124769523D01*
X82240476Y-124674285D01*
X82288095Y-124579047D01*
G04 #@! TO.C,SW1*
X84354761Y-105366666D02*
X84402380Y-105509523D01*
X84402380Y-105747619D01*
X84354761Y-105842857D01*
X84307142Y-105890476D01*
X84211904Y-105938095D01*
X84116666Y-105938095D01*
X84021428Y-105890476D01*
X83973809Y-105842857D01*
X83926190Y-105747619D01*
X83878571Y-105557142D01*
X83830952Y-105461904D01*
X83783333Y-105414285D01*
X83688095Y-105366666D01*
X83592857Y-105366666D01*
X83497619Y-105414285D01*
X83450000Y-105461904D01*
X83402380Y-105557142D01*
X83402380Y-105795238D01*
X83450000Y-105938095D01*
X83402380Y-106271428D02*
X84402380Y-106509523D01*
X83688095Y-106700000D01*
X84402380Y-106890476D01*
X83402380Y-107128571D01*
X84402380Y-108033333D02*
X84402380Y-107461904D01*
X84402380Y-107747619D02*
X83402380Y-107747619D01*
X83545238Y-107652380D01*
X83640476Y-107557142D01*
X83688095Y-107461904D01*
G04 #@! TO.C,TP1*
X151761904Y-113202380D02*
X151190476Y-113202380D01*
X151476190Y-114202380D02*
X151476190Y-113202380D01*
X150857142Y-114202380D02*
X150857142Y-113202380D01*
X150476190Y-113202380D01*
X150380952Y-113250000D01*
X150333333Y-113297619D01*
X150285714Y-113392857D01*
X150285714Y-113535714D01*
X150333333Y-113630952D01*
X150380952Y-113678571D01*
X150476190Y-113726190D01*
X150857142Y-113726190D01*
X149333333Y-114202380D02*
X149904761Y-114202380D01*
X149619047Y-114202380D02*
X149619047Y-113202380D01*
X149714285Y-113345238D01*
X149809523Y-113440476D01*
X149904761Y-113488095D01*
G04 #@! TO.C,TP3*
X116511904Y-120452380D02*
X115940476Y-120452380D01*
X116226190Y-121452380D02*
X116226190Y-120452380D01*
X115607142Y-121452380D02*
X115607142Y-120452380D01*
X115226190Y-120452380D01*
X115130952Y-120500000D01*
X115083333Y-120547619D01*
X115035714Y-120642857D01*
X115035714Y-120785714D01*
X115083333Y-120880952D01*
X115130952Y-120928571D01*
X115226190Y-120976190D01*
X115607142Y-120976190D01*
X114702380Y-120452380D02*
X114083333Y-120452380D01*
X114416666Y-120833333D01*
X114273809Y-120833333D01*
X114178571Y-120880952D01*
X114130952Y-120928571D01*
X114083333Y-121023809D01*
X114083333Y-121261904D01*
X114130952Y-121357142D01*
X114178571Y-121404761D01*
X114273809Y-121452380D01*
X114559523Y-121452380D01*
X114654761Y-121404761D01*
X114702380Y-121357142D01*
G04 #@! TO.C,TP4*
X109011904Y-133202380D02*
X108440476Y-133202380D01*
X108726190Y-134202380D02*
X108726190Y-133202380D01*
X108107142Y-134202380D02*
X108107142Y-133202380D01*
X107726190Y-133202380D01*
X107630952Y-133250000D01*
X107583333Y-133297619D01*
X107535714Y-133392857D01*
X107535714Y-133535714D01*
X107583333Y-133630952D01*
X107630952Y-133678571D01*
X107726190Y-133726190D01*
X108107142Y-133726190D01*
X106678571Y-133535714D02*
X106678571Y-134202380D01*
X106916666Y-133154761D02*
X107154761Y-133869047D01*
X106535714Y-133869047D01*
G04 #@! TO.C,TP5*
X90011904Y-83952380D02*
X89440476Y-83952380D01*
X89726190Y-84952380D02*
X89726190Y-83952380D01*
X89107142Y-84952380D02*
X89107142Y-83952380D01*
X88726190Y-83952380D01*
X88630952Y-84000000D01*
X88583333Y-84047619D01*
X88535714Y-84142857D01*
X88535714Y-84285714D01*
X88583333Y-84380952D01*
X88630952Y-84428571D01*
X88726190Y-84476190D01*
X89107142Y-84476190D01*
X87630952Y-83952380D02*
X88107142Y-83952380D01*
X88154761Y-84428571D01*
X88107142Y-84380952D01*
X88011904Y-84333333D01*
X87773809Y-84333333D01*
X87678571Y-84380952D01*
X87630952Y-84428571D01*
X87583333Y-84523809D01*
X87583333Y-84761904D01*
X87630952Y-84857142D01*
X87678571Y-84904761D01*
X87773809Y-84952380D01*
X88011904Y-84952380D01*
X88107142Y-84904761D01*
X88154761Y-84857142D01*
G04 #@! TO.C,TP7*
X166761904Y-84952380D02*
X166190476Y-84952380D01*
X166476190Y-85952380D02*
X166476190Y-84952380D01*
X165857142Y-85952380D02*
X165857142Y-84952380D01*
X165476190Y-84952380D01*
X165380952Y-85000000D01*
X165333333Y-85047619D01*
X165285714Y-85142857D01*
X165285714Y-85285714D01*
X165333333Y-85380952D01*
X165380952Y-85428571D01*
X165476190Y-85476190D01*
X165857142Y-85476190D01*
X164952380Y-84952380D02*
X164285714Y-84952380D01*
X164714285Y-85952380D01*
G04 #@! TO.C,TP8*
X171261904Y-84952380D02*
X170690476Y-84952380D01*
X170976190Y-85952380D02*
X170976190Y-84952380D01*
X170357142Y-85952380D02*
X170357142Y-84952380D01*
X169976190Y-84952380D01*
X169880952Y-85000000D01*
X169833333Y-85047619D01*
X169785714Y-85142857D01*
X169785714Y-85285714D01*
X169833333Y-85380952D01*
X169880952Y-85428571D01*
X169976190Y-85476190D01*
X170357142Y-85476190D01*
X169214285Y-85380952D02*
X169309523Y-85333333D01*
X169357142Y-85285714D01*
X169404761Y-85190476D01*
X169404761Y-85142857D01*
X169357142Y-85047619D01*
X169309523Y-85000000D01*
X169214285Y-84952380D01*
X169023809Y-84952380D01*
X168928571Y-85000000D01*
X168880952Y-85047619D01*
X168833333Y-85142857D01*
X168833333Y-85190476D01*
X168880952Y-85285714D01*
X168928571Y-85333333D01*
X169023809Y-85380952D01*
X169214285Y-85380952D01*
X169309523Y-85428571D01*
X169357142Y-85476190D01*
X169404761Y-85571428D01*
X169404761Y-85761904D01*
X169357142Y-85857142D01*
X169309523Y-85904761D01*
X169214285Y-85952380D01*
X169023809Y-85952380D01*
X168928571Y-85904761D01*
X168880952Y-85857142D01*
X168833333Y-85761904D01*
X168833333Y-85571428D01*
X168880952Y-85476190D01*
X168928571Y-85428571D01*
X169023809Y-85380952D01*
G04 #@! TO.C,TP9*
X192511904Y-93100380D02*
X191940476Y-93100380D01*
X192226190Y-94100380D02*
X192226190Y-93100380D01*
X191607142Y-94100380D02*
X191607142Y-93100380D01*
X191226190Y-93100380D01*
X191130952Y-93148000D01*
X191083333Y-93195619D01*
X191035714Y-93290857D01*
X191035714Y-93433714D01*
X191083333Y-93528952D01*
X191130952Y-93576571D01*
X191226190Y-93624190D01*
X191607142Y-93624190D01*
X190559523Y-94100380D02*
X190369047Y-94100380D01*
X190273809Y-94052761D01*
X190226190Y-94005142D01*
X190130952Y-93862285D01*
X190083333Y-93671809D01*
X190083333Y-93290857D01*
X190130952Y-93195619D01*
X190178571Y-93148000D01*
X190273809Y-93100380D01*
X190464285Y-93100380D01*
X190559523Y-93148000D01*
X190607142Y-93195619D01*
X190654761Y-93290857D01*
X190654761Y-93528952D01*
X190607142Y-93624190D01*
X190559523Y-93671809D01*
X190464285Y-93719428D01*
X190273809Y-93719428D01*
X190178571Y-93671809D01*
X190130952Y-93624190D01*
X190083333Y-93528952D01*
G04 #@! TO.C,TP10*
X163988095Y-119702380D02*
X163416666Y-119702380D01*
X163702380Y-120702380D02*
X163702380Y-119702380D01*
X163083333Y-120702380D02*
X163083333Y-119702380D01*
X162702380Y-119702380D01*
X162607142Y-119750000D01*
X162559523Y-119797619D01*
X162511904Y-119892857D01*
X162511904Y-120035714D01*
X162559523Y-120130952D01*
X162607142Y-120178571D01*
X162702380Y-120226190D01*
X163083333Y-120226190D01*
X161559523Y-120702380D02*
X162130952Y-120702380D01*
X161845238Y-120702380D02*
X161845238Y-119702380D01*
X161940476Y-119845238D01*
X162035714Y-119940476D01*
X162130952Y-119988095D01*
X160940476Y-119702380D02*
X160845238Y-119702380D01*
X160750000Y-119750000D01*
X160702380Y-119797619D01*
X160654761Y-119892857D01*
X160607142Y-120083333D01*
X160607142Y-120321428D01*
X160654761Y-120511904D01*
X160702380Y-120607142D01*
X160750000Y-120654761D01*
X160845238Y-120702380D01*
X160940476Y-120702380D01*
X161035714Y-120654761D01*
X161083333Y-120607142D01*
X161130952Y-120511904D01*
X161178571Y-120321428D01*
X161178571Y-120083333D01*
X161130952Y-119892857D01*
X161083333Y-119797619D01*
X161035714Y-119750000D01*
X160940476Y-119702380D01*
G04 #@! TO.C,TP11*
X173488095Y-119702380D02*
X172916666Y-119702380D01*
X173202380Y-120702380D02*
X173202380Y-119702380D01*
X172583333Y-120702380D02*
X172583333Y-119702380D01*
X172202380Y-119702380D01*
X172107142Y-119750000D01*
X172059523Y-119797619D01*
X172011904Y-119892857D01*
X172011904Y-120035714D01*
X172059523Y-120130952D01*
X172107142Y-120178571D01*
X172202380Y-120226190D01*
X172583333Y-120226190D01*
X171059523Y-120702380D02*
X171630952Y-120702380D01*
X171345238Y-120702380D02*
X171345238Y-119702380D01*
X171440476Y-119845238D01*
X171535714Y-119940476D01*
X171630952Y-119988095D01*
X170107142Y-120702380D02*
X170678571Y-120702380D01*
X170392857Y-120702380D02*
X170392857Y-119702380D01*
X170488095Y-119845238D01*
X170583333Y-119940476D01*
X170678571Y-119988095D01*
G04 #@! TO.C,TP12*
X183452380Y-94511904D02*
X183452380Y-95083333D01*
X184452380Y-94797619D02*
X183452380Y-94797619D01*
X184452380Y-95416666D02*
X183452380Y-95416666D01*
X183452380Y-95797619D01*
X183500000Y-95892857D01*
X183547619Y-95940476D01*
X183642857Y-95988095D01*
X183785714Y-95988095D01*
X183880952Y-95940476D01*
X183928571Y-95892857D01*
X183976190Y-95797619D01*
X183976190Y-95416666D01*
X184452380Y-96940476D02*
X184452380Y-96369047D01*
X184452380Y-96654761D02*
X183452380Y-96654761D01*
X183595238Y-96559523D01*
X183690476Y-96464285D01*
X183738095Y-96369047D01*
X183547619Y-97321428D02*
X183500000Y-97369047D01*
X183452380Y-97464285D01*
X183452380Y-97702380D01*
X183500000Y-97797619D01*
X183547619Y-97845238D01*
X183642857Y-97892857D01*
X183738095Y-97892857D01*
X183880952Y-97845238D01*
X184452380Y-97273809D01*
X184452380Y-97892857D01*
G04 #@! TO.C,TP13*
X98738095Y-110152380D02*
X98166666Y-110152380D01*
X98452380Y-111152380D02*
X98452380Y-110152380D01*
X97833333Y-111152380D02*
X97833333Y-110152380D01*
X97452380Y-110152380D01*
X97357142Y-110200000D01*
X97309523Y-110247619D01*
X97261904Y-110342857D01*
X97261904Y-110485714D01*
X97309523Y-110580952D01*
X97357142Y-110628571D01*
X97452380Y-110676190D01*
X97833333Y-110676190D01*
X96309523Y-111152380D02*
X96880952Y-111152380D01*
X96595238Y-111152380D02*
X96595238Y-110152380D01*
X96690476Y-110295238D01*
X96785714Y-110390476D01*
X96880952Y-110438095D01*
X95976190Y-110152380D02*
X95357142Y-110152380D01*
X95690476Y-110533333D01*
X95547619Y-110533333D01*
X95452380Y-110580952D01*
X95404761Y-110628571D01*
X95357142Y-110723809D01*
X95357142Y-110961904D01*
X95404761Y-111057142D01*
X95452380Y-111104761D01*
X95547619Y-111152380D01*
X95833333Y-111152380D01*
X95928571Y-111104761D01*
X95976190Y-111057142D01*
G04 #@! TO.C,TP14*
X108488095Y-83202380D02*
X107916666Y-83202380D01*
X108202380Y-84202380D02*
X108202380Y-83202380D01*
X107583333Y-84202380D02*
X107583333Y-83202380D01*
X107202380Y-83202380D01*
X107107142Y-83250000D01*
X107059523Y-83297619D01*
X107011904Y-83392857D01*
X107011904Y-83535714D01*
X107059523Y-83630952D01*
X107107142Y-83678571D01*
X107202380Y-83726190D01*
X107583333Y-83726190D01*
X106059523Y-84202380D02*
X106630952Y-84202380D01*
X106345238Y-84202380D02*
X106345238Y-83202380D01*
X106440476Y-83345238D01*
X106535714Y-83440476D01*
X106630952Y-83488095D01*
X105202380Y-83535714D02*
X105202380Y-84202380D01*
X105440476Y-83154761D02*
X105678571Y-83869047D01*
X105059523Y-83869047D01*
G04 #@! TO.C,TP15*
X187702380Y-94511904D02*
X187702380Y-95083333D01*
X188702380Y-94797619D02*
X187702380Y-94797619D01*
X188702380Y-95416666D02*
X187702380Y-95416666D01*
X187702380Y-95797619D01*
X187750000Y-95892857D01*
X187797619Y-95940476D01*
X187892857Y-95988095D01*
X188035714Y-95988095D01*
X188130952Y-95940476D01*
X188178571Y-95892857D01*
X188226190Y-95797619D01*
X188226190Y-95416666D01*
X188702380Y-96940476D02*
X188702380Y-96369047D01*
X188702380Y-96654761D02*
X187702380Y-96654761D01*
X187845238Y-96559523D01*
X187940476Y-96464285D01*
X187988095Y-96369047D01*
X187702380Y-97845238D02*
X187702380Y-97369047D01*
X188178571Y-97321428D01*
X188130952Y-97369047D01*
X188083333Y-97464285D01*
X188083333Y-97702380D01*
X188130952Y-97797619D01*
X188178571Y-97845238D01*
X188273809Y-97892857D01*
X188511904Y-97892857D01*
X188607142Y-97845238D01*
X188654761Y-97797619D01*
X188702380Y-97702380D01*
X188702380Y-97464285D01*
X188654761Y-97369047D01*
X188607142Y-97321428D01*
G04 #@! TO.C,TP16*
X179452380Y-94261904D02*
X179452380Y-94833333D01*
X180452380Y-94547619D02*
X179452380Y-94547619D01*
X180452380Y-95166666D02*
X179452380Y-95166666D01*
X179452380Y-95547619D01*
X179500000Y-95642857D01*
X179547619Y-95690476D01*
X179642857Y-95738095D01*
X179785714Y-95738095D01*
X179880952Y-95690476D01*
X179928571Y-95642857D01*
X179976190Y-95547619D01*
X179976190Y-95166666D01*
X180452380Y-96690476D02*
X180452380Y-96119047D01*
X180452380Y-96404761D02*
X179452380Y-96404761D01*
X179595238Y-96309523D01*
X179690476Y-96214285D01*
X179738095Y-96119047D01*
X179452380Y-97547619D02*
X179452380Y-97357142D01*
X179500000Y-97261904D01*
X179547619Y-97214285D01*
X179690476Y-97119047D01*
X179880952Y-97071428D01*
X180261904Y-97071428D01*
X180357142Y-97119047D01*
X180404761Y-97166666D01*
X180452380Y-97261904D01*
X180452380Y-97452380D01*
X180404761Y-97547619D01*
X180357142Y-97595238D01*
X180261904Y-97642857D01*
X180023809Y-97642857D01*
X179928571Y-97595238D01*
X179880952Y-97547619D01*
X179833333Y-97452380D01*
X179833333Y-97261904D01*
X179880952Y-97166666D01*
X179928571Y-97119047D01*
X180023809Y-97071428D01*
G04 #@! TO.C,TP20*
X149738095Y-120850380D02*
X149166666Y-120850380D01*
X149452380Y-121850380D02*
X149452380Y-120850380D01*
X148833333Y-121850380D02*
X148833333Y-120850380D01*
X148452380Y-120850380D01*
X148357142Y-120898000D01*
X148309523Y-120945619D01*
X148261904Y-121040857D01*
X148261904Y-121183714D01*
X148309523Y-121278952D01*
X148357142Y-121326571D01*
X148452380Y-121374190D01*
X148833333Y-121374190D01*
X147880952Y-120945619D02*
X147833333Y-120898000D01*
X147738095Y-120850380D01*
X147500000Y-120850380D01*
X147404761Y-120898000D01*
X147357142Y-120945619D01*
X147309523Y-121040857D01*
X147309523Y-121136095D01*
X147357142Y-121278952D01*
X147928571Y-121850380D01*
X147309523Y-121850380D01*
X146690476Y-120850380D02*
X146595238Y-120850380D01*
X146500000Y-120898000D01*
X146452380Y-120945619D01*
X146404761Y-121040857D01*
X146357142Y-121231333D01*
X146357142Y-121469428D01*
X146404761Y-121659904D01*
X146452380Y-121755142D01*
X146500000Y-121802761D01*
X146595238Y-121850380D01*
X146690476Y-121850380D01*
X146785714Y-121802761D01*
X146833333Y-121755142D01*
X146880952Y-121659904D01*
X146928571Y-121469428D01*
X146928571Y-121231333D01*
X146880952Y-121040857D01*
X146833333Y-120945619D01*
X146785714Y-120898000D01*
X146690476Y-120850380D01*
G04 #@! TO.C,TP23*
X173738095Y-103952380D02*
X173166666Y-103952380D01*
X173452380Y-104952380D02*
X173452380Y-103952380D01*
X172833333Y-104952380D02*
X172833333Y-103952380D01*
X172452380Y-103952380D01*
X172357142Y-104000000D01*
X172309523Y-104047619D01*
X172261904Y-104142857D01*
X172261904Y-104285714D01*
X172309523Y-104380952D01*
X172357142Y-104428571D01*
X172452380Y-104476190D01*
X172833333Y-104476190D01*
X171880952Y-104047619D02*
X171833333Y-104000000D01*
X171738095Y-103952380D01*
X171500000Y-103952380D01*
X171404761Y-104000000D01*
X171357142Y-104047619D01*
X171309523Y-104142857D01*
X171309523Y-104238095D01*
X171357142Y-104380952D01*
X171928571Y-104952380D01*
X171309523Y-104952380D01*
X170976190Y-103952380D02*
X170357142Y-103952380D01*
X170690476Y-104333333D01*
X170547619Y-104333333D01*
X170452380Y-104380952D01*
X170404761Y-104428571D01*
X170357142Y-104523809D01*
X170357142Y-104761904D01*
X170404761Y-104857142D01*
X170452380Y-104904761D01*
X170547619Y-104952380D01*
X170833333Y-104952380D01*
X170928571Y-104904761D01*
X170976190Y-104857142D01*
G04 #@! TO.C,TP27*
X147488095Y-113202380D02*
X146916666Y-113202380D01*
X147202380Y-114202380D02*
X147202380Y-113202380D01*
X146583333Y-114202380D02*
X146583333Y-113202380D01*
X146202380Y-113202380D01*
X146107142Y-113250000D01*
X146059523Y-113297619D01*
X146011904Y-113392857D01*
X146011904Y-113535714D01*
X146059523Y-113630952D01*
X146107142Y-113678571D01*
X146202380Y-113726190D01*
X146583333Y-113726190D01*
X145630952Y-113297619D02*
X145583333Y-113250000D01*
X145488095Y-113202380D01*
X145250000Y-113202380D01*
X145154761Y-113250000D01*
X145107142Y-113297619D01*
X145059523Y-113392857D01*
X145059523Y-113488095D01*
X145107142Y-113630952D01*
X145678571Y-114202380D01*
X145059523Y-114202380D01*
X144726190Y-113202380D02*
X144059523Y-113202380D01*
X144488095Y-114202380D01*
G04 #@! TO.C,TP30*
X114488095Y-107054380D02*
X113916666Y-107054380D01*
X114202380Y-108054380D02*
X114202380Y-107054380D01*
X113583333Y-108054380D02*
X113583333Y-107054380D01*
X113202380Y-107054380D01*
X113107142Y-107102000D01*
X113059523Y-107149619D01*
X113011904Y-107244857D01*
X113011904Y-107387714D01*
X113059523Y-107482952D01*
X113107142Y-107530571D01*
X113202380Y-107578190D01*
X113583333Y-107578190D01*
X112678571Y-107054380D02*
X112059523Y-107054380D01*
X112392857Y-107435333D01*
X112250000Y-107435333D01*
X112154761Y-107482952D01*
X112107142Y-107530571D01*
X112059523Y-107625809D01*
X112059523Y-107863904D01*
X112107142Y-107959142D01*
X112154761Y-108006761D01*
X112250000Y-108054380D01*
X112535714Y-108054380D01*
X112630952Y-108006761D01*
X112678571Y-107959142D01*
X111440476Y-107054380D02*
X111345238Y-107054380D01*
X111250000Y-107102000D01*
X111202380Y-107149619D01*
X111154761Y-107244857D01*
X111107142Y-107435333D01*
X111107142Y-107673428D01*
X111154761Y-107863904D01*
X111202380Y-107959142D01*
X111250000Y-108006761D01*
X111345238Y-108054380D01*
X111440476Y-108054380D01*
X111535714Y-108006761D01*
X111583333Y-107959142D01*
X111630952Y-107863904D01*
X111678571Y-107673428D01*
X111678571Y-107435333D01*
X111630952Y-107244857D01*
X111583333Y-107149619D01*
X111535714Y-107102000D01*
X111440476Y-107054380D01*
G04 #@! TO.C,TP31*
X176988095Y-110702380D02*
X176416666Y-110702380D01*
X176702380Y-111702380D02*
X176702380Y-110702380D01*
X176083333Y-111702380D02*
X176083333Y-110702380D01*
X175702380Y-110702380D01*
X175607142Y-110750000D01*
X175559523Y-110797619D01*
X175511904Y-110892857D01*
X175511904Y-111035714D01*
X175559523Y-111130952D01*
X175607142Y-111178571D01*
X175702380Y-111226190D01*
X176083333Y-111226190D01*
X175178571Y-110702380D02*
X174559523Y-110702380D01*
X174892857Y-111083333D01*
X174750000Y-111083333D01*
X174654761Y-111130952D01*
X174607142Y-111178571D01*
X174559523Y-111273809D01*
X174559523Y-111511904D01*
X174607142Y-111607142D01*
X174654761Y-111654761D01*
X174750000Y-111702380D01*
X175035714Y-111702380D01*
X175130952Y-111654761D01*
X175178571Y-111607142D01*
X173607142Y-111702380D02*
X174178571Y-111702380D01*
X173892857Y-111702380D02*
X173892857Y-110702380D01*
X173988095Y-110845238D01*
X174083333Y-110940476D01*
X174178571Y-110988095D01*
G04 #@! TO.C,TP32*
X173738095Y-113702380D02*
X173166666Y-113702380D01*
X173452380Y-114702380D02*
X173452380Y-113702380D01*
X172833333Y-114702380D02*
X172833333Y-113702380D01*
X172452380Y-113702380D01*
X172357142Y-113750000D01*
X172309523Y-113797619D01*
X172261904Y-113892857D01*
X172261904Y-114035714D01*
X172309523Y-114130952D01*
X172357142Y-114178571D01*
X172452380Y-114226190D01*
X172833333Y-114226190D01*
X171928571Y-113702380D02*
X171309523Y-113702380D01*
X171642857Y-114083333D01*
X171500000Y-114083333D01*
X171404761Y-114130952D01*
X171357142Y-114178571D01*
X171309523Y-114273809D01*
X171309523Y-114511904D01*
X171357142Y-114607142D01*
X171404761Y-114654761D01*
X171500000Y-114702380D01*
X171785714Y-114702380D01*
X171880952Y-114654761D01*
X171928571Y-114607142D01*
X170928571Y-113797619D02*
X170880952Y-113750000D01*
X170785714Y-113702380D01*
X170547619Y-113702380D01*
X170452380Y-113750000D01*
X170404761Y-113797619D01*
X170357142Y-113892857D01*
X170357142Y-113988095D01*
X170404761Y-114130952D01*
X170976190Y-114702380D01*
X170357142Y-114702380D01*
G04 #@! TO.C,TP33*
X173738095Y-107452380D02*
X173166666Y-107452380D01*
X173452380Y-108452380D02*
X173452380Y-107452380D01*
X172833333Y-108452380D02*
X172833333Y-107452380D01*
X172452380Y-107452380D01*
X172357142Y-107500000D01*
X172309523Y-107547619D01*
X172261904Y-107642857D01*
X172261904Y-107785714D01*
X172309523Y-107880952D01*
X172357142Y-107928571D01*
X172452380Y-107976190D01*
X172833333Y-107976190D01*
X171928571Y-107452380D02*
X171309523Y-107452380D01*
X171642857Y-107833333D01*
X171500000Y-107833333D01*
X171404761Y-107880952D01*
X171357142Y-107928571D01*
X171309523Y-108023809D01*
X171309523Y-108261904D01*
X171357142Y-108357142D01*
X171404761Y-108404761D01*
X171500000Y-108452380D01*
X171785714Y-108452380D01*
X171880952Y-108404761D01*
X171928571Y-108357142D01*
X170976190Y-107452380D02*
X170357142Y-107452380D01*
X170690476Y-107833333D01*
X170547619Y-107833333D01*
X170452380Y-107880952D01*
X170404761Y-107928571D01*
X170357142Y-108023809D01*
X170357142Y-108261904D01*
X170404761Y-108357142D01*
X170452380Y-108404761D01*
X170547619Y-108452380D01*
X170833333Y-108452380D01*
X170928571Y-108404761D01*
X170976190Y-108357142D01*
G04 #@! TO.C,U4*
X96761904Y-91452380D02*
X96761904Y-92261904D01*
X96714285Y-92357142D01*
X96666666Y-92404761D01*
X96571428Y-92452380D01*
X96380952Y-92452380D01*
X96285714Y-92404761D01*
X96238095Y-92357142D01*
X96190476Y-92261904D01*
X96190476Y-91452380D01*
X95285714Y-91785714D02*
X95285714Y-92452380D01*
X95523809Y-91404761D02*
X95761904Y-92119047D01*
X95142857Y-92119047D01*
X100428571Y-94166666D02*
X99952380Y-94166666D01*
X100523809Y-94452380D02*
X100190476Y-93452380D01*
X99857142Y-94452380D01*
X99619047Y-93452380D02*
X98952380Y-93452380D01*
X99619047Y-94452380D01*
X98952380Y-94452380D01*
X98047619Y-94452380D02*
X98619047Y-94452380D01*
X98333333Y-94452380D02*
X98333333Y-93452380D01*
X98428571Y-93595238D01*
X98523809Y-93690476D01*
X98619047Y-93738095D01*
X97095238Y-94452380D02*
X97666666Y-94452380D01*
X97380952Y-94452380D02*
X97380952Y-93452380D01*
X97476190Y-93595238D01*
X97571428Y-93690476D01*
X97666666Y-93738095D01*
X96142857Y-94452380D02*
X96714285Y-94452380D01*
X96428571Y-94452380D02*
X96428571Y-93452380D01*
X96523809Y-93595238D01*
X96619047Y-93690476D01*
X96714285Y-93738095D01*
X95809523Y-93452380D02*
X95142857Y-93452380D01*
X95571428Y-94452380D01*
X94761904Y-94071428D02*
X94000000Y-94071428D01*
X93619047Y-93452380D02*
X93000000Y-93452380D01*
X93333333Y-93833333D01*
X93190476Y-93833333D01*
X93095238Y-93880952D01*
X93047619Y-93928571D01*
X93000000Y-94023809D01*
X93000000Y-94261904D01*
X93047619Y-94357142D01*
X93095238Y-94404761D01*
X93190476Y-94452380D01*
X93476190Y-94452380D01*
X93571428Y-94404761D01*
X93619047Y-94357142D01*
X92571428Y-94357142D02*
X92523809Y-94404761D01*
X92571428Y-94452380D01*
X92619047Y-94404761D01*
X92571428Y-94357142D01*
X92571428Y-94452380D01*
X92190476Y-93452380D02*
X91571428Y-93452380D01*
X91904761Y-93833333D01*
X91761904Y-93833333D01*
X91666666Y-93880952D01*
X91619047Y-93928571D01*
X91571428Y-94023809D01*
X91571428Y-94261904D01*
X91619047Y-94357142D01*
X91666666Y-94404761D01*
X91761904Y-94452380D01*
X92047619Y-94452380D01*
X92142857Y-94404761D01*
X92190476Y-94357142D01*
G04 #@! TO.C,J7*
X193452380Y-97666666D02*
X194166666Y-97666666D01*
X194309523Y-97619047D01*
X194404761Y-97523809D01*
X194452380Y-97380952D01*
X194452380Y-97285714D01*
X193452380Y-98047619D02*
X193452380Y-98714285D01*
X194452380Y-98285714D01*
G04 #@! TO.C,Q2*
X116095238Y-116047619D02*
X116190476Y-116000000D01*
X116285714Y-115904761D01*
X116428571Y-115761904D01*
X116523809Y-115714285D01*
X116619047Y-115714285D01*
X116571428Y-115952380D02*
X116666666Y-115904761D01*
X116761904Y-115809523D01*
X116809523Y-115619047D01*
X116809523Y-115285714D01*
X116761904Y-115095238D01*
X116666666Y-115000000D01*
X116571428Y-114952380D01*
X116380952Y-114952380D01*
X116285714Y-115000000D01*
X116190476Y-115095238D01*
X116142857Y-115285714D01*
X116142857Y-115619047D01*
X116190476Y-115809523D01*
X116285714Y-115904761D01*
X116380952Y-115952380D01*
X116571428Y-115952380D01*
X115761904Y-115047619D02*
X115714285Y-115000000D01*
X115619047Y-114952380D01*
X115380952Y-114952380D01*
X115285714Y-115000000D01*
X115238095Y-115047619D01*
X115190476Y-115142857D01*
X115190476Y-115238095D01*
X115238095Y-115380952D01*
X115809523Y-115952380D01*
X115190476Y-115952380D01*
G04 #@! TO.C,C17*
X91107142Y-105107142D02*
X91154761Y-105059523D01*
X91202380Y-104916666D01*
X91202380Y-104821428D01*
X91154761Y-104678571D01*
X91059523Y-104583333D01*
X90964285Y-104535714D01*
X90773809Y-104488095D01*
X90630952Y-104488095D01*
X90440476Y-104535714D01*
X90345238Y-104583333D01*
X90250000Y-104678571D01*
X90202380Y-104821428D01*
X90202380Y-104916666D01*
X90250000Y-105059523D01*
X90297619Y-105107142D01*
X91202380Y-106059523D02*
X91202380Y-105488095D01*
X91202380Y-105773809D02*
X90202380Y-105773809D01*
X90345238Y-105678571D01*
X90440476Y-105583333D01*
X90488095Y-105488095D01*
X90202380Y-106392857D02*
X90202380Y-107059523D01*
X91202380Y-106630952D01*
G04 #@! TO.C,C18*
X102357142Y-105357142D02*
X102404761Y-105309523D01*
X102452380Y-105166666D01*
X102452380Y-105071428D01*
X102404761Y-104928571D01*
X102309523Y-104833333D01*
X102214285Y-104785714D01*
X102023809Y-104738095D01*
X101880952Y-104738095D01*
X101690476Y-104785714D01*
X101595238Y-104833333D01*
X101500000Y-104928571D01*
X101452380Y-105071428D01*
X101452380Y-105166666D01*
X101500000Y-105309523D01*
X101547619Y-105357142D01*
X102452380Y-106309523D02*
X102452380Y-105738095D01*
X102452380Y-106023809D02*
X101452380Y-106023809D01*
X101595238Y-105928571D01*
X101690476Y-105833333D01*
X101738095Y-105738095D01*
X101880952Y-106880952D02*
X101833333Y-106785714D01*
X101785714Y-106738095D01*
X101690476Y-106690476D01*
X101642857Y-106690476D01*
X101547619Y-106738095D01*
X101500000Y-106785714D01*
X101452380Y-106880952D01*
X101452380Y-107071428D01*
X101500000Y-107166666D01*
X101547619Y-107214285D01*
X101642857Y-107261904D01*
X101690476Y-107261904D01*
X101785714Y-107214285D01*
X101833333Y-107166666D01*
X101880952Y-107071428D01*
X101880952Y-106880952D01*
X101928571Y-106785714D01*
X101976190Y-106738095D01*
X102071428Y-106690476D01*
X102261904Y-106690476D01*
X102357142Y-106738095D01*
X102404761Y-106785714D01*
X102452380Y-106880952D01*
X102452380Y-107071428D01*
X102404761Y-107166666D01*
X102357142Y-107214285D01*
X102261904Y-107261904D01*
X102071428Y-107261904D01*
X101976190Y-107214285D01*
X101928571Y-107166666D01*
X101880952Y-107071428D01*
G04 #@! TO.C,C11*
X129857142Y-119357142D02*
X129904761Y-119309523D01*
X129952380Y-119166666D01*
X129952380Y-119071428D01*
X129904761Y-118928571D01*
X129809523Y-118833333D01*
X129714285Y-118785714D01*
X129523809Y-118738095D01*
X129380952Y-118738095D01*
X129190476Y-118785714D01*
X129095238Y-118833333D01*
X129000000Y-118928571D01*
X128952380Y-119071428D01*
X128952380Y-119166666D01*
X129000000Y-119309523D01*
X129047619Y-119357142D01*
X129952380Y-120309523D02*
X129952380Y-119738095D01*
X129952380Y-120023809D02*
X128952380Y-120023809D01*
X129095238Y-119928571D01*
X129190476Y-119833333D01*
X129238095Y-119738095D01*
X129952380Y-121261904D02*
X129952380Y-120690476D01*
X129952380Y-120976190D02*
X128952380Y-120976190D01*
X129095238Y-120880952D01*
X129190476Y-120785714D01*
X129238095Y-120690476D01*
G04 #@! TO.C,C33*
X161142857Y-88007142D02*
X161190476Y-88054761D01*
X161333333Y-88102380D01*
X161428571Y-88102380D01*
X161571428Y-88054761D01*
X161666666Y-87959523D01*
X161714285Y-87864285D01*
X161761904Y-87673809D01*
X161761904Y-87530952D01*
X161714285Y-87340476D01*
X161666666Y-87245238D01*
X161571428Y-87150000D01*
X161428571Y-87102380D01*
X161333333Y-87102380D01*
X161190476Y-87150000D01*
X161142857Y-87197619D01*
X160809523Y-87102380D02*
X160190476Y-87102380D01*
X160523809Y-87483333D01*
X160380952Y-87483333D01*
X160285714Y-87530952D01*
X160238095Y-87578571D01*
X160190476Y-87673809D01*
X160190476Y-87911904D01*
X160238095Y-88007142D01*
X160285714Y-88054761D01*
X160380952Y-88102380D01*
X160666666Y-88102380D01*
X160761904Y-88054761D01*
X160809523Y-88007142D01*
X159857142Y-87102380D02*
X159238095Y-87102380D01*
X159571428Y-87483333D01*
X159428571Y-87483333D01*
X159333333Y-87530952D01*
X159285714Y-87578571D01*
X159238095Y-87673809D01*
X159238095Y-87911904D01*
X159285714Y-88007142D01*
X159333333Y-88054761D01*
X159428571Y-88102380D01*
X159714285Y-88102380D01*
X159809523Y-88054761D01*
X159857142Y-88007142D01*
G04 #@! TO.C,C32*
X164642857Y-94357142D02*
X164690476Y-94404761D01*
X164833333Y-94452380D01*
X164928571Y-94452380D01*
X165071428Y-94404761D01*
X165166666Y-94309523D01*
X165214285Y-94214285D01*
X165261904Y-94023809D01*
X165261904Y-93880952D01*
X165214285Y-93690476D01*
X165166666Y-93595238D01*
X165071428Y-93500000D01*
X164928571Y-93452380D01*
X164833333Y-93452380D01*
X164690476Y-93500000D01*
X164642857Y-93547619D01*
X164309523Y-93452380D02*
X163690476Y-93452380D01*
X164023809Y-93833333D01*
X163880952Y-93833333D01*
X163785714Y-93880952D01*
X163738095Y-93928571D01*
X163690476Y-94023809D01*
X163690476Y-94261904D01*
X163738095Y-94357142D01*
X163785714Y-94404761D01*
X163880952Y-94452380D01*
X164166666Y-94452380D01*
X164261904Y-94404761D01*
X164309523Y-94357142D01*
X163309523Y-93547619D02*
X163261904Y-93500000D01*
X163166666Y-93452380D01*
X162928571Y-93452380D01*
X162833333Y-93500000D01*
X162785714Y-93547619D01*
X162738095Y-93642857D01*
X162738095Y-93738095D01*
X162785714Y-93880952D01*
X163357142Y-94452380D01*
X162738095Y-94452380D01*
G04 #@! TO.C,C31*
X132617857Y-90507142D02*
X132665476Y-90554761D01*
X132808333Y-90602380D01*
X132903571Y-90602380D01*
X133046428Y-90554761D01*
X133141666Y-90459523D01*
X133189285Y-90364285D01*
X133236904Y-90173809D01*
X133236904Y-90030952D01*
X133189285Y-89840476D01*
X133141666Y-89745238D01*
X133046428Y-89650000D01*
X132903571Y-89602380D01*
X132808333Y-89602380D01*
X132665476Y-89650000D01*
X132617857Y-89697619D01*
X132284523Y-89602380D02*
X131665476Y-89602380D01*
X131998809Y-89983333D01*
X131855952Y-89983333D01*
X131760714Y-90030952D01*
X131713095Y-90078571D01*
X131665476Y-90173809D01*
X131665476Y-90411904D01*
X131713095Y-90507142D01*
X131760714Y-90554761D01*
X131855952Y-90602380D01*
X132141666Y-90602380D01*
X132236904Y-90554761D01*
X132284523Y-90507142D01*
X130713095Y-90602380D02*
X131284523Y-90602380D01*
X130998809Y-90602380D02*
X130998809Y-89602380D01*
X131094047Y-89745238D01*
X131189285Y-89840476D01*
X131284523Y-89888095D01*
G04 #@! TO.C,C30*
X130142857Y-86857142D02*
X130190476Y-86904761D01*
X130333333Y-86952380D01*
X130428571Y-86952380D01*
X130571428Y-86904761D01*
X130666666Y-86809523D01*
X130714285Y-86714285D01*
X130761904Y-86523809D01*
X130761904Y-86380952D01*
X130714285Y-86190476D01*
X130666666Y-86095238D01*
X130571428Y-86000000D01*
X130428571Y-85952380D01*
X130333333Y-85952380D01*
X130190476Y-86000000D01*
X130142857Y-86047619D01*
X129809523Y-85952380D02*
X129190476Y-85952380D01*
X129523809Y-86333333D01*
X129380952Y-86333333D01*
X129285714Y-86380952D01*
X129238095Y-86428571D01*
X129190476Y-86523809D01*
X129190476Y-86761904D01*
X129238095Y-86857142D01*
X129285714Y-86904761D01*
X129380952Y-86952380D01*
X129666666Y-86952380D01*
X129761904Y-86904761D01*
X129809523Y-86857142D01*
X128571428Y-85952380D02*
X128476190Y-85952380D01*
X128380952Y-86000000D01*
X128333333Y-86047619D01*
X128285714Y-86142857D01*
X128238095Y-86333333D01*
X128238095Y-86571428D01*
X128285714Y-86761904D01*
X128333333Y-86857142D01*
X128380952Y-86904761D01*
X128476190Y-86952380D01*
X128571428Y-86952380D01*
X128666666Y-86904761D01*
X128714285Y-86857142D01*
X128761904Y-86761904D01*
X128809523Y-86571428D01*
X128809523Y-86333333D01*
X128761904Y-86142857D01*
X128714285Y-86047619D01*
X128666666Y-86000000D01*
X128571428Y-85952380D01*
G04 #@! TO.C,C34*
X129771142Y-99687142D02*
X129818761Y-99639523D01*
X129866380Y-99496666D01*
X129866380Y-99401428D01*
X129818761Y-99258571D01*
X129723523Y-99163333D01*
X129628285Y-99115714D01*
X129437809Y-99068095D01*
X129294952Y-99068095D01*
X129104476Y-99115714D01*
X129009238Y-99163333D01*
X128914000Y-99258571D01*
X128866380Y-99401428D01*
X128866380Y-99496666D01*
X128914000Y-99639523D01*
X128961619Y-99687142D01*
X128866380Y-100020476D02*
X128866380Y-100639523D01*
X129247333Y-100306190D01*
X129247333Y-100449047D01*
X129294952Y-100544285D01*
X129342571Y-100591904D01*
X129437809Y-100639523D01*
X129675904Y-100639523D01*
X129771142Y-100591904D01*
X129818761Y-100544285D01*
X129866380Y-100449047D01*
X129866380Y-100163333D01*
X129818761Y-100068095D01*
X129771142Y-100020476D01*
X129199714Y-101496666D02*
X129866380Y-101496666D01*
X128818761Y-101258571D02*
X129533047Y-101020476D01*
X129533047Y-101639523D01*
G04 #@! TO.C,C23*
X158357142Y-99832142D02*
X158404761Y-99784523D01*
X158452380Y-99641666D01*
X158452380Y-99546428D01*
X158404761Y-99403571D01*
X158309523Y-99308333D01*
X158214285Y-99260714D01*
X158023809Y-99213095D01*
X157880952Y-99213095D01*
X157690476Y-99260714D01*
X157595238Y-99308333D01*
X157500000Y-99403571D01*
X157452380Y-99546428D01*
X157452380Y-99641666D01*
X157500000Y-99784523D01*
X157547619Y-99832142D01*
X157547619Y-100213095D02*
X157500000Y-100260714D01*
X157452380Y-100355952D01*
X157452380Y-100594047D01*
X157500000Y-100689285D01*
X157547619Y-100736904D01*
X157642857Y-100784523D01*
X157738095Y-100784523D01*
X157880952Y-100736904D01*
X158452380Y-100165476D01*
X158452380Y-100784523D01*
X157452380Y-101117857D02*
X157452380Y-101736904D01*
X157833333Y-101403571D01*
X157833333Y-101546428D01*
X157880952Y-101641666D01*
X157928571Y-101689285D01*
X158023809Y-101736904D01*
X158261904Y-101736904D01*
X158357142Y-101689285D01*
X158404761Y-101641666D01*
X158452380Y-101546428D01*
X158452380Y-101260714D01*
X158404761Y-101165476D01*
X158357142Y-101117857D01*
G04 #@! TO.C,C24*
X123857142Y-115907142D02*
X123904761Y-115859523D01*
X123952380Y-115716666D01*
X123952380Y-115621428D01*
X123904761Y-115478571D01*
X123809523Y-115383333D01*
X123714285Y-115335714D01*
X123523809Y-115288095D01*
X123380952Y-115288095D01*
X123190476Y-115335714D01*
X123095238Y-115383333D01*
X123000000Y-115478571D01*
X122952380Y-115621428D01*
X122952380Y-115716666D01*
X123000000Y-115859523D01*
X123047619Y-115907142D01*
X123047619Y-116288095D02*
X123000000Y-116335714D01*
X122952380Y-116430952D01*
X122952380Y-116669047D01*
X123000000Y-116764285D01*
X123047619Y-116811904D01*
X123142857Y-116859523D01*
X123238095Y-116859523D01*
X123380952Y-116811904D01*
X123952380Y-116240476D01*
X123952380Y-116859523D01*
X123285714Y-117716666D02*
X123952380Y-117716666D01*
X122904761Y-117478571D02*
X123619047Y-117240476D01*
X123619047Y-117859523D01*
G04 #@! TO.C,D10*
X192154761Y-129023809D02*
X192202380Y-129166666D01*
X192202380Y-129404761D01*
X192154761Y-129500000D01*
X192107142Y-129547619D01*
X192011904Y-129595238D01*
X191916666Y-129595238D01*
X191821428Y-129547619D01*
X191773809Y-129500000D01*
X191726190Y-129404761D01*
X191678571Y-129214285D01*
X191630952Y-129119047D01*
X191583333Y-129071428D01*
X191488095Y-129023809D01*
X191392857Y-129023809D01*
X191297619Y-129071428D01*
X191250000Y-129119047D01*
X191202380Y-129214285D01*
X191202380Y-129452380D01*
X191250000Y-129595238D01*
X191202380Y-129880952D02*
X191202380Y-130452380D01*
X192202380Y-130166666D02*
X191202380Y-130166666D01*
X191916666Y-130738095D02*
X191916666Y-131214285D01*
X192202380Y-130642857D02*
X191202380Y-130976190D01*
X192202380Y-131309523D01*
X191202380Y-131500000D02*
X191202380Y-132071428D01*
X192202380Y-131785714D02*
X191202380Y-131785714D01*
X191202380Y-132404761D02*
X192011904Y-132404761D01*
X192107142Y-132452380D01*
X192154761Y-132500000D01*
X192202380Y-132595238D01*
X192202380Y-132785714D01*
X192154761Y-132880952D01*
X192107142Y-132928571D01*
X192011904Y-132976190D01*
X191202380Y-132976190D01*
X192154761Y-133404761D02*
X192202380Y-133547619D01*
X192202380Y-133785714D01*
X192154761Y-133880952D01*
X192107142Y-133928571D01*
X192011904Y-133976190D01*
X191916666Y-133976190D01*
X191821428Y-133928571D01*
X191773809Y-133880952D01*
X191726190Y-133785714D01*
X191678571Y-133595238D01*
X191630952Y-133500000D01*
X191583333Y-133452380D01*
X191488095Y-133404761D01*
X191392857Y-133404761D01*
X191297619Y-133452380D01*
X191250000Y-133500000D01*
X191202380Y-133595238D01*
X191202380Y-133833333D01*
X191250000Y-133976190D01*
G04 #@! TO.C,J1*
X125809523Y-127852380D02*
X125809523Y-126852380D01*
X125428571Y-126852380D01*
X125333333Y-126900000D01*
X125285714Y-126947619D01*
X125238095Y-127042857D01*
X125238095Y-127185714D01*
X125285714Y-127280952D01*
X125333333Y-127328571D01*
X125428571Y-127376190D01*
X125809523Y-127376190D01*
X124619047Y-126852380D02*
X124428571Y-126852380D01*
X124333333Y-126900000D01*
X124238095Y-126995238D01*
X124190476Y-127185714D01*
X124190476Y-127519047D01*
X124238095Y-127709523D01*
X124333333Y-127804761D01*
X124428571Y-127852380D01*
X124619047Y-127852380D01*
X124714285Y-127804761D01*
X124809523Y-127709523D01*
X124857142Y-127519047D01*
X124857142Y-127185714D01*
X124809523Y-126995238D01*
X124714285Y-126900000D01*
X124619047Y-126852380D01*
X123857142Y-126852380D02*
X123619047Y-127852380D01*
X123428571Y-127138095D01*
X123238095Y-127852380D01*
X123000000Y-126852380D01*
X122619047Y-127328571D02*
X122285714Y-127328571D01*
X122142857Y-127852380D02*
X122619047Y-127852380D01*
X122619047Y-126852380D01*
X122142857Y-126852380D01*
X121142857Y-127852380D02*
X121476190Y-127376190D01*
X121714285Y-127852380D02*
X121714285Y-126852380D01*
X121333333Y-126852380D01*
X121238095Y-126900000D01*
X121190476Y-126947619D01*
X121142857Y-127042857D01*
X121142857Y-127185714D01*
X121190476Y-127280952D01*
X121238095Y-127328571D01*
X121333333Y-127376190D01*
X121714285Y-127376190D01*
G04 #@! TO.C,J6*
X142630952Y-128154761D02*
X142488095Y-128202380D01*
X142250000Y-128202380D01*
X142154761Y-128154761D01*
X142107142Y-128107142D01*
X142059523Y-128011904D01*
X142059523Y-127916666D01*
X142107142Y-127821428D01*
X142154761Y-127773809D01*
X142250000Y-127726190D01*
X142440476Y-127678571D01*
X142535714Y-127630952D01*
X142583333Y-127583333D01*
X142630952Y-127488095D01*
X142630952Y-127392857D01*
X142583333Y-127297619D01*
X142535714Y-127250000D01*
X142440476Y-127202380D01*
X142202380Y-127202380D01*
X142059523Y-127250000D01*
X141630952Y-128202380D02*
X141630952Y-127202380D01*
X140630952Y-127250000D02*
X140726190Y-127202380D01*
X140869047Y-127202380D01*
X141011904Y-127250000D01*
X141107142Y-127345238D01*
X141154761Y-127440476D01*
X141202380Y-127630952D01*
X141202380Y-127773809D01*
X141154761Y-127964285D01*
X141107142Y-128059523D01*
X141011904Y-128154761D01*
X140869047Y-128202380D01*
X140773809Y-128202380D01*
X140630952Y-128154761D01*
X140583333Y-128107142D01*
X140583333Y-127773809D01*
X140773809Y-127773809D01*
X140154761Y-128202380D02*
X140154761Y-127202380D01*
X139583333Y-128202380D01*
X139583333Y-127202380D01*
X139154761Y-127916666D02*
X138678571Y-127916666D01*
X139250000Y-128202380D02*
X138916666Y-127202380D01*
X138583333Y-128202380D01*
X137773809Y-128202380D02*
X138250000Y-128202380D01*
X138250000Y-127202380D01*
G04 #@! TO.C,J2*
X164059523Y-126852380D02*
X163488095Y-126852380D01*
X163773809Y-127852380D02*
X163773809Y-126852380D01*
X163154761Y-127852380D02*
X163154761Y-126852380D01*
X163154761Y-127328571D02*
X162583333Y-127328571D01*
X162583333Y-127852380D02*
X162583333Y-126852380D01*
X162107142Y-127328571D02*
X161773809Y-127328571D01*
X161630952Y-127852380D02*
X162107142Y-127852380D01*
X162107142Y-126852380D01*
X161630952Y-126852380D01*
X160630952Y-127852380D02*
X160964285Y-127376190D01*
X161202380Y-127852380D02*
X161202380Y-126852380D01*
X160821428Y-126852380D01*
X160726190Y-126900000D01*
X160678571Y-126947619D01*
X160630952Y-127042857D01*
X160630952Y-127185714D01*
X160678571Y-127280952D01*
X160726190Y-127328571D01*
X160821428Y-127376190D01*
X161202380Y-127376190D01*
X160202380Y-127852380D02*
X160202380Y-126852380D01*
X159869047Y-127566666D01*
X159535714Y-126852380D01*
X159535714Y-127852380D01*
X158535714Y-127852380D02*
X159107142Y-127852380D01*
X158821428Y-127852380D02*
X158821428Y-126852380D01*
X158916666Y-126995238D01*
X159011904Y-127090476D01*
X159107142Y-127138095D01*
G04 #@! TO.C,J3*
X175059523Y-126852380D02*
X174488095Y-126852380D01*
X174773809Y-127852380D02*
X174773809Y-126852380D01*
X174154761Y-127852380D02*
X174154761Y-126852380D01*
X174154761Y-127328571D02*
X173583333Y-127328571D01*
X173583333Y-127852380D02*
X173583333Y-126852380D01*
X173107142Y-127328571D02*
X172773809Y-127328571D01*
X172630952Y-127852380D02*
X173107142Y-127852380D01*
X173107142Y-126852380D01*
X172630952Y-126852380D01*
X171630952Y-127852380D02*
X171964285Y-127376190D01*
X172202380Y-127852380D02*
X172202380Y-126852380D01*
X171821428Y-126852380D01*
X171726190Y-126900000D01*
X171678571Y-126947619D01*
X171630952Y-127042857D01*
X171630952Y-127185714D01*
X171678571Y-127280952D01*
X171726190Y-127328571D01*
X171821428Y-127376190D01*
X172202380Y-127376190D01*
X171202380Y-127852380D02*
X171202380Y-126852380D01*
X170869047Y-127566666D01*
X170535714Y-126852380D01*
X170535714Y-127852380D01*
X170107142Y-126947619D02*
X170059523Y-126900000D01*
X169964285Y-126852380D01*
X169726190Y-126852380D01*
X169630952Y-126900000D01*
X169583333Y-126947619D01*
X169535714Y-127042857D01*
X169535714Y-127138095D01*
X169583333Y-127280952D01*
X170154761Y-127852380D01*
X169535714Y-127852380D01*
G04 #@! TO.C,J4*
X151023809Y-127852380D02*
X151023809Y-126852380D01*
X151023809Y-127328571D02*
X150452380Y-127328571D01*
X150452380Y-127852380D02*
X150452380Y-126852380D01*
X150023809Y-127566666D02*
X149547619Y-127566666D01*
X150119047Y-127852380D02*
X149785714Y-126852380D01*
X149452380Y-127852380D01*
X148642857Y-127852380D02*
X149119047Y-127852380D01*
X149119047Y-126852380D01*
X147833333Y-127852380D02*
X148309523Y-127852380D01*
X148309523Y-126852380D01*
G04 #@! TO.C,J5*
X186226190Y-127804761D02*
X186083333Y-127852380D01*
X185845238Y-127852380D01*
X185750000Y-127804761D01*
X185702380Y-127757142D01*
X185654761Y-127661904D01*
X185654761Y-127566666D01*
X185702380Y-127471428D01*
X185750000Y-127423809D01*
X185845238Y-127376190D01*
X186035714Y-127328571D01*
X186130952Y-127280952D01*
X186178571Y-127233333D01*
X186226190Y-127138095D01*
X186226190Y-127042857D01*
X186178571Y-126947619D01*
X186130952Y-126900000D01*
X186035714Y-126852380D01*
X185797619Y-126852380D01*
X185654761Y-126900000D01*
X185226190Y-127852380D02*
X185226190Y-126852380D01*
X184226190Y-126900000D02*
X184321428Y-126852380D01*
X184464285Y-126852380D01*
X184607142Y-126900000D01*
X184702380Y-126995238D01*
X184750000Y-127090476D01*
X184797619Y-127280952D01*
X184797619Y-127423809D01*
X184750000Y-127614285D01*
X184702380Y-127709523D01*
X184607142Y-127804761D01*
X184464285Y-127852380D01*
X184369047Y-127852380D01*
X184226190Y-127804761D01*
X184178571Y-127757142D01*
X184178571Y-127423809D01*
X184369047Y-127423809D01*
X183988095Y-127947619D02*
X183226190Y-127947619D01*
X182416666Y-127852380D02*
X182750000Y-127376190D01*
X182988095Y-127852380D02*
X182988095Y-126852380D01*
X182607142Y-126852380D01*
X182511904Y-126900000D01*
X182464285Y-126947619D01*
X182416666Y-127042857D01*
X182416666Y-127185714D01*
X182464285Y-127280952D01*
X182511904Y-127328571D01*
X182607142Y-127376190D01*
X182988095Y-127376190D01*
X181988095Y-127852380D02*
X181988095Y-126852380D01*
X181607142Y-126852380D01*
X181511904Y-126900000D01*
X181464285Y-126947619D01*
X181416666Y-127042857D01*
X181416666Y-127185714D01*
X181464285Y-127280952D01*
X181511904Y-127328571D01*
X181607142Y-127376190D01*
X181988095Y-127376190D01*
X180988095Y-127852380D02*
X180988095Y-126852380D01*
X180654761Y-127566666D01*
X180321428Y-126852380D01*
X180321428Y-127852380D01*
G04 #@! TO.C,J8*
X119952380Y-91666666D02*
X120666666Y-91666666D01*
X120809523Y-91619047D01*
X120904761Y-91523809D01*
X120952380Y-91380952D01*
X120952380Y-91285714D01*
X120380952Y-92285714D02*
X120333333Y-92190476D01*
X120285714Y-92142857D01*
X120190476Y-92095238D01*
X120142857Y-92095238D01*
X120047619Y-92142857D01*
X120000000Y-92190476D01*
X119952380Y-92285714D01*
X119952380Y-92476190D01*
X120000000Y-92571428D01*
X120047619Y-92619047D01*
X120142857Y-92666666D01*
X120190476Y-92666666D01*
X120285714Y-92619047D01*
X120333333Y-92571428D01*
X120380952Y-92476190D01*
X120380952Y-92285714D01*
X120428571Y-92190476D01*
X120476190Y-92142857D01*
X120571428Y-92095238D01*
X120761904Y-92095238D01*
X120857142Y-92142857D01*
X120904761Y-92190476D01*
X120952380Y-92285714D01*
X120952380Y-92476190D01*
X120904761Y-92571428D01*
X120857142Y-92619047D01*
X120761904Y-92666666D01*
X120571428Y-92666666D01*
X120476190Y-92619047D01*
X120428571Y-92571428D01*
X120380952Y-92476190D01*
X114047619Y-92976190D02*
X115047619Y-92976190D01*
X114142857Y-91928571D02*
X114095238Y-91976190D01*
X114047619Y-92119047D01*
X114047619Y-92214285D01*
X114095238Y-92357142D01*
X114190476Y-92452380D01*
X114285714Y-92500000D01*
X114476190Y-92547619D01*
X114619047Y-92547619D01*
X114809523Y-92500000D01*
X114904761Y-92452380D01*
X115000000Y-92357142D01*
X115047619Y-92214285D01*
X115047619Y-92119047D01*
X115000000Y-91976190D01*
X114952380Y-91928571D01*
X114095238Y-91547619D02*
X114047619Y-91404761D01*
X114047619Y-91166666D01*
X114095238Y-91071428D01*
X114142857Y-91023809D01*
X114238095Y-90976190D01*
X114333333Y-90976190D01*
X114428571Y-91023809D01*
X114476190Y-91071428D01*
X114523809Y-91166666D01*
X114571428Y-91357142D01*
X114619047Y-91452380D01*
X114666666Y-91500000D01*
X114761904Y-91547619D01*
X114857142Y-91547619D01*
X114952380Y-91500000D01*
X115000000Y-91452380D01*
X115047619Y-91357142D01*
X115047619Y-91119047D01*
X115000000Y-90976190D01*
X114047619Y-90547619D02*
X115047619Y-90547619D01*
X115047619Y-90166666D01*
X115000000Y-90071428D01*
X114952380Y-90023809D01*
X114857142Y-89976190D01*
X114714285Y-89976190D01*
X114619047Y-90023809D01*
X114571428Y-90071428D01*
X114523809Y-90166666D01*
X114523809Y-90547619D01*
G04 #@! TO.C,R22*
X166452380Y-118357142D02*
X165976190Y-118023809D01*
X166452380Y-117785714D02*
X165452380Y-117785714D01*
X165452380Y-118166666D01*
X165500000Y-118261904D01*
X165547619Y-118309523D01*
X165642857Y-118357142D01*
X165785714Y-118357142D01*
X165880952Y-118309523D01*
X165928571Y-118261904D01*
X165976190Y-118166666D01*
X165976190Y-117785714D01*
X165547619Y-118738095D02*
X165500000Y-118785714D01*
X165452380Y-118880952D01*
X165452380Y-119119047D01*
X165500000Y-119214285D01*
X165547619Y-119261904D01*
X165642857Y-119309523D01*
X165738095Y-119309523D01*
X165880952Y-119261904D01*
X166452380Y-118690476D01*
X166452380Y-119309523D01*
X165547619Y-119690476D02*
X165500000Y-119738095D01*
X165452380Y-119833333D01*
X165452380Y-120071428D01*
X165500000Y-120166666D01*
X165547619Y-120214285D01*
X165642857Y-120261904D01*
X165738095Y-120261904D01*
X165880952Y-120214285D01*
X166452380Y-119642857D01*
X166452380Y-120261904D01*
G04 #@! TO.C,R23*
X168702380Y-118357142D02*
X168226190Y-118023809D01*
X168702380Y-117785714D02*
X167702380Y-117785714D01*
X167702380Y-118166666D01*
X167750000Y-118261904D01*
X167797619Y-118309523D01*
X167892857Y-118357142D01*
X168035714Y-118357142D01*
X168130952Y-118309523D01*
X168178571Y-118261904D01*
X168226190Y-118166666D01*
X168226190Y-117785714D01*
X167797619Y-118738095D02*
X167750000Y-118785714D01*
X167702380Y-118880952D01*
X167702380Y-119119047D01*
X167750000Y-119214285D01*
X167797619Y-119261904D01*
X167892857Y-119309523D01*
X167988095Y-119309523D01*
X168130952Y-119261904D01*
X168702380Y-118690476D01*
X168702380Y-119309523D01*
X167702380Y-119642857D02*
X167702380Y-120261904D01*
X168083333Y-119928571D01*
X168083333Y-120071428D01*
X168130952Y-120166666D01*
X168178571Y-120214285D01*
X168273809Y-120261904D01*
X168511904Y-120261904D01*
X168607142Y-120214285D01*
X168654761Y-120166666D01*
X168702380Y-120071428D01*
X168702380Y-119785714D01*
X168654761Y-119690476D01*
X168607142Y-119642857D01*
G04 #@! TO.C,R21*
X152202380Y-119357142D02*
X151726190Y-119023809D01*
X152202380Y-118785714D02*
X151202380Y-118785714D01*
X151202380Y-119166666D01*
X151250000Y-119261904D01*
X151297619Y-119309523D01*
X151392857Y-119357142D01*
X151535714Y-119357142D01*
X151630952Y-119309523D01*
X151678571Y-119261904D01*
X151726190Y-119166666D01*
X151726190Y-118785714D01*
X151297619Y-119738095D02*
X151250000Y-119785714D01*
X151202380Y-119880952D01*
X151202380Y-120119047D01*
X151250000Y-120214285D01*
X151297619Y-120261904D01*
X151392857Y-120309523D01*
X151488095Y-120309523D01*
X151630952Y-120261904D01*
X152202380Y-119690476D01*
X152202380Y-120309523D01*
X152202380Y-121261904D02*
X152202380Y-120690476D01*
X152202380Y-120976190D02*
X151202380Y-120976190D01*
X151345238Y-120880952D01*
X151440476Y-120785714D01*
X151488095Y-120690476D01*
G04 #@! TO.C,R11*
X124952380Y-119357142D02*
X124476190Y-119023809D01*
X124952380Y-118785714D02*
X123952380Y-118785714D01*
X123952380Y-119166666D01*
X124000000Y-119261904D01*
X124047619Y-119309523D01*
X124142857Y-119357142D01*
X124285714Y-119357142D01*
X124380952Y-119309523D01*
X124428571Y-119261904D01*
X124476190Y-119166666D01*
X124476190Y-118785714D01*
X124952380Y-120309523D02*
X124952380Y-119738095D01*
X124952380Y-120023809D02*
X123952380Y-120023809D01*
X124095238Y-119928571D01*
X124190476Y-119833333D01*
X124238095Y-119738095D01*
X124952380Y-121261904D02*
X124952380Y-120690476D01*
X124952380Y-120976190D02*
X123952380Y-120976190D01*
X124095238Y-120880952D01*
X124190476Y-120785714D01*
X124238095Y-120690476D01*
G04 #@! TO.C,R12*
X127452380Y-119357142D02*
X126976190Y-119023809D01*
X127452380Y-118785714D02*
X126452380Y-118785714D01*
X126452380Y-119166666D01*
X126500000Y-119261904D01*
X126547619Y-119309523D01*
X126642857Y-119357142D01*
X126785714Y-119357142D01*
X126880952Y-119309523D01*
X126928571Y-119261904D01*
X126976190Y-119166666D01*
X126976190Y-118785714D01*
X127452380Y-120309523D02*
X127452380Y-119738095D01*
X127452380Y-120023809D02*
X126452380Y-120023809D01*
X126595238Y-119928571D01*
X126690476Y-119833333D01*
X126738095Y-119738095D01*
X126547619Y-120690476D02*
X126500000Y-120738095D01*
X126452380Y-120833333D01*
X126452380Y-121071428D01*
X126500000Y-121166666D01*
X126547619Y-121214285D01*
X126642857Y-121261904D01*
X126738095Y-121261904D01*
X126880952Y-121214285D01*
X127452380Y-120642857D01*
X127452380Y-121261904D01*
G04 #@! TO.C,R211*
X197619047Y-116952380D02*
X197952380Y-116476190D01*
X198190476Y-116952380D02*
X198190476Y-115952380D01*
X197809523Y-115952380D01*
X197714285Y-116000000D01*
X197666666Y-116047619D01*
X197619047Y-116142857D01*
X197619047Y-116285714D01*
X197666666Y-116380952D01*
X197714285Y-116428571D01*
X197809523Y-116476190D01*
X198190476Y-116476190D01*
X197238095Y-116047619D02*
X197190476Y-116000000D01*
X197095238Y-115952380D01*
X196857142Y-115952380D01*
X196761904Y-116000000D01*
X196714285Y-116047619D01*
X196666666Y-116142857D01*
X196666666Y-116238095D01*
X196714285Y-116380952D01*
X197285714Y-116952380D01*
X196666666Y-116952380D01*
X195714285Y-116952380D02*
X196285714Y-116952380D01*
X196000000Y-116952380D02*
X196000000Y-115952380D01*
X196095238Y-116095238D01*
X196190476Y-116190476D01*
X196285714Y-116238095D01*
X194761904Y-116952380D02*
X195333333Y-116952380D01*
X195047619Y-116952380D02*
X195047619Y-115952380D01*
X195142857Y-116095238D01*
X195238095Y-116190476D01*
X195333333Y-116238095D01*
G04 #@! TO.C,R54*
X150617857Y-94102380D02*
X150951190Y-93626190D01*
X151189285Y-94102380D02*
X151189285Y-93102380D01*
X150808333Y-93102380D01*
X150713095Y-93150000D01*
X150665476Y-93197619D01*
X150617857Y-93292857D01*
X150617857Y-93435714D01*
X150665476Y-93530952D01*
X150713095Y-93578571D01*
X150808333Y-93626190D01*
X151189285Y-93626190D01*
X149713095Y-93102380D02*
X150189285Y-93102380D01*
X150236904Y-93578571D01*
X150189285Y-93530952D01*
X150094047Y-93483333D01*
X149855952Y-93483333D01*
X149760714Y-93530952D01*
X149713095Y-93578571D01*
X149665476Y-93673809D01*
X149665476Y-93911904D01*
X149713095Y-94007142D01*
X149760714Y-94054761D01*
X149855952Y-94102380D01*
X150094047Y-94102380D01*
X150189285Y-94054761D01*
X150236904Y-94007142D01*
X148808333Y-93435714D02*
X148808333Y-94102380D01*
X149046428Y-93054761D02*
X149284523Y-93769047D01*
X148665476Y-93769047D01*
G04 #@! TO.C,R53*
X164392857Y-90952380D02*
X164726190Y-90476190D01*
X164964285Y-90952380D02*
X164964285Y-89952380D01*
X164583333Y-89952380D01*
X164488095Y-90000000D01*
X164440476Y-90047619D01*
X164392857Y-90142857D01*
X164392857Y-90285714D01*
X164440476Y-90380952D01*
X164488095Y-90428571D01*
X164583333Y-90476190D01*
X164964285Y-90476190D01*
X163488095Y-89952380D02*
X163964285Y-89952380D01*
X164011904Y-90428571D01*
X163964285Y-90380952D01*
X163869047Y-90333333D01*
X163630952Y-90333333D01*
X163535714Y-90380952D01*
X163488095Y-90428571D01*
X163440476Y-90523809D01*
X163440476Y-90761904D01*
X163488095Y-90857142D01*
X163535714Y-90904761D01*
X163630952Y-90952380D01*
X163869047Y-90952380D01*
X163964285Y-90904761D01*
X164011904Y-90857142D01*
X163107142Y-89952380D02*
X162488095Y-89952380D01*
X162821428Y-90333333D01*
X162678571Y-90333333D01*
X162583333Y-90380952D01*
X162535714Y-90428571D01*
X162488095Y-90523809D01*
X162488095Y-90761904D01*
X162535714Y-90857142D01*
X162583333Y-90904761D01*
X162678571Y-90952380D01*
X162964285Y-90952380D01*
X163059523Y-90904761D01*
X163107142Y-90857142D01*
G04 #@! TO.C,R41*
X132452380Y-119382142D02*
X131976190Y-119048809D01*
X132452380Y-118810714D02*
X131452380Y-118810714D01*
X131452380Y-119191666D01*
X131500000Y-119286904D01*
X131547619Y-119334523D01*
X131642857Y-119382142D01*
X131785714Y-119382142D01*
X131880952Y-119334523D01*
X131928571Y-119286904D01*
X131976190Y-119191666D01*
X131976190Y-118810714D01*
X131785714Y-120239285D02*
X132452380Y-120239285D01*
X131404761Y-120001190D02*
X132119047Y-119763095D01*
X132119047Y-120382142D01*
X132452380Y-121286904D02*
X132452380Y-120715476D01*
X132452380Y-121001190D02*
X131452380Y-121001190D01*
X131595238Y-120905952D01*
X131690476Y-120810714D01*
X131738095Y-120715476D01*
G04 #@! TO.C,R42*
X134952380Y-119357142D02*
X134476190Y-119023809D01*
X134952380Y-118785714D02*
X133952380Y-118785714D01*
X133952380Y-119166666D01*
X134000000Y-119261904D01*
X134047619Y-119309523D01*
X134142857Y-119357142D01*
X134285714Y-119357142D01*
X134380952Y-119309523D01*
X134428571Y-119261904D01*
X134476190Y-119166666D01*
X134476190Y-118785714D01*
X134285714Y-120214285D02*
X134952380Y-120214285D01*
X133904761Y-119976190D02*
X134619047Y-119738095D01*
X134619047Y-120357142D01*
X134047619Y-120690476D02*
X134000000Y-120738095D01*
X133952380Y-120833333D01*
X133952380Y-121071428D01*
X134000000Y-121166666D01*
X134047619Y-121214285D01*
X134142857Y-121261904D01*
X134238095Y-121261904D01*
X134380952Y-121214285D01*
X134952380Y-120642857D01*
X134952380Y-121261904D01*
G04 #@! TO.C,R55*
X155617857Y-94102380D02*
X155951190Y-93626190D01*
X156189285Y-94102380D02*
X156189285Y-93102380D01*
X155808333Y-93102380D01*
X155713095Y-93150000D01*
X155665476Y-93197619D01*
X155617857Y-93292857D01*
X155617857Y-93435714D01*
X155665476Y-93530952D01*
X155713095Y-93578571D01*
X155808333Y-93626190D01*
X156189285Y-93626190D01*
X154713095Y-93102380D02*
X155189285Y-93102380D01*
X155236904Y-93578571D01*
X155189285Y-93530952D01*
X155094047Y-93483333D01*
X154855952Y-93483333D01*
X154760714Y-93530952D01*
X154713095Y-93578571D01*
X154665476Y-93673809D01*
X154665476Y-93911904D01*
X154713095Y-94007142D01*
X154760714Y-94054761D01*
X154855952Y-94102380D01*
X155094047Y-94102380D01*
X155189285Y-94054761D01*
X155236904Y-94007142D01*
X153760714Y-93102380D02*
X154236904Y-93102380D01*
X154284523Y-93578571D01*
X154236904Y-93530952D01*
X154141666Y-93483333D01*
X153903571Y-93483333D01*
X153808333Y-93530952D01*
X153760714Y-93578571D01*
X153713095Y-93673809D01*
X153713095Y-93911904D01*
X153760714Y-94007142D01*
X153808333Y-94054761D01*
X153903571Y-94102380D01*
X154141666Y-94102380D01*
X154236904Y-94054761D01*
X154284523Y-94007142D01*
G04 #@! TO.C,R43*
X137452380Y-119357142D02*
X136976190Y-119023809D01*
X137452380Y-118785714D02*
X136452380Y-118785714D01*
X136452380Y-119166666D01*
X136500000Y-119261904D01*
X136547619Y-119309523D01*
X136642857Y-119357142D01*
X136785714Y-119357142D01*
X136880952Y-119309523D01*
X136928571Y-119261904D01*
X136976190Y-119166666D01*
X136976190Y-118785714D01*
X136785714Y-120214285D02*
X137452380Y-120214285D01*
X136404761Y-119976190D02*
X137119047Y-119738095D01*
X137119047Y-120357142D01*
X136452380Y-120642857D02*
X136452380Y-121261904D01*
X136833333Y-120928571D01*
X136833333Y-121071428D01*
X136880952Y-121166666D01*
X136928571Y-121214285D01*
X137023809Y-121261904D01*
X137261904Y-121261904D01*
X137357142Y-121214285D01*
X137404761Y-121166666D01*
X137452380Y-121071428D01*
X137452380Y-120785714D01*
X137404761Y-120690476D01*
X137357142Y-120642857D01*
G04 #@! TO.C,R44*
X139952380Y-119382142D02*
X139476190Y-119048809D01*
X139952380Y-118810714D02*
X138952380Y-118810714D01*
X138952380Y-119191666D01*
X139000000Y-119286904D01*
X139047619Y-119334523D01*
X139142857Y-119382142D01*
X139285714Y-119382142D01*
X139380952Y-119334523D01*
X139428571Y-119286904D01*
X139476190Y-119191666D01*
X139476190Y-118810714D01*
X139285714Y-120239285D02*
X139952380Y-120239285D01*
X138904761Y-120001190D02*
X139619047Y-119763095D01*
X139619047Y-120382142D01*
X139285714Y-121191666D02*
X139952380Y-121191666D01*
X138904761Y-120953571D02*
X139619047Y-120715476D01*
X139619047Y-121334523D01*
G04 #@! TO.C,R45*
X144952380Y-119332142D02*
X144476190Y-118998809D01*
X144952380Y-118760714D02*
X143952380Y-118760714D01*
X143952380Y-119141666D01*
X144000000Y-119236904D01*
X144047619Y-119284523D01*
X144142857Y-119332142D01*
X144285714Y-119332142D01*
X144380952Y-119284523D01*
X144428571Y-119236904D01*
X144476190Y-119141666D01*
X144476190Y-118760714D01*
X144285714Y-120189285D02*
X144952380Y-120189285D01*
X143904761Y-119951190D02*
X144619047Y-119713095D01*
X144619047Y-120332142D01*
X143952380Y-121189285D02*
X143952380Y-120713095D01*
X144428571Y-120665476D01*
X144380952Y-120713095D01*
X144333333Y-120808333D01*
X144333333Y-121046428D01*
X144380952Y-121141666D01*
X144428571Y-121189285D01*
X144523809Y-121236904D01*
X144761904Y-121236904D01*
X144857142Y-121189285D01*
X144904761Y-121141666D01*
X144952380Y-121046428D01*
X144952380Y-120808333D01*
X144904761Y-120713095D01*
X144857142Y-120665476D01*
G04 #@! TO.C,R46*
X142452380Y-119382142D02*
X141976190Y-119048809D01*
X142452380Y-118810714D02*
X141452380Y-118810714D01*
X141452380Y-119191666D01*
X141500000Y-119286904D01*
X141547619Y-119334523D01*
X141642857Y-119382142D01*
X141785714Y-119382142D01*
X141880952Y-119334523D01*
X141928571Y-119286904D01*
X141976190Y-119191666D01*
X141976190Y-118810714D01*
X141785714Y-120239285D02*
X142452380Y-120239285D01*
X141404761Y-120001190D02*
X142119047Y-119763095D01*
X142119047Y-120382142D01*
X141452380Y-121191666D02*
X141452380Y-121001190D01*
X141500000Y-120905952D01*
X141547619Y-120858333D01*
X141690476Y-120763095D01*
X141880952Y-120715476D01*
X142261904Y-120715476D01*
X142357142Y-120763095D01*
X142404761Y-120810714D01*
X142452380Y-120905952D01*
X142452380Y-121096428D01*
X142404761Y-121191666D01*
X142357142Y-121239285D01*
X142261904Y-121286904D01*
X142023809Y-121286904D01*
X141928571Y-121239285D01*
X141880952Y-121191666D01*
X141833333Y-121096428D01*
X141833333Y-120905952D01*
X141880952Y-120810714D01*
X141928571Y-120763095D01*
X142023809Y-120715476D01*
G04 #@! TO.C,R51*
X163452380Y-99857142D02*
X162976190Y-99523809D01*
X163452380Y-99285714D02*
X162452380Y-99285714D01*
X162452380Y-99666666D01*
X162500000Y-99761904D01*
X162547619Y-99809523D01*
X162642857Y-99857142D01*
X162785714Y-99857142D01*
X162880952Y-99809523D01*
X162928571Y-99761904D01*
X162976190Y-99666666D01*
X162976190Y-99285714D01*
X162452380Y-100761904D02*
X162452380Y-100285714D01*
X162928571Y-100238095D01*
X162880952Y-100285714D01*
X162833333Y-100380952D01*
X162833333Y-100619047D01*
X162880952Y-100714285D01*
X162928571Y-100761904D01*
X163023809Y-100809523D01*
X163261904Y-100809523D01*
X163357142Y-100761904D01*
X163404761Y-100714285D01*
X163452380Y-100619047D01*
X163452380Y-100380952D01*
X163404761Y-100285714D01*
X163357142Y-100238095D01*
X163452380Y-101761904D02*
X163452380Y-101190476D01*
X163452380Y-101476190D02*
X162452380Y-101476190D01*
X162595238Y-101380952D01*
X162690476Y-101285714D01*
X162738095Y-101190476D01*
G04 #@! TO.C,R52*
X160952380Y-99882142D02*
X160476190Y-99548809D01*
X160952380Y-99310714D02*
X159952380Y-99310714D01*
X159952380Y-99691666D01*
X160000000Y-99786904D01*
X160047619Y-99834523D01*
X160142857Y-99882142D01*
X160285714Y-99882142D01*
X160380952Y-99834523D01*
X160428571Y-99786904D01*
X160476190Y-99691666D01*
X160476190Y-99310714D01*
X159952380Y-100786904D02*
X159952380Y-100310714D01*
X160428571Y-100263095D01*
X160380952Y-100310714D01*
X160333333Y-100405952D01*
X160333333Y-100644047D01*
X160380952Y-100739285D01*
X160428571Y-100786904D01*
X160523809Y-100834523D01*
X160761904Y-100834523D01*
X160857142Y-100786904D01*
X160904761Y-100739285D01*
X160952380Y-100644047D01*
X160952380Y-100405952D01*
X160904761Y-100310714D01*
X160857142Y-100263095D01*
X160047619Y-101215476D02*
X160000000Y-101263095D01*
X159952380Y-101358333D01*
X159952380Y-101596428D01*
X160000000Y-101691666D01*
X160047619Y-101739285D01*
X160142857Y-101786904D01*
X160238095Y-101786904D01*
X160380952Y-101739285D01*
X160952380Y-101167857D01*
X160952380Y-101786904D01*
G04 #@! TO.C,R61*
X126452380Y-115857142D02*
X125976190Y-115523809D01*
X126452380Y-115285714D02*
X125452380Y-115285714D01*
X125452380Y-115666666D01*
X125500000Y-115761904D01*
X125547619Y-115809523D01*
X125642857Y-115857142D01*
X125785714Y-115857142D01*
X125880952Y-115809523D01*
X125928571Y-115761904D01*
X125976190Y-115666666D01*
X125976190Y-115285714D01*
X125452380Y-116714285D02*
X125452380Y-116523809D01*
X125500000Y-116428571D01*
X125547619Y-116380952D01*
X125690476Y-116285714D01*
X125880952Y-116238095D01*
X126261904Y-116238095D01*
X126357142Y-116285714D01*
X126404761Y-116333333D01*
X126452380Y-116428571D01*
X126452380Y-116619047D01*
X126404761Y-116714285D01*
X126357142Y-116761904D01*
X126261904Y-116809523D01*
X126023809Y-116809523D01*
X125928571Y-116761904D01*
X125880952Y-116714285D01*
X125833333Y-116619047D01*
X125833333Y-116428571D01*
X125880952Y-116333333D01*
X125928571Y-116285714D01*
X126023809Y-116238095D01*
X126452380Y-117761904D02*
X126452380Y-117190476D01*
X126452380Y-117476190D02*
X125452380Y-117476190D01*
X125595238Y-117380952D01*
X125690476Y-117285714D01*
X125738095Y-117190476D01*
G04 #@! TO.C,R72*
X171910857Y-93849380D02*
X172244190Y-93373190D01*
X172482285Y-93849380D02*
X172482285Y-92849380D01*
X172101333Y-92849380D01*
X172006095Y-92897000D01*
X171958476Y-92944619D01*
X171910857Y-93039857D01*
X171910857Y-93182714D01*
X171958476Y-93277952D01*
X172006095Y-93325571D01*
X172101333Y-93373190D01*
X172482285Y-93373190D01*
X171577523Y-92849380D02*
X170910857Y-92849380D01*
X171339428Y-93849380D01*
X170577523Y-92944619D02*
X170529904Y-92897000D01*
X170434666Y-92849380D01*
X170196571Y-92849380D01*
X170101333Y-92897000D01*
X170053714Y-92944619D01*
X170006095Y-93039857D01*
X170006095Y-93135095D01*
X170053714Y-93277952D01*
X170625142Y-93849380D01*
X170006095Y-93849380D01*
G04 #@! TO.C,R71*
X171935857Y-91349380D02*
X172269190Y-90873190D01*
X172507285Y-91349380D02*
X172507285Y-90349380D01*
X172126333Y-90349380D01*
X172031095Y-90397000D01*
X171983476Y-90444619D01*
X171935857Y-90539857D01*
X171935857Y-90682714D01*
X171983476Y-90777952D01*
X172031095Y-90825571D01*
X172126333Y-90873190D01*
X172507285Y-90873190D01*
X171602523Y-90349380D02*
X170935857Y-90349380D01*
X171364428Y-91349380D01*
X170031095Y-91349380D02*
X170602523Y-91349380D01*
X170316809Y-91349380D02*
X170316809Y-90349380D01*
X170412047Y-90492238D01*
X170507285Y-90587476D01*
X170602523Y-90635095D01*
G04 #@! TO.C,R74*
X193642857Y-118452380D02*
X193976190Y-117976190D01*
X194214285Y-118452380D02*
X194214285Y-117452380D01*
X193833333Y-117452380D01*
X193738095Y-117500000D01*
X193690476Y-117547619D01*
X193642857Y-117642857D01*
X193642857Y-117785714D01*
X193690476Y-117880952D01*
X193738095Y-117928571D01*
X193833333Y-117976190D01*
X194214285Y-117976190D01*
X193309523Y-117452380D02*
X192642857Y-117452380D01*
X193071428Y-118452380D01*
X191833333Y-117785714D02*
X191833333Y-118452380D01*
X192071428Y-117404761D02*
X192309523Y-118119047D01*
X191690476Y-118119047D01*
G04 #@! TO.C,R73*
X171935857Y-96349380D02*
X172269190Y-95873190D01*
X172507285Y-96349380D02*
X172507285Y-95349380D01*
X172126333Y-95349380D01*
X172031095Y-95397000D01*
X171983476Y-95444619D01*
X171935857Y-95539857D01*
X171935857Y-95682714D01*
X171983476Y-95777952D01*
X172031095Y-95825571D01*
X172126333Y-95873190D01*
X172507285Y-95873190D01*
X171602523Y-95349380D02*
X170935857Y-95349380D01*
X171364428Y-96349380D01*
X170650142Y-95349380D02*
X170031095Y-95349380D01*
X170364428Y-95730333D01*
X170221571Y-95730333D01*
X170126333Y-95777952D01*
X170078714Y-95825571D01*
X170031095Y-95920809D01*
X170031095Y-96158904D01*
X170078714Y-96254142D01*
X170126333Y-96301761D01*
X170221571Y-96349380D01*
X170507285Y-96349380D01*
X170602523Y-96301761D01*
X170650142Y-96254142D01*
G04 #@! TO.C,R66*
X136452380Y-115857142D02*
X135976190Y-115523809D01*
X136452380Y-115285714D02*
X135452380Y-115285714D01*
X135452380Y-115666666D01*
X135500000Y-115761904D01*
X135547619Y-115809523D01*
X135642857Y-115857142D01*
X135785714Y-115857142D01*
X135880952Y-115809523D01*
X135928571Y-115761904D01*
X135976190Y-115666666D01*
X135976190Y-115285714D01*
X135452380Y-116714285D02*
X135452380Y-116523809D01*
X135500000Y-116428571D01*
X135547619Y-116380952D01*
X135690476Y-116285714D01*
X135880952Y-116238095D01*
X136261904Y-116238095D01*
X136357142Y-116285714D01*
X136404761Y-116333333D01*
X136452380Y-116428571D01*
X136452380Y-116619047D01*
X136404761Y-116714285D01*
X136357142Y-116761904D01*
X136261904Y-116809523D01*
X136023809Y-116809523D01*
X135928571Y-116761904D01*
X135880952Y-116714285D01*
X135833333Y-116619047D01*
X135833333Y-116428571D01*
X135880952Y-116333333D01*
X135928571Y-116285714D01*
X136023809Y-116238095D01*
X135452380Y-117666666D02*
X135452380Y-117476190D01*
X135500000Y-117380952D01*
X135547619Y-117333333D01*
X135690476Y-117238095D01*
X135880952Y-117190476D01*
X136261904Y-117190476D01*
X136357142Y-117238095D01*
X136404761Y-117285714D01*
X136452380Y-117380952D01*
X136452380Y-117571428D01*
X136404761Y-117666666D01*
X136357142Y-117714285D01*
X136261904Y-117761904D01*
X136023809Y-117761904D01*
X135928571Y-117714285D01*
X135880952Y-117666666D01*
X135833333Y-117571428D01*
X135833333Y-117380952D01*
X135880952Y-117285714D01*
X135928571Y-117238095D01*
X136023809Y-117190476D01*
G04 #@! TO.C,R65*
X133952380Y-115857142D02*
X133476190Y-115523809D01*
X133952380Y-115285714D02*
X132952380Y-115285714D01*
X132952380Y-115666666D01*
X133000000Y-115761904D01*
X133047619Y-115809523D01*
X133142857Y-115857142D01*
X133285714Y-115857142D01*
X133380952Y-115809523D01*
X133428571Y-115761904D01*
X133476190Y-115666666D01*
X133476190Y-115285714D01*
X132952380Y-116714285D02*
X132952380Y-116523809D01*
X133000000Y-116428571D01*
X133047619Y-116380952D01*
X133190476Y-116285714D01*
X133380952Y-116238095D01*
X133761904Y-116238095D01*
X133857142Y-116285714D01*
X133904761Y-116333333D01*
X133952380Y-116428571D01*
X133952380Y-116619047D01*
X133904761Y-116714285D01*
X133857142Y-116761904D01*
X133761904Y-116809523D01*
X133523809Y-116809523D01*
X133428571Y-116761904D01*
X133380952Y-116714285D01*
X133333333Y-116619047D01*
X133333333Y-116428571D01*
X133380952Y-116333333D01*
X133428571Y-116285714D01*
X133523809Y-116238095D01*
X132952380Y-117714285D02*
X132952380Y-117238095D01*
X133428571Y-117190476D01*
X133380952Y-117238095D01*
X133333333Y-117333333D01*
X133333333Y-117571428D01*
X133380952Y-117666666D01*
X133428571Y-117714285D01*
X133523809Y-117761904D01*
X133761904Y-117761904D01*
X133857142Y-117714285D01*
X133904761Y-117666666D01*
X133952380Y-117571428D01*
X133952380Y-117333333D01*
X133904761Y-117238095D01*
X133857142Y-117190476D01*
G04 #@! TO.C,R64*
X131452380Y-115882142D02*
X130976190Y-115548809D01*
X131452380Y-115310714D02*
X130452380Y-115310714D01*
X130452380Y-115691666D01*
X130500000Y-115786904D01*
X130547619Y-115834523D01*
X130642857Y-115882142D01*
X130785714Y-115882142D01*
X130880952Y-115834523D01*
X130928571Y-115786904D01*
X130976190Y-115691666D01*
X130976190Y-115310714D01*
X130452380Y-116739285D02*
X130452380Y-116548809D01*
X130500000Y-116453571D01*
X130547619Y-116405952D01*
X130690476Y-116310714D01*
X130880952Y-116263095D01*
X131261904Y-116263095D01*
X131357142Y-116310714D01*
X131404761Y-116358333D01*
X131452380Y-116453571D01*
X131452380Y-116644047D01*
X131404761Y-116739285D01*
X131357142Y-116786904D01*
X131261904Y-116834523D01*
X131023809Y-116834523D01*
X130928571Y-116786904D01*
X130880952Y-116739285D01*
X130833333Y-116644047D01*
X130833333Y-116453571D01*
X130880952Y-116358333D01*
X130928571Y-116310714D01*
X131023809Y-116263095D01*
X130785714Y-117691666D02*
X131452380Y-117691666D01*
X130404761Y-117453571D02*
X131119047Y-117215476D01*
X131119047Y-117834523D01*
G04 #@! TO.C,R63*
X128952380Y-115882142D02*
X128476190Y-115548809D01*
X128952380Y-115310714D02*
X127952380Y-115310714D01*
X127952380Y-115691666D01*
X128000000Y-115786904D01*
X128047619Y-115834523D01*
X128142857Y-115882142D01*
X128285714Y-115882142D01*
X128380952Y-115834523D01*
X128428571Y-115786904D01*
X128476190Y-115691666D01*
X128476190Y-115310714D01*
X127952380Y-116739285D02*
X127952380Y-116548809D01*
X128000000Y-116453571D01*
X128047619Y-116405952D01*
X128190476Y-116310714D01*
X128380952Y-116263095D01*
X128761904Y-116263095D01*
X128857142Y-116310714D01*
X128904761Y-116358333D01*
X128952380Y-116453571D01*
X128952380Y-116644047D01*
X128904761Y-116739285D01*
X128857142Y-116786904D01*
X128761904Y-116834523D01*
X128523809Y-116834523D01*
X128428571Y-116786904D01*
X128380952Y-116739285D01*
X128333333Y-116644047D01*
X128333333Y-116453571D01*
X128380952Y-116358333D01*
X128428571Y-116310714D01*
X128523809Y-116263095D01*
X127952380Y-117167857D02*
X127952380Y-117786904D01*
X128333333Y-117453571D01*
X128333333Y-117596428D01*
X128380952Y-117691666D01*
X128428571Y-117739285D01*
X128523809Y-117786904D01*
X128761904Y-117786904D01*
X128857142Y-117739285D01*
X128904761Y-117691666D01*
X128952380Y-117596428D01*
X128952380Y-117310714D01*
X128904761Y-117215476D01*
X128857142Y-117167857D01*
G04 #@! TO.C,R24*
X193892857Y-115452380D02*
X194226190Y-114976190D01*
X194464285Y-115452380D02*
X194464285Y-114452380D01*
X194083333Y-114452380D01*
X193988095Y-114500000D01*
X193940476Y-114547619D01*
X193892857Y-114642857D01*
X193892857Y-114785714D01*
X193940476Y-114880952D01*
X193988095Y-114928571D01*
X194083333Y-114976190D01*
X194464285Y-114976190D01*
X193511904Y-114547619D02*
X193464285Y-114500000D01*
X193369047Y-114452380D01*
X193130952Y-114452380D01*
X193035714Y-114500000D01*
X192988095Y-114547619D01*
X192940476Y-114642857D01*
X192940476Y-114738095D01*
X192988095Y-114880952D01*
X193559523Y-115452380D01*
X192940476Y-115452380D01*
X192083333Y-114785714D02*
X192083333Y-115452380D01*
X192321428Y-114404761D02*
X192559523Y-115119047D01*
X191940476Y-115119047D01*
G04 #@! TO.C,R25*
X193892857Y-112452380D02*
X194226190Y-111976190D01*
X194464285Y-112452380D02*
X194464285Y-111452380D01*
X194083333Y-111452380D01*
X193988095Y-111500000D01*
X193940476Y-111547619D01*
X193892857Y-111642857D01*
X193892857Y-111785714D01*
X193940476Y-111880952D01*
X193988095Y-111928571D01*
X194083333Y-111976190D01*
X194464285Y-111976190D01*
X193511904Y-111547619D02*
X193464285Y-111500000D01*
X193369047Y-111452380D01*
X193130952Y-111452380D01*
X193035714Y-111500000D01*
X192988095Y-111547619D01*
X192940476Y-111642857D01*
X192940476Y-111738095D01*
X192988095Y-111880952D01*
X193559523Y-112452380D01*
X192940476Y-112452380D01*
X192035714Y-111452380D02*
X192511904Y-111452380D01*
X192559523Y-111928571D01*
X192511904Y-111880952D01*
X192416666Y-111833333D01*
X192178571Y-111833333D01*
X192083333Y-111880952D01*
X192035714Y-111928571D01*
X191988095Y-112023809D01*
X191988095Y-112261904D01*
X192035714Y-112357142D01*
X192083333Y-112404761D01*
X192178571Y-112452380D01*
X192416666Y-112452380D01*
X192511904Y-112404761D01*
X192559523Y-112357142D01*
G04 #@! TO.C,R27*
X193892857Y-109452380D02*
X194226190Y-108976190D01*
X194464285Y-109452380D02*
X194464285Y-108452380D01*
X194083333Y-108452380D01*
X193988095Y-108500000D01*
X193940476Y-108547619D01*
X193892857Y-108642857D01*
X193892857Y-108785714D01*
X193940476Y-108880952D01*
X193988095Y-108928571D01*
X194083333Y-108976190D01*
X194464285Y-108976190D01*
X193511904Y-108547619D02*
X193464285Y-108500000D01*
X193369047Y-108452380D01*
X193130952Y-108452380D01*
X193035714Y-108500000D01*
X192988095Y-108547619D01*
X192940476Y-108642857D01*
X192940476Y-108738095D01*
X192988095Y-108880952D01*
X193559523Y-109452380D01*
X192940476Y-109452380D01*
X192607142Y-108452380D02*
X191940476Y-108452380D01*
X192369047Y-109452380D01*
G04 #@! TO.C,R28*
X193892857Y-106452380D02*
X194226190Y-105976190D01*
X194464285Y-106452380D02*
X194464285Y-105452380D01*
X194083333Y-105452380D01*
X193988095Y-105500000D01*
X193940476Y-105547619D01*
X193892857Y-105642857D01*
X193892857Y-105785714D01*
X193940476Y-105880952D01*
X193988095Y-105928571D01*
X194083333Y-105976190D01*
X194464285Y-105976190D01*
X193511904Y-105547619D02*
X193464285Y-105500000D01*
X193369047Y-105452380D01*
X193130952Y-105452380D01*
X193035714Y-105500000D01*
X192988095Y-105547619D01*
X192940476Y-105642857D01*
X192940476Y-105738095D01*
X192988095Y-105880952D01*
X193559523Y-106452380D01*
X192940476Y-106452380D01*
X192369047Y-105880952D02*
X192464285Y-105833333D01*
X192511904Y-105785714D01*
X192559523Y-105690476D01*
X192559523Y-105642857D01*
X192511904Y-105547619D01*
X192464285Y-105500000D01*
X192369047Y-105452380D01*
X192178571Y-105452380D01*
X192083333Y-105500000D01*
X192035714Y-105547619D01*
X191988095Y-105642857D01*
X191988095Y-105690476D01*
X192035714Y-105785714D01*
X192083333Y-105833333D01*
X192178571Y-105880952D01*
X192369047Y-105880952D01*
X192464285Y-105928571D01*
X192511904Y-105976190D01*
X192559523Y-106071428D01*
X192559523Y-106261904D01*
X192511904Y-106357142D01*
X192464285Y-106404761D01*
X192369047Y-106452380D01*
X192178571Y-106452380D01*
X192083333Y-106404761D01*
X192035714Y-106357142D01*
X191988095Y-106261904D01*
X191988095Y-106071428D01*
X192035714Y-105976190D01*
X192083333Y-105928571D01*
X192178571Y-105880952D01*
G04 #@! TO.C,R29*
X197642857Y-110952380D02*
X197976190Y-110476190D01*
X198214285Y-110952380D02*
X198214285Y-109952380D01*
X197833333Y-109952380D01*
X197738095Y-110000000D01*
X197690476Y-110047619D01*
X197642857Y-110142857D01*
X197642857Y-110285714D01*
X197690476Y-110380952D01*
X197738095Y-110428571D01*
X197833333Y-110476190D01*
X198214285Y-110476190D01*
X197261904Y-110047619D02*
X197214285Y-110000000D01*
X197119047Y-109952380D01*
X196880952Y-109952380D01*
X196785714Y-110000000D01*
X196738095Y-110047619D01*
X196690476Y-110142857D01*
X196690476Y-110238095D01*
X196738095Y-110380952D01*
X197309523Y-110952380D01*
X196690476Y-110952380D01*
X196214285Y-110952380D02*
X196023809Y-110952380D01*
X195928571Y-110904761D01*
X195880952Y-110857142D01*
X195785714Y-110714285D01*
X195738095Y-110523809D01*
X195738095Y-110142857D01*
X195785714Y-110047619D01*
X195833333Y-110000000D01*
X195928571Y-109952380D01*
X196119047Y-109952380D01*
X196214285Y-110000000D01*
X196261904Y-110047619D01*
X196309523Y-110142857D01*
X196309523Y-110380952D01*
X196261904Y-110476190D01*
X196214285Y-110523809D01*
X196119047Y-110571428D01*
X195928571Y-110571428D01*
X195833333Y-110523809D01*
X195785714Y-110476190D01*
X195738095Y-110380952D01*
G04 #@! TO.C,R210*
X197619047Y-113952380D02*
X197952380Y-113476190D01*
X198190476Y-113952380D02*
X198190476Y-112952380D01*
X197809523Y-112952380D01*
X197714285Y-113000000D01*
X197666666Y-113047619D01*
X197619047Y-113142857D01*
X197619047Y-113285714D01*
X197666666Y-113380952D01*
X197714285Y-113428571D01*
X197809523Y-113476190D01*
X198190476Y-113476190D01*
X197238095Y-113047619D02*
X197190476Y-113000000D01*
X197095238Y-112952380D01*
X196857142Y-112952380D01*
X196761904Y-113000000D01*
X196714285Y-113047619D01*
X196666666Y-113142857D01*
X196666666Y-113238095D01*
X196714285Y-113380952D01*
X197285714Y-113952380D01*
X196666666Y-113952380D01*
X195714285Y-113952380D02*
X196285714Y-113952380D01*
X196000000Y-113952380D02*
X196000000Y-112952380D01*
X196095238Y-113095238D01*
X196190476Y-113190476D01*
X196285714Y-113238095D01*
X195095238Y-112952380D02*
X195000000Y-112952380D01*
X194904761Y-113000000D01*
X194857142Y-113047619D01*
X194809523Y-113142857D01*
X194761904Y-113333333D01*
X194761904Y-113571428D01*
X194809523Y-113761904D01*
X194857142Y-113857142D01*
X194904761Y-113904761D01*
X195000000Y-113952380D01*
X195095238Y-113952380D01*
X195190476Y-113904761D01*
X195238095Y-113857142D01*
X195285714Y-113761904D01*
X195333333Y-113571428D01*
X195333333Y-113333333D01*
X195285714Y-113142857D01*
X195238095Y-113047619D01*
X195190476Y-113000000D01*
X195095238Y-112952380D01*
G04 #@! TO.C,U1*
X135908881Y-95331385D02*
X136481301Y-95903805D01*
X136514973Y-96004820D01*
X136514973Y-96072164D01*
X136481301Y-96173179D01*
X136346614Y-96307866D01*
X136245599Y-96341538D01*
X136178255Y-96341538D01*
X136077240Y-96307866D01*
X135504820Y-95735446D01*
X135504820Y-97149660D02*
X135908881Y-96745599D01*
X135706851Y-96947629D02*
X134999744Y-96240523D01*
X135168103Y-96274194D01*
X135302790Y-96274194D01*
X135403805Y-96240523D01*
G04 #@! TO.C,U6*
X161261904Y-106952380D02*
X161261904Y-107761904D01*
X161214285Y-107857142D01*
X161166666Y-107904761D01*
X161071428Y-107952380D01*
X160880952Y-107952380D01*
X160785714Y-107904761D01*
X160738095Y-107857142D01*
X160690476Y-107761904D01*
X160690476Y-106952380D01*
X159785714Y-106952380D02*
X159976190Y-106952380D01*
X160071428Y-107000000D01*
X160119047Y-107047619D01*
X160214285Y-107190476D01*
X160261904Y-107380952D01*
X160261904Y-107761904D01*
X160214285Y-107857142D01*
X160166666Y-107904761D01*
X160071428Y-107952380D01*
X159880952Y-107952380D01*
X159785714Y-107904761D01*
X159738095Y-107857142D01*
X159690476Y-107761904D01*
X159690476Y-107523809D01*
X159738095Y-107428571D01*
X159785714Y-107380952D01*
X159880952Y-107333333D01*
X160071428Y-107333333D01*
X160166666Y-107380952D01*
X160214285Y-107428571D01*
X160261904Y-107523809D01*
X166476190Y-115202380D02*
X166476190Y-114202380D01*
X166142857Y-114916666D01*
X165809523Y-114202380D01*
X165809523Y-115202380D01*
X165285714Y-115202380D02*
X165095238Y-115202380D01*
X165000000Y-115154761D01*
X164952380Y-115107142D01*
X164857142Y-114964285D01*
X164809523Y-114773809D01*
X164809523Y-114392857D01*
X164857142Y-114297619D01*
X164904761Y-114250000D01*
X165000000Y-114202380D01*
X165190476Y-114202380D01*
X165285714Y-114250000D01*
X165333333Y-114297619D01*
X165380952Y-114392857D01*
X165380952Y-114630952D01*
X165333333Y-114726190D01*
X165285714Y-114773809D01*
X165190476Y-114821428D01*
X165000000Y-114821428D01*
X164904761Y-114773809D01*
X164857142Y-114726190D01*
X164809523Y-114630952D01*
X163904761Y-114202380D02*
X164380952Y-114202380D01*
X164428571Y-114678571D01*
X164380952Y-114630952D01*
X164285714Y-114583333D01*
X164047619Y-114583333D01*
X163952380Y-114630952D01*
X163904761Y-114678571D01*
X163857142Y-114773809D01*
X163857142Y-115011904D01*
X163904761Y-115107142D01*
X163952380Y-115154761D01*
X164047619Y-115202380D01*
X164285714Y-115202380D01*
X164380952Y-115154761D01*
X164428571Y-115107142D01*
X163523809Y-114202380D02*
X162904761Y-114202380D01*
X163238095Y-114583333D01*
X163095238Y-114583333D01*
X163000000Y-114630952D01*
X162952380Y-114678571D01*
X162904761Y-114773809D01*
X162904761Y-115011904D01*
X162952380Y-115107142D01*
X163000000Y-115154761D01*
X163095238Y-115202380D01*
X163380952Y-115202380D01*
X163476190Y-115154761D01*
X163523809Y-115107142D01*
X162523809Y-114297619D02*
X162476190Y-114250000D01*
X162380952Y-114202380D01*
X162142857Y-114202380D01*
X162047619Y-114250000D01*
X162000000Y-114297619D01*
X161952380Y-114392857D01*
X161952380Y-114488095D01*
X162000000Y-114630952D01*
X162571428Y-115202380D01*
X161952380Y-115202380D01*
X161333333Y-114202380D02*
X161238095Y-114202380D01*
X161142857Y-114250000D01*
X161095238Y-114297619D01*
X161047619Y-114392857D01*
X161000000Y-114583333D01*
X161000000Y-114821428D01*
X161047619Y-115011904D01*
X161095238Y-115107142D01*
X161142857Y-115154761D01*
X161238095Y-115202380D01*
X161333333Y-115202380D01*
X161428571Y-115154761D01*
X161476190Y-115107142D01*
X161523809Y-115011904D01*
X161571428Y-114821428D01*
X161571428Y-114583333D01*
X161523809Y-114392857D01*
X161476190Y-114297619D01*
X161428571Y-114250000D01*
X161333333Y-114202380D01*
X160571428Y-114821428D02*
X159809523Y-114821428D01*
X159428571Y-114202380D02*
X159190476Y-115202380D01*
X159000000Y-114488095D01*
X158809523Y-115202380D01*
X158571428Y-114202380D01*
X158190476Y-115202380D02*
X158190476Y-114202380D01*
X157857142Y-114916666D01*
X157523809Y-114202380D01*
X157523809Y-115202380D01*
X157047619Y-115202380D02*
X157047619Y-114202380D01*
X156476190Y-115202380D01*
X156476190Y-114202380D01*
X155571428Y-114202380D02*
X155761904Y-114202380D01*
X155857142Y-114250000D01*
X155904761Y-114297619D01*
X156000000Y-114440476D01*
X156047619Y-114630952D01*
X156047619Y-115011904D01*
X156000000Y-115107142D01*
X155952380Y-115154761D01*
X155857142Y-115202380D01*
X155666666Y-115202380D01*
X155571428Y-115154761D01*
X155523809Y-115107142D01*
X155476190Y-115011904D01*
X155476190Y-114773809D01*
X155523809Y-114678571D01*
X155571428Y-114630952D01*
X155666666Y-114583333D01*
X155857142Y-114583333D01*
X155952380Y-114630952D01*
X156000000Y-114678571D01*
X156047619Y-114773809D01*
X155047619Y-115202380D02*
X155047619Y-114202380D01*
X154666666Y-114202380D01*
X154571428Y-114250000D01*
X154523809Y-114297619D01*
X154476190Y-114392857D01*
X154476190Y-114535714D01*
X154523809Y-114630952D01*
X154571428Y-114678571D01*
X154666666Y-114726190D01*
X155047619Y-114726190D01*
G04 #@! TO.C,Y1*
X147976190Y-91026190D02*
X147976190Y-91502380D01*
X148309523Y-90502380D02*
X147976190Y-91026190D01*
X147642857Y-90502380D01*
X146785714Y-91502380D02*
X147357142Y-91502380D01*
X147071428Y-91502380D02*
X147071428Y-90502380D01*
X147166666Y-90645238D01*
X147261904Y-90740476D01*
X147357142Y-90788095D01*
G04 #@! TO.C,C12*
X101607142Y-112107142D02*
X101654761Y-112059523D01*
X101702380Y-111916666D01*
X101702380Y-111821428D01*
X101654761Y-111678571D01*
X101559523Y-111583333D01*
X101464285Y-111535714D01*
X101273809Y-111488095D01*
X101130952Y-111488095D01*
X100940476Y-111535714D01*
X100845238Y-111583333D01*
X100750000Y-111678571D01*
X100702380Y-111821428D01*
X100702380Y-111916666D01*
X100750000Y-112059523D01*
X100797619Y-112107142D01*
X101702380Y-113059523D02*
X101702380Y-112488095D01*
X101702380Y-112773809D02*
X100702380Y-112773809D01*
X100845238Y-112678571D01*
X100940476Y-112583333D01*
X100988095Y-112488095D01*
X100797619Y-113440476D02*
X100750000Y-113488095D01*
X100702380Y-113583333D01*
X100702380Y-113821428D01*
X100750000Y-113916666D01*
X100797619Y-113964285D01*
X100892857Y-114011904D01*
X100988095Y-114011904D01*
X101130952Y-113964285D01*
X101702380Y-113392857D01*
X101702380Y-114011904D01*
G04 #@! TO.C,C13*
X87857142Y-120107142D02*
X87904761Y-120059523D01*
X87952380Y-119916666D01*
X87952380Y-119821428D01*
X87904761Y-119678571D01*
X87809523Y-119583333D01*
X87714285Y-119535714D01*
X87523809Y-119488095D01*
X87380952Y-119488095D01*
X87190476Y-119535714D01*
X87095238Y-119583333D01*
X87000000Y-119678571D01*
X86952380Y-119821428D01*
X86952380Y-119916666D01*
X87000000Y-120059523D01*
X87047619Y-120107142D01*
X87952380Y-121059523D02*
X87952380Y-120488095D01*
X87952380Y-120773809D02*
X86952380Y-120773809D01*
X87095238Y-120678571D01*
X87190476Y-120583333D01*
X87238095Y-120488095D01*
X86952380Y-121392857D02*
X86952380Y-122011904D01*
X87333333Y-121678571D01*
X87333333Y-121821428D01*
X87380952Y-121916666D01*
X87428571Y-121964285D01*
X87523809Y-122011904D01*
X87761904Y-122011904D01*
X87857142Y-121964285D01*
X87904761Y-121916666D01*
X87952380Y-121821428D01*
X87952380Y-121535714D01*
X87904761Y-121440476D01*
X87857142Y-121392857D01*
G04 #@! TO.C,C14*
X104607142Y-112107142D02*
X104654761Y-112059523D01*
X104702380Y-111916666D01*
X104702380Y-111821428D01*
X104654761Y-111678571D01*
X104559523Y-111583333D01*
X104464285Y-111535714D01*
X104273809Y-111488095D01*
X104130952Y-111488095D01*
X103940476Y-111535714D01*
X103845238Y-111583333D01*
X103750000Y-111678571D01*
X103702380Y-111821428D01*
X103702380Y-111916666D01*
X103750000Y-112059523D01*
X103797619Y-112107142D01*
X104702380Y-113059523D02*
X104702380Y-112488095D01*
X104702380Y-112773809D02*
X103702380Y-112773809D01*
X103845238Y-112678571D01*
X103940476Y-112583333D01*
X103988095Y-112488095D01*
X104035714Y-113916666D02*
X104702380Y-113916666D01*
X103654761Y-113678571D02*
X104369047Y-113440476D01*
X104369047Y-114059523D01*
G04 #@! TO.C,C15*
X106857142Y-112107142D02*
X106904761Y-112059523D01*
X106952380Y-111916666D01*
X106952380Y-111821428D01*
X106904761Y-111678571D01*
X106809523Y-111583333D01*
X106714285Y-111535714D01*
X106523809Y-111488095D01*
X106380952Y-111488095D01*
X106190476Y-111535714D01*
X106095238Y-111583333D01*
X106000000Y-111678571D01*
X105952380Y-111821428D01*
X105952380Y-111916666D01*
X106000000Y-112059523D01*
X106047619Y-112107142D01*
X106952380Y-113059523D02*
X106952380Y-112488095D01*
X106952380Y-112773809D02*
X105952380Y-112773809D01*
X106095238Y-112678571D01*
X106190476Y-112583333D01*
X106238095Y-112488095D01*
X105952380Y-113964285D02*
X105952380Y-113488095D01*
X106428571Y-113440476D01*
X106380952Y-113488095D01*
X106333333Y-113583333D01*
X106333333Y-113821428D01*
X106380952Y-113916666D01*
X106428571Y-113964285D01*
X106523809Y-114011904D01*
X106761904Y-114011904D01*
X106857142Y-113964285D01*
X106904761Y-113916666D01*
X106952380Y-113821428D01*
X106952380Y-113583333D01*
X106904761Y-113488095D01*
X106857142Y-113440476D01*
G04 #@! TO.C,C16*
X110107142Y-123607142D02*
X110154761Y-123559523D01*
X110202380Y-123416666D01*
X110202380Y-123321428D01*
X110154761Y-123178571D01*
X110059523Y-123083333D01*
X109964285Y-123035714D01*
X109773809Y-122988095D01*
X109630952Y-122988095D01*
X109440476Y-123035714D01*
X109345238Y-123083333D01*
X109250000Y-123178571D01*
X109202380Y-123321428D01*
X109202380Y-123416666D01*
X109250000Y-123559523D01*
X109297619Y-123607142D01*
X110202380Y-124559523D02*
X110202380Y-123988095D01*
X110202380Y-124273809D02*
X109202380Y-124273809D01*
X109345238Y-124178571D01*
X109440476Y-124083333D01*
X109488095Y-123988095D01*
X109202380Y-125416666D02*
X109202380Y-125226190D01*
X109250000Y-125130952D01*
X109297619Y-125083333D01*
X109440476Y-124988095D01*
X109630952Y-124940476D01*
X110011904Y-124940476D01*
X110107142Y-124988095D01*
X110154761Y-125035714D01*
X110202380Y-125130952D01*
X110202380Y-125321428D01*
X110154761Y-125416666D01*
X110107142Y-125464285D01*
X110011904Y-125511904D01*
X109773809Y-125511904D01*
X109678571Y-125464285D01*
X109630952Y-125416666D01*
X109583333Y-125321428D01*
X109583333Y-125130952D01*
X109630952Y-125035714D01*
X109678571Y-124988095D01*
X109773809Y-124940476D01*
G04 #@! TO.C,C21*
X92142857Y-87357142D02*
X92190476Y-87404761D01*
X92333333Y-87452380D01*
X92428571Y-87452380D01*
X92571428Y-87404761D01*
X92666666Y-87309523D01*
X92714285Y-87214285D01*
X92761904Y-87023809D01*
X92761904Y-86880952D01*
X92714285Y-86690476D01*
X92666666Y-86595238D01*
X92571428Y-86500000D01*
X92428571Y-86452380D01*
X92333333Y-86452380D01*
X92190476Y-86500000D01*
X92142857Y-86547619D01*
X91761904Y-86547619D02*
X91714285Y-86500000D01*
X91619047Y-86452380D01*
X91380952Y-86452380D01*
X91285714Y-86500000D01*
X91238095Y-86547619D01*
X91190476Y-86642857D01*
X91190476Y-86738095D01*
X91238095Y-86880952D01*
X91809523Y-87452380D01*
X91190476Y-87452380D01*
X90238095Y-87452380D02*
X90809523Y-87452380D01*
X90523809Y-87452380D02*
X90523809Y-86452380D01*
X90619047Y-86595238D01*
X90714285Y-86690476D01*
X90809523Y-86738095D01*
G04 #@! TO.C,C22*
X183642857Y-112607142D02*
X183690476Y-112654761D01*
X183833333Y-112702380D01*
X183928571Y-112702380D01*
X184071428Y-112654761D01*
X184166666Y-112559523D01*
X184214285Y-112464285D01*
X184261904Y-112273809D01*
X184261904Y-112130952D01*
X184214285Y-111940476D01*
X184166666Y-111845238D01*
X184071428Y-111750000D01*
X183928571Y-111702380D01*
X183833333Y-111702380D01*
X183690476Y-111750000D01*
X183642857Y-111797619D01*
X183261904Y-111797619D02*
X183214285Y-111750000D01*
X183119047Y-111702380D01*
X182880952Y-111702380D01*
X182785714Y-111750000D01*
X182738095Y-111797619D01*
X182690476Y-111892857D01*
X182690476Y-111988095D01*
X182738095Y-112130952D01*
X183309523Y-112702380D01*
X182690476Y-112702380D01*
X182309523Y-111797619D02*
X182261904Y-111750000D01*
X182166666Y-111702380D01*
X181928571Y-111702380D01*
X181833333Y-111750000D01*
X181785714Y-111797619D01*
X181738095Y-111892857D01*
X181738095Y-111988095D01*
X181785714Y-112130952D01*
X182357142Y-112702380D01*
X181738095Y-112702380D01*
G04 #@! TO.C,C25*
X138857142Y-115857142D02*
X138904761Y-115809523D01*
X138952380Y-115666666D01*
X138952380Y-115571428D01*
X138904761Y-115428571D01*
X138809523Y-115333333D01*
X138714285Y-115285714D01*
X138523809Y-115238095D01*
X138380952Y-115238095D01*
X138190476Y-115285714D01*
X138095238Y-115333333D01*
X138000000Y-115428571D01*
X137952380Y-115571428D01*
X137952380Y-115666666D01*
X138000000Y-115809523D01*
X138047619Y-115857142D01*
X138047619Y-116238095D02*
X138000000Y-116285714D01*
X137952380Y-116380952D01*
X137952380Y-116619047D01*
X138000000Y-116714285D01*
X138047619Y-116761904D01*
X138142857Y-116809523D01*
X138238095Y-116809523D01*
X138380952Y-116761904D01*
X138952380Y-116190476D01*
X138952380Y-116809523D01*
X137952380Y-117714285D02*
X137952380Y-117238095D01*
X138428571Y-117190476D01*
X138380952Y-117238095D01*
X138333333Y-117333333D01*
X138333333Y-117571428D01*
X138380952Y-117666666D01*
X138428571Y-117714285D01*
X138523809Y-117761904D01*
X138761904Y-117761904D01*
X138857142Y-117714285D01*
X138904761Y-117666666D01*
X138952380Y-117571428D01*
X138952380Y-117333333D01*
X138904761Y-117238095D01*
X138857142Y-117190476D01*
G04 #@! TO.C,D1*
X122452380Y-119011904D02*
X121452380Y-119011904D01*
X121452380Y-119250000D01*
X121500000Y-119392857D01*
X121595238Y-119488095D01*
X121690476Y-119535714D01*
X121880952Y-119583333D01*
X122023809Y-119583333D01*
X122214285Y-119535714D01*
X122309523Y-119488095D01*
X122404761Y-119392857D01*
X122452380Y-119250000D01*
X122452380Y-119011904D01*
X122452380Y-120535714D02*
X122452380Y-119964285D01*
X122452380Y-120250000D02*
X121452380Y-120250000D01*
X121595238Y-120154761D01*
X121690476Y-120059523D01*
X121738095Y-119964285D01*
G04 #@! TO.C,D2*
X113738095Y-133952380D02*
X113738095Y-132952380D01*
X113500000Y-132952380D01*
X113357142Y-133000000D01*
X113261904Y-133095238D01*
X113214285Y-133190476D01*
X113166666Y-133380952D01*
X113166666Y-133523809D01*
X113214285Y-133714285D01*
X113261904Y-133809523D01*
X113357142Y-133904761D01*
X113500000Y-133952380D01*
X113738095Y-133952380D01*
X112785714Y-133047619D02*
X112738095Y-133000000D01*
X112642857Y-132952380D01*
X112404761Y-132952380D01*
X112309523Y-133000000D01*
X112261904Y-133047619D01*
X112214285Y-133142857D01*
X112214285Y-133238095D01*
X112261904Y-133380952D01*
X112833333Y-133952380D01*
X112214285Y-133952380D01*
G04 #@! TO.C,D3*
X193738095Y-121202380D02*
X193738095Y-120202380D01*
X193500000Y-120202380D01*
X193357142Y-120250000D01*
X193261904Y-120345238D01*
X193214285Y-120440476D01*
X193166666Y-120630952D01*
X193166666Y-120773809D01*
X193214285Y-120964285D01*
X193261904Y-121059523D01*
X193357142Y-121154761D01*
X193500000Y-121202380D01*
X193738095Y-121202380D01*
X192833333Y-120202380D02*
X192214285Y-120202380D01*
X192547619Y-120583333D01*
X192404761Y-120583333D01*
X192309523Y-120630952D01*
X192261904Y-120678571D01*
X192214285Y-120773809D01*
X192214285Y-121011904D01*
X192261904Y-121107142D01*
X192309523Y-121154761D01*
X192404761Y-121202380D01*
X192690476Y-121202380D01*
X192785714Y-121154761D01*
X192833333Y-121107142D01*
G04 #@! TO.C,D4*
X101488095Y-129452380D02*
X101488095Y-128452380D01*
X101250000Y-128452380D01*
X101107142Y-128500000D01*
X101011904Y-128595238D01*
X100964285Y-128690476D01*
X100916666Y-128880952D01*
X100916666Y-129023809D01*
X100964285Y-129214285D01*
X101011904Y-129309523D01*
X101107142Y-129404761D01*
X101250000Y-129452380D01*
X101488095Y-129452380D01*
X100059523Y-128785714D02*
X100059523Y-129452380D01*
X100297619Y-128404761D02*
X100535714Y-129119047D01*
X99916666Y-129119047D01*
G04 #@! TO.C,D5*
X89952380Y-117261904D02*
X88952380Y-117261904D01*
X88952380Y-117500000D01*
X89000000Y-117642857D01*
X89095238Y-117738095D01*
X89190476Y-117785714D01*
X89380952Y-117833333D01*
X89523809Y-117833333D01*
X89714285Y-117785714D01*
X89809523Y-117738095D01*
X89904761Y-117642857D01*
X89952380Y-117500000D01*
X89952380Y-117261904D01*
X88952380Y-118738095D02*
X88952380Y-118261904D01*
X89428571Y-118214285D01*
X89380952Y-118261904D01*
X89333333Y-118357142D01*
X89333333Y-118595238D01*
X89380952Y-118690476D01*
X89428571Y-118738095D01*
X89523809Y-118785714D01*
X89761904Y-118785714D01*
X89857142Y-118738095D01*
X89904761Y-118690476D01*
X89952380Y-118595238D01*
X89952380Y-118357142D01*
X89904761Y-118261904D01*
X89857142Y-118214285D01*
G04 #@! TO.C,F1*
X113333333Y-126108571D02*
X113666666Y-126108571D01*
X113666666Y-126632380D02*
X113666666Y-125632380D01*
X113190476Y-125632380D01*
X112285714Y-126632380D02*
X112857142Y-126632380D01*
X112571428Y-126632380D02*
X112571428Y-125632380D01*
X112666666Y-125775238D01*
X112761904Y-125870476D01*
X112857142Y-125918095D01*
G04 #@! TO.C,R13*
X90952380Y-120107142D02*
X90476190Y-119773809D01*
X90952380Y-119535714D02*
X89952380Y-119535714D01*
X89952380Y-119916666D01*
X90000000Y-120011904D01*
X90047619Y-120059523D01*
X90142857Y-120107142D01*
X90285714Y-120107142D01*
X90380952Y-120059523D01*
X90428571Y-120011904D01*
X90476190Y-119916666D01*
X90476190Y-119535714D01*
X90952380Y-121059523D02*
X90952380Y-120488095D01*
X90952380Y-120773809D02*
X89952380Y-120773809D01*
X90095238Y-120678571D01*
X90190476Y-120583333D01*
X90238095Y-120488095D01*
X89952380Y-121392857D02*
X89952380Y-122011904D01*
X90333333Y-121678571D01*
X90333333Y-121821428D01*
X90380952Y-121916666D01*
X90428571Y-121964285D01*
X90523809Y-122011904D01*
X90761904Y-122011904D01*
X90857142Y-121964285D01*
X90904761Y-121916666D01*
X90952380Y-121821428D01*
X90952380Y-121535714D01*
X90904761Y-121440476D01*
X90857142Y-121392857D01*
G04 #@! TO.C,R14*
X93452380Y-120107142D02*
X92976190Y-119773809D01*
X93452380Y-119535714D02*
X92452380Y-119535714D01*
X92452380Y-119916666D01*
X92500000Y-120011904D01*
X92547619Y-120059523D01*
X92642857Y-120107142D01*
X92785714Y-120107142D01*
X92880952Y-120059523D01*
X92928571Y-120011904D01*
X92976190Y-119916666D01*
X92976190Y-119535714D01*
X93452380Y-121059523D02*
X93452380Y-120488095D01*
X93452380Y-120773809D02*
X92452380Y-120773809D01*
X92595238Y-120678571D01*
X92690476Y-120583333D01*
X92738095Y-120488095D01*
X92785714Y-121916666D02*
X93452380Y-121916666D01*
X92404761Y-121678571D02*
X93119047Y-121440476D01*
X93119047Y-122059523D01*
G04 #@! TO.C,R15*
X95952380Y-120357142D02*
X95476190Y-120023809D01*
X95952380Y-119785714D02*
X94952380Y-119785714D01*
X94952380Y-120166666D01*
X95000000Y-120261904D01*
X95047619Y-120309523D01*
X95142857Y-120357142D01*
X95285714Y-120357142D01*
X95380952Y-120309523D01*
X95428571Y-120261904D01*
X95476190Y-120166666D01*
X95476190Y-119785714D01*
X95952380Y-121309523D02*
X95952380Y-120738095D01*
X95952380Y-121023809D02*
X94952380Y-121023809D01*
X95095238Y-120928571D01*
X95190476Y-120833333D01*
X95238095Y-120738095D01*
X94952380Y-122214285D02*
X94952380Y-121738095D01*
X95428571Y-121690476D01*
X95380952Y-121738095D01*
X95333333Y-121833333D01*
X95333333Y-122071428D01*
X95380952Y-122166666D01*
X95428571Y-122214285D01*
X95523809Y-122261904D01*
X95761904Y-122261904D01*
X95857142Y-122214285D01*
X95904761Y-122166666D01*
X95952380Y-122071428D01*
X95952380Y-121833333D01*
X95904761Y-121738095D01*
X95857142Y-121690476D01*
G04 #@! TO.C,R16*
X104952380Y-105357142D02*
X104476190Y-105023809D01*
X104952380Y-104785714D02*
X103952380Y-104785714D01*
X103952380Y-105166666D01*
X104000000Y-105261904D01*
X104047619Y-105309523D01*
X104142857Y-105357142D01*
X104285714Y-105357142D01*
X104380952Y-105309523D01*
X104428571Y-105261904D01*
X104476190Y-105166666D01*
X104476190Y-104785714D01*
X104952380Y-106309523D02*
X104952380Y-105738095D01*
X104952380Y-106023809D02*
X103952380Y-106023809D01*
X104095238Y-105928571D01*
X104190476Y-105833333D01*
X104238095Y-105738095D01*
X103952380Y-107166666D02*
X103952380Y-106976190D01*
X104000000Y-106880952D01*
X104047619Y-106833333D01*
X104190476Y-106738095D01*
X104380952Y-106690476D01*
X104761904Y-106690476D01*
X104857142Y-106738095D01*
X104904761Y-106785714D01*
X104952380Y-106880952D01*
X104952380Y-107071428D01*
X104904761Y-107166666D01*
X104857142Y-107214285D01*
X104761904Y-107261904D01*
X104523809Y-107261904D01*
X104428571Y-107214285D01*
X104380952Y-107166666D01*
X104333333Y-107071428D01*
X104333333Y-106880952D01*
X104380952Y-106785714D01*
X104428571Y-106738095D01*
X104523809Y-106690476D01*
G04 #@! TO.C,R17*
X88452380Y-105107142D02*
X87976190Y-104773809D01*
X88452380Y-104535714D02*
X87452380Y-104535714D01*
X87452380Y-104916666D01*
X87500000Y-105011904D01*
X87547619Y-105059523D01*
X87642857Y-105107142D01*
X87785714Y-105107142D01*
X87880952Y-105059523D01*
X87928571Y-105011904D01*
X87976190Y-104916666D01*
X87976190Y-104535714D01*
X88452380Y-106059523D02*
X88452380Y-105488095D01*
X88452380Y-105773809D02*
X87452380Y-105773809D01*
X87595238Y-105678571D01*
X87690476Y-105583333D01*
X87738095Y-105488095D01*
X87452380Y-106392857D02*
X87452380Y-107059523D01*
X88452380Y-106630952D01*
G04 #@! TO.C,R26*
X197642857Y-107952380D02*
X197976190Y-107476190D01*
X198214285Y-107952380D02*
X198214285Y-106952380D01*
X197833333Y-106952380D01*
X197738095Y-107000000D01*
X197690476Y-107047619D01*
X197642857Y-107142857D01*
X197642857Y-107285714D01*
X197690476Y-107380952D01*
X197738095Y-107428571D01*
X197833333Y-107476190D01*
X198214285Y-107476190D01*
X197261904Y-107047619D02*
X197214285Y-107000000D01*
X197119047Y-106952380D01*
X196880952Y-106952380D01*
X196785714Y-107000000D01*
X196738095Y-107047619D01*
X196690476Y-107142857D01*
X196690476Y-107238095D01*
X196738095Y-107380952D01*
X197309523Y-107952380D01*
X196690476Y-107952380D01*
X195833333Y-106952380D02*
X196023809Y-106952380D01*
X196119047Y-107000000D01*
X196166666Y-107047619D01*
X196261904Y-107190476D01*
X196309523Y-107380952D01*
X196309523Y-107761904D01*
X196261904Y-107857142D01*
X196214285Y-107904761D01*
X196119047Y-107952380D01*
X195928571Y-107952380D01*
X195833333Y-107904761D01*
X195785714Y-107857142D01*
X195738095Y-107761904D01*
X195738095Y-107523809D01*
X195785714Y-107428571D01*
X195833333Y-107380952D01*
X195928571Y-107333333D01*
X196119047Y-107333333D01*
X196214285Y-107380952D01*
X196261904Y-107428571D01*
X196309523Y-107523809D01*
G04 #@! TO.C,R32*
X109702380Y-112107142D02*
X109226190Y-111773809D01*
X109702380Y-111535714D02*
X108702380Y-111535714D01*
X108702380Y-111916666D01*
X108750000Y-112011904D01*
X108797619Y-112059523D01*
X108892857Y-112107142D01*
X109035714Y-112107142D01*
X109130952Y-112059523D01*
X109178571Y-112011904D01*
X109226190Y-111916666D01*
X109226190Y-111535714D01*
X108702380Y-112440476D02*
X108702380Y-113059523D01*
X109083333Y-112726190D01*
X109083333Y-112869047D01*
X109130952Y-112964285D01*
X109178571Y-113011904D01*
X109273809Y-113059523D01*
X109511904Y-113059523D01*
X109607142Y-113011904D01*
X109654761Y-112964285D01*
X109702380Y-112869047D01*
X109702380Y-112583333D01*
X109654761Y-112488095D01*
X109607142Y-112440476D01*
X108797619Y-113440476D02*
X108750000Y-113488095D01*
X108702380Y-113583333D01*
X108702380Y-113821428D01*
X108750000Y-113916666D01*
X108797619Y-113964285D01*
X108892857Y-114011904D01*
X108988095Y-114011904D01*
X109130952Y-113964285D01*
X109702380Y-113392857D01*
X109702380Y-114011904D01*
G04 #@! TO.C,R62*
X121452380Y-115857142D02*
X120976190Y-115523809D01*
X121452380Y-115285714D02*
X120452380Y-115285714D01*
X120452380Y-115666666D01*
X120500000Y-115761904D01*
X120547619Y-115809523D01*
X120642857Y-115857142D01*
X120785714Y-115857142D01*
X120880952Y-115809523D01*
X120928571Y-115761904D01*
X120976190Y-115666666D01*
X120976190Y-115285714D01*
X120452380Y-116714285D02*
X120452380Y-116523809D01*
X120500000Y-116428571D01*
X120547619Y-116380952D01*
X120690476Y-116285714D01*
X120880952Y-116238095D01*
X121261904Y-116238095D01*
X121357142Y-116285714D01*
X121404761Y-116333333D01*
X121452380Y-116428571D01*
X121452380Y-116619047D01*
X121404761Y-116714285D01*
X121357142Y-116761904D01*
X121261904Y-116809523D01*
X121023809Y-116809523D01*
X120928571Y-116761904D01*
X120880952Y-116714285D01*
X120833333Y-116619047D01*
X120833333Y-116428571D01*
X120880952Y-116333333D01*
X120928571Y-116285714D01*
X121023809Y-116238095D01*
X120547619Y-117190476D02*
X120500000Y-117238095D01*
X120452380Y-117333333D01*
X120452380Y-117571428D01*
X120500000Y-117666666D01*
X120547619Y-117714285D01*
X120642857Y-117761904D01*
X120738095Y-117761904D01*
X120880952Y-117714285D01*
X121452380Y-117142857D01*
X121452380Y-117761904D01*
G04 #@! TO.C,U2*
X180011904Y-114072380D02*
X180011904Y-114881904D01*
X179964285Y-114977142D01*
X179916666Y-115024761D01*
X179821428Y-115072380D01*
X179630952Y-115072380D01*
X179535714Y-115024761D01*
X179488095Y-114977142D01*
X179440476Y-114881904D01*
X179440476Y-114072380D01*
X179011904Y-114167619D02*
X178964285Y-114120000D01*
X178869047Y-114072380D01*
X178630952Y-114072380D01*
X178535714Y-114120000D01*
X178488095Y-114167619D01*
X178440476Y-114262857D01*
X178440476Y-114358095D01*
X178488095Y-114500952D01*
X179059523Y-115072380D01*
X178440476Y-115072380D01*
G04 #@! TO.C,U3*
X180011904Y-102072380D02*
X180011904Y-102881904D01*
X179964285Y-102977142D01*
X179916666Y-103024761D01*
X179821428Y-103072380D01*
X179630952Y-103072380D01*
X179535714Y-103024761D01*
X179488095Y-102977142D01*
X179440476Y-102881904D01*
X179440476Y-102072380D01*
X179059523Y-102072380D02*
X178440476Y-102072380D01*
X178773809Y-102453333D01*
X178630952Y-102453333D01*
X178535714Y-102500952D01*
X178488095Y-102548571D01*
X178440476Y-102643809D01*
X178440476Y-102881904D01*
X178488095Y-102977142D01*
X178535714Y-103024761D01*
X178630952Y-103072380D01*
X178916666Y-103072380D01*
X179011904Y-103024761D01*
X179059523Y-102977142D01*
G04 #@! TO.C,U5*
X87552380Y-130488095D02*
X88361904Y-130488095D01*
X88457142Y-130535714D01*
X88504761Y-130583333D01*
X88552380Y-130678571D01*
X88552380Y-130869047D01*
X88504761Y-130964285D01*
X88457142Y-131011904D01*
X88361904Y-131059523D01*
X87552380Y-131059523D01*
X87552380Y-132011904D02*
X87552380Y-131535714D01*
X88028571Y-131488095D01*
X87980952Y-131535714D01*
X87933333Y-131630952D01*
X87933333Y-131869047D01*
X87980952Y-131964285D01*
X88028571Y-132011904D01*
X88123809Y-132059523D01*
X88361904Y-132059523D01*
X88457142Y-132011904D01*
X88504761Y-131964285D01*
X88552380Y-131869047D01*
X88552380Y-131630952D01*
X88504761Y-131535714D01*
X88457142Y-131488095D01*
G04 #@! TO.C,Y2*
X123226190Y-85273809D02*
X123702380Y-85273809D01*
X122702380Y-84940476D02*
X123226190Y-85273809D01*
X122702380Y-85607142D01*
X122797619Y-85892857D02*
X122750000Y-85940476D01*
X122702380Y-86035714D01*
X122702380Y-86273809D01*
X122750000Y-86369047D01*
X122797619Y-86416666D01*
X122892857Y-86464285D01*
X122988095Y-86464285D01*
X123130952Y-86416666D01*
X123702380Y-85845238D01*
X123702380Y-86464285D01*
G04 #@! TD*
M02*
