G04 #@! TF.GenerationSoftware,KiCad,Pcbnew,(5.0.2)-1*
G04 #@! TF.CreationDate,2019-10-14T17:28:43+02:00*
G04 #@! TF.ProjectId,motoHUD,6d6f746f-4855-4442-9e6b-696361645f70,rev?*
G04 #@! TF.SameCoordinates,Original*
G04 #@! TF.FileFunction,Soldermask,Top*
G04 #@! TF.FilePolarity,Negative*
%FSLAX46Y46*%
G04 Gerber Fmt 4.6, Leading zero omitted, Abs format (unit mm)*
G04 Created by KiCad (PCBNEW (5.0.2)-1) date 14.10.2019 17:28:43*
%MOMM*%
%LPD*%
G01*
G04 APERTURE LIST*
%ADD10C,0.100000*%
G04 APERTURE END LIST*
D10*
G36*
X162676626Y-130962037D02*
X162782561Y-130994172D01*
X162846466Y-131013557D01*
X163002989Y-131097221D01*
X163140186Y-131209814D01*
X163223448Y-131311271D01*
X163252778Y-131347009D01*
X163252779Y-131347011D01*
X163336443Y-131503533D01*
X163344027Y-131528534D01*
X163387963Y-131673373D01*
X163401000Y-131805742D01*
X163401000Y-132194257D01*
X163387963Y-132326626D01*
X163336443Y-132496466D01*
X163252778Y-132652991D01*
X163252777Y-132652992D01*
X163140186Y-132790186D01*
X163052178Y-132862411D01*
X163002991Y-132902778D01*
X163002989Y-132902779D01*
X162846467Y-132986443D01*
X162815930Y-132995706D01*
X162676627Y-133037963D01*
X162500000Y-133055359D01*
X162323374Y-133037963D01*
X162184071Y-132995706D01*
X162153534Y-132986443D01*
X161997012Y-132902779D01*
X161997010Y-132902778D01*
X161859816Y-132790186D01*
X161859812Y-132790183D01*
X161747222Y-132652992D01*
X161663557Y-132496467D01*
X161646384Y-132439853D01*
X161612037Y-132326627D01*
X161599000Y-132194258D01*
X161599000Y-131805743D01*
X161612037Y-131673374D01*
X161655973Y-131528535D01*
X161663557Y-131503534D01*
X161747221Y-131347011D01*
X161859814Y-131209814D01*
X161973641Y-131116400D01*
X161997009Y-131097222D01*
X162022960Y-131083351D01*
X162153533Y-131013557D01*
X162217438Y-130994172D01*
X162323373Y-130962037D01*
X162500000Y-130944641D01*
X162676626Y-130962037D01*
X162676626Y-130962037D01*
G37*
G36*
X173676626Y-130962037D02*
X173782561Y-130994172D01*
X173846466Y-131013557D01*
X174002989Y-131097221D01*
X174140186Y-131209814D01*
X174223448Y-131311271D01*
X174252778Y-131347009D01*
X174252779Y-131347011D01*
X174336443Y-131503533D01*
X174344027Y-131528534D01*
X174387963Y-131673373D01*
X174401000Y-131805742D01*
X174401000Y-132194257D01*
X174387963Y-132326626D01*
X174336443Y-132496466D01*
X174252778Y-132652991D01*
X174252777Y-132652992D01*
X174140186Y-132790186D01*
X174052178Y-132862411D01*
X174002991Y-132902778D01*
X174002989Y-132902779D01*
X173846467Y-132986443D01*
X173815930Y-132995706D01*
X173676627Y-133037963D01*
X173500000Y-133055359D01*
X173323374Y-133037963D01*
X173184071Y-132995706D01*
X173153534Y-132986443D01*
X172997012Y-132902779D01*
X172997010Y-132902778D01*
X172859816Y-132790186D01*
X172859812Y-132790183D01*
X172747222Y-132652992D01*
X172663557Y-132496467D01*
X172646384Y-132439853D01*
X172612037Y-132326627D01*
X172599000Y-132194258D01*
X172599000Y-131805743D01*
X172612037Y-131673374D01*
X172655973Y-131528535D01*
X172663557Y-131503534D01*
X172747221Y-131347011D01*
X172859814Y-131209814D01*
X172973641Y-131116400D01*
X172997009Y-131097222D01*
X173022960Y-131083351D01*
X173153533Y-131013557D01*
X173217438Y-130994172D01*
X173323373Y-130962037D01*
X173500000Y-130944641D01*
X173676626Y-130962037D01*
X173676626Y-130962037D01*
G37*
G36*
X184676626Y-130962037D02*
X184782561Y-130994172D01*
X184846466Y-131013557D01*
X185002989Y-131097221D01*
X185140186Y-131209814D01*
X185223448Y-131311271D01*
X185252778Y-131347009D01*
X185252779Y-131347011D01*
X185336443Y-131503533D01*
X185344027Y-131528534D01*
X185387963Y-131673373D01*
X185401000Y-131805742D01*
X185401000Y-132194257D01*
X185387963Y-132326626D01*
X185336443Y-132496466D01*
X185252778Y-132652991D01*
X185252777Y-132652992D01*
X185140186Y-132790186D01*
X185052178Y-132862411D01*
X185002991Y-132902778D01*
X185002989Y-132902779D01*
X184846467Y-132986443D01*
X184815930Y-132995706D01*
X184676627Y-133037963D01*
X184500000Y-133055359D01*
X184323374Y-133037963D01*
X184184071Y-132995706D01*
X184153534Y-132986443D01*
X183997012Y-132902779D01*
X183997010Y-132902778D01*
X183859816Y-132790186D01*
X183859812Y-132790183D01*
X183747222Y-132652992D01*
X183663557Y-132496467D01*
X183646384Y-132439853D01*
X183612037Y-132326627D01*
X183599000Y-132194258D01*
X183599000Y-131805743D01*
X183612037Y-131673374D01*
X183655973Y-131528535D01*
X183663557Y-131503534D01*
X183747221Y-131347011D01*
X183859814Y-131209814D01*
X183973641Y-131116400D01*
X183997009Y-131097222D01*
X184022960Y-131083351D01*
X184153533Y-131013557D01*
X184217438Y-130994172D01*
X184323373Y-130962037D01*
X184500000Y-130944641D01*
X184676626Y-130962037D01*
X184676626Y-130962037D01*
G37*
G36*
X160758600Y-130952989D02*
X160791649Y-130963014D01*
X160822106Y-130979294D01*
X160848799Y-131001201D01*
X160870706Y-131027894D01*
X160886986Y-131058351D01*
X160897011Y-131091400D01*
X160901000Y-131131904D01*
X160901000Y-132868096D01*
X160897011Y-132908600D01*
X160886986Y-132941649D01*
X160870706Y-132972106D01*
X160848799Y-132998799D01*
X160822106Y-133020706D01*
X160791649Y-133036986D01*
X160758600Y-133047011D01*
X160718096Y-133051000D01*
X159281904Y-133051000D01*
X159241400Y-133047011D01*
X159208351Y-133036986D01*
X159177894Y-133020706D01*
X159151201Y-132998799D01*
X159129294Y-132972106D01*
X159113014Y-132941649D01*
X159102989Y-132908600D01*
X159099000Y-132868096D01*
X159099000Y-131131904D01*
X159102989Y-131091400D01*
X159113014Y-131058351D01*
X159129294Y-131027894D01*
X159151201Y-131001201D01*
X159177894Y-130979294D01*
X159208351Y-130963014D01*
X159241400Y-130952989D01*
X159281904Y-130949000D01*
X160718096Y-130949000D01*
X160758600Y-130952989D01*
X160758600Y-130952989D01*
G37*
G36*
X182758600Y-130952989D02*
X182791649Y-130963014D01*
X182822106Y-130979294D01*
X182848799Y-131001201D01*
X182870706Y-131027894D01*
X182886986Y-131058351D01*
X182897011Y-131091400D01*
X182901000Y-131131904D01*
X182901000Y-132868096D01*
X182897011Y-132908600D01*
X182886986Y-132941649D01*
X182870706Y-132972106D01*
X182848799Y-132998799D01*
X182822106Y-133020706D01*
X182791649Y-133036986D01*
X182758600Y-133047011D01*
X182718096Y-133051000D01*
X181281904Y-133051000D01*
X181241400Y-133047011D01*
X181208351Y-133036986D01*
X181177894Y-133020706D01*
X181151201Y-132998799D01*
X181129294Y-132972106D01*
X181113014Y-132941649D01*
X181102989Y-132908600D01*
X181099000Y-132868096D01*
X181099000Y-131131904D01*
X181102989Y-131091400D01*
X181113014Y-131058351D01*
X181129294Y-131027894D01*
X181151201Y-131001201D01*
X181177894Y-130979294D01*
X181208351Y-130963014D01*
X181241400Y-130952989D01*
X181281904Y-130949000D01*
X182718096Y-130949000D01*
X182758600Y-130952989D01*
X182758600Y-130952989D01*
G37*
G36*
X171758600Y-130952989D02*
X171791649Y-130963014D01*
X171822106Y-130979294D01*
X171848799Y-131001201D01*
X171870706Y-131027894D01*
X171886986Y-131058351D01*
X171897011Y-131091400D01*
X171901000Y-131131904D01*
X171901000Y-132868096D01*
X171897011Y-132908600D01*
X171886986Y-132941649D01*
X171870706Y-132972106D01*
X171848799Y-132998799D01*
X171822106Y-133020706D01*
X171791649Y-133036986D01*
X171758600Y-133047011D01*
X171718096Y-133051000D01*
X170281904Y-133051000D01*
X170241400Y-133047011D01*
X170208351Y-133036986D01*
X170177894Y-133020706D01*
X170151201Y-132998799D01*
X170129294Y-132972106D01*
X170113014Y-132941649D01*
X170102989Y-132908600D01*
X170099000Y-132868096D01*
X170099000Y-131131904D01*
X170102989Y-131091400D01*
X170113014Y-131058351D01*
X170129294Y-131027894D01*
X170151201Y-131001201D01*
X170177894Y-130979294D01*
X170208351Y-130963014D01*
X170241400Y-130952989D01*
X170281904Y-130949000D01*
X171718096Y-130949000D01*
X171758600Y-130952989D01*
X171758600Y-130952989D01*
G37*
G36*
X123676626Y-130987037D02*
X123789852Y-131021384D01*
X123846466Y-131038557D01*
X124002989Y-131122221D01*
X124140186Y-131234814D01*
X124223448Y-131336271D01*
X124252778Y-131372009D01*
X124252779Y-131372011D01*
X124336443Y-131528533D01*
X124344946Y-131556565D01*
X124387963Y-131698373D01*
X124394481Y-131764557D01*
X124401000Y-131830740D01*
X124401000Y-132169259D01*
X124394481Y-132235442D01*
X124387963Y-132301626D01*
X124336443Y-132471466D01*
X124252778Y-132627991D01*
X124232261Y-132652991D01*
X124140186Y-132765186D01*
X124051827Y-132837699D01*
X124002991Y-132877778D01*
X124002989Y-132877779D01*
X123846467Y-132961443D01*
X123811315Y-132972106D01*
X123676627Y-133012963D01*
X123500000Y-133030359D01*
X123323374Y-133012963D01*
X123188686Y-132972106D01*
X123153534Y-132961443D01*
X122997012Y-132877779D01*
X122997010Y-132877778D01*
X122890279Y-132790186D01*
X122859812Y-132765183D01*
X122747222Y-132627992D01*
X122663557Y-132471467D01*
X122619621Y-132326627D01*
X122612037Y-132301627D01*
X122599000Y-132169258D01*
X122599000Y-131830743D01*
X122601463Y-131805740D01*
X122612037Y-131698376D01*
X122612037Y-131698374D01*
X122663557Y-131528535D01*
X122663557Y-131528534D01*
X122747221Y-131372011D01*
X122859814Y-131234814D01*
X122961271Y-131151552D01*
X122997009Y-131122222D01*
X123043782Y-131097221D01*
X123153533Y-131038557D01*
X123210147Y-131021384D01*
X123323373Y-130987037D01*
X123500000Y-130969641D01*
X123676626Y-130987037D01*
X123676626Y-130987037D01*
G37*
G36*
X126176626Y-130987037D02*
X126289852Y-131021384D01*
X126346466Y-131038557D01*
X126502989Y-131122221D01*
X126640186Y-131234814D01*
X126723448Y-131336271D01*
X126752778Y-131372009D01*
X126752779Y-131372011D01*
X126836443Y-131528533D01*
X126844946Y-131556565D01*
X126887963Y-131698373D01*
X126894481Y-131764557D01*
X126901000Y-131830740D01*
X126901000Y-132169259D01*
X126894481Y-132235442D01*
X126887963Y-132301626D01*
X126836443Y-132471466D01*
X126752778Y-132627991D01*
X126732261Y-132652991D01*
X126640186Y-132765186D01*
X126551827Y-132837699D01*
X126502991Y-132877778D01*
X126502989Y-132877779D01*
X126346467Y-132961443D01*
X126311315Y-132972106D01*
X126176627Y-133012963D01*
X126000000Y-133030359D01*
X125823374Y-133012963D01*
X125688686Y-132972106D01*
X125653534Y-132961443D01*
X125497012Y-132877779D01*
X125497010Y-132877778D01*
X125390279Y-132790186D01*
X125359812Y-132765183D01*
X125247222Y-132627992D01*
X125163557Y-132471467D01*
X125119621Y-132326627D01*
X125112037Y-132301627D01*
X125099000Y-132169258D01*
X125099000Y-131830743D01*
X125101463Y-131805740D01*
X125112037Y-131698376D01*
X125112037Y-131698374D01*
X125163557Y-131528535D01*
X125163557Y-131528534D01*
X125247221Y-131372011D01*
X125359814Y-131234814D01*
X125461271Y-131151552D01*
X125497009Y-131122222D01*
X125543782Y-131097221D01*
X125653533Y-131038557D01*
X125710147Y-131021384D01*
X125823373Y-130987037D01*
X126000000Y-130969641D01*
X126176626Y-130987037D01*
X126176626Y-130987037D01*
G37*
G36*
X136676626Y-130987037D02*
X136789852Y-131021384D01*
X136846466Y-131038557D01*
X137002989Y-131122221D01*
X137140186Y-131234814D01*
X137223448Y-131336271D01*
X137252778Y-131372009D01*
X137252779Y-131372011D01*
X137336443Y-131528533D01*
X137344946Y-131556565D01*
X137387963Y-131698373D01*
X137394481Y-131764557D01*
X137401000Y-131830740D01*
X137401000Y-132169259D01*
X137394481Y-132235442D01*
X137387963Y-132301626D01*
X137336443Y-132471466D01*
X137252778Y-132627991D01*
X137232261Y-132652991D01*
X137140186Y-132765186D01*
X137051827Y-132837699D01*
X137002991Y-132877778D01*
X137002989Y-132877779D01*
X136846467Y-132961443D01*
X136811315Y-132972106D01*
X136676627Y-133012963D01*
X136500000Y-133030359D01*
X136323374Y-133012963D01*
X136188686Y-132972106D01*
X136153534Y-132961443D01*
X135997012Y-132877779D01*
X135997010Y-132877778D01*
X135890279Y-132790186D01*
X135859812Y-132765183D01*
X135747222Y-132627992D01*
X135663557Y-132471467D01*
X135619621Y-132326627D01*
X135612037Y-132301627D01*
X135599000Y-132169258D01*
X135599000Y-131830743D01*
X135601463Y-131805740D01*
X135612037Y-131698376D01*
X135612037Y-131698374D01*
X135663557Y-131528535D01*
X135663557Y-131528534D01*
X135747221Y-131372011D01*
X135859814Y-131234814D01*
X135961271Y-131151552D01*
X135997009Y-131122222D01*
X136043782Y-131097221D01*
X136153533Y-131038557D01*
X136210147Y-131021384D01*
X136323373Y-130987037D01*
X136500000Y-130969641D01*
X136676626Y-130987037D01*
X136676626Y-130987037D01*
G37*
G36*
X139176626Y-130987037D02*
X139289852Y-131021384D01*
X139346466Y-131038557D01*
X139502989Y-131122221D01*
X139640186Y-131234814D01*
X139723448Y-131336271D01*
X139752778Y-131372009D01*
X139752779Y-131372011D01*
X139836443Y-131528533D01*
X139844946Y-131556565D01*
X139887963Y-131698373D01*
X139894481Y-131764557D01*
X139901000Y-131830740D01*
X139901000Y-132169259D01*
X139894481Y-132235442D01*
X139887963Y-132301626D01*
X139836443Y-132471466D01*
X139752778Y-132627991D01*
X139732261Y-132652991D01*
X139640186Y-132765186D01*
X139551827Y-132837699D01*
X139502991Y-132877778D01*
X139502989Y-132877779D01*
X139346467Y-132961443D01*
X139311315Y-132972106D01*
X139176627Y-133012963D01*
X139000000Y-133030359D01*
X138823374Y-133012963D01*
X138688686Y-132972106D01*
X138653534Y-132961443D01*
X138497012Y-132877779D01*
X138497010Y-132877778D01*
X138390279Y-132790186D01*
X138359812Y-132765183D01*
X138247222Y-132627992D01*
X138163557Y-132471467D01*
X138119621Y-132326627D01*
X138112037Y-132301627D01*
X138099000Y-132169258D01*
X138099000Y-131830743D01*
X138101463Y-131805740D01*
X138112037Y-131698376D01*
X138112037Y-131698374D01*
X138163557Y-131528535D01*
X138163557Y-131528534D01*
X138247221Y-131372011D01*
X138359814Y-131234814D01*
X138461271Y-131151552D01*
X138497009Y-131122222D01*
X138543782Y-131097221D01*
X138653533Y-131038557D01*
X138710147Y-131021384D01*
X138823373Y-130987037D01*
X139000000Y-130969641D01*
X139176626Y-130987037D01*
X139176626Y-130987037D01*
G37*
G36*
X149676626Y-130987037D02*
X149789852Y-131021384D01*
X149846466Y-131038557D01*
X150002989Y-131122221D01*
X150140186Y-131234814D01*
X150223448Y-131336271D01*
X150252778Y-131372009D01*
X150252779Y-131372011D01*
X150336443Y-131528533D01*
X150344946Y-131556565D01*
X150387963Y-131698373D01*
X150394482Y-131764558D01*
X150401000Y-131830740D01*
X150401000Y-132169259D01*
X150394481Y-132235442D01*
X150387963Y-132301626D01*
X150336443Y-132471466D01*
X150252778Y-132627991D01*
X150232261Y-132652991D01*
X150140186Y-132765186D01*
X150051827Y-132837699D01*
X150002991Y-132877778D01*
X150002989Y-132877779D01*
X149846467Y-132961443D01*
X149811315Y-132972106D01*
X149676627Y-133012963D01*
X149500000Y-133030359D01*
X149323374Y-133012963D01*
X149188686Y-132972106D01*
X149153534Y-132961443D01*
X148997012Y-132877779D01*
X148997010Y-132877778D01*
X148890279Y-132790186D01*
X148859812Y-132765183D01*
X148747222Y-132627992D01*
X148663557Y-132471467D01*
X148619621Y-132326627D01*
X148612037Y-132301627D01*
X148599000Y-132169258D01*
X148599000Y-131830743D01*
X148601463Y-131805740D01*
X148612037Y-131698376D01*
X148612037Y-131698374D01*
X148663557Y-131528535D01*
X148663557Y-131528534D01*
X148747221Y-131372011D01*
X148859814Y-131234814D01*
X148961271Y-131151552D01*
X148997009Y-131122222D01*
X149043782Y-131097221D01*
X149153533Y-131038557D01*
X149210147Y-131021384D01*
X149323373Y-130987037D01*
X149500000Y-130969641D01*
X149676626Y-130987037D01*
X149676626Y-130987037D01*
G37*
G36*
X152176626Y-130987037D02*
X152289852Y-131021384D01*
X152346466Y-131038557D01*
X152502989Y-131122221D01*
X152640186Y-131234814D01*
X152723448Y-131336271D01*
X152752778Y-131372009D01*
X152752779Y-131372011D01*
X152836443Y-131528533D01*
X152844946Y-131556565D01*
X152887963Y-131698373D01*
X152894482Y-131764558D01*
X152901000Y-131830740D01*
X152901000Y-132169259D01*
X152894481Y-132235442D01*
X152887963Y-132301626D01*
X152836443Y-132471466D01*
X152752778Y-132627991D01*
X152732261Y-132652991D01*
X152640186Y-132765186D01*
X152551827Y-132837699D01*
X152502991Y-132877778D01*
X152502989Y-132877779D01*
X152346467Y-132961443D01*
X152311315Y-132972106D01*
X152176627Y-133012963D01*
X152000000Y-133030359D01*
X151823374Y-133012963D01*
X151688686Y-132972106D01*
X151653534Y-132961443D01*
X151497012Y-132877779D01*
X151497010Y-132877778D01*
X151390279Y-132790186D01*
X151359812Y-132765183D01*
X151247222Y-132627992D01*
X151163557Y-132471467D01*
X151119621Y-132326627D01*
X151112037Y-132301627D01*
X151099000Y-132169258D01*
X151099000Y-131830743D01*
X151101463Y-131805740D01*
X151112037Y-131698376D01*
X151112037Y-131698374D01*
X151163557Y-131528535D01*
X151163557Y-131528534D01*
X151247221Y-131372011D01*
X151359814Y-131234814D01*
X151461271Y-131151552D01*
X151497009Y-131122222D01*
X151543782Y-131097221D01*
X151653533Y-131038557D01*
X151710147Y-131021384D01*
X151823373Y-130987037D01*
X152000000Y-130969641D01*
X152176626Y-130987037D01*
X152176626Y-130987037D01*
G37*
G36*
X134758600Y-130977989D02*
X134791649Y-130988014D01*
X134822106Y-131004294D01*
X134848799Y-131026201D01*
X134870706Y-131052894D01*
X134886986Y-131083351D01*
X134897011Y-131116400D01*
X134901000Y-131156904D01*
X134901000Y-132843096D01*
X134897011Y-132883600D01*
X134886986Y-132916649D01*
X134870706Y-132947106D01*
X134848799Y-132973799D01*
X134822106Y-132995706D01*
X134791649Y-133011986D01*
X134758600Y-133022011D01*
X134718096Y-133026000D01*
X133281904Y-133026000D01*
X133241400Y-133022011D01*
X133208351Y-133011986D01*
X133177894Y-132995706D01*
X133151201Y-132973799D01*
X133129294Y-132947106D01*
X133113014Y-132916649D01*
X133102989Y-132883600D01*
X133099000Y-132843096D01*
X133099000Y-131156904D01*
X133102989Y-131116400D01*
X133113014Y-131083351D01*
X133129294Y-131052894D01*
X133151201Y-131026201D01*
X133177894Y-131004294D01*
X133208351Y-130988014D01*
X133241400Y-130977989D01*
X133281904Y-130974000D01*
X134718096Y-130974000D01*
X134758600Y-130977989D01*
X134758600Y-130977989D01*
G37*
G36*
X121758600Y-130977989D02*
X121791649Y-130988014D01*
X121822106Y-131004294D01*
X121848799Y-131026201D01*
X121870706Y-131052894D01*
X121886986Y-131083351D01*
X121897011Y-131116400D01*
X121901000Y-131156904D01*
X121901000Y-132843096D01*
X121897011Y-132883600D01*
X121886986Y-132916649D01*
X121870706Y-132947106D01*
X121848799Y-132973799D01*
X121822106Y-132995706D01*
X121791649Y-133011986D01*
X121758600Y-133022011D01*
X121718096Y-133026000D01*
X120281904Y-133026000D01*
X120241400Y-133022011D01*
X120208351Y-133011986D01*
X120177894Y-132995706D01*
X120151201Y-132973799D01*
X120129294Y-132947106D01*
X120113014Y-132916649D01*
X120102989Y-132883600D01*
X120099000Y-132843096D01*
X120099000Y-131156904D01*
X120102989Y-131116400D01*
X120113014Y-131083351D01*
X120129294Y-131052894D01*
X120151201Y-131026201D01*
X120177894Y-131004294D01*
X120208351Y-130988014D01*
X120241400Y-130977989D01*
X120281904Y-130974000D01*
X121718096Y-130974000D01*
X121758600Y-130977989D01*
X121758600Y-130977989D01*
G37*
G36*
X147758600Y-130977989D02*
X147791649Y-130988014D01*
X147822106Y-131004294D01*
X147848799Y-131026201D01*
X147870706Y-131052894D01*
X147886986Y-131083351D01*
X147897011Y-131116400D01*
X147901000Y-131156904D01*
X147901000Y-132843096D01*
X147897011Y-132883600D01*
X147886986Y-132916649D01*
X147870706Y-132947106D01*
X147848799Y-132973799D01*
X147822106Y-132995706D01*
X147791649Y-133011986D01*
X147758600Y-133022011D01*
X147718096Y-133026000D01*
X146281904Y-133026000D01*
X146241400Y-133022011D01*
X146208351Y-133011986D01*
X146177894Y-132995706D01*
X146151201Y-132973799D01*
X146129294Y-132947106D01*
X146113014Y-132916649D01*
X146102989Y-132883600D01*
X146099000Y-132843096D01*
X146099000Y-131156904D01*
X146102989Y-131116400D01*
X146113014Y-131083351D01*
X146129294Y-131052894D01*
X146151201Y-131026201D01*
X146177894Y-131004294D01*
X146208351Y-130988014D01*
X146241400Y-130977989D01*
X146281904Y-130974000D01*
X147718096Y-130974000D01*
X147758600Y-130977989D01*
X147758600Y-130977989D01*
G37*
G36*
X108056565Y-130239389D02*
X108247834Y-130318615D01*
X108419976Y-130433637D01*
X108566363Y-130580024D01*
X108681385Y-130752166D01*
X108760611Y-130943434D01*
X108801000Y-131146484D01*
X108801000Y-131353516D01*
X108760611Y-131556565D01*
X108681385Y-131747834D01*
X108566363Y-131919976D01*
X108419976Y-132066363D01*
X108247834Y-132181385D01*
X108056565Y-132260611D01*
X107853516Y-132301000D01*
X107646484Y-132301000D01*
X107443435Y-132260611D01*
X107252166Y-132181385D01*
X107080024Y-132066363D01*
X106933637Y-131919976D01*
X106818615Y-131747834D01*
X106739389Y-131556565D01*
X106699000Y-131353516D01*
X106699000Y-131146484D01*
X106739389Y-130943434D01*
X106818615Y-130752166D01*
X106933637Y-130580024D01*
X107080024Y-130433637D01*
X107252166Y-130318615D01*
X107443435Y-130239389D01*
X107646484Y-130199000D01*
X107853516Y-130199000D01*
X108056565Y-130239389D01*
X108056565Y-130239389D01*
G37*
G36*
X130306565Y-128989389D02*
X130497834Y-129068615D01*
X130669976Y-129183637D01*
X130816363Y-129330024D01*
X130931385Y-129502166D01*
X131010611Y-129693435D01*
X131051000Y-129896484D01*
X131051000Y-130103516D01*
X131010611Y-130306565D01*
X130931385Y-130497834D01*
X130816363Y-130669976D01*
X130669976Y-130816363D01*
X130497834Y-130931385D01*
X130306565Y-131010611D01*
X130103516Y-131051000D01*
X129896484Y-131051000D01*
X129693435Y-131010611D01*
X129502166Y-130931385D01*
X129330024Y-130816363D01*
X129183637Y-130669976D01*
X129068615Y-130497834D01*
X128989389Y-130306565D01*
X128949000Y-130103516D01*
X128949000Y-129896484D01*
X128989389Y-129693435D01*
X129068615Y-129502166D01*
X129183637Y-129330024D01*
X129330024Y-129183637D01*
X129502166Y-129068615D01*
X129693435Y-128989389D01*
X129896484Y-128949000D01*
X130103516Y-128949000D01*
X130306565Y-128989389D01*
X130306565Y-128989389D01*
G37*
G36*
X136632004Y-127160544D02*
X136719059Y-127177860D01*
X136855732Y-127234472D01*
X136855733Y-127234473D01*
X136978738Y-127316662D01*
X137083338Y-127421262D01*
X137083340Y-127421265D01*
X137165528Y-127544268D01*
X137222140Y-127680941D01*
X137251000Y-127826033D01*
X137251000Y-127973967D01*
X137222140Y-128119059D01*
X137165528Y-128255732D01*
X137165527Y-128255733D01*
X137083338Y-128378738D01*
X136978738Y-128483338D01*
X136978735Y-128483340D01*
X136855732Y-128565528D01*
X136719059Y-128622140D01*
X136632004Y-128639456D01*
X136573969Y-128651000D01*
X136426031Y-128651000D01*
X136367996Y-128639456D01*
X136280941Y-128622140D01*
X136144268Y-128565528D01*
X136021265Y-128483340D01*
X136021262Y-128483338D01*
X135916662Y-128378738D01*
X135834473Y-128255733D01*
X135834472Y-128255732D01*
X135777860Y-128119059D01*
X135749000Y-127973967D01*
X135749000Y-127826033D01*
X135777860Y-127680941D01*
X135834472Y-127544268D01*
X135916660Y-127421265D01*
X135916662Y-127421262D01*
X136021262Y-127316662D01*
X136144267Y-127234473D01*
X136144268Y-127234472D01*
X136280941Y-127177860D01*
X136367996Y-127160544D01*
X136426031Y-127149000D01*
X136573969Y-127149000D01*
X136632004Y-127160544D01*
X136632004Y-127160544D01*
G37*
G36*
X105351000Y-126851000D02*
X103649000Y-126851000D01*
X103649000Y-125149000D01*
X105351000Y-125149000D01*
X105351000Y-126851000D01*
X105351000Y-126851000D01*
G37*
G36*
X115556565Y-122239389D02*
X115747834Y-122318615D01*
X115919976Y-122433637D01*
X116066363Y-122580024D01*
X116181385Y-122752166D01*
X116260611Y-122943435D01*
X116301000Y-123146484D01*
X116301000Y-123353516D01*
X116260611Y-123556565D01*
X116181385Y-123747834D01*
X116066363Y-123919976D01*
X115919976Y-124066363D01*
X115747834Y-124181385D01*
X115556565Y-124260611D01*
X115353516Y-124301000D01*
X115146484Y-124301000D01*
X114943435Y-124260611D01*
X114752166Y-124181385D01*
X114580024Y-124066363D01*
X114433637Y-123919976D01*
X114318615Y-123747834D01*
X114239389Y-123556565D01*
X114199000Y-123353516D01*
X114199000Y-123146484D01*
X114239389Y-122943435D01*
X114318615Y-122752166D01*
X114433637Y-122580024D01*
X114580024Y-122433637D01*
X114752166Y-122318615D01*
X114943435Y-122239389D01*
X115146484Y-122199000D01*
X115353516Y-122199000D01*
X115556565Y-122239389D01*
X115556565Y-122239389D01*
G37*
G36*
X104748228Y-121681703D02*
X104903100Y-121745853D01*
X105042481Y-121838985D01*
X105161015Y-121957519D01*
X105254147Y-122096900D01*
X105318297Y-122251772D01*
X105351000Y-122416184D01*
X105351000Y-122583816D01*
X105318297Y-122748228D01*
X105254147Y-122903100D01*
X105161015Y-123042481D01*
X105042481Y-123161015D01*
X104903100Y-123254147D01*
X104748228Y-123318297D01*
X104583816Y-123351000D01*
X104416184Y-123351000D01*
X104251772Y-123318297D01*
X104096900Y-123254147D01*
X103957519Y-123161015D01*
X103838985Y-123042481D01*
X103745853Y-122903100D01*
X103681703Y-122748228D01*
X103649000Y-122583816D01*
X103649000Y-122416184D01*
X103681703Y-122251772D01*
X103745853Y-122096900D01*
X103838985Y-121957519D01*
X103957519Y-121838985D01*
X104096900Y-121745853D01*
X104251772Y-121681703D01*
X104416184Y-121649000D01*
X104583816Y-121649000D01*
X104748228Y-121681703D01*
X104748228Y-121681703D01*
G37*
G36*
X172056565Y-121239389D02*
X172247834Y-121318615D01*
X172419976Y-121433637D01*
X172566363Y-121580024D01*
X172681385Y-121752166D01*
X172760611Y-121943435D01*
X172801000Y-122146484D01*
X172801000Y-122353516D01*
X172760611Y-122556565D01*
X172681385Y-122747834D01*
X172566363Y-122919976D01*
X172419976Y-123066363D01*
X172247834Y-123181385D01*
X172056565Y-123260611D01*
X171853516Y-123301000D01*
X171646484Y-123301000D01*
X171443435Y-123260611D01*
X171252166Y-123181385D01*
X171080024Y-123066363D01*
X170933637Y-122919976D01*
X170818615Y-122747834D01*
X170739389Y-122556565D01*
X170699000Y-122353516D01*
X170699000Y-122146484D01*
X170739389Y-121943435D01*
X170818615Y-121752166D01*
X170933637Y-121580024D01*
X171080024Y-121433637D01*
X171252166Y-121318615D01*
X171443435Y-121239389D01*
X171646484Y-121199000D01*
X171853516Y-121199000D01*
X172056565Y-121239389D01*
X172056565Y-121239389D01*
G37*
G36*
X162556565Y-121239389D02*
X162747834Y-121318615D01*
X162919976Y-121433637D01*
X163066363Y-121580024D01*
X163181385Y-121752166D01*
X163260611Y-121943435D01*
X163301000Y-122146484D01*
X163301000Y-122353516D01*
X163260611Y-122556565D01*
X163181385Y-122747834D01*
X163066363Y-122919976D01*
X162919976Y-123066363D01*
X162747834Y-123181385D01*
X162556565Y-123260611D01*
X162353516Y-123301000D01*
X162146484Y-123301000D01*
X161943435Y-123260611D01*
X161752166Y-123181385D01*
X161580024Y-123066363D01*
X161433637Y-122919976D01*
X161318615Y-122747834D01*
X161239389Y-122556565D01*
X161199000Y-122353516D01*
X161199000Y-122146484D01*
X161239389Y-121943435D01*
X161318615Y-121752166D01*
X161433637Y-121580024D01*
X161580024Y-121433637D01*
X161752166Y-121318615D01*
X161943435Y-121239389D01*
X162146484Y-121199000D01*
X162353516Y-121199000D01*
X162556565Y-121239389D01*
X162556565Y-121239389D01*
G37*
G36*
X81118604Y-118578347D02*
X81155145Y-118589432D01*
X81188820Y-118607431D01*
X81218341Y-118631659D01*
X81242569Y-118661180D01*
X81260568Y-118694855D01*
X81271653Y-118731396D01*
X81276000Y-118775538D01*
X81276000Y-120224462D01*
X81271653Y-120268604D01*
X81260568Y-120305145D01*
X81242569Y-120338820D01*
X81218341Y-120368341D01*
X81188820Y-120392569D01*
X81155145Y-120410568D01*
X81118604Y-120421653D01*
X81074462Y-120426000D01*
X80125538Y-120426000D01*
X80081396Y-120421653D01*
X80044855Y-120410568D01*
X80011180Y-120392569D01*
X79981659Y-120368341D01*
X79957431Y-120338820D01*
X79939432Y-120305145D01*
X79928347Y-120268604D01*
X79924000Y-120224462D01*
X79924000Y-118775538D01*
X79928347Y-118731396D01*
X79939432Y-118694855D01*
X79957431Y-118661180D01*
X79981659Y-118631659D01*
X80011180Y-118607431D01*
X80044855Y-118589432D01*
X80081396Y-118578347D01*
X80125538Y-118574000D01*
X81074462Y-118574000D01*
X81118604Y-118578347D01*
X81118604Y-118578347D01*
G37*
G36*
X83918604Y-118578347D02*
X83955145Y-118589432D01*
X83988820Y-118607431D01*
X84018341Y-118631659D01*
X84042569Y-118661180D01*
X84060568Y-118694855D01*
X84071653Y-118731396D01*
X84076000Y-118775538D01*
X84076000Y-120224462D01*
X84071653Y-120268604D01*
X84060568Y-120305145D01*
X84042569Y-120338820D01*
X84018341Y-120368341D01*
X83988820Y-120392569D01*
X83955145Y-120410568D01*
X83918604Y-120421653D01*
X83874462Y-120426000D01*
X82925538Y-120426000D01*
X82881396Y-120421653D01*
X82844855Y-120410568D01*
X82811180Y-120392569D01*
X82781659Y-120368341D01*
X82757431Y-120338820D01*
X82739432Y-120305145D01*
X82728347Y-120268604D01*
X82724000Y-120224462D01*
X82724000Y-118775538D01*
X82728347Y-118731396D01*
X82739432Y-118694855D01*
X82757431Y-118661180D01*
X82781659Y-118631659D01*
X82811180Y-118607431D01*
X82844855Y-118589432D01*
X82881396Y-118578347D01*
X82925538Y-118574000D01*
X83874462Y-118574000D01*
X83918604Y-118578347D01*
X83918604Y-118578347D01*
G37*
G36*
X148306565Y-118239389D02*
X148497834Y-118318615D01*
X148669976Y-118433637D01*
X148816363Y-118580024D01*
X148931385Y-118752166D01*
X149010611Y-118943435D01*
X149051000Y-119146484D01*
X149051000Y-119353516D01*
X149010611Y-119556565D01*
X148931385Y-119747834D01*
X148816363Y-119919976D01*
X148669976Y-120066363D01*
X148497834Y-120181385D01*
X148306565Y-120260611D01*
X148103516Y-120301000D01*
X147896484Y-120301000D01*
X147693435Y-120260611D01*
X147502166Y-120181385D01*
X147330024Y-120066363D01*
X147183637Y-119919976D01*
X147068615Y-119747834D01*
X146989389Y-119556565D01*
X146949000Y-119353516D01*
X146949000Y-119146484D01*
X146989389Y-118943435D01*
X147068615Y-118752166D01*
X147183637Y-118580024D01*
X147330024Y-118433637D01*
X147502166Y-118318615D01*
X147693435Y-118239389D01*
X147896484Y-118199000D01*
X148103516Y-118199000D01*
X148306565Y-118239389D01*
X148306565Y-118239389D01*
G37*
G36*
X112910604Y-118078347D02*
X112947145Y-118089432D01*
X112980820Y-118107431D01*
X113010341Y-118131659D01*
X113034569Y-118161180D01*
X113052568Y-118194855D01*
X113063653Y-118231396D01*
X113068000Y-118275538D01*
X113068000Y-119724462D01*
X113063653Y-119768604D01*
X113052568Y-119805145D01*
X113034569Y-119838820D01*
X113010341Y-119868341D01*
X112980820Y-119892569D01*
X112947145Y-119910568D01*
X112910604Y-119921653D01*
X112866462Y-119926000D01*
X111917538Y-119926000D01*
X111873396Y-119921653D01*
X111836855Y-119910568D01*
X111803180Y-119892569D01*
X111773659Y-119868341D01*
X111749431Y-119838820D01*
X111731432Y-119805145D01*
X111720347Y-119768604D01*
X111716000Y-119724462D01*
X111716000Y-118275538D01*
X111720347Y-118231396D01*
X111731432Y-118194855D01*
X111749431Y-118161180D01*
X111773659Y-118131659D01*
X111803180Y-118107431D01*
X111836855Y-118089432D01*
X111873396Y-118078347D01*
X111917538Y-118074000D01*
X112866462Y-118074000D01*
X112910604Y-118078347D01*
X112910604Y-118078347D01*
G37*
G36*
X115710604Y-118078347D02*
X115747145Y-118089432D01*
X115780820Y-118107431D01*
X115810341Y-118131659D01*
X115834569Y-118161180D01*
X115852568Y-118194855D01*
X115863653Y-118231396D01*
X115868000Y-118275538D01*
X115868000Y-119724462D01*
X115863653Y-119768604D01*
X115852568Y-119805145D01*
X115834569Y-119838820D01*
X115810341Y-119868341D01*
X115780820Y-119892569D01*
X115747145Y-119910568D01*
X115710604Y-119921653D01*
X115666462Y-119926000D01*
X114717538Y-119926000D01*
X114673396Y-119921653D01*
X114636855Y-119910568D01*
X114603180Y-119892569D01*
X114573659Y-119868341D01*
X114549431Y-119838820D01*
X114531432Y-119805145D01*
X114520347Y-119768604D01*
X114516000Y-119724462D01*
X114516000Y-118275538D01*
X114520347Y-118231396D01*
X114531432Y-118194855D01*
X114549431Y-118161180D01*
X114573659Y-118131659D01*
X114603180Y-118107431D01*
X114636855Y-118089432D01*
X114673396Y-118078347D01*
X114717538Y-118074000D01*
X115666462Y-118074000D01*
X115710604Y-118078347D01*
X115710604Y-118078347D01*
G37*
G36*
X97098252Y-114227818D02*
X97098254Y-114227819D01*
X97098255Y-114227819D01*
X97471513Y-114382427D01*
X97547175Y-114432983D01*
X97807439Y-114606886D01*
X98093114Y-114892561D01*
X98093116Y-114892564D01*
X98317573Y-115228487D01*
X98457796Y-115567017D01*
X98472182Y-115601748D01*
X98551000Y-115997993D01*
X98551000Y-116402007D01*
X98482211Y-116747835D01*
X98472181Y-116798255D01*
X98317573Y-117171513D01*
X98231052Y-117301000D01*
X98093114Y-117507439D01*
X97807439Y-117793114D01*
X97807436Y-117793116D01*
X97471513Y-118017573D01*
X97098255Y-118172181D01*
X97098254Y-118172181D01*
X97098252Y-118172182D01*
X96702007Y-118251000D01*
X96297993Y-118251000D01*
X95901748Y-118172182D01*
X95901746Y-118172181D01*
X95901745Y-118172181D01*
X95528487Y-118017573D01*
X95192564Y-117793116D01*
X95192561Y-117793114D01*
X94906886Y-117507439D01*
X94768948Y-117301000D01*
X94682427Y-117171513D01*
X94527819Y-116798255D01*
X94517790Y-116747835D01*
X94449000Y-116402007D01*
X94449000Y-115997993D01*
X94527818Y-115601748D01*
X94542204Y-115567017D01*
X94682427Y-115228487D01*
X94906884Y-114892564D01*
X94906886Y-114892561D01*
X95192561Y-114606886D01*
X95452825Y-114432983D01*
X95528487Y-114382427D01*
X95901745Y-114227819D01*
X95901746Y-114227819D01*
X95901748Y-114227818D01*
X96297993Y-114149000D01*
X96702007Y-114149000D01*
X97098252Y-114227818D01*
X97098252Y-114227818D01*
G37*
G36*
X150806565Y-115239389D02*
X150997834Y-115318615D01*
X151169976Y-115433637D01*
X151316363Y-115580024D01*
X151431385Y-115752166D01*
X151510611Y-115943435D01*
X151551000Y-116146484D01*
X151551000Y-116353516D01*
X151510611Y-116556565D01*
X151431385Y-116747834D01*
X151316363Y-116919976D01*
X151169976Y-117066363D01*
X150997834Y-117181385D01*
X150806565Y-117260611D01*
X150603516Y-117301000D01*
X150396484Y-117301000D01*
X150193435Y-117260611D01*
X150002166Y-117181385D01*
X149830024Y-117066363D01*
X149683637Y-116919976D01*
X149568615Y-116747834D01*
X149489389Y-116556565D01*
X149449000Y-116353516D01*
X149449000Y-116146484D01*
X149489389Y-115943435D01*
X149568615Y-115752166D01*
X149683637Y-115580024D01*
X149830024Y-115433637D01*
X150002166Y-115318615D01*
X150193435Y-115239389D01*
X150396484Y-115199000D01*
X150603516Y-115199000D01*
X150806565Y-115239389D01*
X150806565Y-115239389D01*
G37*
G36*
X146056565Y-115239389D02*
X146247834Y-115318615D01*
X146419976Y-115433637D01*
X146566363Y-115580024D01*
X146681385Y-115752166D01*
X146760611Y-115943435D01*
X146801000Y-116146484D01*
X146801000Y-116353516D01*
X146760611Y-116556565D01*
X146681385Y-116747834D01*
X146566363Y-116919976D01*
X146419976Y-117066363D01*
X146247834Y-117181385D01*
X146056565Y-117260611D01*
X145853516Y-117301000D01*
X145646484Y-117301000D01*
X145443435Y-117260611D01*
X145252166Y-117181385D01*
X145080024Y-117066363D01*
X144933637Y-116919976D01*
X144818615Y-116747834D01*
X144739389Y-116556565D01*
X144699000Y-116353516D01*
X144699000Y-116146484D01*
X144739389Y-115943435D01*
X144818615Y-115752166D01*
X144933637Y-115580024D01*
X145080024Y-115433637D01*
X145252166Y-115318615D01*
X145443435Y-115239389D01*
X145646484Y-115199000D01*
X145853516Y-115199000D01*
X146056565Y-115239389D01*
X146056565Y-115239389D01*
G37*
G36*
X81088677Y-115903465D02*
X81126364Y-115914898D01*
X81161103Y-115933466D01*
X81191548Y-115958452D01*
X81216534Y-115988897D01*
X81235102Y-116023636D01*
X81246535Y-116061323D01*
X81251000Y-116106661D01*
X81251000Y-116943339D01*
X81246535Y-116988677D01*
X81235102Y-117026364D01*
X81216534Y-117061103D01*
X81191548Y-117091548D01*
X81161103Y-117116534D01*
X81126364Y-117135102D01*
X81088677Y-117146535D01*
X81043339Y-117151000D01*
X79956661Y-117151000D01*
X79911323Y-117146535D01*
X79873636Y-117135102D01*
X79838897Y-117116534D01*
X79808452Y-117091548D01*
X79783466Y-117061103D01*
X79764898Y-117026364D01*
X79753465Y-116988677D01*
X79749000Y-116943339D01*
X79749000Y-116106661D01*
X79753465Y-116061323D01*
X79764898Y-116023636D01*
X79783466Y-115988897D01*
X79808452Y-115958452D01*
X79838897Y-115933466D01*
X79873636Y-115914898D01*
X79911323Y-115903465D01*
X79956661Y-115899000D01*
X81043339Y-115899000D01*
X81088677Y-115903465D01*
X81088677Y-115903465D01*
G37*
G36*
X116588677Y-115403465D02*
X116626364Y-115414898D01*
X116661103Y-115433466D01*
X116691548Y-115458452D01*
X116716534Y-115488897D01*
X116735102Y-115523636D01*
X116746535Y-115561323D01*
X116751000Y-115606661D01*
X116751000Y-116443339D01*
X116746535Y-116488677D01*
X116735102Y-116526364D01*
X116716534Y-116561103D01*
X116691548Y-116591548D01*
X116661103Y-116616534D01*
X116626364Y-116635102D01*
X116588677Y-116646535D01*
X116543339Y-116651000D01*
X115456661Y-116651000D01*
X115411323Y-116646535D01*
X115373636Y-116635102D01*
X115338897Y-116616534D01*
X115308452Y-116591548D01*
X115283466Y-116561103D01*
X115264898Y-116526364D01*
X115253465Y-116488677D01*
X115249000Y-116443339D01*
X115249000Y-115606661D01*
X115253465Y-115561323D01*
X115264898Y-115523636D01*
X115283466Y-115488897D01*
X115308452Y-115458452D01*
X115338897Y-115433466D01*
X115373636Y-115414898D01*
X115411323Y-115403465D01*
X115456661Y-115399000D01*
X116543339Y-115399000D01*
X116588677Y-115403465D01*
X116588677Y-115403465D01*
G37*
G36*
X169056565Y-113239389D02*
X169247834Y-113318615D01*
X169419976Y-113433637D01*
X169566363Y-113580024D01*
X169681385Y-113752166D01*
X169760611Y-113943435D01*
X169801000Y-114146484D01*
X169801000Y-114353516D01*
X169760611Y-114556565D01*
X169681385Y-114747834D01*
X169566363Y-114919976D01*
X169419976Y-115066363D01*
X169247834Y-115181385D01*
X169056565Y-115260611D01*
X168853516Y-115301000D01*
X168646484Y-115301000D01*
X168443435Y-115260611D01*
X168252166Y-115181385D01*
X168080024Y-115066363D01*
X167933637Y-114919976D01*
X167818615Y-114747834D01*
X167739389Y-114556565D01*
X167699000Y-114353516D01*
X167699000Y-114146484D01*
X167739389Y-113943435D01*
X167818615Y-113752166D01*
X167933637Y-113580024D01*
X168080024Y-113433637D01*
X168252166Y-113318615D01*
X168443435Y-113239389D01*
X168646484Y-113199000D01*
X168853516Y-113199000D01*
X169056565Y-113239389D01*
X169056565Y-113239389D01*
G37*
G36*
X81088677Y-113853465D02*
X81126364Y-113864898D01*
X81161103Y-113883466D01*
X81191548Y-113908452D01*
X81216534Y-113938897D01*
X81235102Y-113973636D01*
X81246535Y-114011323D01*
X81251000Y-114056661D01*
X81251000Y-114893339D01*
X81246535Y-114938677D01*
X81235102Y-114976364D01*
X81216534Y-115011103D01*
X81191548Y-115041548D01*
X81161103Y-115066534D01*
X81126364Y-115085102D01*
X81088677Y-115096535D01*
X81043339Y-115101000D01*
X79956661Y-115101000D01*
X79911323Y-115096535D01*
X79873636Y-115085102D01*
X79838897Y-115066534D01*
X79808452Y-115041548D01*
X79783466Y-115011103D01*
X79764898Y-114976364D01*
X79753465Y-114938677D01*
X79749000Y-114893339D01*
X79749000Y-114056661D01*
X79753465Y-114011323D01*
X79764898Y-113973636D01*
X79783466Y-113938897D01*
X79808452Y-113908452D01*
X79838897Y-113883466D01*
X79873636Y-113864898D01*
X79911323Y-113853465D01*
X79956661Y-113849000D01*
X81043339Y-113849000D01*
X81088677Y-113853465D01*
X81088677Y-113853465D01*
G37*
G36*
X116588677Y-113353465D02*
X116626364Y-113364898D01*
X116661103Y-113383466D01*
X116691548Y-113408452D01*
X116716534Y-113438897D01*
X116735102Y-113473636D01*
X116746535Y-113511323D01*
X116751000Y-113556661D01*
X116751000Y-114393339D01*
X116746535Y-114438677D01*
X116735102Y-114476364D01*
X116716534Y-114511103D01*
X116691548Y-114541548D01*
X116661103Y-114566534D01*
X116626364Y-114585102D01*
X116588677Y-114596535D01*
X116543339Y-114601000D01*
X115456661Y-114601000D01*
X115411323Y-114596535D01*
X115373636Y-114585102D01*
X115338897Y-114566534D01*
X115308452Y-114541548D01*
X115283466Y-114511103D01*
X115264898Y-114476364D01*
X115253465Y-114438677D01*
X115249000Y-114393339D01*
X115249000Y-113556661D01*
X115253465Y-113511323D01*
X115264898Y-113473636D01*
X115283466Y-113438897D01*
X115308452Y-113408452D01*
X115338897Y-113383466D01*
X115373636Y-113364898D01*
X115411323Y-113353465D01*
X115456661Y-113349000D01*
X116543339Y-113349000D01*
X116588677Y-113353465D01*
X116588677Y-113353465D01*
G37*
G36*
X172306565Y-110239389D02*
X172497834Y-110318615D01*
X172669976Y-110433637D01*
X172816363Y-110580024D01*
X172931385Y-110752166D01*
X173010611Y-110943435D01*
X173051000Y-111146484D01*
X173051000Y-111353516D01*
X173010611Y-111556565D01*
X172931385Y-111747834D01*
X172816363Y-111919976D01*
X172669976Y-112066363D01*
X172497834Y-112181385D01*
X172306565Y-112260611D01*
X172103516Y-112301000D01*
X171896484Y-112301000D01*
X171693435Y-112260611D01*
X171502166Y-112181385D01*
X171330024Y-112066363D01*
X171183637Y-111919976D01*
X171068615Y-111747834D01*
X170989389Y-111556565D01*
X170949000Y-111353516D01*
X170949000Y-111146484D01*
X170989389Y-110943435D01*
X171068615Y-110752166D01*
X171183637Y-110580024D01*
X171330024Y-110433637D01*
X171502166Y-110318615D01*
X171693435Y-110239389D01*
X171896484Y-110199000D01*
X172103516Y-110199000D01*
X172306565Y-110239389D01*
X172306565Y-110239389D01*
G37*
G36*
X94056565Y-109739389D02*
X94247834Y-109818615D01*
X94419976Y-109933637D01*
X94566363Y-110080024D01*
X94681385Y-110252166D01*
X94760611Y-110443435D01*
X94801000Y-110646484D01*
X94801000Y-110853516D01*
X94760611Y-111056565D01*
X94681385Y-111247834D01*
X94566363Y-111419976D01*
X94419976Y-111566363D01*
X94247834Y-111681385D01*
X94056565Y-111760611D01*
X93853516Y-111801000D01*
X93646484Y-111801000D01*
X93443435Y-111760611D01*
X93252166Y-111681385D01*
X93080024Y-111566363D01*
X92933637Y-111419976D01*
X92818615Y-111247834D01*
X92739389Y-111056565D01*
X92699000Y-110853516D01*
X92699000Y-110646484D01*
X92739389Y-110443435D01*
X92818615Y-110252166D01*
X92933637Y-110080024D01*
X93080024Y-109933637D01*
X93252166Y-109818615D01*
X93443435Y-109739389D01*
X93646484Y-109699000D01*
X93853516Y-109699000D01*
X94056565Y-109739389D01*
X94056565Y-109739389D01*
G37*
G36*
X119000170Y-110950803D02*
X119011879Y-110954355D01*
X119022662Y-110960119D01*
X119032120Y-110967880D01*
X119039881Y-110977338D01*
X119045645Y-110988121D01*
X119049197Y-110999830D01*
X119051000Y-111018138D01*
X119051000Y-111381862D01*
X119049197Y-111400170D01*
X119045645Y-111411879D01*
X119039881Y-111422662D01*
X119032120Y-111432120D01*
X119022662Y-111439881D01*
X119011879Y-111445645D01*
X119000170Y-111449197D01*
X118981862Y-111451000D01*
X115018138Y-111451000D01*
X114999830Y-111449197D01*
X114988121Y-111445645D01*
X114977338Y-111439881D01*
X114967880Y-111432120D01*
X114960119Y-111422662D01*
X114954355Y-111411879D01*
X114950803Y-111400170D01*
X114949000Y-111381862D01*
X114949000Y-111018138D01*
X114950803Y-110999830D01*
X114954355Y-110988121D01*
X114960119Y-110977338D01*
X114967880Y-110967880D01*
X114977338Y-110960119D01*
X114988121Y-110954355D01*
X114999830Y-110950803D01*
X115018138Y-110949000D01*
X118981862Y-110949000D01*
X119000170Y-110950803D01*
X119000170Y-110950803D01*
G37*
G36*
X113056565Y-108739389D02*
X113247834Y-108818615D01*
X113419976Y-108933637D01*
X113566363Y-109080024D01*
X113681385Y-109252166D01*
X113760611Y-109443435D01*
X113801000Y-109646484D01*
X113801000Y-109853516D01*
X113760611Y-110056565D01*
X113681385Y-110247834D01*
X113566363Y-110419976D01*
X113419976Y-110566363D01*
X113247834Y-110681385D01*
X113056565Y-110760611D01*
X112853516Y-110801000D01*
X112646484Y-110801000D01*
X112443435Y-110760611D01*
X112252166Y-110681385D01*
X112080024Y-110566363D01*
X111933637Y-110419976D01*
X111818615Y-110247834D01*
X111739389Y-110056565D01*
X111699000Y-109853516D01*
X111699000Y-109646484D01*
X111739389Y-109443435D01*
X111818615Y-109252166D01*
X111933637Y-109080024D01*
X112080024Y-108933637D01*
X112252166Y-108818615D01*
X112443435Y-108739389D01*
X112646484Y-108699000D01*
X112853516Y-108699000D01*
X113056565Y-108739389D01*
X113056565Y-108739389D01*
G37*
G36*
X85348228Y-108981703D02*
X85503100Y-109045853D01*
X85642481Y-109138985D01*
X85761015Y-109257519D01*
X85854147Y-109396900D01*
X85918297Y-109551772D01*
X85951000Y-109716184D01*
X85951000Y-109883816D01*
X85918297Y-110048228D01*
X85854147Y-110203100D01*
X85761015Y-110342481D01*
X85642481Y-110461015D01*
X85503100Y-110554147D01*
X85348228Y-110618297D01*
X85183816Y-110651000D01*
X85016184Y-110651000D01*
X84851772Y-110618297D01*
X84696900Y-110554147D01*
X84557519Y-110461015D01*
X84438985Y-110342481D01*
X84345853Y-110203100D01*
X84281703Y-110048228D01*
X84249000Y-109883816D01*
X84249000Y-109716184D01*
X84281703Y-109551772D01*
X84345853Y-109396900D01*
X84438985Y-109257519D01*
X84557519Y-109138985D01*
X84696900Y-109045853D01*
X84851772Y-108981703D01*
X85016184Y-108949000D01*
X85183816Y-108949000D01*
X85348228Y-108981703D01*
X85348228Y-108981703D01*
G37*
G36*
X108148228Y-108981703D02*
X108303100Y-109045853D01*
X108442481Y-109138985D01*
X108561015Y-109257519D01*
X108654147Y-109396900D01*
X108718297Y-109551772D01*
X108751000Y-109716184D01*
X108751000Y-109883816D01*
X108718297Y-110048228D01*
X108654147Y-110203100D01*
X108561015Y-110342481D01*
X108442481Y-110461015D01*
X108303100Y-110554147D01*
X108148228Y-110618297D01*
X107983816Y-110651000D01*
X107816184Y-110651000D01*
X107651772Y-110618297D01*
X107496900Y-110554147D01*
X107357519Y-110461015D01*
X107238985Y-110342481D01*
X107145853Y-110203100D01*
X107081703Y-110048228D01*
X107049000Y-109883816D01*
X107049000Y-109716184D01*
X107081703Y-109551772D01*
X107145853Y-109396900D01*
X107238985Y-109257519D01*
X107357519Y-109138985D01*
X107496900Y-109045853D01*
X107651772Y-108981703D01*
X107816184Y-108949000D01*
X107983816Y-108949000D01*
X108148228Y-108981703D01*
X108148228Y-108981703D01*
G37*
G36*
X119000170Y-110150803D02*
X119011879Y-110154355D01*
X119022662Y-110160119D01*
X119032120Y-110167880D01*
X119039881Y-110177338D01*
X119045645Y-110188121D01*
X119049197Y-110199830D01*
X119051000Y-110218138D01*
X119051000Y-110581862D01*
X119049197Y-110600170D01*
X119045645Y-110611879D01*
X119039881Y-110622662D01*
X119032120Y-110632120D01*
X119022662Y-110639881D01*
X119011879Y-110645645D01*
X119000170Y-110649197D01*
X118981862Y-110651000D01*
X115018138Y-110651000D01*
X114999830Y-110649197D01*
X114988121Y-110645645D01*
X114977338Y-110639881D01*
X114967880Y-110632120D01*
X114960119Y-110622662D01*
X114954355Y-110611879D01*
X114950803Y-110600170D01*
X114949000Y-110581862D01*
X114949000Y-110218138D01*
X114950803Y-110199830D01*
X114954355Y-110188121D01*
X114960119Y-110177338D01*
X114967880Y-110167880D01*
X114977338Y-110160119D01*
X114988121Y-110154355D01*
X114999830Y-110150803D01*
X115018138Y-110149000D01*
X118981862Y-110149000D01*
X119000170Y-110150803D01*
X119000170Y-110150803D01*
G37*
G36*
X119000170Y-109350803D02*
X119011879Y-109354355D01*
X119022662Y-109360119D01*
X119032120Y-109367880D01*
X119039881Y-109377338D01*
X119045645Y-109388121D01*
X119049197Y-109399830D01*
X119051000Y-109418138D01*
X119051000Y-109781862D01*
X119049197Y-109800170D01*
X119045645Y-109811879D01*
X119039881Y-109822662D01*
X119032120Y-109832120D01*
X119022662Y-109839881D01*
X119011879Y-109845645D01*
X119000170Y-109849197D01*
X118981862Y-109851000D01*
X115018138Y-109851000D01*
X114999830Y-109849197D01*
X114988121Y-109845645D01*
X114977338Y-109839881D01*
X114967880Y-109832120D01*
X114960119Y-109822662D01*
X114954355Y-109811879D01*
X114950803Y-109800170D01*
X114949000Y-109781862D01*
X114949000Y-109418138D01*
X114950803Y-109399830D01*
X114954355Y-109388121D01*
X114960119Y-109377338D01*
X114967880Y-109367880D01*
X114977338Y-109360119D01*
X114988121Y-109354355D01*
X114999830Y-109350803D01*
X115018138Y-109349000D01*
X118981862Y-109349000D01*
X119000170Y-109350803D01*
X119000170Y-109350803D01*
G37*
G36*
X169056565Y-106989389D02*
X169247834Y-107068615D01*
X169419976Y-107183637D01*
X169566363Y-107330024D01*
X169681385Y-107502166D01*
X169760611Y-107693435D01*
X169801000Y-107896484D01*
X169801000Y-108103516D01*
X169760611Y-108306565D01*
X169681385Y-108497834D01*
X169566363Y-108669976D01*
X169419976Y-108816363D01*
X169247834Y-108931385D01*
X169056565Y-109010611D01*
X168853516Y-109051000D01*
X168646484Y-109051000D01*
X168443435Y-109010611D01*
X168252166Y-108931385D01*
X168080024Y-108816363D01*
X167933637Y-108669976D01*
X167818615Y-108497834D01*
X167739389Y-108306565D01*
X167699000Y-108103516D01*
X167699000Y-107896484D01*
X167739389Y-107693435D01*
X167818615Y-107502166D01*
X167933637Y-107330024D01*
X168080024Y-107183637D01*
X168252166Y-107068615D01*
X168443435Y-106989389D01*
X168646484Y-106949000D01*
X168853516Y-106949000D01*
X169056565Y-106989389D01*
X169056565Y-106989389D01*
G37*
G36*
X119000170Y-108550803D02*
X119011879Y-108554355D01*
X119022662Y-108560119D01*
X119032120Y-108567880D01*
X119039881Y-108577338D01*
X119045645Y-108588121D01*
X119049197Y-108599830D01*
X119051000Y-108618138D01*
X119051000Y-108981862D01*
X119049197Y-109000170D01*
X119045645Y-109011879D01*
X119039881Y-109022662D01*
X119032120Y-109032120D01*
X119022662Y-109039881D01*
X119011879Y-109045645D01*
X119000170Y-109049197D01*
X118981862Y-109051000D01*
X115018138Y-109051000D01*
X114999830Y-109049197D01*
X114988121Y-109045645D01*
X114977338Y-109039881D01*
X114967880Y-109032120D01*
X114960119Y-109022662D01*
X114954355Y-109011879D01*
X114950803Y-109000170D01*
X114949000Y-108981862D01*
X114949000Y-108618138D01*
X114950803Y-108599830D01*
X114954355Y-108588121D01*
X114960119Y-108577338D01*
X114967880Y-108567880D01*
X114977338Y-108560119D01*
X114988121Y-108554355D01*
X114999830Y-108550803D01*
X115018138Y-108549000D01*
X118981862Y-108549000D01*
X119000170Y-108550803D01*
X119000170Y-108550803D01*
G37*
G36*
X119000170Y-107750803D02*
X119011879Y-107754355D01*
X119022662Y-107760119D01*
X119032120Y-107767880D01*
X119039881Y-107777338D01*
X119045645Y-107788121D01*
X119049197Y-107799830D01*
X119051000Y-107818138D01*
X119051000Y-108181862D01*
X119049197Y-108200170D01*
X119045645Y-108211879D01*
X119039881Y-108222662D01*
X119032120Y-108232120D01*
X119022662Y-108239881D01*
X119011879Y-108245645D01*
X119000170Y-108249197D01*
X118981862Y-108251000D01*
X115018138Y-108251000D01*
X114999830Y-108249197D01*
X114988121Y-108245645D01*
X114977338Y-108239881D01*
X114967880Y-108232120D01*
X114960119Y-108222662D01*
X114954355Y-108211879D01*
X114950803Y-108200170D01*
X114949000Y-108181862D01*
X114949000Y-107818138D01*
X114950803Y-107799830D01*
X114954355Y-107788121D01*
X114960119Y-107777338D01*
X114967880Y-107767880D01*
X114977338Y-107760119D01*
X114988121Y-107754355D01*
X114999830Y-107750803D01*
X115018138Y-107749000D01*
X118981862Y-107749000D01*
X119000170Y-107750803D01*
X119000170Y-107750803D01*
G37*
G36*
X119000170Y-106950803D02*
X119011879Y-106954355D01*
X119022662Y-106960119D01*
X119032120Y-106967880D01*
X119039881Y-106977338D01*
X119045645Y-106988121D01*
X119049197Y-106999830D01*
X119051000Y-107018138D01*
X119051000Y-107381862D01*
X119049197Y-107400170D01*
X119045645Y-107411879D01*
X119039881Y-107422662D01*
X119032120Y-107432120D01*
X119022662Y-107439881D01*
X119011879Y-107445645D01*
X119000170Y-107449197D01*
X118981862Y-107451000D01*
X115018138Y-107451000D01*
X114999830Y-107449197D01*
X114988121Y-107445645D01*
X114977338Y-107439881D01*
X114967880Y-107432120D01*
X114960119Y-107422662D01*
X114954355Y-107411879D01*
X114950803Y-107400170D01*
X114949000Y-107381862D01*
X114949000Y-107018138D01*
X114950803Y-106999830D01*
X114954355Y-106988121D01*
X114960119Y-106977338D01*
X114967880Y-106967880D01*
X114977338Y-106960119D01*
X114988121Y-106954355D01*
X114999830Y-106950803D01*
X115018138Y-106949000D01*
X118981862Y-106949000D01*
X119000170Y-106950803D01*
X119000170Y-106950803D01*
G37*
G36*
X119000170Y-106150803D02*
X119011879Y-106154355D01*
X119022662Y-106160119D01*
X119032120Y-106167880D01*
X119039881Y-106177338D01*
X119045645Y-106188121D01*
X119049197Y-106199830D01*
X119051000Y-106218138D01*
X119051000Y-106581862D01*
X119049197Y-106600170D01*
X119045645Y-106611879D01*
X119039881Y-106622662D01*
X119032120Y-106632120D01*
X119022662Y-106639881D01*
X119011879Y-106645645D01*
X119000170Y-106649197D01*
X118981862Y-106651000D01*
X115018138Y-106651000D01*
X114999830Y-106649197D01*
X114988121Y-106645645D01*
X114977338Y-106639881D01*
X114967880Y-106632120D01*
X114960119Y-106622662D01*
X114954355Y-106611879D01*
X114950803Y-106600170D01*
X114949000Y-106581862D01*
X114949000Y-106218138D01*
X114950803Y-106199830D01*
X114954355Y-106188121D01*
X114960119Y-106177338D01*
X114967880Y-106167880D01*
X114977338Y-106160119D01*
X114988121Y-106154355D01*
X114999830Y-106150803D01*
X115018138Y-106149000D01*
X118981862Y-106149000D01*
X119000170Y-106150803D01*
X119000170Y-106150803D01*
G37*
G36*
X119000170Y-105350803D02*
X119011879Y-105354355D01*
X119022662Y-105360119D01*
X119032120Y-105367880D01*
X119039881Y-105377338D01*
X119045645Y-105388121D01*
X119049197Y-105399830D01*
X119051000Y-105418138D01*
X119051000Y-105781862D01*
X119049197Y-105800170D01*
X119045645Y-105811879D01*
X119039881Y-105822662D01*
X119032120Y-105832120D01*
X119022662Y-105839881D01*
X119011879Y-105845645D01*
X119000170Y-105849197D01*
X118981862Y-105851000D01*
X115018138Y-105851000D01*
X114999830Y-105849197D01*
X114988121Y-105845645D01*
X114977338Y-105839881D01*
X114967880Y-105832120D01*
X114960119Y-105822662D01*
X114954355Y-105811879D01*
X114950803Y-105800170D01*
X114949000Y-105781862D01*
X114949000Y-105418138D01*
X114950803Y-105399830D01*
X114954355Y-105388121D01*
X114960119Y-105377338D01*
X114967880Y-105367880D01*
X114977338Y-105360119D01*
X114988121Y-105354355D01*
X114999830Y-105350803D01*
X115018138Y-105349000D01*
X118981862Y-105349000D01*
X119000170Y-105350803D01*
X119000170Y-105350803D01*
G37*
G36*
X169056565Y-103489389D02*
X169247834Y-103568615D01*
X169419976Y-103683637D01*
X169566363Y-103830024D01*
X169681385Y-104002166D01*
X169760611Y-104193435D01*
X169801000Y-104396484D01*
X169801000Y-104603516D01*
X169760611Y-104806565D01*
X169681385Y-104997834D01*
X169566363Y-105169976D01*
X169419976Y-105316363D01*
X169247834Y-105431385D01*
X169056565Y-105510611D01*
X168853516Y-105551000D01*
X168646484Y-105551000D01*
X168443435Y-105510611D01*
X168252166Y-105431385D01*
X168080024Y-105316363D01*
X167933637Y-105169976D01*
X167818615Y-104997834D01*
X167739389Y-104806565D01*
X167699000Y-104603516D01*
X167699000Y-104396484D01*
X167739389Y-104193435D01*
X167818615Y-104002166D01*
X167933637Y-103830024D01*
X168080024Y-103683637D01*
X168252166Y-103568615D01*
X168443435Y-103489389D01*
X168646484Y-103449000D01*
X168853516Y-103449000D01*
X169056565Y-103489389D01*
X169056565Y-103489389D01*
G37*
G36*
X119000170Y-104550803D02*
X119011879Y-104554355D01*
X119022662Y-104560119D01*
X119032120Y-104567880D01*
X119039881Y-104577338D01*
X119045645Y-104588121D01*
X119049197Y-104599830D01*
X119051000Y-104618138D01*
X119051000Y-104981862D01*
X119049197Y-105000170D01*
X119045645Y-105011879D01*
X119039881Y-105022662D01*
X119032120Y-105032120D01*
X119022662Y-105039881D01*
X119011879Y-105045645D01*
X119000170Y-105049197D01*
X118981862Y-105051000D01*
X115018138Y-105051000D01*
X114999830Y-105049197D01*
X114988121Y-105045645D01*
X114977338Y-105039881D01*
X114967880Y-105032120D01*
X114960119Y-105022662D01*
X114954355Y-105011879D01*
X114950803Y-105000170D01*
X114949000Y-104981862D01*
X114949000Y-104618138D01*
X114950803Y-104599830D01*
X114954355Y-104588121D01*
X114960119Y-104577338D01*
X114967880Y-104567880D01*
X114977338Y-104560119D01*
X114988121Y-104554355D01*
X114999830Y-104550803D01*
X115018138Y-104549000D01*
X118981862Y-104549000D01*
X119000170Y-104550803D01*
X119000170Y-104550803D01*
G37*
G36*
X119000170Y-103750803D02*
X119011879Y-103754355D01*
X119022662Y-103760119D01*
X119032120Y-103767880D01*
X119039881Y-103777338D01*
X119045645Y-103788121D01*
X119049197Y-103799830D01*
X119051000Y-103818138D01*
X119051000Y-104181862D01*
X119049197Y-104200170D01*
X119045645Y-104211879D01*
X119039881Y-104222662D01*
X119032120Y-104232120D01*
X119022662Y-104239881D01*
X119011879Y-104245645D01*
X119000170Y-104249197D01*
X118981862Y-104251000D01*
X115018138Y-104251000D01*
X114999830Y-104249197D01*
X114988121Y-104245645D01*
X114977338Y-104239881D01*
X114967880Y-104232120D01*
X114960119Y-104222662D01*
X114954355Y-104211879D01*
X114950803Y-104200170D01*
X114949000Y-104181862D01*
X114949000Y-103818138D01*
X114950803Y-103799830D01*
X114954355Y-103788121D01*
X114960119Y-103777338D01*
X114967880Y-103767880D01*
X114977338Y-103760119D01*
X114988121Y-103754355D01*
X114999830Y-103750803D01*
X115018138Y-103749000D01*
X118981862Y-103749000D01*
X119000170Y-103750803D01*
X119000170Y-103750803D01*
G37*
G36*
X119000170Y-102950803D02*
X119011879Y-102954355D01*
X119022662Y-102960119D01*
X119032120Y-102967880D01*
X119039881Y-102977338D01*
X119045645Y-102988121D01*
X119049197Y-102999830D01*
X119051000Y-103018138D01*
X119051000Y-103381862D01*
X119049197Y-103400170D01*
X119045645Y-103411879D01*
X119039881Y-103422662D01*
X119032120Y-103432120D01*
X119022662Y-103439881D01*
X119011879Y-103445645D01*
X119000170Y-103449197D01*
X118981862Y-103451000D01*
X115018138Y-103451000D01*
X114999830Y-103449197D01*
X114988121Y-103445645D01*
X114977338Y-103439881D01*
X114967880Y-103432120D01*
X114960119Y-103422662D01*
X114954355Y-103411879D01*
X114950803Y-103400170D01*
X114949000Y-103381862D01*
X114949000Y-103018138D01*
X114950803Y-102999830D01*
X114954355Y-102988121D01*
X114960119Y-102977338D01*
X114967880Y-102967880D01*
X114977338Y-102960119D01*
X114988121Y-102954355D01*
X114999830Y-102950803D01*
X115018138Y-102949000D01*
X118981862Y-102949000D01*
X119000170Y-102950803D01*
X119000170Y-102950803D01*
G37*
G36*
X85348228Y-101381703D02*
X85503100Y-101445853D01*
X85642481Y-101538985D01*
X85761015Y-101657519D01*
X85854147Y-101796900D01*
X85918297Y-101951772D01*
X85951000Y-102116184D01*
X85951000Y-102283816D01*
X85918297Y-102448228D01*
X85854147Y-102603100D01*
X85761015Y-102742481D01*
X85642481Y-102861015D01*
X85503100Y-102954147D01*
X85348228Y-103018297D01*
X85183816Y-103051000D01*
X85016184Y-103051000D01*
X84851772Y-103018297D01*
X84696900Y-102954147D01*
X84557519Y-102861015D01*
X84438985Y-102742481D01*
X84345853Y-102603100D01*
X84281703Y-102448228D01*
X84249000Y-102283816D01*
X84249000Y-102116184D01*
X84281703Y-101951772D01*
X84345853Y-101796900D01*
X84438985Y-101657519D01*
X84557519Y-101538985D01*
X84696900Y-101445853D01*
X84851772Y-101381703D01*
X85016184Y-101349000D01*
X85183816Y-101349000D01*
X85348228Y-101381703D01*
X85348228Y-101381703D01*
G37*
G36*
X108148228Y-101381703D02*
X108303100Y-101445853D01*
X108442481Y-101538985D01*
X108561015Y-101657519D01*
X108654147Y-101796900D01*
X108718297Y-101951772D01*
X108751000Y-102116184D01*
X108751000Y-102283816D01*
X108718297Y-102448228D01*
X108654147Y-102603100D01*
X108561015Y-102742481D01*
X108442481Y-102861015D01*
X108303100Y-102954147D01*
X108148228Y-103018297D01*
X107983816Y-103051000D01*
X107816184Y-103051000D01*
X107651772Y-103018297D01*
X107496900Y-102954147D01*
X107357519Y-102861015D01*
X107238985Y-102742481D01*
X107145853Y-102603100D01*
X107081703Y-102448228D01*
X107049000Y-102283816D01*
X107049000Y-102116184D01*
X107081703Y-101951772D01*
X107145853Y-101796900D01*
X107238985Y-101657519D01*
X107357519Y-101538985D01*
X107496900Y-101445853D01*
X107651772Y-101381703D01*
X107816184Y-101349000D01*
X107983816Y-101349000D01*
X108148228Y-101381703D01*
X108148228Y-101381703D01*
G37*
G36*
X119000170Y-102150803D02*
X119011879Y-102154355D01*
X119022662Y-102160119D01*
X119032120Y-102167880D01*
X119039881Y-102177338D01*
X119045645Y-102188121D01*
X119049197Y-102199830D01*
X119051000Y-102218138D01*
X119051000Y-102581862D01*
X119049197Y-102600170D01*
X119045645Y-102611879D01*
X119039881Y-102622662D01*
X119032120Y-102632120D01*
X119022662Y-102639881D01*
X119011879Y-102645645D01*
X119000170Y-102649197D01*
X118981862Y-102651000D01*
X115018138Y-102651000D01*
X114999830Y-102649197D01*
X114988121Y-102645645D01*
X114977338Y-102639881D01*
X114967880Y-102632120D01*
X114960119Y-102622662D01*
X114954355Y-102611879D01*
X114950803Y-102600170D01*
X114949000Y-102581862D01*
X114949000Y-102218138D01*
X114950803Y-102199830D01*
X114954355Y-102188121D01*
X114960119Y-102177338D01*
X114967880Y-102167880D01*
X114977338Y-102160119D01*
X114988121Y-102154355D01*
X114999830Y-102150803D01*
X115018138Y-102149000D01*
X118981862Y-102149000D01*
X119000170Y-102150803D01*
X119000170Y-102150803D01*
G37*
G36*
X119000170Y-101350803D02*
X119011879Y-101354355D01*
X119022662Y-101360119D01*
X119032120Y-101367880D01*
X119039881Y-101377338D01*
X119045645Y-101388121D01*
X119049197Y-101399830D01*
X119051000Y-101418138D01*
X119051000Y-101781862D01*
X119049197Y-101800170D01*
X119045645Y-101811879D01*
X119039881Y-101822662D01*
X119032120Y-101832120D01*
X119022662Y-101839881D01*
X119011879Y-101845645D01*
X119000170Y-101849197D01*
X118981862Y-101851000D01*
X115018138Y-101851000D01*
X114999830Y-101849197D01*
X114988121Y-101845645D01*
X114977338Y-101839881D01*
X114967880Y-101832120D01*
X114960119Y-101822662D01*
X114954355Y-101811879D01*
X114950803Y-101800170D01*
X114949000Y-101781862D01*
X114949000Y-101418138D01*
X114950803Y-101399830D01*
X114954355Y-101388121D01*
X114960119Y-101377338D01*
X114967880Y-101367880D01*
X114977338Y-101360119D01*
X114988121Y-101354355D01*
X114999830Y-101350803D01*
X115018138Y-101349000D01*
X118981862Y-101349000D01*
X119000170Y-101350803D01*
X119000170Y-101350803D01*
G37*
G36*
X119000170Y-100550803D02*
X119011879Y-100554355D01*
X119022662Y-100560119D01*
X119032120Y-100567880D01*
X119039881Y-100577338D01*
X119045645Y-100588121D01*
X119049197Y-100599830D01*
X119051000Y-100618138D01*
X119051000Y-100981862D01*
X119049197Y-101000170D01*
X119045645Y-101011879D01*
X119039881Y-101022662D01*
X119032120Y-101032120D01*
X119022662Y-101039881D01*
X119011879Y-101045645D01*
X119000170Y-101049197D01*
X118981862Y-101051000D01*
X115018138Y-101051000D01*
X114999830Y-101049197D01*
X114988121Y-101045645D01*
X114977338Y-101039881D01*
X114967880Y-101032120D01*
X114960119Y-101022662D01*
X114954355Y-101011879D01*
X114950803Y-101000170D01*
X114949000Y-100981862D01*
X114949000Y-100618138D01*
X114950803Y-100599830D01*
X114954355Y-100588121D01*
X114960119Y-100577338D01*
X114967880Y-100567880D01*
X114977338Y-100560119D01*
X114988121Y-100554355D01*
X114999830Y-100550803D01*
X115018138Y-100549000D01*
X118981862Y-100549000D01*
X119000170Y-100550803D01*
X119000170Y-100550803D01*
G37*
G36*
X188556565Y-98739389D02*
X188747834Y-98818615D01*
X188919976Y-98933637D01*
X189066363Y-99080024D01*
X189181385Y-99252166D01*
X189260611Y-99443435D01*
X189301000Y-99646484D01*
X189301000Y-99853516D01*
X189260611Y-100056565D01*
X189181385Y-100247834D01*
X189066363Y-100419976D01*
X188919976Y-100566363D01*
X188747834Y-100681385D01*
X188556565Y-100760611D01*
X188353516Y-100801000D01*
X188146484Y-100801000D01*
X187943435Y-100760611D01*
X187752166Y-100681385D01*
X187580024Y-100566363D01*
X187433637Y-100419976D01*
X187318615Y-100247834D01*
X187239389Y-100056565D01*
X187199000Y-99853516D01*
X187199000Y-99646484D01*
X187239389Y-99443435D01*
X187318615Y-99252166D01*
X187433637Y-99080024D01*
X187580024Y-98933637D01*
X187752166Y-98818615D01*
X187943435Y-98739389D01*
X188146484Y-98699000D01*
X188353516Y-98699000D01*
X188556565Y-98739389D01*
X188556565Y-98739389D01*
G37*
G36*
X184306565Y-98739389D02*
X184497834Y-98818615D01*
X184669976Y-98933637D01*
X184816363Y-99080024D01*
X184931385Y-99252166D01*
X185010611Y-99443435D01*
X185051000Y-99646484D01*
X185051000Y-99853516D01*
X185010611Y-100056565D01*
X184931385Y-100247834D01*
X184816363Y-100419976D01*
X184669976Y-100566363D01*
X184497834Y-100681385D01*
X184306565Y-100760611D01*
X184103516Y-100801000D01*
X183896484Y-100801000D01*
X183693435Y-100760611D01*
X183502166Y-100681385D01*
X183330024Y-100566363D01*
X183183637Y-100419976D01*
X183068615Y-100247834D01*
X182989389Y-100056565D01*
X182949000Y-99853516D01*
X182949000Y-99646484D01*
X182989389Y-99443435D01*
X183068615Y-99252166D01*
X183183637Y-99080024D01*
X183330024Y-98933637D01*
X183502166Y-98818615D01*
X183693435Y-98739389D01*
X183896484Y-98699000D01*
X184103516Y-98699000D01*
X184306565Y-98739389D01*
X184306565Y-98739389D01*
G37*
G36*
X180306565Y-98739389D02*
X180497834Y-98818615D01*
X180669976Y-98933637D01*
X180816363Y-99080024D01*
X180931385Y-99252166D01*
X181010611Y-99443435D01*
X181051000Y-99646484D01*
X181051000Y-99853516D01*
X181010611Y-100056565D01*
X180931385Y-100247834D01*
X180816363Y-100419976D01*
X180669976Y-100566363D01*
X180497834Y-100681385D01*
X180306565Y-100760611D01*
X180103516Y-100801000D01*
X179896484Y-100801000D01*
X179693435Y-100760611D01*
X179502166Y-100681385D01*
X179330024Y-100566363D01*
X179183637Y-100419976D01*
X179068615Y-100247834D01*
X178989389Y-100056565D01*
X178949000Y-99853516D01*
X178949000Y-99646484D01*
X178989389Y-99443435D01*
X179068615Y-99252166D01*
X179183637Y-99080024D01*
X179330024Y-98933637D01*
X179502166Y-98818615D01*
X179693435Y-98739389D01*
X179896484Y-98699000D01*
X180103516Y-98699000D01*
X180306565Y-98739389D01*
X180306565Y-98739389D01*
G37*
G36*
X199160721Y-99670174D02*
X199260995Y-99711709D01*
X199351245Y-99772012D01*
X199427988Y-99848755D01*
X199488291Y-99939005D01*
X199529826Y-100039279D01*
X199551000Y-100145730D01*
X199551000Y-100254270D01*
X199529826Y-100360721D01*
X199488291Y-100460995D01*
X199427988Y-100551245D01*
X199351245Y-100627988D01*
X199260995Y-100688291D01*
X199160721Y-100729826D01*
X199054270Y-100751000D01*
X198945730Y-100751000D01*
X198839279Y-100729826D01*
X198739005Y-100688291D01*
X198648755Y-100627988D01*
X198572012Y-100551245D01*
X198511709Y-100460995D01*
X198470174Y-100360721D01*
X198449000Y-100254270D01*
X198449000Y-100145730D01*
X198470174Y-100039279D01*
X198511709Y-99939005D01*
X198572012Y-99848755D01*
X198648755Y-99772012D01*
X198739005Y-99711709D01*
X198839279Y-99670174D01*
X198945730Y-99649000D01*
X199054270Y-99649000D01*
X199160721Y-99670174D01*
X199160721Y-99670174D01*
G37*
G36*
X119000170Y-99750803D02*
X119011879Y-99754355D01*
X119022662Y-99760119D01*
X119032120Y-99767880D01*
X119039881Y-99777338D01*
X119045645Y-99788121D01*
X119049197Y-99799830D01*
X119051000Y-99818138D01*
X119051000Y-100181862D01*
X119049197Y-100200170D01*
X119045645Y-100211879D01*
X119039881Y-100222662D01*
X119032120Y-100232120D01*
X119022662Y-100239881D01*
X119011879Y-100245645D01*
X119000170Y-100249197D01*
X118981862Y-100251000D01*
X115018138Y-100251000D01*
X114999830Y-100249197D01*
X114988121Y-100245645D01*
X114977338Y-100239881D01*
X114967880Y-100232120D01*
X114960119Y-100222662D01*
X114954355Y-100211879D01*
X114950803Y-100200170D01*
X114949000Y-100181862D01*
X114949000Y-99818138D01*
X114950803Y-99799830D01*
X114954355Y-99788121D01*
X114960119Y-99777338D01*
X114967880Y-99767880D01*
X114977338Y-99760119D01*
X114988121Y-99754355D01*
X114999830Y-99750803D01*
X115018138Y-99749000D01*
X118981862Y-99749000D01*
X119000170Y-99750803D01*
X119000170Y-99750803D01*
G37*
G36*
X119000170Y-98950803D02*
X119011879Y-98954355D01*
X119022662Y-98960119D01*
X119032120Y-98967880D01*
X119039881Y-98977338D01*
X119045645Y-98988121D01*
X119049197Y-98999830D01*
X119051000Y-99018138D01*
X119051000Y-99381862D01*
X119049197Y-99400170D01*
X119045645Y-99411879D01*
X119039881Y-99422662D01*
X119032120Y-99432120D01*
X119022662Y-99439881D01*
X119011879Y-99445645D01*
X119000170Y-99449197D01*
X118981862Y-99451000D01*
X115018138Y-99451000D01*
X114999830Y-99449197D01*
X114988121Y-99445645D01*
X114977338Y-99439881D01*
X114967880Y-99432120D01*
X114960119Y-99422662D01*
X114954355Y-99411879D01*
X114950803Y-99400170D01*
X114949000Y-99381862D01*
X114949000Y-99018138D01*
X114950803Y-98999830D01*
X114954355Y-98988121D01*
X114960119Y-98977338D01*
X114967880Y-98967880D01*
X114977338Y-98960119D01*
X114988121Y-98954355D01*
X114999830Y-98950803D01*
X115018138Y-98949000D01*
X118981862Y-98949000D01*
X119000170Y-98950803D01*
X119000170Y-98950803D01*
G37*
G36*
X101806565Y-96989389D02*
X101997834Y-97068615D01*
X102169976Y-97183637D01*
X102316363Y-97330024D01*
X102431385Y-97502166D01*
X102510611Y-97693435D01*
X102551000Y-97896484D01*
X102551000Y-98103516D01*
X102510611Y-98306565D01*
X102431385Y-98497834D01*
X102316363Y-98669976D01*
X102169976Y-98816363D01*
X101997834Y-98931385D01*
X101806565Y-99010611D01*
X101603516Y-99051000D01*
X101396484Y-99051000D01*
X101193435Y-99010611D01*
X101002166Y-98931385D01*
X100830024Y-98816363D01*
X100683637Y-98669976D01*
X100568615Y-98497834D01*
X100489389Y-98306565D01*
X100449000Y-98103516D01*
X100449000Y-97896484D01*
X100489389Y-97693435D01*
X100568615Y-97502166D01*
X100683637Y-97330024D01*
X100830024Y-97183637D01*
X101002166Y-97068615D01*
X101193435Y-96989389D01*
X101396484Y-96949000D01*
X101603516Y-96949000D01*
X101806565Y-96989389D01*
X101806565Y-96989389D01*
G37*
G36*
X90056565Y-96739389D02*
X90247834Y-96818615D01*
X90419976Y-96933637D01*
X90566363Y-97080024D01*
X90681385Y-97252166D01*
X90760611Y-97443435D01*
X90801000Y-97646484D01*
X90801000Y-97853516D01*
X90760611Y-98056565D01*
X90681385Y-98247834D01*
X90566363Y-98419976D01*
X90419976Y-98566363D01*
X90247834Y-98681385D01*
X90056565Y-98760611D01*
X89853516Y-98801000D01*
X89646484Y-98801000D01*
X89443435Y-98760611D01*
X89252166Y-98681385D01*
X89080024Y-98566363D01*
X88933637Y-98419976D01*
X88818615Y-98247834D01*
X88739389Y-98056565D01*
X88699000Y-97853516D01*
X88699000Y-97646484D01*
X88739389Y-97443435D01*
X88818615Y-97252166D01*
X88933637Y-97080024D01*
X89080024Y-96933637D01*
X89252166Y-96818615D01*
X89443435Y-96739389D01*
X89646484Y-96699000D01*
X89853516Y-96699000D01*
X90056565Y-96739389D01*
X90056565Y-96739389D01*
G37*
G36*
X119000170Y-98150803D02*
X119011879Y-98154355D01*
X119022662Y-98160119D01*
X119032120Y-98167880D01*
X119039881Y-98177338D01*
X119045645Y-98188121D01*
X119049197Y-98199830D01*
X119051000Y-98218138D01*
X119051000Y-98581862D01*
X119049197Y-98600170D01*
X119045645Y-98611879D01*
X119039881Y-98622662D01*
X119032120Y-98632120D01*
X119022662Y-98639881D01*
X119011879Y-98645645D01*
X119000170Y-98649197D01*
X118981862Y-98651000D01*
X115018138Y-98651000D01*
X114999830Y-98649197D01*
X114988121Y-98645645D01*
X114977338Y-98639881D01*
X114967880Y-98632120D01*
X114960119Y-98622662D01*
X114954355Y-98611879D01*
X114950803Y-98600170D01*
X114949000Y-98581862D01*
X114949000Y-98218138D01*
X114950803Y-98199830D01*
X114954355Y-98188121D01*
X114960119Y-98177338D01*
X114967880Y-98167880D01*
X114977338Y-98160119D01*
X114988121Y-98154355D01*
X114999830Y-98150803D01*
X115018138Y-98149000D01*
X118981862Y-98149000D01*
X119000170Y-98150803D01*
X119000170Y-98150803D01*
G37*
G36*
X81268604Y-97228347D02*
X81305145Y-97239432D01*
X81338820Y-97257431D01*
X81368341Y-97281659D01*
X81392569Y-97311180D01*
X81410568Y-97344855D01*
X81421653Y-97381396D01*
X81426000Y-97425538D01*
X81426000Y-98374462D01*
X81421653Y-98418604D01*
X81410568Y-98455145D01*
X81392569Y-98488820D01*
X81368341Y-98518341D01*
X81338820Y-98542569D01*
X81305145Y-98560568D01*
X81268604Y-98571653D01*
X81224462Y-98576000D01*
X79775538Y-98576000D01*
X79731396Y-98571653D01*
X79694855Y-98560568D01*
X79661180Y-98542569D01*
X79631659Y-98518341D01*
X79607431Y-98488820D01*
X79589432Y-98455145D01*
X79578347Y-98418604D01*
X79574000Y-98374462D01*
X79574000Y-97425538D01*
X79578347Y-97381396D01*
X79589432Y-97344855D01*
X79607431Y-97311180D01*
X79631659Y-97281659D01*
X79661180Y-97257431D01*
X79694855Y-97239432D01*
X79731396Y-97228347D01*
X79775538Y-97224000D01*
X81224462Y-97224000D01*
X81268604Y-97228347D01*
X81268604Y-97228347D01*
G37*
G36*
X106079485Y-95548996D02*
X106079487Y-95548997D01*
X106079488Y-95548997D01*
X106247534Y-95618604D01*
X106316255Y-95647069D01*
X106529342Y-95789449D01*
X106710551Y-95970658D01*
X106852931Y-96183745D01*
X106951004Y-96420515D01*
X107001000Y-96671861D01*
X107001000Y-96928139D01*
X106988817Y-96989389D01*
X106951003Y-97179488D01*
X106930765Y-97228347D01*
X106852931Y-97416255D01*
X106710551Y-97629342D01*
X106529342Y-97810551D01*
X106523818Y-97814242D01*
X106316255Y-97952931D01*
X106079488Y-98051003D01*
X106079487Y-98051003D01*
X106079485Y-98051004D01*
X105828139Y-98101000D01*
X105571861Y-98101000D01*
X105320515Y-98051004D01*
X105320513Y-98051003D01*
X105320512Y-98051003D01*
X105083745Y-97952931D01*
X104876182Y-97814242D01*
X104870658Y-97810551D01*
X104689449Y-97629342D01*
X104547069Y-97416255D01*
X104469235Y-97228347D01*
X104448997Y-97179488D01*
X104411184Y-96989389D01*
X104399000Y-96928139D01*
X104399000Y-96671861D01*
X104448996Y-96420515D01*
X104547069Y-96183745D01*
X104689449Y-95970658D01*
X104870658Y-95789449D01*
X105083745Y-95647069D01*
X105152466Y-95618604D01*
X105320512Y-95548997D01*
X105320513Y-95548997D01*
X105320515Y-95548996D01*
X105571861Y-95499000D01*
X105828139Y-95499000D01*
X106079485Y-95548996D01*
X106079485Y-95548996D01*
G37*
G36*
X113268604Y-96628347D02*
X113305145Y-96639432D01*
X113338820Y-96657431D01*
X113368341Y-96681659D01*
X113392569Y-96711180D01*
X113410568Y-96744855D01*
X113421653Y-96781396D01*
X113426000Y-96825538D01*
X113426000Y-97774462D01*
X113421653Y-97818604D01*
X113410568Y-97855145D01*
X113392569Y-97888820D01*
X113368341Y-97918341D01*
X113338820Y-97942569D01*
X113305145Y-97960568D01*
X113268604Y-97971653D01*
X113224462Y-97976000D01*
X111775538Y-97976000D01*
X111731396Y-97971653D01*
X111694855Y-97960568D01*
X111661180Y-97942569D01*
X111631659Y-97918341D01*
X111607431Y-97888820D01*
X111589432Y-97855145D01*
X111578347Y-97818604D01*
X111574000Y-97774462D01*
X111574000Y-96825538D01*
X111578347Y-96781396D01*
X111589432Y-96744855D01*
X111607431Y-96711180D01*
X111631659Y-96681659D01*
X111661180Y-96657431D01*
X111694855Y-96639432D01*
X111731396Y-96628347D01*
X111775538Y-96624000D01*
X113224462Y-96624000D01*
X113268604Y-96628347D01*
X113268604Y-96628347D01*
G37*
G36*
X119000170Y-97350803D02*
X119011879Y-97354355D01*
X119022662Y-97360119D01*
X119032120Y-97367880D01*
X119039881Y-97377338D01*
X119045645Y-97388121D01*
X119049197Y-97399830D01*
X119051000Y-97418138D01*
X119051000Y-97781862D01*
X119049197Y-97800170D01*
X119045645Y-97811879D01*
X119039881Y-97822662D01*
X119032120Y-97832120D01*
X119022662Y-97839881D01*
X119011879Y-97845645D01*
X119000170Y-97849197D01*
X118981862Y-97851000D01*
X115018138Y-97851000D01*
X114999830Y-97849197D01*
X114988121Y-97845645D01*
X114977338Y-97839881D01*
X114967880Y-97832120D01*
X114960119Y-97822662D01*
X114954355Y-97811879D01*
X114950803Y-97800170D01*
X114949000Y-97781862D01*
X114949000Y-97418138D01*
X114950803Y-97399830D01*
X114954355Y-97388121D01*
X114960119Y-97377338D01*
X114967880Y-97367880D01*
X114977338Y-97360119D01*
X114988121Y-97354355D01*
X114999830Y-97350803D01*
X115018138Y-97349000D01*
X118981862Y-97349000D01*
X119000170Y-97350803D01*
X119000170Y-97350803D01*
G37*
G36*
X199160721Y-95270174D02*
X199260995Y-95311709D01*
X199351245Y-95372012D01*
X199427988Y-95448755D01*
X199488291Y-95539005D01*
X199529826Y-95639279D01*
X199551000Y-95745730D01*
X199551000Y-95854270D01*
X199529826Y-95960721D01*
X199488291Y-96060995D01*
X199427988Y-96151245D01*
X199351245Y-96227988D01*
X199260995Y-96288291D01*
X199160721Y-96329826D01*
X199054270Y-96351000D01*
X198945730Y-96351000D01*
X198839279Y-96329826D01*
X198739005Y-96288291D01*
X198648755Y-96227988D01*
X198572012Y-96151245D01*
X198511709Y-96060995D01*
X198470174Y-95960721D01*
X198449000Y-95854270D01*
X198449000Y-95745730D01*
X198470174Y-95639279D01*
X198511709Y-95539005D01*
X198572012Y-95448755D01*
X198648755Y-95372012D01*
X198739005Y-95311709D01*
X198839279Y-95270174D01*
X198945730Y-95249000D01*
X199054270Y-95249000D01*
X199160721Y-95270174D01*
X199160721Y-95270174D01*
G37*
G36*
X81268604Y-94428347D02*
X81305145Y-94439432D01*
X81338820Y-94457431D01*
X81368341Y-94481659D01*
X81392569Y-94511180D01*
X81410568Y-94544855D01*
X81421653Y-94581396D01*
X81426000Y-94625538D01*
X81426000Y-95574462D01*
X81421653Y-95618604D01*
X81410568Y-95655145D01*
X81392569Y-95688820D01*
X81368341Y-95718341D01*
X81338820Y-95742569D01*
X81305145Y-95760568D01*
X81268604Y-95771653D01*
X81224462Y-95776000D01*
X79775538Y-95776000D01*
X79731396Y-95771653D01*
X79694855Y-95760568D01*
X79661180Y-95742569D01*
X79631659Y-95718341D01*
X79607431Y-95688820D01*
X79589432Y-95655145D01*
X79578347Y-95618604D01*
X79574000Y-95574462D01*
X79574000Y-94625538D01*
X79578347Y-94581396D01*
X79589432Y-94544855D01*
X79607431Y-94511180D01*
X79631659Y-94481659D01*
X79661180Y-94457431D01*
X79694855Y-94439432D01*
X79731396Y-94428347D01*
X79775538Y-94424000D01*
X81224462Y-94424000D01*
X81268604Y-94428347D01*
X81268604Y-94428347D01*
G37*
G36*
X118401000Y-95401000D02*
X116599000Y-95401000D01*
X116599000Y-93599000D01*
X118401000Y-93599000D01*
X118401000Y-95401000D01*
X118401000Y-95401000D01*
G37*
G36*
X113268604Y-93828347D02*
X113305145Y-93839432D01*
X113338820Y-93857431D01*
X113368341Y-93881659D01*
X113392569Y-93911180D01*
X113410568Y-93944855D01*
X113421653Y-93981396D01*
X113426000Y-94025538D01*
X113426000Y-94974462D01*
X113421653Y-95018604D01*
X113410568Y-95055145D01*
X113392569Y-95088820D01*
X113368341Y-95118341D01*
X113338820Y-95142569D01*
X113305145Y-95160568D01*
X113268604Y-95171653D01*
X113224462Y-95176000D01*
X111775538Y-95176000D01*
X111731396Y-95171653D01*
X111694855Y-95160568D01*
X111661180Y-95142569D01*
X111631659Y-95118341D01*
X111607431Y-95088820D01*
X111589432Y-95055145D01*
X111578347Y-95018604D01*
X111574000Y-94974462D01*
X111574000Y-94025538D01*
X111578347Y-93981396D01*
X111589432Y-93944855D01*
X111607431Y-93911180D01*
X111631659Y-93881659D01*
X111661180Y-93857431D01*
X111694855Y-93839432D01*
X111731396Y-93828347D01*
X111775538Y-93824000D01*
X113224462Y-93824000D01*
X113268604Y-93828347D01*
X113268604Y-93828347D01*
G37*
G36*
X117610442Y-91065518D02*
X117676627Y-91072037D01*
X117789853Y-91106384D01*
X117846467Y-91123557D01*
X117977198Y-91193435D01*
X118002991Y-91207222D01*
X118038729Y-91236552D01*
X118140186Y-91319814D01*
X118203108Y-91396486D01*
X118252778Y-91457009D01*
X118252779Y-91457011D01*
X118336443Y-91613533D01*
X118336443Y-91613534D01*
X118387963Y-91783373D01*
X118405359Y-91960000D01*
X118387963Y-92136627D01*
X118359553Y-92230282D01*
X118336443Y-92306467D01*
X118331153Y-92316363D01*
X118252778Y-92462991D01*
X118223448Y-92498729D01*
X118140186Y-92600186D01*
X118065957Y-92661103D01*
X118002991Y-92712778D01*
X118002989Y-92712779D01*
X117846467Y-92796443D01*
X117789853Y-92813616D01*
X117676627Y-92847963D01*
X117610443Y-92854481D01*
X117544260Y-92861000D01*
X117455740Y-92861000D01*
X117389557Y-92854481D01*
X117323373Y-92847963D01*
X117210147Y-92813616D01*
X117153533Y-92796443D01*
X116997011Y-92712779D01*
X116997009Y-92712778D01*
X116934043Y-92661103D01*
X116859814Y-92600186D01*
X116776552Y-92498729D01*
X116747222Y-92462991D01*
X116668847Y-92316363D01*
X116663557Y-92306467D01*
X116640447Y-92230282D01*
X116612037Y-92136627D01*
X116594641Y-91960000D01*
X116612037Y-91783373D01*
X116663557Y-91613534D01*
X116663557Y-91613533D01*
X116747221Y-91457011D01*
X116747222Y-91457009D01*
X116796892Y-91396486D01*
X116859814Y-91319814D01*
X116961271Y-91236552D01*
X116997009Y-91207222D01*
X117022802Y-91193435D01*
X117153533Y-91123557D01*
X117210147Y-91106384D01*
X117323373Y-91072037D01*
X117389558Y-91065518D01*
X117455740Y-91059000D01*
X117544260Y-91059000D01*
X117610442Y-91065518D01*
X117610442Y-91065518D01*
G37*
G36*
X82938677Y-91253465D02*
X82976364Y-91264898D01*
X83011103Y-91283466D01*
X83041548Y-91308452D01*
X83066534Y-91338897D01*
X83085102Y-91373636D01*
X83096535Y-91411323D01*
X83101000Y-91456661D01*
X83101000Y-92543339D01*
X83096535Y-92588677D01*
X83085102Y-92626364D01*
X83066534Y-92661103D01*
X83041548Y-92691548D01*
X83011103Y-92716534D01*
X82976364Y-92735102D01*
X82938677Y-92746535D01*
X82893339Y-92751000D01*
X82056661Y-92751000D01*
X82011323Y-92746535D01*
X81973636Y-92735102D01*
X81938897Y-92716534D01*
X81908452Y-92691548D01*
X81883466Y-92661103D01*
X81864898Y-92626364D01*
X81853465Y-92588677D01*
X81849000Y-92543339D01*
X81849000Y-91456661D01*
X81853465Y-91411323D01*
X81864898Y-91373636D01*
X81883466Y-91338897D01*
X81908452Y-91308452D01*
X81938897Y-91283466D01*
X81973636Y-91264898D01*
X82011323Y-91253465D01*
X82056661Y-91249000D01*
X82893339Y-91249000D01*
X82938677Y-91253465D01*
X82938677Y-91253465D01*
G37*
G36*
X84988677Y-91253465D02*
X85026364Y-91264898D01*
X85061103Y-91283466D01*
X85091548Y-91308452D01*
X85116534Y-91338897D01*
X85135102Y-91373636D01*
X85146535Y-91411323D01*
X85151000Y-91456661D01*
X85151000Y-92543339D01*
X85146535Y-92588677D01*
X85135102Y-92626364D01*
X85116534Y-92661103D01*
X85091548Y-92691548D01*
X85061103Y-92716534D01*
X85026364Y-92735102D01*
X84988677Y-92746535D01*
X84943339Y-92751000D01*
X84106661Y-92751000D01*
X84061323Y-92746535D01*
X84023636Y-92735102D01*
X83988897Y-92716534D01*
X83958452Y-92691548D01*
X83933466Y-92661103D01*
X83914898Y-92626364D01*
X83903465Y-92588677D01*
X83899000Y-92543339D01*
X83899000Y-91456661D01*
X83903465Y-91411323D01*
X83914898Y-91373636D01*
X83933466Y-91338897D01*
X83958452Y-91308452D01*
X83988897Y-91283466D01*
X84023636Y-91264898D01*
X84061323Y-91253465D01*
X84106661Y-91249000D01*
X84943339Y-91249000D01*
X84988677Y-91253465D01*
X84988677Y-91253465D01*
G37*
G36*
X191556565Y-90489389D02*
X191747834Y-90568615D01*
X191919976Y-90683637D01*
X192066363Y-90830024D01*
X192181385Y-91002166D01*
X192260611Y-91193435D01*
X192301000Y-91396484D01*
X192301000Y-91603516D01*
X192260611Y-91806565D01*
X192181385Y-91997834D01*
X192066363Y-92169976D01*
X191919976Y-92316363D01*
X191747834Y-92431385D01*
X191556565Y-92510611D01*
X191353516Y-92551000D01*
X191146484Y-92551000D01*
X190943435Y-92510611D01*
X190752166Y-92431385D01*
X190580024Y-92316363D01*
X190433637Y-92169976D01*
X190318615Y-91997834D01*
X190239389Y-91806565D01*
X190199000Y-91603516D01*
X190199000Y-91396484D01*
X190239389Y-91193435D01*
X190318615Y-91002166D01*
X190433637Y-90830024D01*
X190580024Y-90683637D01*
X190752166Y-90568615D01*
X190943435Y-90489389D01*
X191146484Y-90449000D01*
X191353516Y-90449000D01*
X191556565Y-90489389D01*
X191556565Y-90489389D01*
G37*
G36*
X111988677Y-90753465D02*
X112026364Y-90764898D01*
X112061103Y-90783466D01*
X112091548Y-90808452D01*
X112116534Y-90838897D01*
X112135102Y-90873636D01*
X112146535Y-90911323D01*
X112151000Y-90956661D01*
X112151000Y-92043339D01*
X112146535Y-92088677D01*
X112135102Y-92126364D01*
X112116534Y-92161103D01*
X112091548Y-92191548D01*
X112061103Y-92216534D01*
X112026364Y-92235102D01*
X111988677Y-92246535D01*
X111943339Y-92251000D01*
X111106661Y-92251000D01*
X111061323Y-92246535D01*
X111023636Y-92235102D01*
X110988897Y-92216534D01*
X110958452Y-92191548D01*
X110933466Y-92161103D01*
X110914898Y-92126364D01*
X110903465Y-92088677D01*
X110899000Y-92043339D01*
X110899000Y-90956661D01*
X110903465Y-90911323D01*
X110914898Y-90873636D01*
X110933466Y-90838897D01*
X110958452Y-90808452D01*
X110988897Y-90783466D01*
X111023636Y-90764898D01*
X111061323Y-90753465D01*
X111106661Y-90749000D01*
X111943339Y-90749000D01*
X111988677Y-90753465D01*
X111988677Y-90753465D01*
G37*
G36*
X109938677Y-90753465D02*
X109976364Y-90764898D01*
X110011103Y-90783466D01*
X110041548Y-90808452D01*
X110066534Y-90838897D01*
X110085102Y-90873636D01*
X110096535Y-90911323D01*
X110101000Y-90956661D01*
X110101000Y-92043339D01*
X110096535Y-92088677D01*
X110085102Y-92126364D01*
X110066534Y-92161103D01*
X110041548Y-92191548D01*
X110011103Y-92216534D01*
X109976364Y-92235102D01*
X109938677Y-92246535D01*
X109893339Y-92251000D01*
X109056661Y-92251000D01*
X109011323Y-92246535D01*
X108973636Y-92235102D01*
X108938897Y-92216534D01*
X108908452Y-92191548D01*
X108883466Y-92161103D01*
X108864898Y-92126364D01*
X108853465Y-92088677D01*
X108849000Y-92043339D01*
X108849000Y-90956661D01*
X108853465Y-90911323D01*
X108864898Y-90873636D01*
X108883466Y-90838897D01*
X108908452Y-90808452D01*
X108938897Y-90783466D01*
X108973636Y-90764898D01*
X109011323Y-90753465D01*
X109056661Y-90749000D01*
X109893339Y-90749000D01*
X109938677Y-90753465D01*
X109938677Y-90753465D01*
G37*
G36*
X117610443Y-88525519D02*
X117676627Y-88532037D01*
X117789853Y-88566384D01*
X117846467Y-88583557D01*
X117985087Y-88657652D01*
X118002991Y-88667222D01*
X118038729Y-88696552D01*
X118140186Y-88779814D01*
X118219421Y-88876364D01*
X118252778Y-88917009D01*
X118252779Y-88917011D01*
X118336443Y-89073533D01*
X118336443Y-89073534D01*
X118387963Y-89243373D01*
X118405359Y-89420000D01*
X118387963Y-89596627D01*
X118353616Y-89709853D01*
X118336443Y-89766467D01*
X118262348Y-89905087D01*
X118252778Y-89922991D01*
X118223448Y-89958729D01*
X118140186Y-90060186D01*
X118038729Y-90143448D01*
X118002991Y-90172778D01*
X118002989Y-90172779D01*
X117846467Y-90256443D01*
X117789853Y-90273616D01*
X117676627Y-90307963D01*
X117610442Y-90314482D01*
X117544260Y-90321000D01*
X117455740Y-90321000D01*
X117389558Y-90314482D01*
X117323373Y-90307963D01*
X117210147Y-90273616D01*
X117153533Y-90256443D01*
X116997011Y-90172779D01*
X116997009Y-90172778D01*
X116961271Y-90143448D01*
X116859814Y-90060186D01*
X116776552Y-89958729D01*
X116747222Y-89922991D01*
X116737652Y-89905087D01*
X116663557Y-89766467D01*
X116646384Y-89709853D01*
X116612037Y-89596627D01*
X116594641Y-89420000D01*
X116612037Y-89243373D01*
X116663557Y-89073534D01*
X116663557Y-89073533D01*
X116747221Y-88917011D01*
X116747222Y-88917009D01*
X116780579Y-88876364D01*
X116859814Y-88779814D01*
X116961271Y-88696552D01*
X116997009Y-88667222D01*
X117014913Y-88657652D01*
X117153533Y-88583557D01*
X117210147Y-88566384D01*
X117323373Y-88532037D01*
X117389557Y-88525519D01*
X117455740Y-88519000D01*
X117544260Y-88519000D01*
X117610443Y-88525519D01*
X117610443Y-88525519D01*
G37*
G36*
X103438677Y-87503465D02*
X103476364Y-87514898D01*
X103511103Y-87533466D01*
X103541548Y-87558452D01*
X103566534Y-87588897D01*
X103585102Y-87623636D01*
X103596535Y-87661323D01*
X103601000Y-87706661D01*
X103601000Y-88793339D01*
X103596535Y-88838677D01*
X103585102Y-88876364D01*
X103566534Y-88911103D01*
X103541548Y-88941548D01*
X103511103Y-88966534D01*
X103476364Y-88985102D01*
X103438677Y-88996535D01*
X103393339Y-89001000D01*
X102556661Y-89001000D01*
X102511323Y-88996535D01*
X102473636Y-88985102D01*
X102438897Y-88966534D01*
X102408452Y-88941548D01*
X102383466Y-88911103D01*
X102364898Y-88876364D01*
X102353465Y-88838677D01*
X102349000Y-88793339D01*
X102349000Y-87706661D01*
X102353465Y-87661323D01*
X102364898Y-87623636D01*
X102383466Y-87588897D01*
X102408452Y-87558452D01*
X102438897Y-87533466D01*
X102473636Y-87514898D01*
X102511323Y-87503465D01*
X102556661Y-87499000D01*
X103393339Y-87499000D01*
X103438677Y-87503465D01*
X103438677Y-87503465D01*
G37*
G36*
X105488677Y-87503465D02*
X105526364Y-87514898D01*
X105561103Y-87533466D01*
X105591548Y-87558452D01*
X105616534Y-87588897D01*
X105635102Y-87623636D01*
X105646535Y-87661323D01*
X105651000Y-87706661D01*
X105651000Y-88793339D01*
X105646535Y-88838677D01*
X105635102Y-88876364D01*
X105616534Y-88911103D01*
X105591548Y-88941548D01*
X105561103Y-88966534D01*
X105526364Y-88985102D01*
X105488677Y-88996535D01*
X105443339Y-89001000D01*
X104606661Y-89001000D01*
X104561323Y-88996535D01*
X104523636Y-88985102D01*
X104488897Y-88966534D01*
X104458452Y-88941548D01*
X104433466Y-88911103D01*
X104414898Y-88876364D01*
X104403465Y-88838677D01*
X104399000Y-88793339D01*
X104399000Y-87706661D01*
X104403465Y-87661323D01*
X104414898Y-87623636D01*
X104433466Y-87588897D01*
X104458452Y-87558452D01*
X104488897Y-87533466D01*
X104523636Y-87514898D01*
X104561323Y-87503465D01*
X104606661Y-87499000D01*
X105443339Y-87499000D01*
X105488677Y-87503465D01*
X105488677Y-87503465D01*
G37*
G36*
X165806565Y-86489389D02*
X165997834Y-86568615D01*
X166169976Y-86683637D01*
X166316363Y-86830024D01*
X166431385Y-87002166D01*
X166510611Y-87193435D01*
X166551000Y-87396484D01*
X166551000Y-87603516D01*
X166510611Y-87806565D01*
X166431385Y-87997834D01*
X166316363Y-88169976D01*
X166169976Y-88316363D01*
X165997834Y-88431385D01*
X165806565Y-88510611D01*
X165603516Y-88551000D01*
X165396484Y-88551000D01*
X165193435Y-88510611D01*
X165002166Y-88431385D01*
X164830024Y-88316363D01*
X164683637Y-88169976D01*
X164568615Y-87997834D01*
X164489389Y-87806565D01*
X164449000Y-87603516D01*
X164449000Y-87396484D01*
X164489389Y-87193435D01*
X164568615Y-87002166D01*
X164683637Y-86830024D01*
X164830024Y-86683637D01*
X165002166Y-86568615D01*
X165193435Y-86489389D01*
X165396484Y-86449000D01*
X165603516Y-86449000D01*
X165806565Y-86489389D01*
X165806565Y-86489389D01*
G37*
G36*
X170306565Y-86489389D02*
X170497834Y-86568615D01*
X170669976Y-86683637D01*
X170816363Y-86830024D01*
X170931385Y-87002166D01*
X171010611Y-87193435D01*
X171051000Y-87396484D01*
X171051000Y-87603516D01*
X171010611Y-87806565D01*
X170931385Y-87997834D01*
X170816363Y-88169976D01*
X170669976Y-88316363D01*
X170497834Y-88431385D01*
X170306565Y-88510611D01*
X170103516Y-88551000D01*
X169896484Y-88551000D01*
X169693435Y-88510611D01*
X169502166Y-88431385D01*
X169330024Y-88316363D01*
X169183637Y-88169976D01*
X169068615Y-87997834D01*
X168989389Y-87806565D01*
X168949000Y-87603516D01*
X168949000Y-87396484D01*
X168989389Y-87193435D01*
X169068615Y-87002166D01*
X169183637Y-86830024D01*
X169330024Y-86683637D01*
X169502166Y-86568615D01*
X169693435Y-86489389D01*
X169896484Y-86449000D01*
X170103516Y-86449000D01*
X170306565Y-86489389D01*
X170306565Y-86489389D01*
G37*
G36*
X98180000Y-86337000D02*
X97278000Y-86337000D01*
X97278000Y-85335000D01*
X98180000Y-85335000D01*
X98180000Y-86337000D01*
X98180000Y-86337000D01*
G37*
G36*
X100080000Y-86337000D02*
X99178000Y-86337000D01*
X99178000Y-85335000D01*
X100080000Y-85335000D01*
X100080000Y-86337000D01*
X100080000Y-86337000D01*
G37*
G36*
X91806565Y-83489389D02*
X91997834Y-83568615D01*
X92169976Y-83683637D01*
X92316363Y-83830024D01*
X92431385Y-84002166D01*
X92510611Y-84193435D01*
X92551000Y-84396484D01*
X92551000Y-84603516D01*
X92510611Y-84806565D01*
X92431385Y-84997834D01*
X92316363Y-85169976D01*
X92169976Y-85316363D01*
X91997834Y-85431385D01*
X91806565Y-85510611D01*
X91603516Y-85551000D01*
X91396484Y-85551000D01*
X91193435Y-85510611D01*
X91002166Y-85431385D01*
X90830024Y-85316363D01*
X90683637Y-85169976D01*
X90568615Y-84997834D01*
X90489389Y-84806565D01*
X90449000Y-84603516D01*
X90449000Y-84396484D01*
X90489389Y-84193435D01*
X90568615Y-84002166D01*
X90683637Y-83830024D01*
X90830024Y-83683637D01*
X91002166Y-83568615D01*
X91193435Y-83489389D01*
X91396484Y-83449000D01*
X91603516Y-83449000D01*
X91806565Y-83489389D01*
X91806565Y-83489389D01*
G37*
G36*
X103306565Y-82489389D02*
X103497834Y-82568615D01*
X103669976Y-82683637D01*
X103816363Y-82830024D01*
X103931385Y-83002166D01*
X104010611Y-83193435D01*
X104051000Y-83396484D01*
X104051000Y-83603516D01*
X104010611Y-83806565D01*
X103931385Y-83997834D01*
X103816363Y-84169976D01*
X103669976Y-84316363D01*
X103497834Y-84431385D01*
X103306565Y-84510611D01*
X103103516Y-84551000D01*
X102896484Y-84551000D01*
X102693435Y-84510611D01*
X102502166Y-84431385D01*
X102330024Y-84316363D01*
X102183637Y-84169976D01*
X102068615Y-83997834D01*
X101989389Y-83806565D01*
X101949000Y-83603516D01*
X101949000Y-83396484D01*
X101989389Y-83193435D01*
X102068615Y-83002166D01*
X102183637Y-82830024D01*
X102330024Y-82683637D01*
X102502166Y-82568615D01*
X102693435Y-82489389D01*
X102896484Y-82449000D01*
X103103516Y-82449000D01*
X103306565Y-82489389D01*
X103306565Y-82489389D01*
G37*
G36*
X99130000Y-84337000D02*
X98228000Y-84337000D01*
X98228000Y-83335000D01*
X99130000Y-83335000D01*
X99130000Y-84337000D01*
X99130000Y-84337000D01*
G37*
M02*
