M48
;DRILL file {KiCad (5.0.2)-1} date 14.10.2019 17:29:10
;FORMAT={-:-/ absolute / inch / decimal}
FMAT,2
INCH,TZ
T1C0.0157
T2C0.0315
T3C0.0374
T4C0.0394
T5C0.0472
T6C0.0984
T7C0.1575
%
G90
G05
T1
X3.1299Y-3.6713
X3.1732Y-3.9705
X3.248Y-3.7598
X3.4149Y-3.5034
X3.4154Y-4.5768
X3.4252Y-3.6122
X3.5827Y-3.4744
X3.5925Y-4.6358
X3.6122Y-4.2323
X3.622Y-5.0394
X3.7008Y-3.8878
X3.7106Y-3.4744
X3.7205Y-5.2362
X3.7303Y-3.6122
X3.7402Y-3.7933
X3.75Y-3.3465
X3.7795Y-3.8878
X3.8189Y-3.7894
X3.8583Y-3.8878
X3.9469Y-4.0846
X3.9862Y-3.3563
X4.0059Y-3.5335
X4.0354Y-3.5689
X4.1339Y-3.9075
X4.2323Y-3.6811
X4.2913Y-3.4646
X4.311Y-4.3602
X4.3898Y-3.3071
X4.3898Y-3.8976
X4.4Y-3.385
X4.4094Y-4.5965
X4.4193Y-4.1339
X4.4587Y-3.5728
X4.46Y-3.34
X4.8917Y-4.2913
X4.9016Y-4.5571
X4.9606Y-3.6024
X4.97Y-3.72
X4.9705Y-4.1142
X4.9897Y-3.8282
X5.025Y-4.08
X5.0394Y-3.5138
X5.0492Y-3.75
X5.06Y-4.29
X5.089Y-3.616
X5.095Y-4.12
X5.096Y-3.6659
X5.0984Y-3.8189
X5.1083Y-4.5374
X5.1476Y-4.6654
X5.155Y-4.285
X5.1673Y-3.8189
X5.235Y-4.285
X5.26Y-3.665
X5.2854Y-4.1732
X5.2953Y-4.9803
X5.3051Y-3.5138
X5.3051Y-4.6457
X5.3157Y-3.6803
X5.32Y-4.285
X5.3248Y-3.3563
X5.44Y-3.62
X5.4429Y-3.6811
X5.4429Y-4.6752
X5.4823Y-3.8386
X5.51Y-4.08
X5.5512Y-4.9902
X5.5669Y-4.2402
X5.57Y-4.003
X5.5709Y-4.6457
X5.59Y-3.905
X5.5906Y-3.6614
X5.63Y-4.25
X5.685Y-4.25
X5.74Y-4.2523
X5.765Y-3.955
X5.7874Y-4.3209
X5.795Y-4.105
X5.805Y-4.035
X5.8366Y-4.5669
X5.8661Y-4.252
X5.88Y-3.815
X5.8858Y-3.9173
X5.8858Y-4.8327
X5.9Y-3.54
X5.9803Y-4.3268
X5.9941Y-3.5433
X5.9941Y-3.8189
X5.9941Y-3.8878
X6.0138Y-3.937
X6.0236Y-4.124
X6.063Y-4.2913
X6.07Y-4.43
X6.0728Y-4.1929
X6.0925Y-4.9213
X6.125Y-4.34
X6.1417Y-3.7303
X6.1457Y-4.0945
X6.18Y-3.9
X6.2106Y-3.6516
X6.2205Y-4.9508
X6.2205Y-3.7008
X6.2894Y-4.685
X6.295Y-3.8585
X6.34Y-4.355
X6.355Y-4.295
X6.4272Y-4.6654
X6.5059Y-4.4193
X6.5748Y-4.5768
X6.624Y-4.9409
X6.6929Y-4.7244
X6.8406Y-3.4547
X6.9134Y-4.0472
X6.9291Y-3.8681
X6.9488Y-4.4094
X7.0177Y-4.6063
X7.0472Y-4.7146
X7.0866Y-4.1634
X7.1949Y-3.6122
X7.3228Y-4.6358
X7.3524Y-5.128
X7.3917Y-4.0748
X7.5787Y-4.3504
X7.7461Y-4.2913
X7.7559Y-4.5276
X7.9331Y-3.9173
X7.9331Y-4.6949
T2
X4.1142Y-4.8228
X4.1142Y-4.9606
X3.3504Y-4.0236
X3.3504Y-4.3228
X4.248Y-4.0236
X4.248Y-4.3228
T3
X5.7874Y-5.1969
X5.8858Y-5.1969
X5.9843Y-5.1969
X5.2756Y-5.1969
X5.374Y-5.1969
X5.4724Y-5.1969
X4.7638Y-5.1969
X4.8622Y-5.1969
X4.9606Y-5.1969
T4
X6.2992Y-5.1969
X6.3976Y-5.1969
X4.626Y-3.5205
X4.626Y-3.6205
X4.626Y-3.7205
X6.7323Y-5.1969
X6.8307Y-5.1969
X7.1654Y-5.1969
X7.2638Y-5.1969
T5
X3.6909Y-4.3602
X5.7382Y-4.5768
X6.5157Y-3.4449
X6.7717Y-4.3799
X7.2441Y-3.9272
X6.6929Y-3.4449
X3.5335Y-3.8484
X3.9961Y-3.8583
X4.439Y-4.3209
X6.3878Y-4.813
X6.6437Y-4.1142
X5.9252Y-4.5768
X4.0551Y-3.2874
X7.5295Y-3.6024
X5.1181Y-5.1181
X6.7618Y-4.813
X6.6437Y-4.498
X6.6437Y-4.252
X3.6024Y-3.3268
X5.8268Y-4.6949
X4.5374Y-4.8524
X4.2421Y-5.1673
X5.374Y-5.0354
X7.4114Y-3.9272
X7.0866Y-3.9272
T6
X4.1614Y-3.811
T7
X3.1496Y-3.3465
X3.1496Y-5.1969
X7.9134Y-5.2362
X3.7992Y-4.5748
T0
M30
