G04 #@! TF.GenerationSoftware,KiCad,Pcbnew,(5.0.2)-1*
G04 #@! TF.CreationDate,2019-10-14T17:28:43+02:00*
G04 #@! TF.ProjectId,motoHUD,6d6f746f-4855-4442-9e6b-696361645f70,rev?*
G04 #@! TF.SameCoordinates,Original*
G04 #@! TF.FileFunction,Legend,Top*
G04 #@! TF.FilePolarity,Positive*
%FSLAX46Y46*%
G04 Gerber Fmt 4.6, Leading zero omitted, Abs format (unit mm)*
G04 Created by KiCad (PCBNEW (5.0.2)-1) date 14.10.2019 17:28:43*
%MOMM*%
%LPD*%
G01*
G04 APERTURE LIST*
%ADD10C,0.200000*%
%ADD11C,0.150000*%
%ADD12C,0.120000*%
G04 APERTURE END LIST*
D10*
X120611904Y-111847619D02*
X120611904Y-111390476D01*
X120611904Y-111619047D02*
X119811904Y-111619047D01*
X119926190Y-111542857D01*
X120002380Y-111466666D01*
X120040476Y-111390476D01*
X120154761Y-112304761D02*
X120116666Y-112228571D01*
X120078571Y-112190476D01*
X120002380Y-112152380D01*
X119964285Y-112152380D01*
X119888095Y-112190476D01*
X119850000Y-112228571D01*
X119811904Y-112304761D01*
X119811904Y-112457142D01*
X119850000Y-112533333D01*
X119888095Y-112571428D01*
X119964285Y-112609523D01*
X120002380Y-112609523D01*
X120078571Y-112571428D01*
X120116666Y-112533333D01*
X120154761Y-112457142D01*
X120154761Y-112304761D01*
X120192857Y-112228571D01*
X120230952Y-112190476D01*
X120307142Y-112152380D01*
X120459523Y-112152380D01*
X120535714Y-112190476D01*
X120573809Y-112228571D01*
X120611904Y-112304761D01*
X120611904Y-112457142D01*
X120573809Y-112533333D01*
X120535714Y-112571428D01*
X120459523Y-112609523D01*
X120307142Y-112609523D01*
X120230952Y-112571428D01*
X120192857Y-112533333D01*
X120154761Y-112457142D01*
X120861904Y-97021428D02*
X120861904Y-97478571D01*
X120861904Y-97250000D02*
X120061904Y-97250000D01*
X120176190Y-97326190D01*
X120252380Y-97402380D01*
X120290476Y-97478571D01*
D11*
G04 #@! TO.C,J9*
X135600000Y-128800000D02*
X135600000Y-83600000D01*
X135600000Y-128800000D02*
X201600000Y-128800000D01*
X135600000Y-83600000D02*
X137400000Y-83600000D01*
X137400000Y-83600000D02*
X137400000Y-127000000D01*
X137400000Y-127000000D02*
X201600000Y-127000000D01*
X201600000Y-127000000D02*
X201600000Y-128800000D01*
G04 #@! TO.C,M1*
X97300000Y-112000000D02*
G75*
G03X97300000Y-112000000I-800000J0D01*
G01*
X101900000Y-92000000D02*
X91100000Y-92000000D01*
X111500000Y-106000000D02*
G75*
G03X111500000Y-106000000I-15000000J0D01*
G01*
D12*
G04 #@! TO.C,Q1*
X100259000Y-84076000D02*
X99329000Y-84076000D01*
X97099000Y-84076000D02*
X98029000Y-84076000D01*
X97099000Y-84076000D02*
X97099000Y-86236000D01*
X100259000Y-84076000D02*
X100259000Y-85536000D01*
G04 #@! TO.C,D6*
X80400000Y-120635000D02*
X84285000Y-120635000D01*
X84285000Y-120635000D02*
X84285000Y-118365000D01*
X84285000Y-118365000D02*
X80400000Y-118365000D01*
G04 #@! TO.C,D7*
X81635000Y-98785000D02*
X81635000Y-94900000D01*
X79365000Y-98785000D02*
X81635000Y-98785000D01*
X79365000Y-94900000D02*
X79365000Y-98785000D01*
G04 #@! TO.C,D8*
X111507000Y-120135000D02*
X115392000Y-120135000D01*
X111507000Y-117865000D02*
X111507000Y-120135000D01*
X115392000Y-117865000D02*
X111507000Y-117865000D01*
G04 #@! TO.C,D9*
X111365000Y-94300000D02*
X111365000Y-98185000D01*
X111365000Y-98185000D02*
X113635000Y-98185000D01*
X113635000Y-98185000D02*
X113635000Y-94300000D01*
G04 #@! TO.C,R31*
X103738748Y-88960000D02*
X104261252Y-88960000D01*
X103738748Y-87540000D02*
X104261252Y-87540000D01*
G04 #@! TO.C,R33*
X116710000Y-114738748D02*
X116710000Y-115261252D01*
X115290000Y-114738748D02*
X115290000Y-115261252D01*
G04 #@! TO.C,R34*
X81210000Y-115238748D02*
X81210000Y-115761252D01*
X79790000Y-115238748D02*
X79790000Y-115761252D01*
G04 #@! TO.C,R35*
X110238748Y-90790000D02*
X110761252Y-90790000D01*
X110238748Y-92210000D02*
X110761252Y-92210000D01*
G04 #@! TO.C,R36*
X83761252Y-91290000D02*
X83238748Y-91290000D01*
X83761252Y-92710000D02*
X83238748Y-92710000D01*
G04 #@! TO.C,J9*
D11*
X121452380Y-109233333D02*
X121452380Y-109709523D01*
X120452380Y-109709523D01*
X121357142Y-108328571D02*
X121404761Y-108376190D01*
X121452380Y-108519047D01*
X121452380Y-108614285D01*
X121404761Y-108757142D01*
X121309523Y-108852380D01*
X121214285Y-108900000D01*
X121023809Y-108947619D01*
X120880952Y-108947619D01*
X120690476Y-108900000D01*
X120595238Y-108852380D01*
X120500000Y-108757142D01*
X120452380Y-108614285D01*
X120452380Y-108519047D01*
X120500000Y-108376190D01*
X120547619Y-108328571D01*
X121452380Y-107900000D02*
X120452380Y-107900000D01*
X120452380Y-107661904D01*
X120500000Y-107519047D01*
X120595238Y-107423809D01*
X120690476Y-107376190D01*
X120880952Y-107328571D01*
X121023809Y-107328571D01*
X121214285Y-107376190D01*
X121309523Y-107423809D01*
X121404761Y-107519047D01*
X121452380Y-107661904D01*
X121452380Y-107900000D01*
X121357142Y-105566666D02*
X121404761Y-105614285D01*
X121452380Y-105757142D01*
X121452380Y-105852380D01*
X121404761Y-105995238D01*
X121309523Y-106090476D01*
X121214285Y-106138095D01*
X121023809Y-106185714D01*
X120880952Y-106185714D01*
X120690476Y-106138095D01*
X120595238Y-106090476D01*
X120500000Y-105995238D01*
X120452380Y-105852380D01*
X120452380Y-105757142D01*
X120500000Y-105614285D01*
X120547619Y-105566666D01*
X121452380Y-104995238D02*
X121404761Y-105090476D01*
X121357142Y-105138095D01*
X121261904Y-105185714D01*
X120976190Y-105185714D01*
X120880952Y-105138095D01*
X120833333Y-105090476D01*
X120785714Y-104995238D01*
X120785714Y-104852380D01*
X120833333Y-104757142D01*
X120880952Y-104709523D01*
X120976190Y-104661904D01*
X121261904Y-104661904D01*
X121357142Y-104709523D01*
X121404761Y-104757142D01*
X121452380Y-104852380D01*
X121452380Y-104995238D01*
X120785714Y-104233333D02*
X121452380Y-104233333D01*
X120880952Y-104233333D02*
X120833333Y-104185714D01*
X120785714Y-104090476D01*
X120785714Y-103947619D01*
X120833333Y-103852380D01*
X120928571Y-103804761D01*
X121452380Y-103804761D01*
X120785714Y-103328571D02*
X121452380Y-103328571D01*
X120880952Y-103328571D02*
X120833333Y-103280952D01*
X120785714Y-103185714D01*
X120785714Y-103042857D01*
X120833333Y-102947619D01*
X120928571Y-102900000D01*
X121452380Y-102900000D01*
X121404761Y-102042857D02*
X121452380Y-102138095D01*
X121452380Y-102328571D01*
X121404761Y-102423809D01*
X121309523Y-102471428D01*
X120928571Y-102471428D01*
X120833333Y-102423809D01*
X120785714Y-102328571D01*
X120785714Y-102138095D01*
X120833333Y-102042857D01*
X120928571Y-101995238D01*
X121023809Y-101995238D01*
X121119047Y-102471428D01*
X121404761Y-101138095D02*
X121452380Y-101233333D01*
X121452380Y-101423809D01*
X121404761Y-101519047D01*
X121357142Y-101566666D01*
X121261904Y-101614285D01*
X120976190Y-101614285D01*
X120880952Y-101566666D01*
X120833333Y-101519047D01*
X120785714Y-101423809D01*
X120785714Y-101233333D01*
X120833333Y-101138095D01*
X120785714Y-100852380D02*
X120785714Y-100471428D01*
X120452380Y-100709523D02*
X121309523Y-100709523D01*
X121404761Y-100661904D01*
X121452380Y-100566666D01*
X121452380Y-100471428D01*
X121452380Y-99995238D02*
X121404761Y-100090476D01*
X121357142Y-100138095D01*
X121261904Y-100185714D01*
X120976190Y-100185714D01*
X120880952Y-100138095D01*
X120833333Y-100090476D01*
X120785714Y-99995238D01*
X120785714Y-99852380D01*
X120833333Y-99757142D01*
X120880952Y-99709523D01*
X120976190Y-99661904D01*
X121261904Y-99661904D01*
X121357142Y-99709523D01*
X121404761Y-99757142D01*
X121452380Y-99852380D01*
X121452380Y-99995238D01*
X121452380Y-99233333D02*
X120785714Y-99233333D01*
X120976190Y-99233333D02*
X120880952Y-99185714D01*
X120833333Y-99138095D01*
X120785714Y-99042857D01*
X120785714Y-98947619D01*
X115952380Y-94964285D02*
X115952380Y-95535714D01*
X115952380Y-95250000D02*
X114952380Y-95250000D01*
X115095238Y-95345238D01*
X115190476Y-95440476D01*
X115238095Y-95535714D01*
X163738095Y-103654761D02*
X162785714Y-103654761D01*
X162785714Y-101654761D01*
X165547619Y-103464285D02*
X165452380Y-103559523D01*
X165166666Y-103654761D01*
X164976190Y-103654761D01*
X164690476Y-103559523D01*
X164500000Y-103369047D01*
X164404761Y-103178571D01*
X164309523Y-102797619D01*
X164309523Y-102511904D01*
X164404761Y-102130952D01*
X164500000Y-101940476D01*
X164690476Y-101750000D01*
X164976190Y-101654761D01*
X165166666Y-101654761D01*
X165452380Y-101750000D01*
X165547619Y-101845238D01*
X166404761Y-103654761D02*
X166404761Y-101654761D01*
X166880952Y-101654761D01*
X167166666Y-101750000D01*
X167357142Y-101940476D01*
X167452380Y-102130952D01*
X167547619Y-102511904D01*
X167547619Y-102797619D01*
X167452380Y-103178571D01*
X167357142Y-103369047D01*
X167166666Y-103559523D01*
X166880952Y-103654761D01*
X166404761Y-103654761D01*
X169928571Y-103654761D02*
X169928571Y-101654761D01*
X170690476Y-101654761D01*
X170880952Y-101750000D01*
X170976190Y-101845238D01*
X171071428Y-102035714D01*
X171071428Y-102321428D01*
X170976190Y-102511904D01*
X170880952Y-102607142D01*
X170690476Y-102702380D01*
X169928571Y-102702380D01*
X171833333Y-103083333D02*
X172785714Y-103083333D01*
X171642857Y-103654761D02*
X172309523Y-101654761D01*
X172976190Y-103654761D01*
X173642857Y-103654761D02*
X173642857Y-101654761D01*
X174785714Y-103654761D01*
X174785714Y-101654761D01*
X175738095Y-102607142D02*
X176404761Y-102607142D01*
X176690476Y-103654761D02*
X175738095Y-103654761D01*
X175738095Y-101654761D01*
X176690476Y-101654761D01*
X178500000Y-103654761D02*
X177547619Y-103654761D01*
X177547619Y-101654761D01*
G04 #@! TO.C,TP2*
X100238095Y-94702380D02*
X100809523Y-94702380D01*
X100523809Y-95702380D02*
X100523809Y-94702380D01*
X101142857Y-95702380D02*
X101142857Y-94702380D01*
X101523809Y-94702380D01*
X101619047Y-94750000D01*
X101666666Y-94797619D01*
X101714285Y-94892857D01*
X101714285Y-95035714D01*
X101666666Y-95130952D01*
X101619047Y-95178571D01*
X101523809Y-95226190D01*
X101142857Y-95226190D01*
X102095238Y-94797619D02*
X102142857Y-94750000D01*
X102238095Y-94702380D01*
X102476190Y-94702380D01*
X102571428Y-94750000D01*
X102619047Y-94797619D01*
X102666666Y-94892857D01*
X102666666Y-94988095D01*
X102619047Y-95130952D01*
X102047619Y-95702380D01*
X102666666Y-95702380D01*
G04 #@! TO.C,TP6*
X88488095Y-95054380D02*
X89059523Y-95054380D01*
X88773809Y-96054380D02*
X88773809Y-95054380D01*
X89392857Y-96054380D02*
X89392857Y-95054380D01*
X89773809Y-95054380D01*
X89869047Y-95102000D01*
X89916666Y-95149619D01*
X89964285Y-95244857D01*
X89964285Y-95387714D01*
X89916666Y-95482952D01*
X89869047Y-95530571D01*
X89773809Y-95578190D01*
X89392857Y-95578190D01*
X90821428Y-95054380D02*
X90630952Y-95054380D01*
X90535714Y-95102000D01*
X90488095Y-95149619D01*
X90392857Y-95292476D01*
X90345238Y-95482952D01*
X90345238Y-95863904D01*
X90392857Y-95959142D01*
X90440476Y-96006761D01*
X90535714Y-96054380D01*
X90726190Y-96054380D01*
X90821428Y-96006761D01*
X90869047Y-95959142D01*
X90916666Y-95863904D01*
X90916666Y-95625809D01*
X90869047Y-95530571D01*
X90821428Y-95482952D01*
X90726190Y-95435333D01*
X90535714Y-95435333D01*
X90440476Y-95482952D01*
X90392857Y-95530571D01*
X90345238Y-95625809D01*
G04 #@! TO.C,TP19*
X128261904Y-127152380D02*
X128833333Y-127152380D01*
X128547619Y-128152380D02*
X128547619Y-127152380D01*
X129166666Y-128152380D02*
X129166666Y-127152380D01*
X129547619Y-127152380D01*
X129642857Y-127200000D01*
X129690476Y-127247619D01*
X129738095Y-127342857D01*
X129738095Y-127485714D01*
X129690476Y-127580952D01*
X129642857Y-127628571D01*
X129547619Y-127676190D01*
X129166666Y-127676190D01*
X130690476Y-128152380D02*
X130119047Y-128152380D01*
X130404761Y-128152380D02*
X130404761Y-127152380D01*
X130309523Y-127295238D01*
X130214285Y-127390476D01*
X130119047Y-127438095D01*
X131166666Y-128152380D02*
X131357142Y-128152380D01*
X131452380Y-128104761D01*
X131500000Y-128057142D01*
X131595238Y-127914285D01*
X131642857Y-127723809D01*
X131642857Y-127342857D01*
X131595238Y-127247619D01*
X131547619Y-127200000D01*
X131452380Y-127152380D01*
X131261904Y-127152380D01*
X131166666Y-127200000D01*
X131119047Y-127247619D01*
X131071428Y-127342857D01*
X131071428Y-127580952D01*
X131119047Y-127676190D01*
X131166666Y-127723809D01*
X131261904Y-127771428D01*
X131452380Y-127771428D01*
X131547619Y-127723809D01*
X131595238Y-127676190D01*
X131642857Y-127580952D01*
G04 #@! TO.C,M1*
X95690476Y-103452380D02*
X95690476Y-102452380D01*
X96023809Y-103166666D01*
X96357142Y-102452380D01*
X96357142Y-103452380D01*
X97357142Y-103452380D02*
X96785714Y-103452380D01*
X97071428Y-103452380D02*
X97071428Y-102452380D01*
X96976190Y-102595238D01*
X96880952Y-102690476D01*
X96785714Y-102738095D01*
X106290476Y-109585714D02*
X106290476Y-110252380D01*
X106052380Y-109204761D02*
X105814285Y-109919047D01*
X106433333Y-109919047D01*
X105766666Y-101652380D02*
X106385714Y-101652380D01*
X106052380Y-102033333D01*
X106195238Y-102033333D01*
X106290476Y-102080952D01*
X106338095Y-102128571D01*
X106385714Y-102223809D01*
X106385714Y-102461904D01*
X106338095Y-102557142D01*
X106290476Y-102604761D01*
X106195238Y-102652380D01*
X105909523Y-102652380D01*
X105814285Y-102604761D01*
X105766666Y-102557142D01*
X86614285Y-101747619D02*
X86661904Y-101700000D01*
X86757142Y-101652380D01*
X86995238Y-101652380D01*
X87090476Y-101700000D01*
X87138095Y-101747619D01*
X87185714Y-101842857D01*
X87185714Y-101938095D01*
X87138095Y-102080952D01*
X86566666Y-102652380D01*
X87185714Y-102652380D01*
X87385714Y-110252380D02*
X86814285Y-110252380D01*
X87100000Y-110252380D02*
X87100000Y-109252380D01*
X87004761Y-109395238D01*
X86909523Y-109490476D01*
X86814285Y-109538095D01*
G04 #@! TO.C,Q1*
X96726619Y-84931238D02*
X96679000Y-85026476D01*
X96583761Y-85121714D01*
X96440904Y-85264571D01*
X96393285Y-85359809D01*
X96393285Y-85455047D01*
X96631380Y-85407428D02*
X96583761Y-85502666D01*
X96488523Y-85597904D01*
X96298047Y-85645523D01*
X95964714Y-85645523D01*
X95774238Y-85597904D01*
X95679000Y-85502666D01*
X95631380Y-85407428D01*
X95631380Y-85216952D01*
X95679000Y-85121714D01*
X95774238Y-85026476D01*
X95964714Y-84978857D01*
X96298047Y-84978857D01*
X96488523Y-85026476D01*
X96583761Y-85121714D01*
X96631380Y-85216952D01*
X96631380Y-85407428D01*
X96631380Y-84026476D02*
X96631380Y-84597904D01*
X96631380Y-84312190D02*
X95631380Y-84312190D01*
X95774238Y-84407428D01*
X95869476Y-84502666D01*
X95917095Y-84597904D01*
G04 #@! TO.C,D6*
X81261904Y-121772380D02*
X81261904Y-120772380D01*
X81500000Y-120772380D01*
X81642857Y-120820000D01*
X81738095Y-120915238D01*
X81785714Y-121010476D01*
X81833333Y-121200952D01*
X81833333Y-121343809D01*
X81785714Y-121534285D01*
X81738095Y-121629523D01*
X81642857Y-121724761D01*
X81500000Y-121772380D01*
X81261904Y-121772380D01*
X82690476Y-120772380D02*
X82500000Y-120772380D01*
X82404761Y-120820000D01*
X82357142Y-120867619D01*
X82261904Y-121010476D01*
X82214285Y-121200952D01*
X82214285Y-121581904D01*
X82261904Y-121677142D01*
X82309523Y-121724761D01*
X82404761Y-121772380D01*
X82595238Y-121772380D01*
X82690476Y-121724761D01*
X82738095Y-121677142D01*
X82785714Y-121581904D01*
X82785714Y-121343809D01*
X82738095Y-121248571D01*
X82690476Y-121200952D01*
X82595238Y-121153333D01*
X82404761Y-121153333D01*
X82309523Y-121200952D01*
X82261904Y-121248571D01*
X82214285Y-121343809D01*
G04 #@! TO.C,D7*
X79132380Y-97238095D02*
X78132380Y-97238095D01*
X78132380Y-97000000D01*
X78180000Y-96857142D01*
X78275238Y-96761904D01*
X78370476Y-96714285D01*
X78560952Y-96666666D01*
X78703809Y-96666666D01*
X78894285Y-96714285D01*
X78989523Y-96761904D01*
X79084761Y-96857142D01*
X79132380Y-97000000D01*
X79132380Y-97238095D01*
X78132380Y-96333333D02*
X78132380Y-95666666D01*
X79132380Y-96095238D01*
G04 #@! TO.C,D8*
X113053904Y-117632380D02*
X113053904Y-116632380D01*
X113292000Y-116632380D01*
X113434857Y-116680000D01*
X113530095Y-116775238D01*
X113577714Y-116870476D01*
X113625333Y-117060952D01*
X113625333Y-117203809D01*
X113577714Y-117394285D01*
X113530095Y-117489523D01*
X113434857Y-117584761D01*
X113292000Y-117632380D01*
X113053904Y-117632380D01*
X114196761Y-117060952D02*
X114101523Y-117013333D01*
X114053904Y-116965714D01*
X114006285Y-116870476D01*
X114006285Y-116822857D01*
X114053904Y-116727619D01*
X114101523Y-116680000D01*
X114196761Y-116632380D01*
X114387238Y-116632380D01*
X114482476Y-116680000D01*
X114530095Y-116727619D01*
X114577714Y-116822857D01*
X114577714Y-116870476D01*
X114530095Y-116965714D01*
X114482476Y-117013333D01*
X114387238Y-117060952D01*
X114196761Y-117060952D01*
X114101523Y-117108571D01*
X114053904Y-117156190D01*
X114006285Y-117251428D01*
X114006285Y-117441904D01*
X114053904Y-117537142D01*
X114101523Y-117584761D01*
X114196761Y-117632380D01*
X114387238Y-117632380D01*
X114482476Y-117584761D01*
X114530095Y-117537142D01*
X114577714Y-117441904D01*
X114577714Y-117251428D01*
X114530095Y-117156190D01*
X114482476Y-117108571D01*
X114387238Y-117060952D01*
G04 #@! TO.C,D9*
X111132380Y-96638095D02*
X110132380Y-96638095D01*
X110132380Y-96400000D01*
X110180000Y-96257142D01*
X110275238Y-96161904D01*
X110370476Y-96114285D01*
X110560952Y-96066666D01*
X110703809Y-96066666D01*
X110894285Y-96114285D01*
X110989523Y-96161904D01*
X111084761Y-96257142D01*
X111132380Y-96400000D01*
X111132380Y-96638095D01*
X111132380Y-95590476D02*
X111132380Y-95400000D01*
X111084761Y-95304761D01*
X111037142Y-95257142D01*
X110894285Y-95161904D01*
X110703809Y-95114285D01*
X110322857Y-95114285D01*
X110227619Y-95161904D01*
X110180000Y-95209523D01*
X110132380Y-95304761D01*
X110132380Y-95495238D01*
X110180000Y-95590476D01*
X110227619Y-95638095D01*
X110322857Y-95685714D01*
X110560952Y-95685714D01*
X110656190Y-95638095D01*
X110703809Y-95590476D01*
X110751428Y-95495238D01*
X110751428Y-95304761D01*
X110703809Y-95209523D01*
X110656190Y-95161904D01*
X110560952Y-95114285D01*
G04 #@! TO.C,R31*
X103357142Y-87052380D02*
X103023809Y-86576190D01*
X102785714Y-87052380D02*
X102785714Y-86052380D01*
X103166666Y-86052380D01*
X103261904Y-86100000D01*
X103309523Y-86147619D01*
X103357142Y-86242857D01*
X103357142Y-86385714D01*
X103309523Y-86480952D01*
X103261904Y-86528571D01*
X103166666Y-86576190D01*
X102785714Y-86576190D01*
X103690476Y-86052380D02*
X104309523Y-86052380D01*
X103976190Y-86433333D01*
X104119047Y-86433333D01*
X104214285Y-86480952D01*
X104261904Y-86528571D01*
X104309523Y-86623809D01*
X104309523Y-86861904D01*
X104261904Y-86957142D01*
X104214285Y-87004761D01*
X104119047Y-87052380D01*
X103833333Y-87052380D01*
X103738095Y-87004761D01*
X103690476Y-86957142D01*
X105261904Y-87052380D02*
X104690476Y-87052380D01*
X104976190Y-87052380D02*
X104976190Y-86052380D01*
X104880952Y-86195238D01*
X104785714Y-86290476D01*
X104690476Y-86338095D01*
G04 #@! TO.C,R33*
X118102380Y-115642857D02*
X117626190Y-115976190D01*
X118102380Y-116214285D02*
X117102380Y-116214285D01*
X117102380Y-115833333D01*
X117150000Y-115738095D01*
X117197619Y-115690476D01*
X117292857Y-115642857D01*
X117435714Y-115642857D01*
X117530952Y-115690476D01*
X117578571Y-115738095D01*
X117626190Y-115833333D01*
X117626190Y-116214285D01*
X117102380Y-115309523D02*
X117102380Y-114690476D01*
X117483333Y-115023809D01*
X117483333Y-114880952D01*
X117530952Y-114785714D01*
X117578571Y-114738095D01*
X117673809Y-114690476D01*
X117911904Y-114690476D01*
X118007142Y-114738095D01*
X118054761Y-114785714D01*
X118102380Y-114880952D01*
X118102380Y-115166666D01*
X118054761Y-115261904D01*
X118007142Y-115309523D01*
X117102380Y-114357142D02*
X117102380Y-113738095D01*
X117483333Y-114071428D01*
X117483333Y-113928571D01*
X117530952Y-113833333D01*
X117578571Y-113785714D01*
X117673809Y-113738095D01*
X117911904Y-113738095D01*
X118007142Y-113785714D01*
X118054761Y-113833333D01*
X118102380Y-113928571D01*
X118102380Y-114214285D01*
X118054761Y-114309523D01*
X118007142Y-114357142D01*
G04 #@! TO.C,R34*
X82602380Y-116142857D02*
X82126190Y-116476190D01*
X82602380Y-116714285D02*
X81602380Y-116714285D01*
X81602380Y-116333333D01*
X81650000Y-116238095D01*
X81697619Y-116190476D01*
X81792857Y-116142857D01*
X81935714Y-116142857D01*
X82030952Y-116190476D01*
X82078571Y-116238095D01*
X82126190Y-116333333D01*
X82126190Y-116714285D01*
X81602380Y-115809523D02*
X81602380Y-115190476D01*
X81983333Y-115523809D01*
X81983333Y-115380952D01*
X82030952Y-115285714D01*
X82078571Y-115238095D01*
X82173809Y-115190476D01*
X82411904Y-115190476D01*
X82507142Y-115238095D01*
X82554761Y-115285714D01*
X82602380Y-115380952D01*
X82602380Y-115666666D01*
X82554761Y-115761904D01*
X82507142Y-115809523D01*
X81935714Y-114333333D02*
X82602380Y-114333333D01*
X81554761Y-114571428D02*
X82269047Y-114809523D01*
X82269047Y-114190476D01*
G04 #@! TO.C,R35*
X109857142Y-90302380D02*
X109523809Y-89826190D01*
X109285714Y-90302380D02*
X109285714Y-89302380D01*
X109666666Y-89302380D01*
X109761904Y-89350000D01*
X109809523Y-89397619D01*
X109857142Y-89492857D01*
X109857142Y-89635714D01*
X109809523Y-89730952D01*
X109761904Y-89778571D01*
X109666666Y-89826190D01*
X109285714Y-89826190D01*
X110190476Y-89302380D02*
X110809523Y-89302380D01*
X110476190Y-89683333D01*
X110619047Y-89683333D01*
X110714285Y-89730952D01*
X110761904Y-89778571D01*
X110809523Y-89873809D01*
X110809523Y-90111904D01*
X110761904Y-90207142D01*
X110714285Y-90254761D01*
X110619047Y-90302380D01*
X110333333Y-90302380D01*
X110238095Y-90254761D01*
X110190476Y-90207142D01*
X111714285Y-89302380D02*
X111238095Y-89302380D01*
X111190476Y-89778571D01*
X111238095Y-89730952D01*
X111333333Y-89683333D01*
X111571428Y-89683333D01*
X111666666Y-89730952D01*
X111714285Y-89778571D01*
X111761904Y-89873809D01*
X111761904Y-90111904D01*
X111714285Y-90207142D01*
X111666666Y-90254761D01*
X111571428Y-90302380D01*
X111333333Y-90302380D01*
X111238095Y-90254761D01*
X111190476Y-90207142D01*
G04 #@! TO.C,R36*
X82857142Y-94102380D02*
X82523809Y-93626190D01*
X82285714Y-94102380D02*
X82285714Y-93102380D01*
X82666666Y-93102380D01*
X82761904Y-93150000D01*
X82809523Y-93197619D01*
X82857142Y-93292857D01*
X82857142Y-93435714D01*
X82809523Y-93530952D01*
X82761904Y-93578571D01*
X82666666Y-93626190D01*
X82285714Y-93626190D01*
X83190476Y-93102380D02*
X83809523Y-93102380D01*
X83476190Y-93483333D01*
X83619047Y-93483333D01*
X83714285Y-93530952D01*
X83761904Y-93578571D01*
X83809523Y-93673809D01*
X83809523Y-93911904D01*
X83761904Y-94007142D01*
X83714285Y-94054761D01*
X83619047Y-94102380D01*
X83333333Y-94102380D01*
X83238095Y-94054761D01*
X83190476Y-94007142D01*
X84666666Y-93102380D02*
X84476190Y-93102380D01*
X84380952Y-93150000D01*
X84333333Y-93197619D01*
X84238095Y-93340476D01*
X84190476Y-93530952D01*
X84190476Y-93911904D01*
X84238095Y-94007142D01*
X84285714Y-94054761D01*
X84380952Y-94102380D01*
X84571428Y-94102380D01*
X84666666Y-94054761D01*
X84714285Y-94007142D01*
X84761904Y-93911904D01*
X84761904Y-93673809D01*
X84714285Y-93578571D01*
X84666666Y-93530952D01*
X84571428Y-93483333D01*
X84380952Y-93483333D01*
X84285714Y-93530952D01*
X84238095Y-93578571D01*
X84190476Y-93673809D01*
G04 #@! TD*
M02*
