G04 #@! TF.GenerationSoftware,KiCad,Pcbnew,(5.0.2)-1*
G04 #@! TF.CreationDate,2019-10-14T17:28:43+02:00*
G04 #@! TF.ProjectId,motoHUD,6d6f746f-4855-4442-9e6b-696361645f70,rev?*
G04 #@! TF.SameCoordinates,Original*
G04 #@! TF.FileFunction,Soldermask,Bot*
G04 #@! TF.FilePolarity,Negative*
%FSLAX46Y46*%
G04 Gerber Fmt 4.6, Leading zero omitted, Abs format (unit mm)*
G04 Created by KiCad (PCBNEW (5.0.2)-1) date 14.10.2019 17:28:43*
%MOMM*%
%LPD*%
G01*
G04 APERTURE LIST*
%ADD10C,0.100000*%
G04 APERTURE END LIST*
D10*
G36*
X190275562Y-132478181D02*
X190310477Y-132488773D01*
X190342665Y-132505978D01*
X190370873Y-132529127D01*
X190394022Y-132557335D01*
X190411227Y-132589523D01*
X190421819Y-132624438D01*
X190426000Y-132666895D01*
X190426000Y-133808105D01*
X190421819Y-133850562D01*
X190411227Y-133885477D01*
X190394022Y-133917665D01*
X190370873Y-133945873D01*
X190342665Y-133969022D01*
X190310477Y-133986227D01*
X190275562Y-133996819D01*
X190233105Y-134001000D01*
X188766895Y-134001000D01*
X188724438Y-133996819D01*
X188689523Y-133986227D01*
X188657335Y-133969022D01*
X188629127Y-133945873D01*
X188605978Y-133917665D01*
X188588773Y-133885477D01*
X188578181Y-133850562D01*
X188574000Y-133808105D01*
X188574000Y-132666895D01*
X188578181Y-132624438D01*
X188588773Y-132589523D01*
X188605978Y-132557335D01*
X188629127Y-132529127D01*
X188657335Y-132505978D01*
X188689523Y-132488773D01*
X188724438Y-132478181D01*
X188766895Y-132474000D01*
X190233105Y-132474000D01*
X190275562Y-132478181D01*
X190275562Y-132478181D01*
G37*
G36*
X162676626Y-130962037D02*
X162782561Y-130994172D01*
X162846466Y-131013557D01*
X163002989Y-131097221D01*
X163140186Y-131209814D01*
X163223448Y-131311271D01*
X163252778Y-131347009D01*
X163252779Y-131347011D01*
X163336443Y-131503533D01*
X163344027Y-131528534D01*
X163387963Y-131673373D01*
X163401000Y-131805742D01*
X163401000Y-132194257D01*
X163387963Y-132326626D01*
X163336443Y-132496466D01*
X163252778Y-132652991D01*
X163252777Y-132652992D01*
X163140186Y-132790186D01*
X163052178Y-132862411D01*
X163002991Y-132902778D01*
X163002989Y-132902779D01*
X162846467Y-132986443D01*
X162815930Y-132995706D01*
X162676627Y-133037963D01*
X162500000Y-133055359D01*
X162323374Y-133037963D01*
X162184071Y-132995706D01*
X162153534Y-132986443D01*
X161997012Y-132902779D01*
X161997010Y-132902778D01*
X161859816Y-132790186D01*
X161859812Y-132790183D01*
X161747222Y-132652992D01*
X161663557Y-132496467D01*
X161646384Y-132439853D01*
X161612037Y-132326627D01*
X161599000Y-132194258D01*
X161599000Y-131805743D01*
X161612037Y-131673374D01*
X161655973Y-131528535D01*
X161663557Y-131503534D01*
X161747221Y-131347011D01*
X161859814Y-131209814D01*
X161973641Y-131116400D01*
X161997009Y-131097222D01*
X162022960Y-131083351D01*
X162153533Y-131013557D01*
X162217438Y-130994172D01*
X162323373Y-130962037D01*
X162500000Y-130944641D01*
X162676626Y-130962037D01*
X162676626Y-130962037D01*
G37*
G36*
X184676626Y-130962037D02*
X184782561Y-130994172D01*
X184846466Y-131013557D01*
X185002989Y-131097221D01*
X185140186Y-131209814D01*
X185223448Y-131311271D01*
X185252778Y-131347009D01*
X185252779Y-131347011D01*
X185336443Y-131503533D01*
X185344027Y-131528534D01*
X185387963Y-131673373D01*
X185401000Y-131805742D01*
X185401000Y-132194257D01*
X185387963Y-132326626D01*
X185336443Y-132496466D01*
X185252778Y-132652991D01*
X185252777Y-132652992D01*
X185140186Y-132790186D01*
X185052178Y-132862411D01*
X185002991Y-132902778D01*
X185002989Y-132902779D01*
X184846467Y-132986443D01*
X184815930Y-132995706D01*
X184676627Y-133037963D01*
X184500000Y-133055359D01*
X184323374Y-133037963D01*
X184184071Y-132995706D01*
X184153534Y-132986443D01*
X183997012Y-132902779D01*
X183997010Y-132902778D01*
X183859816Y-132790186D01*
X183859812Y-132790183D01*
X183747222Y-132652992D01*
X183663557Y-132496467D01*
X183646384Y-132439853D01*
X183612037Y-132326627D01*
X183599000Y-132194258D01*
X183599000Y-131805743D01*
X183612037Y-131673374D01*
X183655973Y-131528535D01*
X183663557Y-131503534D01*
X183747221Y-131347011D01*
X183859814Y-131209814D01*
X183973641Y-131116400D01*
X183997009Y-131097222D01*
X184022960Y-131083351D01*
X184153533Y-131013557D01*
X184217438Y-130994172D01*
X184323373Y-130962037D01*
X184500000Y-130944641D01*
X184676626Y-130962037D01*
X184676626Y-130962037D01*
G37*
G36*
X173676626Y-130962037D02*
X173782561Y-130994172D01*
X173846466Y-131013557D01*
X174002989Y-131097221D01*
X174140186Y-131209814D01*
X174223448Y-131311271D01*
X174252778Y-131347009D01*
X174252779Y-131347011D01*
X174336443Y-131503533D01*
X174344027Y-131528534D01*
X174387963Y-131673373D01*
X174401000Y-131805742D01*
X174401000Y-132194257D01*
X174387963Y-132326626D01*
X174336443Y-132496466D01*
X174252778Y-132652991D01*
X174252777Y-132652992D01*
X174140186Y-132790186D01*
X174052178Y-132862411D01*
X174002991Y-132902778D01*
X174002989Y-132902779D01*
X173846467Y-132986443D01*
X173815930Y-132995706D01*
X173676627Y-133037963D01*
X173500000Y-133055359D01*
X173323374Y-133037963D01*
X173184071Y-132995706D01*
X173153534Y-132986443D01*
X172997012Y-132902779D01*
X172997010Y-132902778D01*
X172859816Y-132790186D01*
X172859812Y-132790183D01*
X172747222Y-132652992D01*
X172663557Y-132496467D01*
X172646384Y-132439853D01*
X172612037Y-132326627D01*
X172599000Y-132194258D01*
X172599000Y-131805743D01*
X172612037Y-131673374D01*
X172655973Y-131528535D01*
X172663557Y-131503534D01*
X172747221Y-131347011D01*
X172859814Y-131209814D01*
X172973641Y-131116400D01*
X172997009Y-131097222D01*
X173022960Y-131083351D01*
X173153533Y-131013557D01*
X173217438Y-130994172D01*
X173323373Y-130962037D01*
X173500000Y-130944641D01*
X173676626Y-130962037D01*
X173676626Y-130962037D01*
G37*
G36*
X160758600Y-130952989D02*
X160791649Y-130963014D01*
X160822106Y-130979294D01*
X160848799Y-131001201D01*
X160870706Y-131027894D01*
X160886986Y-131058351D01*
X160897011Y-131091400D01*
X160901000Y-131131904D01*
X160901000Y-132868096D01*
X160897011Y-132908600D01*
X160886986Y-132941649D01*
X160870706Y-132972106D01*
X160848799Y-132998799D01*
X160822106Y-133020706D01*
X160791649Y-133036986D01*
X160758600Y-133047011D01*
X160718096Y-133051000D01*
X159281904Y-133051000D01*
X159241400Y-133047011D01*
X159208351Y-133036986D01*
X159177894Y-133020706D01*
X159151201Y-132998799D01*
X159129294Y-132972106D01*
X159113014Y-132941649D01*
X159102989Y-132908600D01*
X159099000Y-132868096D01*
X159099000Y-131131904D01*
X159102989Y-131091400D01*
X159113014Y-131058351D01*
X159129294Y-131027894D01*
X159151201Y-131001201D01*
X159177894Y-130979294D01*
X159208351Y-130963014D01*
X159241400Y-130952989D01*
X159281904Y-130949000D01*
X160718096Y-130949000D01*
X160758600Y-130952989D01*
X160758600Y-130952989D01*
G37*
G36*
X171758600Y-130952989D02*
X171791649Y-130963014D01*
X171822106Y-130979294D01*
X171848799Y-131001201D01*
X171870706Y-131027894D01*
X171886986Y-131058351D01*
X171897011Y-131091400D01*
X171901000Y-131131904D01*
X171901000Y-132868096D01*
X171897011Y-132908600D01*
X171886986Y-132941649D01*
X171870706Y-132972106D01*
X171848799Y-132998799D01*
X171822106Y-133020706D01*
X171791649Y-133036986D01*
X171758600Y-133047011D01*
X171718096Y-133051000D01*
X170281904Y-133051000D01*
X170241400Y-133047011D01*
X170208351Y-133036986D01*
X170177894Y-133020706D01*
X170151201Y-132998799D01*
X170129294Y-132972106D01*
X170113014Y-132941649D01*
X170102989Y-132908600D01*
X170099000Y-132868096D01*
X170099000Y-131131904D01*
X170102989Y-131091400D01*
X170113014Y-131058351D01*
X170129294Y-131027894D01*
X170151201Y-131001201D01*
X170177894Y-130979294D01*
X170208351Y-130963014D01*
X170241400Y-130952989D01*
X170281904Y-130949000D01*
X171718096Y-130949000D01*
X171758600Y-130952989D01*
X171758600Y-130952989D01*
G37*
G36*
X182758600Y-130952989D02*
X182791649Y-130963014D01*
X182822106Y-130979294D01*
X182848799Y-131001201D01*
X182870706Y-131027894D01*
X182886986Y-131058351D01*
X182897011Y-131091400D01*
X182901000Y-131131904D01*
X182901000Y-132868096D01*
X182897011Y-132908600D01*
X182886986Y-132941649D01*
X182870706Y-132972106D01*
X182848799Y-132998799D01*
X182822106Y-133020706D01*
X182791649Y-133036986D01*
X182758600Y-133047011D01*
X182718096Y-133051000D01*
X181281904Y-133051000D01*
X181241400Y-133047011D01*
X181208351Y-133036986D01*
X181177894Y-133020706D01*
X181151201Y-132998799D01*
X181129294Y-132972106D01*
X181113014Y-132941649D01*
X181102989Y-132908600D01*
X181099000Y-132868096D01*
X181099000Y-131131904D01*
X181102989Y-131091400D01*
X181113014Y-131058351D01*
X181129294Y-131027894D01*
X181151201Y-131001201D01*
X181177894Y-130979294D01*
X181208351Y-130963014D01*
X181241400Y-130952989D01*
X181281904Y-130949000D01*
X182718096Y-130949000D01*
X182758600Y-130952989D01*
X182758600Y-130952989D01*
G37*
G36*
X152176626Y-130987037D02*
X152288099Y-131020852D01*
X152346466Y-131038557D01*
X152502989Y-131122221D01*
X152640186Y-131234814D01*
X152723448Y-131336271D01*
X152752778Y-131372009D01*
X152752779Y-131372011D01*
X152836443Y-131528533D01*
X152844946Y-131556565D01*
X152887963Y-131698373D01*
X152894482Y-131764558D01*
X152901000Y-131830740D01*
X152901000Y-132169259D01*
X152894481Y-132235442D01*
X152887963Y-132301626D01*
X152836443Y-132471466D01*
X152752778Y-132627991D01*
X152732261Y-132652991D01*
X152640186Y-132765186D01*
X152551827Y-132837699D01*
X152502991Y-132877778D01*
X152502989Y-132877779D01*
X152346467Y-132961443D01*
X152311315Y-132972106D01*
X152176627Y-133012963D01*
X152000000Y-133030359D01*
X151823374Y-133012963D01*
X151688686Y-132972106D01*
X151653534Y-132961443D01*
X151497012Y-132877779D01*
X151497010Y-132877778D01*
X151390279Y-132790186D01*
X151359812Y-132765183D01*
X151247222Y-132627992D01*
X151163557Y-132471467D01*
X151119621Y-132326627D01*
X151112037Y-132301627D01*
X151099000Y-132169258D01*
X151099000Y-131830743D01*
X151101463Y-131805740D01*
X151112037Y-131698376D01*
X151112037Y-131698374D01*
X151163557Y-131528535D01*
X151163557Y-131528534D01*
X151247221Y-131372011D01*
X151359814Y-131234814D01*
X151461271Y-131151552D01*
X151497009Y-131122222D01*
X151543782Y-131097221D01*
X151653533Y-131038557D01*
X151711900Y-131020852D01*
X151823373Y-130987037D01*
X152000000Y-130969641D01*
X152176626Y-130987037D01*
X152176626Y-130987037D01*
G37*
G36*
X149676626Y-130987037D02*
X149788099Y-131020852D01*
X149846466Y-131038557D01*
X150002989Y-131122221D01*
X150140186Y-131234814D01*
X150223448Y-131336271D01*
X150252778Y-131372009D01*
X150252779Y-131372011D01*
X150336443Y-131528533D01*
X150344946Y-131556565D01*
X150387963Y-131698373D01*
X150394482Y-131764558D01*
X150401000Y-131830740D01*
X150401000Y-132169259D01*
X150394481Y-132235442D01*
X150387963Y-132301626D01*
X150336443Y-132471466D01*
X150252778Y-132627991D01*
X150232261Y-132652991D01*
X150140186Y-132765186D01*
X150051827Y-132837699D01*
X150002991Y-132877778D01*
X150002989Y-132877779D01*
X149846467Y-132961443D01*
X149811315Y-132972106D01*
X149676627Y-133012963D01*
X149500000Y-133030359D01*
X149323374Y-133012963D01*
X149188686Y-132972106D01*
X149153534Y-132961443D01*
X148997012Y-132877779D01*
X148997010Y-132877778D01*
X148890279Y-132790186D01*
X148859812Y-132765183D01*
X148747222Y-132627992D01*
X148663557Y-132471467D01*
X148619621Y-132326627D01*
X148612037Y-132301627D01*
X148599000Y-132169258D01*
X148599000Y-131830743D01*
X148601463Y-131805740D01*
X148612037Y-131698376D01*
X148612037Y-131698374D01*
X148663557Y-131528535D01*
X148663557Y-131528534D01*
X148747221Y-131372011D01*
X148859814Y-131234814D01*
X148961271Y-131151552D01*
X148997009Y-131122222D01*
X149043782Y-131097221D01*
X149153533Y-131038557D01*
X149211900Y-131020852D01*
X149323373Y-130987037D01*
X149500000Y-130969641D01*
X149676626Y-130987037D01*
X149676626Y-130987037D01*
G37*
G36*
X139176626Y-130987037D02*
X139288099Y-131020852D01*
X139346466Y-131038557D01*
X139502989Y-131122221D01*
X139640186Y-131234814D01*
X139723448Y-131336271D01*
X139752778Y-131372009D01*
X139752779Y-131372011D01*
X139836443Y-131528533D01*
X139844946Y-131556565D01*
X139887963Y-131698373D01*
X139894481Y-131764557D01*
X139901000Y-131830740D01*
X139901000Y-132169259D01*
X139894481Y-132235442D01*
X139887963Y-132301626D01*
X139836443Y-132471466D01*
X139752778Y-132627991D01*
X139732261Y-132652991D01*
X139640186Y-132765186D01*
X139551827Y-132837699D01*
X139502991Y-132877778D01*
X139502989Y-132877779D01*
X139346467Y-132961443D01*
X139311315Y-132972106D01*
X139176627Y-133012963D01*
X139000000Y-133030359D01*
X138823374Y-133012963D01*
X138688686Y-132972106D01*
X138653534Y-132961443D01*
X138497012Y-132877779D01*
X138497010Y-132877778D01*
X138390279Y-132790186D01*
X138359812Y-132765183D01*
X138247222Y-132627992D01*
X138163557Y-132471467D01*
X138119621Y-132326627D01*
X138112037Y-132301627D01*
X138099000Y-132169258D01*
X138099000Y-131830743D01*
X138101463Y-131805740D01*
X138112037Y-131698376D01*
X138112037Y-131698374D01*
X138163557Y-131528535D01*
X138163557Y-131528534D01*
X138247221Y-131372011D01*
X138359814Y-131234814D01*
X138461271Y-131151552D01*
X138497009Y-131122222D01*
X138543782Y-131097221D01*
X138653533Y-131038557D01*
X138711900Y-131020852D01*
X138823373Y-130987037D01*
X139000000Y-130969641D01*
X139176626Y-130987037D01*
X139176626Y-130987037D01*
G37*
G36*
X136676626Y-130987037D02*
X136788099Y-131020852D01*
X136846466Y-131038557D01*
X137002989Y-131122221D01*
X137140186Y-131234814D01*
X137223448Y-131336271D01*
X137252778Y-131372009D01*
X137252779Y-131372011D01*
X137336443Y-131528533D01*
X137344946Y-131556565D01*
X137387963Y-131698373D01*
X137394481Y-131764557D01*
X137401000Y-131830740D01*
X137401000Y-132169259D01*
X137394481Y-132235442D01*
X137387963Y-132301626D01*
X137336443Y-132471466D01*
X137252778Y-132627991D01*
X137232261Y-132652991D01*
X137140186Y-132765186D01*
X137051827Y-132837699D01*
X137002991Y-132877778D01*
X137002989Y-132877779D01*
X136846467Y-132961443D01*
X136811315Y-132972106D01*
X136676627Y-133012963D01*
X136500000Y-133030359D01*
X136323374Y-133012963D01*
X136188686Y-132972106D01*
X136153534Y-132961443D01*
X135997012Y-132877779D01*
X135997010Y-132877778D01*
X135890279Y-132790186D01*
X135859812Y-132765183D01*
X135747222Y-132627992D01*
X135663557Y-132471467D01*
X135619621Y-132326627D01*
X135612037Y-132301627D01*
X135599000Y-132169258D01*
X135599000Y-131830743D01*
X135601463Y-131805740D01*
X135612037Y-131698376D01*
X135612037Y-131698374D01*
X135663557Y-131528535D01*
X135663557Y-131528534D01*
X135747221Y-131372011D01*
X135859814Y-131234814D01*
X135961271Y-131151552D01*
X135997009Y-131122222D01*
X136043782Y-131097221D01*
X136153533Y-131038557D01*
X136211900Y-131020852D01*
X136323373Y-130987037D01*
X136500000Y-130969641D01*
X136676626Y-130987037D01*
X136676626Y-130987037D01*
G37*
G36*
X123676626Y-130987037D02*
X123788099Y-131020852D01*
X123846466Y-131038557D01*
X124002989Y-131122221D01*
X124140186Y-131234814D01*
X124223448Y-131336271D01*
X124252778Y-131372009D01*
X124252779Y-131372011D01*
X124336443Y-131528533D01*
X124344946Y-131556565D01*
X124387963Y-131698373D01*
X124394481Y-131764557D01*
X124401000Y-131830740D01*
X124401000Y-132169259D01*
X124394481Y-132235442D01*
X124387963Y-132301626D01*
X124336443Y-132471466D01*
X124252778Y-132627991D01*
X124232261Y-132652991D01*
X124140186Y-132765186D01*
X124051827Y-132837699D01*
X124002991Y-132877778D01*
X124002989Y-132877779D01*
X123846467Y-132961443D01*
X123811315Y-132972106D01*
X123676627Y-133012963D01*
X123500000Y-133030359D01*
X123323374Y-133012963D01*
X123188686Y-132972106D01*
X123153534Y-132961443D01*
X122997012Y-132877779D01*
X122997010Y-132877778D01*
X122890279Y-132790186D01*
X122859812Y-132765183D01*
X122747222Y-132627992D01*
X122663557Y-132471467D01*
X122619621Y-132326627D01*
X122612037Y-132301627D01*
X122599000Y-132169258D01*
X122599000Y-131830743D01*
X122601463Y-131805740D01*
X122612037Y-131698376D01*
X122612037Y-131698374D01*
X122663557Y-131528535D01*
X122663557Y-131528534D01*
X122747221Y-131372011D01*
X122859814Y-131234814D01*
X122961271Y-131151552D01*
X122997009Y-131122222D01*
X123043782Y-131097221D01*
X123153533Y-131038557D01*
X123211900Y-131020852D01*
X123323373Y-130987037D01*
X123500000Y-130969641D01*
X123676626Y-130987037D01*
X123676626Y-130987037D01*
G37*
G36*
X126176626Y-130987037D02*
X126288099Y-131020852D01*
X126346466Y-131038557D01*
X126502989Y-131122221D01*
X126640186Y-131234814D01*
X126723448Y-131336271D01*
X126752778Y-131372009D01*
X126752779Y-131372011D01*
X126836443Y-131528533D01*
X126844946Y-131556565D01*
X126887963Y-131698373D01*
X126894481Y-131764557D01*
X126901000Y-131830740D01*
X126901000Y-132169259D01*
X126894481Y-132235442D01*
X126887963Y-132301626D01*
X126836443Y-132471466D01*
X126752778Y-132627991D01*
X126732261Y-132652991D01*
X126640186Y-132765186D01*
X126551827Y-132837699D01*
X126502991Y-132877778D01*
X126502989Y-132877779D01*
X126346467Y-132961443D01*
X126311315Y-132972106D01*
X126176627Y-133012963D01*
X126000000Y-133030359D01*
X125823374Y-133012963D01*
X125688686Y-132972106D01*
X125653534Y-132961443D01*
X125497012Y-132877779D01*
X125497010Y-132877778D01*
X125390279Y-132790186D01*
X125359812Y-132765183D01*
X125247222Y-132627992D01*
X125163557Y-132471467D01*
X125119621Y-132326627D01*
X125112037Y-132301627D01*
X125099000Y-132169258D01*
X125099000Y-131830743D01*
X125101463Y-131805740D01*
X125112037Y-131698376D01*
X125112037Y-131698374D01*
X125163557Y-131528535D01*
X125163557Y-131528534D01*
X125247221Y-131372011D01*
X125359814Y-131234814D01*
X125461271Y-131151552D01*
X125497009Y-131122222D01*
X125543782Y-131097221D01*
X125653533Y-131038557D01*
X125711900Y-131020852D01*
X125823373Y-130987037D01*
X126000000Y-130969641D01*
X126176626Y-130987037D01*
X126176626Y-130987037D01*
G37*
G36*
X121758600Y-130977989D02*
X121791649Y-130988014D01*
X121822106Y-131004294D01*
X121848799Y-131026201D01*
X121870706Y-131052894D01*
X121886986Y-131083351D01*
X121897011Y-131116400D01*
X121901000Y-131156904D01*
X121901000Y-132843096D01*
X121897011Y-132883600D01*
X121886986Y-132916649D01*
X121870706Y-132947106D01*
X121848799Y-132973799D01*
X121822106Y-132995706D01*
X121791649Y-133011986D01*
X121758600Y-133022011D01*
X121718096Y-133026000D01*
X120281904Y-133026000D01*
X120241400Y-133022011D01*
X120208351Y-133011986D01*
X120177894Y-132995706D01*
X120151201Y-132973799D01*
X120129294Y-132947106D01*
X120113014Y-132916649D01*
X120102989Y-132883600D01*
X120099000Y-132843096D01*
X120099000Y-131156904D01*
X120102989Y-131116400D01*
X120113014Y-131083351D01*
X120129294Y-131052894D01*
X120151201Y-131026201D01*
X120177894Y-131004294D01*
X120208351Y-130988014D01*
X120241400Y-130977989D01*
X120281904Y-130974000D01*
X121718096Y-130974000D01*
X121758600Y-130977989D01*
X121758600Y-130977989D01*
G37*
G36*
X134758600Y-130977989D02*
X134791649Y-130988014D01*
X134822106Y-131004294D01*
X134848799Y-131026201D01*
X134870706Y-131052894D01*
X134886986Y-131083351D01*
X134897011Y-131116400D01*
X134901000Y-131156904D01*
X134901000Y-132843096D01*
X134897011Y-132883600D01*
X134886986Y-132916649D01*
X134870706Y-132947106D01*
X134848799Y-132973799D01*
X134822106Y-132995706D01*
X134791649Y-133011986D01*
X134758600Y-133022011D01*
X134718096Y-133026000D01*
X133281904Y-133026000D01*
X133241400Y-133022011D01*
X133208351Y-133011986D01*
X133177894Y-132995706D01*
X133151201Y-132973799D01*
X133129294Y-132947106D01*
X133113014Y-132916649D01*
X133102989Y-132883600D01*
X133099000Y-132843096D01*
X133099000Y-131156904D01*
X133102989Y-131116400D01*
X133113014Y-131083351D01*
X133129294Y-131052894D01*
X133151201Y-131026201D01*
X133177894Y-131004294D01*
X133208351Y-130988014D01*
X133241400Y-130977989D01*
X133281904Y-130974000D01*
X134718096Y-130974000D01*
X134758600Y-130977989D01*
X134758600Y-130977989D01*
G37*
G36*
X147758600Y-130977989D02*
X147791649Y-130988014D01*
X147822106Y-131004294D01*
X147848799Y-131026201D01*
X147870706Y-131052894D01*
X147886986Y-131083351D01*
X147897011Y-131116400D01*
X147901000Y-131156904D01*
X147901000Y-132843096D01*
X147897011Y-132883600D01*
X147886986Y-132916649D01*
X147870706Y-132947106D01*
X147848799Y-132973799D01*
X147822106Y-132995706D01*
X147791649Y-133011986D01*
X147758600Y-133022011D01*
X147718096Y-133026000D01*
X146281904Y-133026000D01*
X146241400Y-133022011D01*
X146208351Y-133011986D01*
X146177894Y-132995706D01*
X146151201Y-132973799D01*
X146129294Y-132947106D01*
X146113014Y-132916649D01*
X146102989Y-132883600D01*
X146099000Y-132843096D01*
X146099000Y-131156904D01*
X146102989Y-131116400D01*
X146113014Y-131083351D01*
X146129294Y-131052894D01*
X146151201Y-131026201D01*
X146177894Y-131004294D01*
X146208351Y-130988014D01*
X146241400Y-130977989D01*
X146281904Y-130974000D01*
X147718096Y-130974000D01*
X147758600Y-130977989D01*
X147758600Y-130977989D01*
G37*
G36*
X92326000Y-132931000D02*
X89674000Y-132931000D01*
X89674000Y-131769000D01*
X92326000Y-131769000D01*
X92326000Y-132931000D01*
X92326000Y-132931000D01*
G37*
G36*
X105051000Y-132451000D02*
X101449000Y-132451000D01*
X101449000Y-130549000D01*
X105051000Y-130549000D01*
X105051000Y-132451000D01*
X105051000Y-132451000D01*
G37*
G36*
X100051000Y-132451000D02*
X96449000Y-132451000D01*
X96449000Y-130549000D01*
X100051000Y-130549000D01*
X100051000Y-132451000D01*
X100051000Y-132451000D01*
G37*
G36*
X108056565Y-130239389D02*
X108247834Y-130318615D01*
X108419976Y-130433637D01*
X108566363Y-130580024D01*
X108681385Y-130752166D01*
X108760611Y-130943434D01*
X108801000Y-131146484D01*
X108801000Y-131353516D01*
X108760611Y-131556565D01*
X108681385Y-131747834D01*
X108566363Y-131919976D01*
X108419976Y-132066363D01*
X108247834Y-132181385D01*
X108056565Y-132260611D01*
X107853516Y-132301000D01*
X107646484Y-132301000D01*
X107443435Y-132260611D01*
X107252166Y-132181385D01*
X107080024Y-132066363D01*
X106933637Y-131919976D01*
X106818615Y-131747834D01*
X106739389Y-131556565D01*
X106699000Y-131353516D01*
X106699000Y-131146484D01*
X106739389Y-130943434D01*
X106818615Y-130752166D01*
X106933637Y-130580024D01*
X107080024Y-130433637D01*
X107252166Y-130318615D01*
X107443435Y-130239389D01*
X107646484Y-130199000D01*
X107853516Y-130199000D01*
X108056565Y-130239389D01*
X108056565Y-130239389D01*
G37*
G36*
X111851000Y-132151000D02*
X110849000Y-132151000D01*
X110849000Y-130849000D01*
X111851000Y-130849000D01*
X111851000Y-132151000D01*
X111851000Y-132151000D01*
G37*
G36*
X115151000Y-132151000D02*
X114149000Y-132151000D01*
X114149000Y-130849000D01*
X115151000Y-130849000D01*
X115151000Y-132151000D01*
X115151000Y-132151000D01*
G37*
G36*
X130306565Y-128989389D02*
X130497834Y-129068615D01*
X130669976Y-129183637D01*
X130816363Y-129330024D01*
X130931385Y-129502166D01*
X131010611Y-129693435D01*
X131051000Y-129896484D01*
X131051000Y-130103516D01*
X131010611Y-130306565D01*
X130931385Y-130497834D01*
X130816363Y-130669976D01*
X130669976Y-130816363D01*
X130497834Y-130931385D01*
X130306565Y-131010611D01*
X130103516Y-131051000D01*
X129896484Y-131051000D01*
X129693435Y-131010611D01*
X129502166Y-130931385D01*
X129330024Y-130816363D01*
X129183637Y-130669976D01*
X129068615Y-130497834D01*
X128989389Y-130306565D01*
X128949000Y-130103516D01*
X128949000Y-129896484D01*
X128989389Y-129693435D01*
X129068615Y-129502166D01*
X129183637Y-129330024D01*
X129330024Y-129183637D01*
X129502166Y-129068615D01*
X129693435Y-128989389D01*
X129896484Y-128949000D01*
X130103516Y-128949000D01*
X130306565Y-128989389D01*
X130306565Y-128989389D01*
G37*
G36*
X190275562Y-129503181D02*
X190310477Y-129513773D01*
X190342665Y-129530978D01*
X190370873Y-129554127D01*
X190394022Y-129582335D01*
X190411227Y-129614523D01*
X190421819Y-129649438D01*
X190426000Y-129691895D01*
X190426000Y-130833105D01*
X190421819Y-130875562D01*
X190411227Y-130910477D01*
X190394022Y-130942665D01*
X190370873Y-130970873D01*
X190342665Y-130994022D01*
X190310477Y-131011227D01*
X190275562Y-131021819D01*
X190233105Y-131026000D01*
X188766895Y-131026000D01*
X188724438Y-131021819D01*
X188689523Y-131011227D01*
X188657335Y-130994022D01*
X188629127Y-130970873D01*
X188605978Y-130942665D01*
X188588773Y-130910477D01*
X188578181Y-130875562D01*
X188574000Y-130833105D01*
X188574000Y-129691895D01*
X188578181Y-129649438D01*
X188588773Y-129614523D01*
X188605978Y-129582335D01*
X188629127Y-129554127D01*
X188657335Y-129530978D01*
X188689523Y-129513773D01*
X188724438Y-129503181D01*
X188766895Y-129499000D01*
X190233105Y-129499000D01*
X190275562Y-129503181D01*
X190275562Y-129503181D01*
G37*
G36*
X92326000Y-130731000D02*
X89674000Y-130731000D01*
X89674000Y-129569000D01*
X92326000Y-129569000D01*
X92326000Y-130731000D01*
X92326000Y-130731000D01*
G37*
G36*
X112125562Y-127078181D02*
X112160477Y-127088773D01*
X112192665Y-127105978D01*
X112220873Y-127129127D01*
X112244022Y-127157335D01*
X112261227Y-127189523D01*
X112271819Y-127224438D01*
X112276000Y-127266895D01*
X112276000Y-128733105D01*
X112271819Y-128775562D01*
X112261227Y-128810477D01*
X112244022Y-128842665D01*
X112220873Y-128870873D01*
X112192665Y-128894022D01*
X112160477Y-128911227D01*
X112125562Y-128921819D01*
X112083105Y-128926000D01*
X110941895Y-128926000D01*
X110899438Y-128921819D01*
X110864523Y-128911227D01*
X110832335Y-128894022D01*
X110804127Y-128870873D01*
X110780978Y-128842665D01*
X110763773Y-128810477D01*
X110753181Y-128775562D01*
X110749000Y-128733105D01*
X110749000Y-127266895D01*
X110753181Y-127224438D01*
X110763773Y-127189523D01*
X110780978Y-127157335D01*
X110804127Y-127129127D01*
X110832335Y-127105978D01*
X110864523Y-127088773D01*
X110899438Y-127078181D01*
X110941895Y-127074000D01*
X112083105Y-127074000D01*
X112125562Y-127078181D01*
X112125562Y-127078181D01*
G37*
G36*
X115100562Y-127078181D02*
X115135477Y-127088773D01*
X115167665Y-127105978D01*
X115195873Y-127129127D01*
X115219022Y-127157335D01*
X115236227Y-127189523D01*
X115246819Y-127224438D01*
X115251000Y-127266895D01*
X115251000Y-128733105D01*
X115246819Y-128775562D01*
X115236227Y-128810477D01*
X115219022Y-128842665D01*
X115195873Y-128870873D01*
X115167665Y-128894022D01*
X115135477Y-128911227D01*
X115100562Y-128921819D01*
X115058105Y-128926000D01*
X113916895Y-128926000D01*
X113874438Y-128921819D01*
X113839523Y-128911227D01*
X113807335Y-128894022D01*
X113779127Y-128870873D01*
X113755978Y-128842665D01*
X113738773Y-128810477D01*
X113728181Y-128775562D01*
X113724000Y-128733105D01*
X113724000Y-127266895D01*
X113728181Y-127224438D01*
X113738773Y-127189523D01*
X113755978Y-127157335D01*
X113779127Y-127129127D01*
X113807335Y-127105978D01*
X113839523Y-127088773D01*
X113874438Y-127078181D01*
X113916895Y-127074000D01*
X115058105Y-127074000D01*
X115100562Y-127078181D01*
X115100562Y-127078181D01*
G37*
G36*
X136615871Y-127157335D02*
X136719059Y-127177860D01*
X136855732Y-127234472D01*
X136855733Y-127234473D01*
X136978738Y-127316662D01*
X137083338Y-127421262D01*
X137083340Y-127421265D01*
X137165528Y-127544268D01*
X137222140Y-127680941D01*
X137251000Y-127826033D01*
X137251000Y-127973967D01*
X137222140Y-128119059D01*
X137165528Y-128255732D01*
X137165527Y-128255733D01*
X137083338Y-128378738D01*
X136978738Y-128483338D01*
X136978735Y-128483340D01*
X136855732Y-128565528D01*
X136719059Y-128622140D01*
X136632004Y-128639456D01*
X136573969Y-128651000D01*
X136426031Y-128651000D01*
X136367996Y-128639456D01*
X136280941Y-128622140D01*
X136144268Y-128565528D01*
X136021265Y-128483340D01*
X136021262Y-128483338D01*
X135916662Y-128378738D01*
X135834473Y-128255733D01*
X135834472Y-128255732D01*
X135777860Y-128119059D01*
X135749000Y-127973967D01*
X135749000Y-127826033D01*
X135777860Y-127680941D01*
X135834472Y-127544268D01*
X135916660Y-127421265D01*
X135916662Y-127421262D01*
X136021262Y-127316662D01*
X136144267Y-127234473D01*
X136144268Y-127234472D01*
X136280941Y-127177860D01*
X136384129Y-127157335D01*
X136426031Y-127149000D01*
X136573969Y-127149000D01*
X136615871Y-127157335D01*
X136615871Y-127157335D01*
G37*
G36*
X105351000Y-126851000D02*
X103649000Y-126851000D01*
X103649000Y-125149000D01*
X105351000Y-125149000D01*
X105351000Y-126851000D01*
X105351000Y-126851000D01*
G37*
G36*
X91088677Y-125153465D02*
X91126364Y-125164898D01*
X91161103Y-125183466D01*
X91191548Y-125208452D01*
X91216534Y-125238897D01*
X91235102Y-125273636D01*
X91246535Y-125311323D01*
X91251000Y-125356661D01*
X91251000Y-126193339D01*
X91246535Y-126238677D01*
X91235102Y-126276364D01*
X91216534Y-126311103D01*
X91191548Y-126341548D01*
X91161103Y-126366534D01*
X91126364Y-126385102D01*
X91088677Y-126396535D01*
X91043339Y-126401000D01*
X89956661Y-126401000D01*
X89911323Y-126396535D01*
X89873636Y-126385102D01*
X89838897Y-126366534D01*
X89808452Y-126341548D01*
X89783466Y-126311103D01*
X89764898Y-126276364D01*
X89753465Y-126238677D01*
X89749000Y-126193339D01*
X89749000Y-125356661D01*
X89753465Y-125311323D01*
X89764898Y-125273636D01*
X89783466Y-125238897D01*
X89808452Y-125208452D01*
X89838897Y-125183466D01*
X89873636Y-125164898D01*
X89911323Y-125153465D01*
X89956661Y-125149000D01*
X91043339Y-125149000D01*
X91088677Y-125153465D01*
X91088677Y-125153465D01*
G37*
G36*
X96088677Y-125153465D02*
X96126364Y-125164898D01*
X96161103Y-125183466D01*
X96191548Y-125208452D01*
X96216534Y-125238897D01*
X96235102Y-125273636D01*
X96246535Y-125311323D01*
X96251000Y-125356661D01*
X96251000Y-126193339D01*
X96246535Y-126238677D01*
X96235102Y-126276364D01*
X96216534Y-126311103D01*
X96191548Y-126341548D01*
X96161103Y-126366534D01*
X96126364Y-126385102D01*
X96088677Y-126396535D01*
X96043339Y-126401000D01*
X94956661Y-126401000D01*
X94911323Y-126396535D01*
X94873636Y-126385102D01*
X94838897Y-126366534D01*
X94808452Y-126341548D01*
X94783466Y-126311103D01*
X94764898Y-126276364D01*
X94753465Y-126238677D01*
X94749000Y-126193339D01*
X94749000Y-125356661D01*
X94753465Y-125311323D01*
X94764898Y-125273636D01*
X94783466Y-125238897D01*
X94808452Y-125208452D01*
X94838897Y-125183466D01*
X94873636Y-125164898D01*
X94911323Y-125153465D01*
X94956661Y-125149000D01*
X96043339Y-125149000D01*
X96088677Y-125153465D01*
X96088677Y-125153465D01*
G37*
G36*
X87838677Y-125153465D02*
X87876364Y-125164898D01*
X87911103Y-125183466D01*
X87941548Y-125208452D01*
X87966534Y-125238897D01*
X87985102Y-125273636D01*
X87996535Y-125311323D01*
X88001000Y-125356661D01*
X88001000Y-126193339D01*
X87996535Y-126238677D01*
X87985102Y-126276364D01*
X87966534Y-126311103D01*
X87941548Y-126341548D01*
X87911103Y-126366534D01*
X87876364Y-126385102D01*
X87838677Y-126396535D01*
X87793339Y-126401000D01*
X86706661Y-126401000D01*
X86661323Y-126396535D01*
X86623636Y-126385102D01*
X86588897Y-126366534D01*
X86558452Y-126341548D01*
X86533466Y-126311103D01*
X86514898Y-126276364D01*
X86503465Y-126238677D01*
X86499000Y-126193339D01*
X86499000Y-125356661D01*
X86503465Y-125311323D01*
X86514898Y-125273636D01*
X86533466Y-125238897D01*
X86558452Y-125208452D01*
X86588897Y-125183466D01*
X86623636Y-125164898D01*
X86661323Y-125153465D01*
X86706661Y-125149000D01*
X87793339Y-125149000D01*
X87838677Y-125153465D01*
X87838677Y-125153465D01*
G37*
G36*
X93588677Y-125153465D02*
X93626364Y-125164898D01*
X93661103Y-125183466D01*
X93691548Y-125208452D01*
X93716534Y-125238897D01*
X93735102Y-125273636D01*
X93746535Y-125311323D01*
X93751000Y-125356661D01*
X93751000Y-126193339D01*
X93746535Y-126238677D01*
X93735102Y-126276364D01*
X93716534Y-126311103D01*
X93691548Y-126341548D01*
X93661103Y-126366534D01*
X93626364Y-126385102D01*
X93588677Y-126396535D01*
X93543339Y-126401000D01*
X92456661Y-126401000D01*
X92411323Y-126396535D01*
X92373636Y-126385102D01*
X92338897Y-126366534D01*
X92308452Y-126341548D01*
X92283466Y-126311103D01*
X92264898Y-126276364D01*
X92253465Y-126238677D01*
X92249000Y-126193339D01*
X92249000Y-125356661D01*
X92253465Y-125311323D01*
X92264898Y-125273636D01*
X92283466Y-125238897D01*
X92308452Y-125208452D01*
X92338897Y-125183466D01*
X92373636Y-125164898D01*
X92411323Y-125153465D01*
X92456661Y-125149000D01*
X93543339Y-125149000D01*
X93588677Y-125153465D01*
X93588677Y-125153465D01*
G37*
G36*
X122651000Y-125651000D02*
X121349000Y-125651000D01*
X121349000Y-124649000D01*
X122651000Y-124649000D01*
X122651000Y-125651000D01*
X122651000Y-125651000D01*
G37*
G36*
X132588677Y-123928465D02*
X132626364Y-123939898D01*
X132661103Y-123958466D01*
X132691548Y-123983452D01*
X132716534Y-124013897D01*
X132735102Y-124048636D01*
X132746535Y-124086323D01*
X132751000Y-124131661D01*
X132751000Y-124968339D01*
X132746535Y-125013677D01*
X132735102Y-125051364D01*
X132716534Y-125086103D01*
X132691548Y-125116548D01*
X132661103Y-125141534D01*
X132626364Y-125160102D01*
X132588677Y-125171535D01*
X132543339Y-125176000D01*
X131456661Y-125176000D01*
X131411323Y-125171535D01*
X131373636Y-125160102D01*
X131338897Y-125141534D01*
X131308452Y-125116548D01*
X131283466Y-125086103D01*
X131264898Y-125051364D01*
X131253465Y-125013677D01*
X131249000Y-124968339D01*
X131249000Y-124131661D01*
X131253465Y-124086323D01*
X131264898Y-124048636D01*
X131283466Y-124013897D01*
X131308452Y-123983452D01*
X131338897Y-123958466D01*
X131373636Y-123939898D01*
X131411323Y-123928465D01*
X131456661Y-123924000D01*
X132543339Y-123924000D01*
X132588677Y-123928465D01*
X132588677Y-123928465D01*
G37*
G36*
X142588677Y-123928465D02*
X142626364Y-123939898D01*
X142661103Y-123958466D01*
X142691548Y-123983452D01*
X142716534Y-124013897D01*
X142735102Y-124048636D01*
X142746535Y-124086323D01*
X142751000Y-124131661D01*
X142751000Y-124968339D01*
X142746535Y-125013677D01*
X142735102Y-125051364D01*
X142716534Y-125086103D01*
X142691548Y-125116548D01*
X142661103Y-125141534D01*
X142626364Y-125160102D01*
X142588677Y-125171535D01*
X142543339Y-125176000D01*
X141456661Y-125176000D01*
X141411323Y-125171535D01*
X141373636Y-125160102D01*
X141338897Y-125141534D01*
X141308452Y-125116548D01*
X141283466Y-125086103D01*
X141264898Y-125051364D01*
X141253465Y-125013677D01*
X141249000Y-124968339D01*
X141249000Y-124131661D01*
X141253465Y-124086323D01*
X141264898Y-124048636D01*
X141283466Y-124013897D01*
X141308452Y-123983452D01*
X141338897Y-123958466D01*
X141373636Y-123939898D01*
X141411323Y-123928465D01*
X141456661Y-123924000D01*
X142543339Y-123924000D01*
X142588677Y-123928465D01*
X142588677Y-123928465D01*
G37*
G36*
X137588677Y-123928465D02*
X137626364Y-123939898D01*
X137661103Y-123958466D01*
X137691548Y-123983452D01*
X137716534Y-124013897D01*
X137735102Y-124048636D01*
X137746535Y-124086323D01*
X137751000Y-124131661D01*
X137751000Y-124968339D01*
X137746535Y-125013677D01*
X137735102Y-125051364D01*
X137716534Y-125086103D01*
X137691548Y-125116548D01*
X137661103Y-125141534D01*
X137626364Y-125160102D01*
X137588677Y-125171535D01*
X137543339Y-125176000D01*
X136456661Y-125176000D01*
X136411323Y-125171535D01*
X136373636Y-125160102D01*
X136338897Y-125141534D01*
X136308452Y-125116548D01*
X136283466Y-125086103D01*
X136264898Y-125051364D01*
X136253465Y-125013677D01*
X136249000Y-124968339D01*
X136249000Y-124131661D01*
X136253465Y-124086323D01*
X136264898Y-124048636D01*
X136283466Y-124013897D01*
X136308452Y-123983452D01*
X136338897Y-123958466D01*
X136373636Y-123939898D01*
X136411323Y-123928465D01*
X136456661Y-123924000D01*
X137543339Y-123924000D01*
X137588677Y-123928465D01*
X137588677Y-123928465D01*
G37*
G36*
X152338677Y-123903465D02*
X152376364Y-123914898D01*
X152411103Y-123933466D01*
X152441548Y-123958452D01*
X152466534Y-123988897D01*
X152485102Y-124023636D01*
X152496535Y-124061323D01*
X152501000Y-124106661D01*
X152501000Y-124943339D01*
X152496535Y-124988677D01*
X152485102Y-125026364D01*
X152466534Y-125061103D01*
X152441548Y-125091548D01*
X152411103Y-125116534D01*
X152376364Y-125135102D01*
X152338677Y-125146535D01*
X152293339Y-125151000D01*
X151206661Y-125151000D01*
X151161323Y-125146535D01*
X151123636Y-125135102D01*
X151088897Y-125116534D01*
X151058452Y-125091548D01*
X151033466Y-125061103D01*
X151014898Y-125026364D01*
X151003465Y-124988677D01*
X150999000Y-124943339D01*
X150999000Y-124106661D01*
X151003465Y-124061323D01*
X151014898Y-124023636D01*
X151033466Y-123988897D01*
X151058452Y-123958452D01*
X151088897Y-123933466D01*
X151123636Y-123914898D01*
X151161323Y-123903465D01*
X151206661Y-123899000D01*
X152293339Y-123899000D01*
X152338677Y-123903465D01*
X152338677Y-123903465D01*
G37*
G36*
X130088677Y-123903465D02*
X130126364Y-123914898D01*
X130161103Y-123933466D01*
X130191548Y-123958452D01*
X130216534Y-123988897D01*
X130235102Y-124023636D01*
X130246535Y-124061323D01*
X130251000Y-124106661D01*
X130251000Y-124943339D01*
X130246535Y-124988677D01*
X130235102Y-125026364D01*
X130216534Y-125061103D01*
X130191548Y-125091548D01*
X130161103Y-125116534D01*
X130126364Y-125135102D01*
X130088677Y-125146535D01*
X130043339Y-125151000D01*
X128956661Y-125151000D01*
X128911323Y-125146535D01*
X128873636Y-125135102D01*
X128838897Y-125116534D01*
X128808452Y-125091548D01*
X128783466Y-125061103D01*
X128764898Y-125026364D01*
X128753465Y-124988677D01*
X128749000Y-124943339D01*
X128749000Y-124106661D01*
X128753465Y-124061323D01*
X128764898Y-124023636D01*
X128783466Y-123988897D01*
X128808452Y-123958452D01*
X128838897Y-123933466D01*
X128873636Y-123914898D01*
X128911323Y-123903465D01*
X128956661Y-123899000D01*
X130043339Y-123899000D01*
X130088677Y-123903465D01*
X130088677Y-123903465D01*
G37*
G36*
X125088677Y-123903465D02*
X125126364Y-123914898D01*
X125161103Y-123933466D01*
X125191548Y-123958452D01*
X125216534Y-123988897D01*
X125235102Y-124023636D01*
X125246535Y-124061323D01*
X125251000Y-124106661D01*
X125251000Y-124943339D01*
X125246535Y-124988677D01*
X125235102Y-125026364D01*
X125216534Y-125061103D01*
X125191548Y-125091548D01*
X125161103Y-125116534D01*
X125126364Y-125135102D01*
X125088677Y-125146535D01*
X125043339Y-125151000D01*
X123956661Y-125151000D01*
X123911323Y-125146535D01*
X123873636Y-125135102D01*
X123838897Y-125116534D01*
X123808452Y-125091548D01*
X123783466Y-125061103D01*
X123764898Y-125026364D01*
X123753465Y-124988677D01*
X123749000Y-124943339D01*
X123749000Y-124106661D01*
X123753465Y-124061323D01*
X123764898Y-124023636D01*
X123783466Y-123988897D01*
X123808452Y-123958452D01*
X123838897Y-123933466D01*
X123873636Y-123914898D01*
X123911323Y-123903465D01*
X123956661Y-123899000D01*
X125043339Y-123899000D01*
X125088677Y-123903465D01*
X125088677Y-123903465D01*
G37*
G36*
X127588677Y-123903465D02*
X127626364Y-123914898D01*
X127661103Y-123933466D01*
X127691548Y-123958452D01*
X127716534Y-123988897D01*
X127735102Y-124023636D01*
X127746535Y-124061323D01*
X127751000Y-124106661D01*
X127751000Y-124943339D01*
X127746535Y-124988677D01*
X127735102Y-125026364D01*
X127716534Y-125061103D01*
X127691548Y-125091548D01*
X127661103Y-125116534D01*
X127626364Y-125135102D01*
X127588677Y-125146535D01*
X127543339Y-125151000D01*
X126456661Y-125151000D01*
X126411323Y-125146535D01*
X126373636Y-125135102D01*
X126338897Y-125116534D01*
X126308452Y-125091548D01*
X126283466Y-125061103D01*
X126264898Y-125026364D01*
X126253465Y-124988677D01*
X126249000Y-124943339D01*
X126249000Y-124106661D01*
X126253465Y-124061323D01*
X126264898Y-124023636D01*
X126283466Y-123988897D01*
X126308452Y-123958452D01*
X126338897Y-123933466D01*
X126373636Y-123914898D01*
X126411323Y-123903465D01*
X126456661Y-123899000D01*
X127543339Y-123899000D01*
X127588677Y-123903465D01*
X127588677Y-123903465D01*
G37*
G36*
X140088677Y-123903465D02*
X140126364Y-123914898D01*
X140161103Y-123933466D01*
X140191548Y-123958452D01*
X140216534Y-123988897D01*
X140235102Y-124023636D01*
X140246535Y-124061323D01*
X140251000Y-124106661D01*
X140251000Y-124943339D01*
X140246535Y-124988677D01*
X140235102Y-125026364D01*
X140216534Y-125061103D01*
X140191548Y-125091548D01*
X140161103Y-125116534D01*
X140126364Y-125135102D01*
X140088677Y-125146535D01*
X140043339Y-125151000D01*
X138956661Y-125151000D01*
X138911323Y-125146535D01*
X138873636Y-125135102D01*
X138838897Y-125116534D01*
X138808452Y-125091548D01*
X138783466Y-125061103D01*
X138764898Y-125026364D01*
X138753465Y-124988677D01*
X138749000Y-124943339D01*
X138749000Y-124106661D01*
X138753465Y-124061323D01*
X138764898Y-124023636D01*
X138783466Y-123988897D01*
X138808452Y-123958452D01*
X138838897Y-123933466D01*
X138873636Y-123914898D01*
X138911323Y-123903465D01*
X138956661Y-123899000D01*
X140043339Y-123899000D01*
X140088677Y-123903465D01*
X140088677Y-123903465D01*
G37*
G36*
X145088677Y-123903465D02*
X145126364Y-123914898D01*
X145161103Y-123933466D01*
X145191548Y-123958452D01*
X145216534Y-123988897D01*
X145235102Y-124023636D01*
X145246535Y-124061323D01*
X145251000Y-124106661D01*
X145251000Y-124943339D01*
X145246535Y-124988677D01*
X145235102Y-125026364D01*
X145216534Y-125061103D01*
X145191548Y-125091548D01*
X145161103Y-125116534D01*
X145126364Y-125135102D01*
X145088677Y-125146535D01*
X145043339Y-125151000D01*
X143956661Y-125151000D01*
X143911323Y-125146535D01*
X143873636Y-125135102D01*
X143838897Y-125116534D01*
X143808452Y-125091548D01*
X143783466Y-125061103D01*
X143764898Y-125026364D01*
X143753465Y-124988677D01*
X143749000Y-124943339D01*
X143749000Y-124106661D01*
X143753465Y-124061323D01*
X143764898Y-124023636D01*
X143783466Y-123988897D01*
X143808452Y-123958452D01*
X143838897Y-123933466D01*
X143873636Y-123914898D01*
X143911323Y-123903465D01*
X143956661Y-123899000D01*
X145043339Y-123899000D01*
X145088677Y-123903465D01*
X145088677Y-123903465D01*
G37*
G36*
X135088677Y-123878465D02*
X135126364Y-123889898D01*
X135161103Y-123908466D01*
X135191548Y-123933452D01*
X135216534Y-123963897D01*
X135235102Y-123998636D01*
X135246535Y-124036323D01*
X135251000Y-124081661D01*
X135251000Y-124918339D01*
X135246535Y-124963677D01*
X135235102Y-125001364D01*
X135216534Y-125036103D01*
X135191548Y-125066548D01*
X135161103Y-125091534D01*
X135126364Y-125110102D01*
X135088677Y-125121535D01*
X135043339Y-125126000D01*
X133956661Y-125126000D01*
X133911323Y-125121535D01*
X133873636Y-125110102D01*
X133838897Y-125091534D01*
X133808452Y-125066548D01*
X133783466Y-125036103D01*
X133764898Y-125001364D01*
X133753465Y-124963677D01*
X133749000Y-124918339D01*
X133749000Y-124081661D01*
X133753465Y-124036323D01*
X133764898Y-123998636D01*
X133783466Y-123963897D01*
X133808452Y-123933452D01*
X133838897Y-123908466D01*
X133873636Y-123889898D01*
X133911323Y-123878465D01*
X133956661Y-123874000D01*
X135043339Y-123874000D01*
X135088677Y-123878465D01*
X135088677Y-123878465D01*
G37*
G36*
X93588677Y-123103465D02*
X93626364Y-123114898D01*
X93661103Y-123133466D01*
X93691548Y-123158452D01*
X93716534Y-123188897D01*
X93735102Y-123223636D01*
X93746535Y-123261323D01*
X93751000Y-123306661D01*
X93751000Y-124143339D01*
X93746535Y-124188677D01*
X93735102Y-124226364D01*
X93716534Y-124261103D01*
X93691548Y-124291548D01*
X93661103Y-124316534D01*
X93626364Y-124335102D01*
X93588677Y-124346535D01*
X93543339Y-124351000D01*
X92456661Y-124351000D01*
X92411323Y-124346535D01*
X92373636Y-124335102D01*
X92338897Y-124316534D01*
X92308452Y-124291548D01*
X92283466Y-124261103D01*
X92264898Y-124226364D01*
X92253465Y-124188677D01*
X92249000Y-124143339D01*
X92249000Y-123306661D01*
X92253465Y-123261323D01*
X92264898Y-123223636D01*
X92283466Y-123188897D01*
X92308452Y-123158452D01*
X92338897Y-123133466D01*
X92373636Y-123114898D01*
X92411323Y-123103465D01*
X92456661Y-123099000D01*
X93543339Y-123099000D01*
X93588677Y-123103465D01*
X93588677Y-123103465D01*
G37*
G36*
X96088677Y-123103465D02*
X96126364Y-123114898D01*
X96161103Y-123133466D01*
X96191548Y-123158452D01*
X96216534Y-123188897D01*
X96235102Y-123223636D01*
X96246535Y-123261323D01*
X96251000Y-123306661D01*
X96251000Y-124143339D01*
X96246535Y-124188677D01*
X96235102Y-124226364D01*
X96216534Y-124261103D01*
X96191548Y-124291548D01*
X96161103Y-124316534D01*
X96126364Y-124335102D01*
X96088677Y-124346535D01*
X96043339Y-124351000D01*
X94956661Y-124351000D01*
X94911323Y-124346535D01*
X94873636Y-124335102D01*
X94838897Y-124316534D01*
X94808452Y-124291548D01*
X94783466Y-124261103D01*
X94764898Y-124226364D01*
X94753465Y-124188677D01*
X94749000Y-124143339D01*
X94749000Y-123306661D01*
X94753465Y-123261323D01*
X94764898Y-123223636D01*
X94783466Y-123188897D01*
X94808452Y-123158452D01*
X94838897Y-123133466D01*
X94873636Y-123114898D01*
X94911323Y-123103465D01*
X94956661Y-123099000D01*
X96043339Y-123099000D01*
X96088677Y-123103465D01*
X96088677Y-123103465D01*
G37*
G36*
X91088677Y-123103465D02*
X91126364Y-123114898D01*
X91161103Y-123133466D01*
X91191548Y-123158452D01*
X91216534Y-123188897D01*
X91235102Y-123223636D01*
X91246535Y-123261323D01*
X91251000Y-123306661D01*
X91251000Y-124143339D01*
X91246535Y-124188677D01*
X91235102Y-124226364D01*
X91216534Y-124261103D01*
X91191548Y-124291548D01*
X91161103Y-124316534D01*
X91126364Y-124335102D01*
X91088677Y-124346535D01*
X91043339Y-124351000D01*
X89956661Y-124351000D01*
X89911323Y-124346535D01*
X89873636Y-124335102D01*
X89838897Y-124316534D01*
X89808452Y-124291548D01*
X89783466Y-124261103D01*
X89764898Y-124226364D01*
X89753465Y-124188677D01*
X89749000Y-124143339D01*
X89749000Y-123306661D01*
X89753465Y-123261323D01*
X89764898Y-123223636D01*
X89783466Y-123188897D01*
X89808452Y-123158452D01*
X89838897Y-123133466D01*
X89873636Y-123114898D01*
X89911323Y-123103465D01*
X89956661Y-123099000D01*
X91043339Y-123099000D01*
X91088677Y-123103465D01*
X91088677Y-123103465D01*
G37*
G36*
X87838677Y-123103465D02*
X87876364Y-123114898D01*
X87911103Y-123133466D01*
X87941548Y-123158452D01*
X87966534Y-123188897D01*
X87985102Y-123223636D01*
X87996535Y-123261323D01*
X88001000Y-123306661D01*
X88001000Y-124143339D01*
X87996535Y-124188677D01*
X87985102Y-124226364D01*
X87966534Y-124261103D01*
X87941548Y-124291548D01*
X87911103Y-124316534D01*
X87876364Y-124335102D01*
X87838677Y-124346535D01*
X87793339Y-124351000D01*
X86706661Y-124351000D01*
X86661323Y-124346535D01*
X86623636Y-124335102D01*
X86588897Y-124316534D01*
X86558452Y-124291548D01*
X86533466Y-124261103D01*
X86514898Y-124226364D01*
X86503465Y-124188677D01*
X86499000Y-124143339D01*
X86499000Y-123306661D01*
X86503465Y-123261323D01*
X86514898Y-123223636D01*
X86533466Y-123188897D01*
X86558452Y-123158452D01*
X86588897Y-123133466D01*
X86623636Y-123114898D01*
X86661323Y-123103465D01*
X86706661Y-123099000D01*
X87793339Y-123099000D01*
X87838677Y-123103465D01*
X87838677Y-123103465D01*
G37*
G36*
X115556565Y-122239389D02*
X115747834Y-122318615D01*
X115919976Y-122433637D01*
X116066363Y-122580024D01*
X116181385Y-122752166D01*
X116260611Y-122943435D01*
X116301000Y-123146484D01*
X116301000Y-123353516D01*
X116260611Y-123556565D01*
X116181385Y-123747834D01*
X116066363Y-123919976D01*
X115919976Y-124066363D01*
X115747834Y-124181385D01*
X115556565Y-124260611D01*
X115353516Y-124301000D01*
X115146484Y-124301000D01*
X114943435Y-124260611D01*
X114752166Y-124181385D01*
X114580024Y-124066363D01*
X114433637Y-123919976D01*
X114318615Y-123747834D01*
X114239389Y-123556565D01*
X114199000Y-123353516D01*
X114199000Y-123146484D01*
X114239389Y-122943435D01*
X114318615Y-122752166D01*
X114433637Y-122580024D01*
X114580024Y-122433637D01*
X114752166Y-122318615D01*
X114943435Y-122239389D01*
X115146484Y-122199000D01*
X115353516Y-122199000D01*
X115556565Y-122239389D01*
X115556565Y-122239389D01*
G37*
G36*
X168838677Y-122903465D02*
X168876364Y-122914898D01*
X168911103Y-122933466D01*
X168941548Y-122958452D01*
X168966534Y-122988897D01*
X168985102Y-123023636D01*
X168996535Y-123061323D01*
X169001000Y-123106661D01*
X169001000Y-123943339D01*
X168996535Y-123988677D01*
X168985102Y-124026364D01*
X168966534Y-124061103D01*
X168941548Y-124091548D01*
X168911103Y-124116534D01*
X168876364Y-124135102D01*
X168838677Y-124146535D01*
X168793339Y-124151000D01*
X167706661Y-124151000D01*
X167661323Y-124146535D01*
X167623636Y-124135102D01*
X167588897Y-124116534D01*
X167558452Y-124091548D01*
X167533466Y-124061103D01*
X167514898Y-124026364D01*
X167503465Y-123988677D01*
X167499000Y-123943339D01*
X167499000Y-123106661D01*
X167503465Y-123061323D01*
X167514898Y-123023636D01*
X167533466Y-122988897D01*
X167558452Y-122958452D01*
X167588897Y-122933466D01*
X167623636Y-122914898D01*
X167661323Y-122903465D01*
X167706661Y-122899000D01*
X168793339Y-122899000D01*
X168838677Y-122903465D01*
X168838677Y-122903465D01*
G37*
G36*
X166588677Y-122903465D02*
X166626364Y-122914898D01*
X166661103Y-122933466D01*
X166691548Y-122958452D01*
X166716534Y-122988897D01*
X166735102Y-123023636D01*
X166746535Y-123061323D01*
X166751000Y-123106661D01*
X166751000Y-123943339D01*
X166746535Y-123988677D01*
X166735102Y-124026364D01*
X166716534Y-124061103D01*
X166691548Y-124091548D01*
X166661103Y-124116534D01*
X166626364Y-124135102D01*
X166588677Y-124146535D01*
X166543339Y-124151000D01*
X165456661Y-124151000D01*
X165411323Y-124146535D01*
X165373636Y-124135102D01*
X165338897Y-124116534D01*
X165308452Y-124091548D01*
X165283466Y-124061103D01*
X165264898Y-124026364D01*
X165253465Y-123988677D01*
X165249000Y-123943339D01*
X165249000Y-123106661D01*
X165253465Y-123061323D01*
X165264898Y-123023636D01*
X165283466Y-122988897D01*
X165308452Y-122958452D01*
X165338897Y-122933466D01*
X165373636Y-122914898D01*
X165411323Y-122903465D01*
X165456661Y-122899000D01*
X166543339Y-122899000D01*
X166588677Y-122903465D01*
X166588677Y-122903465D01*
G37*
G36*
X104748228Y-121681703D02*
X104903100Y-121745853D01*
X105042481Y-121838985D01*
X105161015Y-121957519D01*
X105254147Y-122096900D01*
X105318297Y-122251772D01*
X105351000Y-122416184D01*
X105351000Y-122583816D01*
X105318297Y-122748228D01*
X105254147Y-122903100D01*
X105161015Y-123042481D01*
X105042481Y-123161015D01*
X104903100Y-123254147D01*
X104748228Y-123318297D01*
X104583816Y-123351000D01*
X104416184Y-123351000D01*
X104251772Y-123318297D01*
X104096900Y-123254147D01*
X103957519Y-123161015D01*
X103838985Y-123042481D01*
X103745853Y-122903100D01*
X103681703Y-122748228D01*
X103649000Y-122583816D01*
X103649000Y-122416184D01*
X103681703Y-122251772D01*
X103745853Y-122096900D01*
X103838985Y-121957519D01*
X103957519Y-121838985D01*
X104096900Y-121745853D01*
X104251772Y-121681703D01*
X104416184Y-121649000D01*
X104583816Y-121649000D01*
X104748228Y-121681703D01*
X104748228Y-121681703D01*
G37*
G36*
X162556565Y-121239389D02*
X162747834Y-121318615D01*
X162919976Y-121433637D01*
X163066363Y-121580024D01*
X163181385Y-121752166D01*
X163260611Y-121943435D01*
X163301000Y-122146484D01*
X163301000Y-122353516D01*
X163260611Y-122556565D01*
X163181385Y-122747834D01*
X163066363Y-122919976D01*
X162919976Y-123066363D01*
X162747834Y-123181385D01*
X162556565Y-123260611D01*
X162353516Y-123301000D01*
X162146484Y-123301000D01*
X161943435Y-123260611D01*
X161752166Y-123181385D01*
X161580024Y-123066363D01*
X161433637Y-122919976D01*
X161318615Y-122747834D01*
X161239389Y-122556565D01*
X161199000Y-122353516D01*
X161199000Y-122146484D01*
X161239389Y-121943435D01*
X161318615Y-121752166D01*
X161433637Y-121580024D01*
X161580024Y-121433637D01*
X161752166Y-121318615D01*
X161943435Y-121239389D01*
X162146484Y-121199000D01*
X162353516Y-121199000D01*
X162556565Y-121239389D01*
X162556565Y-121239389D01*
G37*
G36*
X172056565Y-121239389D02*
X172247834Y-121318615D01*
X172419976Y-121433637D01*
X172566363Y-121580024D01*
X172681385Y-121752166D01*
X172760611Y-121943435D01*
X172801000Y-122146484D01*
X172801000Y-122353516D01*
X172760611Y-122556565D01*
X172681385Y-122747834D01*
X172566363Y-122919976D01*
X172419976Y-123066363D01*
X172247834Y-123181385D01*
X172056565Y-123260611D01*
X171853516Y-123301000D01*
X171646484Y-123301000D01*
X171443435Y-123260611D01*
X171252166Y-123181385D01*
X171080024Y-123066363D01*
X170933637Y-122919976D01*
X170818615Y-122747834D01*
X170739389Y-122556565D01*
X170699000Y-122353516D01*
X170699000Y-122146484D01*
X170739389Y-121943435D01*
X170818615Y-121752166D01*
X170933637Y-121580024D01*
X171080024Y-121433637D01*
X171252166Y-121318615D01*
X171443435Y-121239389D01*
X171646484Y-121199000D01*
X171853516Y-121199000D01*
X172056565Y-121239389D01*
X172056565Y-121239389D01*
G37*
G36*
X142588677Y-121878465D02*
X142626364Y-121889898D01*
X142661103Y-121908466D01*
X142691548Y-121933452D01*
X142716534Y-121963897D01*
X142735102Y-121998636D01*
X142746535Y-122036323D01*
X142751000Y-122081661D01*
X142751000Y-122918339D01*
X142746535Y-122963677D01*
X142735102Y-123001364D01*
X142716534Y-123036103D01*
X142691548Y-123066548D01*
X142661103Y-123091534D01*
X142626364Y-123110102D01*
X142588677Y-123121535D01*
X142543339Y-123126000D01*
X141456661Y-123126000D01*
X141411323Y-123121535D01*
X141373636Y-123110102D01*
X141338897Y-123091534D01*
X141308452Y-123066548D01*
X141283466Y-123036103D01*
X141264898Y-123001364D01*
X141253465Y-122963677D01*
X141249000Y-122918339D01*
X141249000Y-122081661D01*
X141253465Y-122036323D01*
X141264898Y-121998636D01*
X141283466Y-121963897D01*
X141308452Y-121933452D01*
X141338897Y-121908466D01*
X141373636Y-121889898D01*
X141411323Y-121878465D01*
X141456661Y-121874000D01*
X142543339Y-121874000D01*
X142588677Y-121878465D01*
X142588677Y-121878465D01*
G37*
G36*
X137588677Y-121878465D02*
X137626364Y-121889898D01*
X137661103Y-121908466D01*
X137691548Y-121933452D01*
X137716534Y-121963897D01*
X137735102Y-121998636D01*
X137746535Y-122036323D01*
X137751000Y-122081661D01*
X137751000Y-122918339D01*
X137746535Y-122963677D01*
X137735102Y-123001364D01*
X137716534Y-123036103D01*
X137691548Y-123066548D01*
X137661103Y-123091534D01*
X137626364Y-123110102D01*
X137588677Y-123121535D01*
X137543339Y-123126000D01*
X136456661Y-123126000D01*
X136411323Y-123121535D01*
X136373636Y-123110102D01*
X136338897Y-123091534D01*
X136308452Y-123066548D01*
X136283466Y-123036103D01*
X136264898Y-123001364D01*
X136253465Y-122963677D01*
X136249000Y-122918339D01*
X136249000Y-122081661D01*
X136253465Y-122036323D01*
X136264898Y-121998636D01*
X136283466Y-121963897D01*
X136308452Y-121933452D01*
X136338897Y-121908466D01*
X136373636Y-121889898D01*
X136411323Y-121878465D01*
X136456661Y-121874000D01*
X137543339Y-121874000D01*
X137588677Y-121878465D01*
X137588677Y-121878465D01*
G37*
G36*
X132588677Y-121878465D02*
X132626364Y-121889898D01*
X132661103Y-121908466D01*
X132691548Y-121933452D01*
X132716534Y-121963897D01*
X132735102Y-121998636D01*
X132746535Y-122036323D01*
X132751000Y-122081661D01*
X132751000Y-122918339D01*
X132746535Y-122963677D01*
X132735102Y-123001364D01*
X132716534Y-123036103D01*
X132691548Y-123066548D01*
X132661103Y-123091534D01*
X132626364Y-123110102D01*
X132588677Y-123121535D01*
X132543339Y-123126000D01*
X131456661Y-123126000D01*
X131411323Y-123121535D01*
X131373636Y-123110102D01*
X131338897Y-123091534D01*
X131308452Y-123066548D01*
X131283466Y-123036103D01*
X131264898Y-123001364D01*
X131253465Y-122963677D01*
X131249000Y-122918339D01*
X131249000Y-122081661D01*
X131253465Y-122036323D01*
X131264898Y-121998636D01*
X131283466Y-121963897D01*
X131308452Y-121933452D01*
X131338897Y-121908466D01*
X131373636Y-121889898D01*
X131411323Y-121878465D01*
X131456661Y-121874000D01*
X132543339Y-121874000D01*
X132588677Y-121878465D01*
X132588677Y-121878465D01*
G37*
G36*
X130088677Y-121853465D02*
X130126364Y-121864898D01*
X130161103Y-121883466D01*
X130191548Y-121908452D01*
X130216534Y-121938897D01*
X130235102Y-121973636D01*
X130246535Y-122011323D01*
X130251000Y-122056661D01*
X130251000Y-122893339D01*
X130246535Y-122938677D01*
X130235102Y-122976364D01*
X130216534Y-123011103D01*
X130191548Y-123041548D01*
X130161103Y-123066534D01*
X130126364Y-123085102D01*
X130088677Y-123096535D01*
X130043339Y-123101000D01*
X128956661Y-123101000D01*
X128911323Y-123096535D01*
X128873636Y-123085102D01*
X128838897Y-123066534D01*
X128808452Y-123041548D01*
X128783466Y-123011103D01*
X128764898Y-122976364D01*
X128753465Y-122938677D01*
X128749000Y-122893339D01*
X128749000Y-122056661D01*
X128753465Y-122011323D01*
X128764898Y-121973636D01*
X128783466Y-121938897D01*
X128808452Y-121908452D01*
X128838897Y-121883466D01*
X128873636Y-121864898D01*
X128911323Y-121853465D01*
X128956661Y-121849000D01*
X130043339Y-121849000D01*
X130088677Y-121853465D01*
X130088677Y-121853465D01*
G37*
G36*
X125088677Y-121853465D02*
X125126364Y-121864898D01*
X125161103Y-121883466D01*
X125191548Y-121908452D01*
X125216534Y-121938897D01*
X125235102Y-121973636D01*
X125246535Y-122011323D01*
X125251000Y-122056661D01*
X125251000Y-122893339D01*
X125246535Y-122938677D01*
X125235102Y-122976364D01*
X125216534Y-123011103D01*
X125191548Y-123041548D01*
X125161103Y-123066534D01*
X125126364Y-123085102D01*
X125088677Y-123096535D01*
X125043339Y-123101000D01*
X123956661Y-123101000D01*
X123911323Y-123096535D01*
X123873636Y-123085102D01*
X123838897Y-123066534D01*
X123808452Y-123041548D01*
X123783466Y-123011103D01*
X123764898Y-122976364D01*
X123753465Y-122938677D01*
X123749000Y-122893339D01*
X123749000Y-122056661D01*
X123753465Y-122011323D01*
X123764898Y-121973636D01*
X123783466Y-121938897D01*
X123808452Y-121908452D01*
X123838897Y-121883466D01*
X123873636Y-121864898D01*
X123911323Y-121853465D01*
X123956661Y-121849000D01*
X125043339Y-121849000D01*
X125088677Y-121853465D01*
X125088677Y-121853465D01*
G37*
G36*
X140088677Y-121853465D02*
X140126364Y-121864898D01*
X140161103Y-121883466D01*
X140191548Y-121908452D01*
X140216534Y-121938897D01*
X140235102Y-121973636D01*
X140246535Y-122011323D01*
X140251000Y-122056661D01*
X140251000Y-122893339D01*
X140246535Y-122938677D01*
X140235102Y-122976364D01*
X140216534Y-123011103D01*
X140191548Y-123041548D01*
X140161103Y-123066534D01*
X140126364Y-123085102D01*
X140088677Y-123096535D01*
X140043339Y-123101000D01*
X138956661Y-123101000D01*
X138911323Y-123096535D01*
X138873636Y-123085102D01*
X138838897Y-123066534D01*
X138808452Y-123041548D01*
X138783466Y-123011103D01*
X138764898Y-122976364D01*
X138753465Y-122938677D01*
X138749000Y-122893339D01*
X138749000Y-122056661D01*
X138753465Y-122011323D01*
X138764898Y-121973636D01*
X138783466Y-121938897D01*
X138808452Y-121908452D01*
X138838897Y-121883466D01*
X138873636Y-121864898D01*
X138911323Y-121853465D01*
X138956661Y-121849000D01*
X140043339Y-121849000D01*
X140088677Y-121853465D01*
X140088677Y-121853465D01*
G37*
G36*
X152338677Y-121853465D02*
X152376364Y-121864898D01*
X152411103Y-121883466D01*
X152441548Y-121908452D01*
X152466534Y-121938897D01*
X152485102Y-121973636D01*
X152496535Y-122011323D01*
X152501000Y-122056661D01*
X152501000Y-122893339D01*
X152496535Y-122938677D01*
X152485102Y-122976364D01*
X152466534Y-123011103D01*
X152441548Y-123041548D01*
X152411103Y-123066534D01*
X152376364Y-123085102D01*
X152338677Y-123096535D01*
X152293339Y-123101000D01*
X151206661Y-123101000D01*
X151161323Y-123096535D01*
X151123636Y-123085102D01*
X151088897Y-123066534D01*
X151058452Y-123041548D01*
X151033466Y-123011103D01*
X151014898Y-122976364D01*
X151003465Y-122938677D01*
X150999000Y-122893339D01*
X150999000Y-122056661D01*
X151003465Y-122011323D01*
X151014898Y-121973636D01*
X151033466Y-121938897D01*
X151058452Y-121908452D01*
X151088897Y-121883466D01*
X151123636Y-121864898D01*
X151161323Y-121853465D01*
X151206661Y-121849000D01*
X152293339Y-121849000D01*
X152338677Y-121853465D01*
X152338677Y-121853465D01*
G37*
G36*
X127588677Y-121853465D02*
X127626364Y-121864898D01*
X127661103Y-121883466D01*
X127691548Y-121908452D01*
X127716534Y-121938897D01*
X127735102Y-121973636D01*
X127746535Y-122011323D01*
X127751000Y-122056661D01*
X127751000Y-122893339D01*
X127746535Y-122938677D01*
X127735102Y-122976364D01*
X127716534Y-123011103D01*
X127691548Y-123041548D01*
X127661103Y-123066534D01*
X127626364Y-123085102D01*
X127588677Y-123096535D01*
X127543339Y-123101000D01*
X126456661Y-123101000D01*
X126411323Y-123096535D01*
X126373636Y-123085102D01*
X126338897Y-123066534D01*
X126308452Y-123041548D01*
X126283466Y-123011103D01*
X126264898Y-122976364D01*
X126253465Y-122938677D01*
X126249000Y-122893339D01*
X126249000Y-122056661D01*
X126253465Y-122011323D01*
X126264898Y-121973636D01*
X126283466Y-121938897D01*
X126308452Y-121908452D01*
X126338897Y-121883466D01*
X126373636Y-121864898D01*
X126411323Y-121853465D01*
X126456661Y-121849000D01*
X127543339Y-121849000D01*
X127588677Y-121853465D01*
X127588677Y-121853465D01*
G37*
G36*
X145088677Y-121853465D02*
X145126364Y-121864898D01*
X145161103Y-121883466D01*
X145191548Y-121908452D01*
X145216534Y-121938897D01*
X145235102Y-121973636D01*
X145246535Y-122011323D01*
X145251000Y-122056661D01*
X145251000Y-122893339D01*
X145246535Y-122938677D01*
X145235102Y-122976364D01*
X145216534Y-123011103D01*
X145191548Y-123041548D01*
X145161103Y-123066534D01*
X145126364Y-123085102D01*
X145088677Y-123096535D01*
X145043339Y-123101000D01*
X143956661Y-123101000D01*
X143911323Y-123096535D01*
X143873636Y-123085102D01*
X143838897Y-123066534D01*
X143808452Y-123041548D01*
X143783466Y-123011103D01*
X143764898Y-122976364D01*
X143753465Y-122938677D01*
X143749000Y-122893339D01*
X143749000Y-122056661D01*
X143753465Y-122011323D01*
X143764898Y-121973636D01*
X143783466Y-121938897D01*
X143808452Y-121908452D01*
X143838897Y-121883466D01*
X143873636Y-121864898D01*
X143911323Y-121853465D01*
X143956661Y-121849000D01*
X145043339Y-121849000D01*
X145088677Y-121853465D01*
X145088677Y-121853465D01*
G37*
G36*
X135088677Y-121828465D02*
X135126364Y-121839898D01*
X135161103Y-121858466D01*
X135191548Y-121883452D01*
X135216534Y-121913897D01*
X135235102Y-121948636D01*
X135246535Y-121986323D01*
X135251000Y-122031661D01*
X135251000Y-122868339D01*
X135246535Y-122913677D01*
X135235102Y-122951364D01*
X135216534Y-122986103D01*
X135191548Y-123016548D01*
X135161103Y-123041534D01*
X135126364Y-123060102D01*
X135088677Y-123071535D01*
X135043339Y-123076000D01*
X133956661Y-123076000D01*
X133911323Y-123071535D01*
X133873636Y-123060102D01*
X133838897Y-123041534D01*
X133808452Y-123016548D01*
X133783466Y-122986103D01*
X133764898Y-122951364D01*
X133753465Y-122913677D01*
X133749000Y-122868339D01*
X133749000Y-122031661D01*
X133753465Y-121986323D01*
X133764898Y-121948636D01*
X133783466Y-121913897D01*
X133808452Y-121883452D01*
X133838897Y-121858466D01*
X133873636Y-121839898D01*
X133911323Y-121828465D01*
X133956661Y-121824000D01*
X135043339Y-121824000D01*
X135088677Y-121828465D01*
X135088677Y-121828465D01*
G37*
G36*
X84653132Y-119702523D02*
X84681629Y-119711167D01*
X84707887Y-119725203D01*
X84730906Y-119744094D01*
X84749797Y-119767113D01*
X84763833Y-119793371D01*
X84772477Y-119821868D01*
X84776000Y-119857640D01*
X84776000Y-122842360D01*
X84772477Y-122878132D01*
X84763833Y-122906629D01*
X84749797Y-122932887D01*
X84730906Y-122955906D01*
X84707887Y-122974797D01*
X84681629Y-122988833D01*
X84653132Y-122997477D01*
X84617360Y-123001000D01*
X80382640Y-123001000D01*
X80346868Y-122997477D01*
X80318371Y-122988833D01*
X80292113Y-122974797D01*
X80269094Y-122955906D01*
X80250203Y-122932887D01*
X80236167Y-122906629D01*
X80227523Y-122878132D01*
X80224000Y-122842360D01*
X80224000Y-119857640D01*
X80227523Y-119821868D01*
X80236167Y-119793371D01*
X80250203Y-119767113D01*
X80269094Y-119744094D01*
X80292113Y-119725203D01*
X80318371Y-119711167D01*
X80346868Y-119702523D01*
X80382640Y-119699000D01*
X84617360Y-119699000D01*
X84653132Y-119702523D01*
X84653132Y-119702523D01*
G37*
G36*
X122651000Y-122351000D02*
X121349000Y-122351000D01*
X121349000Y-121349000D01*
X122651000Y-121349000D01*
X122651000Y-122351000D01*
X122651000Y-122351000D01*
G37*
G36*
X168838677Y-120853465D02*
X168876364Y-120864898D01*
X168911103Y-120883466D01*
X168941548Y-120908452D01*
X168966534Y-120938897D01*
X168985102Y-120973636D01*
X168996535Y-121011323D01*
X169001000Y-121056661D01*
X169001000Y-121893339D01*
X168996535Y-121938677D01*
X168985102Y-121976364D01*
X168966534Y-122011103D01*
X168941548Y-122041548D01*
X168911103Y-122066534D01*
X168876364Y-122085102D01*
X168838677Y-122096535D01*
X168793339Y-122101000D01*
X167706661Y-122101000D01*
X167661323Y-122096535D01*
X167623636Y-122085102D01*
X167588897Y-122066534D01*
X167558452Y-122041548D01*
X167533466Y-122011103D01*
X167514898Y-121976364D01*
X167503465Y-121938677D01*
X167499000Y-121893339D01*
X167499000Y-121056661D01*
X167503465Y-121011323D01*
X167514898Y-120973636D01*
X167533466Y-120938897D01*
X167558452Y-120908452D01*
X167588897Y-120883466D01*
X167623636Y-120864898D01*
X167661323Y-120853465D01*
X167706661Y-120849000D01*
X168793339Y-120849000D01*
X168838677Y-120853465D01*
X168838677Y-120853465D01*
G37*
G36*
X166588677Y-120853465D02*
X166626364Y-120864898D01*
X166661103Y-120883466D01*
X166691548Y-120908452D01*
X166716534Y-120938897D01*
X166735102Y-120973636D01*
X166746535Y-121011323D01*
X166751000Y-121056661D01*
X166751000Y-121893339D01*
X166746535Y-121938677D01*
X166735102Y-121976364D01*
X166716534Y-122011103D01*
X166691548Y-122041548D01*
X166661103Y-122066534D01*
X166626364Y-122085102D01*
X166588677Y-122096535D01*
X166543339Y-122101000D01*
X165456661Y-122101000D01*
X165411323Y-122096535D01*
X165373636Y-122085102D01*
X165338897Y-122066534D01*
X165308452Y-122041548D01*
X165283466Y-122011103D01*
X165264898Y-121976364D01*
X165253465Y-121938677D01*
X165249000Y-121893339D01*
X165249000Y-121056661D01*
X165253465Y-121011323D01*
X165264898Y-120973636D01*
X165283466Y-120938897D01*
X165308452Y-120908452D01*
X165338897Y-120883466D01*
X165373636Y-120864898D01*
X165411323Y-120853465D01*
X165456661Y-120849000D01*
X166543339Y-120849000D01*
X166588677Y-120853465D01*
X166588677Y-120853465D01*
G37*
G36*
X187851000Y-121401000D02*
X186849000Y-121401000D01*
X186849000Y-120099000D01*
X187851000Y-120099000D01*
X187851000Y-121401000D01*
X187851000Y-121401000D01*
G37*
G36*
X191151000Y-121401000D02*
X190149000Y-121401000D01*
X190149000Y-120099000D01*
X191151000Y-120099000D01*
X191151000Y-121401000D01*
X191151000Y-121401000D01*
G37*
G36*
X176476000Y-120981000D02*
X174624000Y-120981000D01*
X174624000Y-120329000D01*
X176476000Y-120329000D01*
X176476000Y-120981000D01*
X176476000Y-120981000D01*
G37*
G36*
X183876000Y-120981000D02*
X182024000Y-120981000D01*
X182024000Y-120329000D01*
X183876000Y-120329000D01*
X183876000Y-120981000D01*
X183876000Y-120981000D01*
G37*
G36*
X148306565Y-118239389D02*
X148497834Y-118318615D01*
X148669976Y-118433637D01*
X148816363Y-118580024D01*
X148931385Y-118752166D01*
X149010611Y-118943435D01*
X149051000Y-119146484D01*
X149051000Y-119353516D01*
X149010611Y-119556565D01*
X148931385Y-119747834D01*
X148816363Y-119919976D01*
X148669976Y-120066363D01*
X148497834Y-120181385D01*
X148306565Y-120260611D01*
X148103516Y-120301000D01*
X147896484Y-120301000D01*
X147693435Y-120260611D01*
X147502166Y-120181385D01*
X147330024Y-120066363D01*
X147183637Y-119919976D01*
X147068615Y-119747834D01*
X146989389Y-119556565D01*
X146949000Y-119353516D01*
X146949000Y-119146484D01*
X146989389Y-118943435D01*
X147068615Y-118752166D01*
X147183637Y-118580024D01*
X147330024Y-118433637D01*
X147502166Y-118318615D01*
X147693435Y-118239389D01*
X147896484Y-118199000D01*
X148103516Y-118199000D01*
X148306565Y-118239389D01*
X148306565Y-118239389D01*
G37*
G36*
X176476000Y-119711000D02*
X174624000Y-119711000D01*
X174624000Y-119059000D01*
X176476000Y-119059000D01*
X176476000Y-119711000D01*
X176476000Y-119711000D01*
G37*
G36*
X183876000Y-119711000D02*
X182024000Y-119711000D01*
X182024000Y-119059000D01*
X183876000Y-119059000D01*
X183876000Y-119711000D01*
X183876000Y-119711000D01*
G37*
G36*
X188438677Y-117253465D02*
X188476364Y-117264898D01*
X188511103Y-117283466D01*
X188541548Y-117308452D01*
X188566534Y-117338897D01*
X188585102Y-117373636D01*
X188596535Y-117411323D01*
X188601000Y-117456661D01*
X188601000Y-118543339D01*
X188596535Y-118588677D01*
X188585102Y-118626364D01*
X188566534Y-118661103D01*
X188541548Y-118691548D01*
X188511103Y-118716534D01*
X188476364Y-118735102D01*
X188438677Y-118746535D01*
X188393339Y-118751000D01*
X187556661Y-118751000D01*
X187511323Y-118746535D01*
X187473636Y-118735102D01*
X187438897Y-118716534D01*
X187408452Y-118691548D01*
X187383466Y-118661103D01*
X187364898Y-118626364D01*
X187353465Y-118588677D01*
X187349000Y-118543339D01*
X187349000Y-117456661D01*
X187353465Y-117411323D01*
X187364898Y-117373636D01*
X187383466Y-117338897D01*
X187408452Y-117308452D01*
X187438897Y-117283466D01*
X187473636Y-117264898D01*
X187511323Y-117253465D01*
X187556661Y-117249000D01*
X188393339Y-117249000D01*
X188438677Y-117253465D01*
X188438677Y-117253465D01*
G37*
G36*
X190488677Y-117253465D02*
X190526364Y-117264898D01*
X190561103Y-117283466D01*
X190591548Y-117308452D01*
X190616534Y-117338897D01*
X190635102Y-117373636D01*
X190646535Y-117411323D01*
X190651000Y-117456661D01*
X190651000Y-118543339D01*
X190646535Y-118588677D01*
X190635102Y-118626364D01*
X190616534Y-118661103D01*
X190591548Y-118691548D01*
X190561103Y-118716534D01*
X190526364Y-118735102D01*
X190488677Y-118746535D01*
X190443339Y-118751000D01*
X189606661Y-118751000D01*
X189561323Y-118746535D01*
X189523636Y-118735102D01*
X189488897Y-118716534D01*
X189458452Y-118691548D01*
X189433466Y-118661103D01*
X189414898Y-118626364D01*
X189403465Y-118588677D01*
X189399000Y-118543339D01*
X189399000Y-117456661D01*
X189403465Y-117411323D01*
X189414898Y-117373636D01*
X189433466Y-117338897D01*
X189458452Y-117308452D01*
X189488897Y-117283466D01*
X189523636Y-117264898D01*
X189561323Y-117253465D01*
X189606661Y-117249000D01*
X190443339Y-117249000D01*
X190488677Y-117253465D01*
X190488677Y-117253465D01*
G37*
G36*
X176476000Y-118441000D02*
X174624000Y-118441000D01*
X174624000Y-117789000D01*
X176476000Y-117789000D01*
X176476000Y-118441000D01*
X176476000Y-118441000D01*
G37*
G36*
X183876000Y-118441000D02*
X182024000Y-118441000D01*
X182024000Y-117789000D01*
X183876000Y-117789000D01*
X183876000Y-118441000D01*
X183876000Y-118441000D01*
G37*
G36*
X97098252Y-114227818D02*
X97098254Y-114227819D01*
X97098255Y-114227819D01*
X97471513Y-114382427D01*
X97685192Y-114525203D01*
X97807439Y-114606886D01*
X98093114Y-114892561D01*
X98093116Y-114892564D01*
X98317573Y-115228487D01*
X98466768Y-115588677D01*
X98472182Y-115601748D01*
X98551000Y-115997993D01*
X98551000Y-116402007D01*
X98482211Y-116747835D01*
X98472181Y-116798255D01*
X98317573Y-117171513D01*
X98255175Y-117264898D01*
X98093114Y-117507439D01*
X97807439Y-117793114D01*
X97807436Y-117793116D01*
X97471513Y-118017573D01*
X97098255Y-118172181D01*
X97098254Y-118172181D01*
X97098252Y-118172182D01*
X96702007Y-118251000D01*
X96297993Y-118251000D01*
X95901748Y-118172182D01*
X95901746Y-118172181D01*
X95901745Y-118172181D01*
X95528487Y-118017573D01*
X95192564Y-117793116D01*
X95192561Y-117793114D01*
X94906886Y-117507439D01*
X94744825Y-117264898D01*
X94682427Y-117171513D01*
X94527819Y-116798255D01*
X94517790Y-116747835D01*
X94449000Y-116402007D01*
X94449000Y-115997993D01*
X94527818Y-115601748D01*
X94533232Y-115588677D01*
X94682427Y-115228487D01*
X94906884Y-114892564D01*
X94906886Y-114892561D01*
X95192561Y-114606886D01*
X95314808Y-114525203D01*
X95528487Y-114382427D01*
X95901745Y-114227819D01*
X95901746Y-114227819D01*
X95901748Y-114227818D01*
X96297993Y-114149000D01*
X96702007Y-114149000D01*
X97098252Y-114227818D01*
X97098252Y-114227818D01*
G37*
G36*
X104588677Y-116903465D02*
X104626364Y-116914898D01*
X104661103Y-116933466D01*
X104691548Y-116958452D01*
X104716534Y-116988897D01*
X104735102Y-117023636D01*
X104746535Y-117061323D01*
X104751000Y-117106661D01*
X104751000Y-117943339D01*
X104746535Y-117988677D01*
X104735102Y-118026364D01*
X104716534Y-118061103D01*
X104691548Y-118091548D01*
X104661103Y-118116534D01*
X104626364Y-118135102D01*
X104588677Y-118146535D01*
X104543339Y-118151000D01*
X103456661Y-118151000D01*
X103411323Y-118146535D01*
X103373636Y-118135102D01*
X103338897Y-118116534D01*
X103308452Y-118091548D01*
X103283466Y-118061103D01*
X103264898Y-118026364D01*
X103253465Y-117988677D01*
X103249000Y-117943339D01*
X103249000Y-117106661D01*
X103253465Y-117061323D01*
X103264898Y-117023636D01*
X103283466Y-116988897D01*
X103308452Y-116958452D01*
X103338897Y-116933466D01*
X103373636Y-116914898D01*
X103411323Y-116903465D01*
X103456661Y-116899000D01*
X104543339Y-116899000D01*
X104588677Y-116903465D01*
X104588677Y-116903465D01*
G37*
G36*
X101838677Y-116903465D02*
X101876364Y-116914898D01*
X101911103Y-116933466D01*
X101941548Y-116958452D01*
X101966534Y-116988897D01*
X101985102Y-117023636D01*
X101996535Y-117061323D01*
X102001000Y-117106661D01*
X102001000Y-117943339D01*
X101996535Y-117988677D01*
X101985102Y-118026364D01*
X101966534Y-118061103D01*
X101941548Y-118091548D01*
X101911103Y-118116534D01*
X101876364Y-118135102D01*
X101838677Y-118146535D01*
X101793339Y-118151000D01*
X100706661Y-118151000D01*
X100661323Y-118146535D01*
X100623636Y-118135102D01*
X100588897Y-118116534D01*
X100558452Y-118091548D01*
X100533466Y-118061103D01*
X100514898Y-118026364D01*
X100503465Y-117988677D01*
X100499000Y-117943339D01*
X100499000Y-117106661D01*
X100503465Y-117061323D01*
X100514898Y-117023636D01*
X100533466Y-116988897D01*
X100558452Y-116958452D01*
X100588897Y-116933466D01*
X100623636Y-116914898D01*
X100661323Y-116903465D01*
X100706661Y-116899000D01*
X101793339Y-116899000D01*
X101838677Y-116903465D01*
X101838677Y-116903465D01*
G37*
G36*
X107088677Y-116903465D02*
X107126364Y-116914898D01*
X107161103Y-116933466D01*
X107191548Y-116958452D01*
X107216534Y-116988897D01*
X107235102Y-117023636D01*
X107246535Y-117061323D01*
X107251000Y-117106661D01*
X107251000Y-117943339D01*
X107246535Y-117988677D01*
X107235102Y-118026364D01*
X107216534Y-118061103D01*
X107191548Y-118091548D01*
X107161103Y-118116534D01*
X107126364Y-118135102D01*
X107088677Y-118146535D01*
X107043339Y-118151000D01*
X105956661Y-118151000D01*
X105911323Y-118146535D01*
X105873636Y-118135102D01*
X105838897Y-118116534D01*
X105808452Y-118091548D01*
X105783466Y-118061103D01*
X105764898Y-118026364D01*
X105753465Y-117988677D01*
X105749000Y-117943339D01*
X105749000Y-117106661D01*
X105753465Y-117061323D01*
X105764898Y-117023636D01*
X105783466Y-116988897D01*
X105808452Y-116958452D01*
X105838897Y-116933466D01*
X105873636Y-116914898D01*
X105911323Y-116903465D01*
X105956661Y-116899000D01*
X107043339Y-116899000D01*
X107088677Y-116903465D01*
X107088677Y-116903465D01*
G37*
G36*
X109838677Y-116903465D02*
X109876364Y-116914898D01*
X109911103Y-116933466D01*
X109941548Y-116958452D01*
X109966534Y-116988897D01*
X109985102Y-117023636D01*
X109996535Y-117061323D01*
X110001000Y-117106661D01*
X110001000Y-117943339D01*
X109996535Y-117988677D01*
X109985102Y-118026364D01*
X109966534Y-118061103D01*
X109941548Y-118091548D01*
X109911103Y-118116534D01*
X109876364Y-118135102D01*
X109838677Y-118146535D01*
X109793339Y-118151000D01*
X108706661Y-118151000D01*
X108661323Y-118146535D01*
X108623636Y-118135102D01*
X108588897Y-118116534D01*
X108558452Y-118091548D01*
X108533466Y-118061103D01*
X108514898Y-118026364D01*
X108503465Y-117988677D01*
X108499000Y-117943339D01*
X108499000Y-117106661D01*
X108503465Y-117061323D01*
X108514898Y-117023636D01*
X108533466Y-116988897D01*
X108558452Y-116958452D01*
X108588897Y-116933466D01*
X108623636Y-116914898D01*
X108661323Y-116903465D01*
X108706661Y-116899000D01*
X109793339Y-116899000D01*
X109838677Y-116903465D01*
X109838677Y-116903465D01*
G37*
G36*
X84653132Y-114502523D02*
X84681629Y-114511167D01*
X84707887Y-114525203D01*
X84730906Y-114544094D01*
X84749797Y-114567113D01*
X84763833Y-114593371D01*
X84772477Y-114621868D01*
X84776000Y-114657640D01*
X84776000Y-117642360D01*
X84772477Y-117678132D01*
X84763833Y-117706629D01*
X84749797Y-117732887D01*
X84730906Y-117755906D01*
X84707887Y-117774797D01*
X84681629Y-117788833D01*
X84653132Y-117797477D01*
X84617360Y-117801000D01*
X80382640Y-117801000D01*
X80346868Y-117797477D01*
X80318371Y-117788833D01*
X80292113Y-117774797D01*
X80269094Y-117755906D01*
X80250203Y-117732887D01*
X80236167Y-117706629D01*
X80227523Y-117678132D01*
X80224000Y-117642360D01*
X80224000Y-114657640D01*
X80227523Y-114621868D01*
X80236167Y-114593371D01*
X80250203Y-114567113D01*
X80269094Y-114544094D01*
X80292113Y-114525203D01*
X80318371Y-114511167D01*
X80346868Y-114502523D01*
X80382640Y-114499000D01*
X84617360Y-114499000D01*
X84653132Y-114502523D01*
X84653132Y-114502523D01*
G37*
G36*
X146056565Y-115239389D02*
X146247834Y-115318615D01*
X146419976Y-115433637D01*
X146566363Y-115580024D01*
X146681385Y-115752166D01*
X146760611Y-115943435D01*
X146801000Y-116146484D01*
X146801000Y-116353516D01*
X146760611Y-116556565D01*
X146681385Y-116747834D01*
X146566363Y-116919976D01*
X146419976Y-117066363D01*
X146247834Y-117181385D01*
X146056565Y-117260611D01*
X145853516Y-117301000D01*
X145646484Y-117301000D01*
X145443435Y-117260611D01*
X145252166Y-117181385D01*
X145080024Y-117066363D01*
X144933637Y-116919976D01*
X144818615Y-116747834D01*
X144739389Y-116556565D01*
X144699000Y-116353516D01*
X144699000Y-116146484D01*
X144739389Y-115943435D01*
X144818615Y-115752166D01*
X144933637Y-115580024D01*
X145080024Y-115433637D01*
X145252166Y-115318615D01*
X145443435Y-115239389D01*
X145646484Y-115199000D01*
X145853516Y-115199000D01*
X146056565Y-115239389D01*
X146056565Y-115239389D01*
G37*
G36*
X150806565Y-115239389D02*
X150997834Y-115318615D01*
X151169976Y-115433637D01*
X151316363Y-115580024D01*
X151431385Y-115752166D01*
X151510611Y-115943435D01*
X151551000Y-116146484D01*
X151551000Y-116353516D01*
X151510611Y-116556565D01*
X151431385Y-116747834D01*
X151316363Y-116919976D01*
X151169976Y-117066363D01*
X150997834Y-117181385D01*
X150806565Y-117260611D01*
X150603516Y-117301000D01*
X150396484Y-117301000D01*
X150193435Y-117260611D01*
X150002166Y-117181385D01*
X149830024Y-117066363D01*
X149683637Y-116919976D01*
X149568615Y-116747834D01*
X149489389Y-116556565D01*
X149449000Y-116353516D01*
X149449000Y-116146484D01*
X149489389Y-115943435D01*
X149568615Y-115752166D01*
X149683637Y-115580024D01*
X149830024Y-115433637D01*
X150002166Y-115318615D01*
X150193435Y-115239389D01*
X150396484Y-115199000D01*
X150603516Y-115199000D01*
X150806565Y-115239389D01*
X150806565Y-115239389D01*
G37*
G36*
X199938677Y-115753465D02*
X199976364Y-115764898D01*
X200011103Y-115783466D01*
X200041548Y-115808452D01*
X200066534Y-115838897D01*
X200085102Y-115873636D01*
X200096535Y-115911323D01*
X200101000Y-115956661D01*
X200101000Y-117043339D01*
X200096535Y-117088677D01*
X200085102Y-117126364D01*
X200066534Y-117161103D01*
X200041548Y-117191548D01*
X200011103Y-117216534D01*
X199976364Y-117235102D01*
X199938677Y-117246535D01*
X199893339Y-117251000D01*
X199056661Y-117251000D01*
X199011323Y-117246535D01*
X198973636Y-117235102D01*
X198938897Y-117216534D01*
X198908452Y-117191548D01*
X198883466Y-117161103D01*
X198864898Y-117126364D01*
X198853465Y-117088677D01*
X198849000Y-117043339D01*
X198849000Y-115956661D01*
X198853465Y-115911323D01*
X198864898Y-115873636D01*
X198883466Y-115838897D01*
X198908452Y-115808452D01*
X198938897Y-115783466D01*
X198973636Y-115764898D01*
X199011323Y-115753465D01*
X199056661Y-115749000D01*
X199893339Y-115749000D01*
X199938677Y-115753465D01*
X199938677Y-115753465D01*
G37*
G36*
X201988677Y-115753465D02*
X202026364Y-115764898D01*
X202061103Y-115783466D01*
X202091548Y-115808452D01*
X202116534Y-115838897D01*
X202135102Y-115873636D01*
X202146535Y-115911323D01*
X202151000Y-115956661D01*
X202151000Y-117043339D01*
X202146535Y-117088677D01*
X202135102Y-117126364D01*
X202116534Y-117161103D01*
X202091548Y-117191548D01*
X202061103Y-117216534D01*
X202026364Y-117235102D01*
X201988677Y-117246535D01*
X201943339Y-117251000D01*
X201106661Y-117251000D01*
X201061323Y-117246535D01*
X201023636Y-117235102D01*
X200988897Y-117216534D01*
X200958452Y-117191548D01*
X200933466Y-117161103D01*
X200914898Y-117126364D01*
X200903465Y-117088677D01*
X200899000Y-117043339D01*
X200899000Y-115956661D01*
X200903465Y-115911323D01*
X200914898Y-115873636D01*
X200933466Y-115838897D01*
X200958452Y-115808452D01*
X200988897Y-115783466D01*
X201023636Y-115764898D01*
X201061323Y-115753465D01*
X201106661Y-115749000D01*
X201943339Y-115749000D01*
X201988677Y-115753465D01*
X201988677Y-115753465D01*
G37*
G36*
X176476000Y-117171000D02*
X174624000Y-117171000D01*
X174624000Y-116519000D01*
X176476000Y-116519000D01*
X176476000Y-117171000D01*
X176476000Y-117171000D01*
G37*
G36*
X183876000Y-117171000D02*
X182024000Y-117171000D01*
X182024000Y-116519000D01*
X183876000Y-116519000D01*
X183876000Y-117171000D01*
X183876000Y-117171000D01*
G37*
G36*
X90151000Y-116401000D02*
X88849000Y-116401000D01*
X88849000Y-115399000D01*
X90151000Y-115399000D01*
X90151000Y-116401000D01*
X90151000Y-116401000D01*
G37*
G36*
X109838677Y-114853465D02*
X109876364Y-114864898D01*
X109911103Y-114883466D01*
X109941548Y-114908452D01*
X109966534Y-114938897D01*
X109985102Y-114973636D01*
X109996535Y-115011323D01*
X110001000Y-115056661D01*
X110001000Y-115893339D01*
X109996535Y-115938677D01*
X109985102Y-115976364D01*
X109966534Y-116011103D01*
X109941548Y-116041548D01*
X109911103Y-116066534D01*
X109876364Y-116085102D01*
X109838677Y-116096535D01*
X109793339Y-116101000D01*
X108706661Y-116101000D01*
X108661323Y-116096535D01*
X108623636Y-116085102D01*
X108588897Y-116066534D01*
X108558452Y-116041548D01*
X108533466Y-116011103D01*
X108514898Y-115976364D01*
X108503465Y-115938677D01*
X108499000Y-115893339D01*
X108499000Y-115056661D01*
X108503465Y-115011323D01*
X108514898Y-114973636D01*
X108533466Y-114938897D01*
X108558452Y-114908452D01*
X108588897Y-114883466D01*
X108623636Y-114864898D01*
X108661323Y-114853465D01*
X108706661Y-114849000D01*
X109793339Y-114849000D01*
X109838677Y-114853465D01*
X109838677Y-114853465D01*
G37*
G36*
X101838677Y-114853465D02*
X101876364Y-114864898D01*
X101911103Y-114883466D01*
X101941548Y-114908452D01*
X101966534Y-114938897D01*
X101985102Y-114973636D01*
X101996535Y-115011323D01*
X102001000Y-115056661D01*
X102001000Y-115893339D01*
X101996535Y-115938677D01*
X101985102Y-115976364D01*
X101966534Y-116011103D01*
X101941548Y-116041548D01*
X101911103Y-116066534D01*
X101876364Y-116085102D01*
X101838677Y-116096535D01*
X101793339Y-116101000D01*
X100706661Y-116101000D01*
X100661323Y-116096535D01*
X100623636Y-116085102D01*
X100588897Y-116066534D01*
X100558452Y-116041548D01*
X100533466Y-116011103D01*
X100514898Y-115976364D01*
X100503465Y-115938677D01*
X100499000Y-115893339D01*
X100499000Y-115056661D01*
X100503465Y-115011323D01*
X100514898Y-114973636D01*
X100533466Y-114938897D01*
X100558452Y-114908452D01*
X100588897Y-114883466D01*
X100623636Y-114864898D01*
X100661323Y-114853465D01*
X100706661Y-114849000D01*
X101793339Y-114849000D01*
X101838677Y-114853465D01*
X101838677Y-114853465D01*
G37*
G36*
X107088677Y-114853465D02*
X107126364Y-114864898D01*
X107161103Y-114883466D01*
X107191548Y-114908452D01*
X107216534Y-114938897D01*
X107235102Y-114973636D01*
X107246535Y-115011323D01*
X107251000Y-115056661D01*
X107251000Y-115893339D01*
X107246535Y-115938677D01*
X107235102Y-115976364D01*
X107216534Y-116011103D01*
X107191548Y-116041548D01*
X107161103Y-116066534D01*
X107126364Y-116085102D01*
X107088677Y-116096535D01*
X107043339Y-116101000D01*
X105956661Y-116101000D01*
X105911323Y-116096535D01*
X105873636Y-116085102D01*
X105838897Y-116066534D01*
X105808452Y-116041548D01*
X105783466Y-116011103D01*
X105764898Y-115976364D01*
X105753465Y-115938677D01*
X105749000Y-115893339D01*
X105749000Y-115056661D01*
X105753465Y-115011323D01*
X105764898Y-114973636D01*
X105783466Y-114938897D01*
X105808452Y-114908452D01*
X105838897Y-114883466D01*
X105873636Y-114864898D01*
X105911323Y-114853465D01*
X105956661Y-114849000D01*
X107043339Y-114849000D01*
X107088677Y-114853465D01*
X107088677Y-114853465D01*
G37*
G36*
X104588677Y-114853465D02*
X104626364Y-114864898D01*
X104661103Y-114883466D01*
X104691548Y-114908452D01*
X104716534Y-114938897D01*
X104735102Y-114973636D01*
X104746535Y-115011323D01*
X104751000Y-115056661D01*
X104751000Y-115893339D01*
X104746535Y-115938677D01*
X104735102Y-115976364D01*
X104716534Y-116011103D01*
X104691548Y-116041548D01*
X104661103Y-116066534D01*
X104626364Y-116085102D01*
X104588677Y-116096535D01*
X104543339Y-116101000D01*
X103456661Y-116101000D01*
X103411323Y-116096535D01*
X103373636Y-116085102D01*
X103338897Y-116066534D01*
X103308452Y-116041548D01*
X103283466Y-116011103D01*
X103264898Y-115976364D01*
X103253465Y-115938677D01*
X103249000Y-115893339D01*
X103249000Y-115056661D01*
X103253465Y-115011323D01*
X103264898Y-114973636D01*
X103283466Y-114938897D01*
X103308452Y-114908452D01*
X103338897Y-114883466D01*
X103373636Y-114864898D01*
X103411323Y-114853465D01*
X103456661Y-114849000D01*
X104543339Y-114849000D01*
X104588677Y-114853465D01*
X104588677Y-114853465D01*
G37*
G36*
X190713677Y-114253465D02*
X190751364Y-114264898D01*
X190786103Y-114283466D01*
X190816548Y-114308452D01*
X190841534Y-114338897D01*
X190860102Y-114373636D01*
X190871535Y-114411323D01*
X190876000Y-114456661D01*
X190876000Y-115543339D01*
X190871535Y-115588677D01*
X190860102Y-115626364D01*
X190841534Y-115661103D01*
X190816548Y-115691548D01*
X190786103Y-115716534D01*
X190751364Y-115735102D01*
X190713677Y-115746535D01*
X190668339Y-115751000D01*
X189831661Y-115751000D01*
X189786323Y-115746535D01*
X189748636Y-115735102D01*
X189713897Y-115716534D01*
X189683452Y-115691548D01*
X189658466Y-115661103D01*
X189639898Y-115626364D01*
X189628465Y-115588677D01*
X189624000Y-115543339D01*
X189624000Y-114456661D01*
X189628465Y-114411323D01*
X189639898Y-114373636D01*
X189658466Y-114338897D01*
X189683452Y-114308452D01*
X189713897Y-114283466D01*
X189748636Y-114264898D01*
X189786323Y-114253465D01*
X189831661Y-114249000D01*
X190668339Y-114249000D01*
X190713677Y-114253465D01*
X190713677Y-114253465D01*
G37*
G36*
X188663677Y-114253465D02*
X188701364Y-114264898D01*
X188736103Y-114283466D01*
X188766548Y-114308452D01*
X188791534Y-114338897D01*
X188810102Y-114373636D01*
X188821535Y-114411323D01*
X188826000Y-114456661D01*
X188826000Y-115543339D01*
X188821535Y-115588677D01*
X188810102Y-115626364D01*
X188791534Y-115661103D01*
X188766548Y-115691548D01*
X188736103Y-115716534D01*
X188701364Y-115735102D01*
X188663677Y-115746535D01*
X188618339Y-115751000D01*
X187781661Y-115751000D01*
X187736323Y-115746535D01*
X187698636Y-115735102D01*
X187663897Y-115716534D01*
X187633452Y-115691548D01*
X187608466Y-115661103D01*
X187589898Y-115626364D01*
X187578465Y-115588677D01*
X187574000Y-115543339D01*
X187574000Y-114456661D01*
X187578465Y-114411323D01*
X187589898Y-114373636D01*
X187608466Y-114338897D01*
X187633452Y-114308452D01*
X187663897Y-114283466D01*
X187698636Y-114264898D01*
X187736323Y-114253465D01*
X187781661Y-114249000D01*
X188618339Y-114249000D01*
X188663677Y-114253465D01*
X188663677Y-114253465D01*
G37*
G36*
X169056565Y-113239389D02*
X169247834Y-113318615D01*
X169419976Y-113433637D01*
X169566363Y-113580024D01*
X169681385Y-113752166D01*
X169760611Y-113943435D01*
X169801000Y-114146484D01*
X169801000Y-114353516D01*
X169760611Y-114556565D01*
X169681385Y-114747834D01*
X169566363Y-114919976D01*
X169419976Y-115066363D01*
X169247834Y-115181385D01*
X169056565Y-115260611D01*
X168853516Y-115301000D01*
X168646484Y-115301000D01*
X168443435Y-115260611D01*
X168252166Y-115181385D01*
X168080024Y-115066363D01*
X167933637Y-114919976D01*
X167818615Y-114747834D01*
X167739389Y-114556565D01*
X167699000Y-114353516D01*
X167699000Y-114146484D01*
X167739389Y-113943435D01*
X167818615Y-113752166D01*
X167933637Y-113580024D01*
X168080024Y-113433637D01*
X168252166Y-113318615D01*
X168443435Y-113239389D01*
X168646484Y-113199000D01*
X168853516Y-113199000D01*
X169056565Y-113239389D01*
X169056565Y-113239389D01*
G37*
G36*
X199963677Y-112753465D02*
X200001364Y-112764898D01*
X200036103Y-112783466D01*
X200066548Y-112808452D01*
X200091534Y-112838897D01*
X200110102Y-112873636D01*
X200121535Y-112911323D01*
X200126000Y-112956661D01*
X200126000Y-114043339D01*
X200121535Y-114088677D01*
X200110102Y-114126364D01*
X200091534Y-114161103D01*
X200066548Y-114191548D01*
X200036103Y-114216534D01*
X200001364Y-114235102D01*
X199963677Y-114246535D01*
X199918339Y-114251000D01*
X199081661Y-114251000D01*
X199036323Y-114246535D01*
X198998636Y-114235102D01*
X198963897Y-114216534D01*
X198933452Y-114191548D01*
X198908466Y-114161103D01*
X198889898Y-114126364D01*
X198878465Y-114088677D01*
X198874000Y-114043339D01*
X198874000Y-112956661D01*
X198878465Y-112911323D01*
X198889898Y-112873636D01*
X198908466Y-112838897D01*
X198933452Y-112808452D01*
X198963897Y-112783466D01*
X198998636Y-112764898D01*
X199036323Y-112753465D01*
X199081661Y-112749000D01*
X199918339Y-112749000D01*
X199963677Y-112753465D01*
X199963677Y-112753465D01*
G37*
G36*
X202013677Y-112753465D02*
X202051364Y-112764898D01*
X202086103Y-112783466D01*
X202116548Y-112808452D01*
X202141534Y-112838897D01*
X202160102Y-112873636D01*
X202171535Y-112911323D01*
X202176000Y-112956661D01*
X202176000Y-114043339D01*
X202171535Y-114088677D01*
X202160102Y-114126364D01*
X202141534Y-114161103D01*
X202116548Y-114191548D01*
X202086103Y-114216534D01*
X202051364Y-114235102D01*
X202013677Y-114246535D01*
X201968339Y-114251000D01*
X201131661Y-114251000D01*
X201086323Y-114246535D01*
X201048636Y-114235102D01*
X201013897Y-114216534D01*
X200983452Y-114191548D01*
X200958466Y-114161103D01*
X200939898Y-114126364D01*
X200928465Y-114088677D01*
X200924000Y-114043339D01*
X200924000Y-112956661D01*
X200928465Y-112911323D01*
X200939898Y-112873636D01*
X200958466Y-112838897D01*
X200983452Y-112808452D01*
X201013897Y-112783466D01*
X201048636Y-112764898D01*
X201086323Y-112753465D01*
X201131661Y-112749000D01*
X201968339Y-112749000D01*
X202013677Y-112753465D01*
X202013677Y-112753465D01*
G37*
G36*
X124088677Y-112928465D02*
X124126364Y-112939898D01*
X124161103Y-112958466D01*
X124191548Y-112983452D01*
X124216534Y-113013897D01*
X124235102Y-113048636D01*
X124246535Y-113086323D01*
X124251000Y-113131661D01*
X124251000Y-113968339D01*
X124246535Y-114013677D01*
X124235102Y-114051364D01*
X124216534Y-114086103D01*
X124191548Y-114116548D01*
X124161103Y-114141534D01*
X124126364Y-114160102D01*
X124088677Y-114171535D01*
X124043339Y-114176000D01*
X122956661Y-114176000D01*
X122911323Y-114171535D01*
X122873636Y-114160102D01*
X122838897Y-114141534D01*
X122808452Y-114116548D01*
X122783466Y-114086103D01*
X122764898Y-114051364D01*
X122753465Y-114013677D01*
X122749000Y-113968339D01*
X122749000Y-113131661D01*
X122753465Y-113086323D01*
X122764898Y-113048636D01*
X122783466Y-113013897D01*
X122808452Y-112983452D01*
X122838897Y-112958466D01*
X122873636Y-112939898D01*
X122911323Y-112928465D01*
X122956661Y-112924000D01*
X124043339Y-112924000D01*
X124088677Y-112928465D01*
X124088677Y-112928465D01*
G37*
G36*
X129088677Y-112928465D02*
X129126364Y-112939898D01*
X129161103Y-112958466D01*
X129191548Y-112983452D01*
X129216534Y-113013897D01*
X129235102Y-113048636D01*
X129246535Y-113086323D01*
X129251000Y-113131661D01*
X129251000Y-113968339D01*
X129246535Y-114013677D01*
X129235102Y-114051364D01*
X129216534Y-114086103D01*
X129191548Y-114116548D01*
X129161103Y-114141534D01*
X129126364Y-114160102D01*
X129088677Y-114171535D01*
X129043339Y-114176000D01*
X127956661Y-114176000D01*
X127911323Y-114171535D01*
X127873636Y-114160102D01*
X127838897Y-114141534D01*
X127808452Y-114116548D01*
X127783466Y-114086103D01*
X127764898Y-114051364D01*
X127753465Y-114013677D01*
X127749000Y-113968339D01*
X127749000Y-113131661D01*
X127753465Y-113086323D01*
X127764898Y-113048636D01*
X127783466Y-113013897D01*
X127808452Y-112983452D01*
X127838897Y-112958466D01*
X127873636Y-112939898D01*
X127911323Y-112928465D01*
X127956661Y-112924000D01*
X129043339Y-112924000D01*
X129088677Y-112928465D01*
X129088677Y-112928465D01*
G37*
G36*
X131588677Y-112928465D02*
X131626364Y-112939898D01*
X131661103Y-112958466D01*
X131691548Y-112983452D01*
X131716534Y-113013897D01*
X131735102Y-113048636D01*
X131746535Y-113086323D01*
X131751000Y-113131661D01*
X131751000Y-113968339D01*
X131746535Y-114013677D01*
X131735102Y-114051364D01*
X131716534Y-114086103D01*
X131691548Y-114116548D01*
X131661103Y-114141534D01*
X131626364Y-114160102D01*
X131588677Y-114171535D01*
X131543339Y-114176000D01*
X130456661Y-114176000D01*
X130411323Y-114171535D01*
X130373636Y-114160102D01*
X130338897Y-114141534D01*
X130308452Y-114116548D01*
X130283466Y-114086103D01*
X130264898Y-114051364D01*
X130253465Y-114013677D01*
X130249000Y-113968339D01*
X130249000Y-113131661D01*
X130253465Y-113086323D01*
X130264898Y-113048636D01*
X130283466Y-113013897D01*
X130308452Y-112983452D01*
X130338897Y-112958466D01*
X130373636Y-112939898D01*
X130411323Y-112928465D01*
X130456661Y-112924000D01*
X131543339Y-112924000D01*
X131588677Y-112928465D01*
X131588677Y-112928465D01*
G37*
G36*
X126588677Y-112903465D02*
X126626364Y-112914898D01*
X126661103Y-112933466D01*
X126691548Y-112958452D01*
X126716534Y-112988897D01*
X126735102Y-113023636D01*
X126746535Y-113061323D01*
X126751000Y-113106661D01*
X126751000Y-113943339D01*
X126746535Y-113988677D01*
X126735102Y-114026364D01*
X126716534Y-114061103D01*
X126691548Y-114091548D01*
X126661103Y-114116534D01*
X126626364Y-114135102D01*
X126588677Y-114146535D01*
X126543339Y-114151000D01*
X125456661Y-114151000D01*
X125411323Y-114146535D01*
X125373636Y-114135102D01*
X125338897Y-114116534D01*
X125308452Y-114091548D01*
X125283466Y-114061103D01*
X125264898Y-114026364D01*
X125253465Y-113988677D01*
X125249000Y-113943339D01*
X125249000Y-113106661D01*
X125253465Y-113061323D01*
X125264898Y-113023636D01*
X125283466Y-112988897D01*
X125308452Y-112958452D01*
X125338897Y-112933466D01*
X125373636Y-112914898D01*
X125411323Y-112903465D01*
X125456661Y-112899000D01*
X126543339Y-112899000D01*
X126588677Y-112903465D01*
X126588677Y-112903465D01*
G37*
G36*
X139088677Y-112903465D02*
X139126364Y-112914898D01*
X139161103Y-112933466D01*
X139191548Y-112958452D01*
X139216534Y-112988897D01*
X139235102Y-113023636D01*
X139246535Y-113061323D01*
X139251000Y-113106661D01*
X139251000Y-113943339D01*
X139246535Y-113988677D01*
X139235102Y-114026364D01*
X139216534Y-114061103D01*
X139191548Y-114091548D01*
X139161103Y-114116534D01*
X139126364Y-114135102D01*
X139088677Y-114146535D01*
X139043339Y-114151000D01*
X137956661Y-114151000D01*
X137911323Y-114146535D01*
X137873636Y-114135102D01*
X137838897Y-114116534D01*
X137808452Y-114091548D01*
X137783466Y-114061103D01*
X137764898Y-114026364D01*
X137753465Y-113988677D01*
X137749000Y-113943339D01*
X137749000Y-113106661D01*
X137753465Y-113061323D01*
X137764898Y-113023636D01*
X137783466Y-112988897D01*
X137808452Y-112958452D01*
X137838897Y-112933466D01*
X137873636Y-112914898D01*
X137911323Y-112903465D01*
X137956661Y-112899000D01*
X139043339Y-112899000D01*
X139088677Y-112903465D01*
X139088677Y-112903465D01*
G37*
G36*
X121588677Y-112903465D02*
X121626364Y-112914898D01*
X121661103Y-112933466D01*
X121691548Y-112958452D01*
X121716534Y-112988897D01*
X121735102Y-113023636D01*
X121746535Y-113061323D01*
X121751000Y-113106661D01*
X121751000Y-113943339D01*
X121746535Y-113988677D01*
X121735102Y-114026364D01*
X121716534Y-114061103D01*
X121691548Y-114091548D01*
X121661103Y-114116534D01*
X121626364Y-114135102D01*
X121588677Y-114146535D01*
X121543339Y-114151000D01*
X120456661Y-114151000D01*
X120411323Y-114146535D01*
X120373636Y-114135102D01*
X120338897Y-114116534D01*
X120308452Y-114091548D01*
X120283466Y-114061103D01*
X120264898Y-114026364D01*
X120253465Y-113988677D01*
X120249000Y-113943339D01*
X120249000Y-113106661D01*
X120253465Y-113061323D01*
X120264898Y-113023636D01*
X120283466Y-112988897D01*
X120308452Y-112958452D01*
X120338897Y-112933466D01*
X120373636Y-112914898D01*
X120411323Y-112903465D01*
X120456661Y-112899000D01*
X121543339Y-112899000D01*
X121588677Y-112903465D01*
X121588677Y-112903465D01*
G37*
G36*
X134088677Y-112903465D02*
X134126364Y-112914898D01*
X134161103Y-112933466D01*
X134191548Y-112958452D01*
X134216534Y-112988897D01*
X134235102Y-113023636D01*
X134246535Y-113061323D01*
X134251000Y-113106661D01*
X134251000Y-113943339D01*
X134246535Y-113988677D01*
X134235102Y-114026364D01*
X134216534Y-114061103D01*
X134191548Y-114091548D01*
X134161103Y-114116534D01*
X134126364Y-114135102D01*
X134088677Y-114146535D01*
X134043339Y-114151000D01*
X132956661Y-114151000D01*
X132911323Y-114146535D01*
X132873636Y-114135102D01*
X132838897Y-114116534D01*
X132808452Y-114091548D01*
X132783466Y-114061103D01*
X132764898Y-114026364D01*
X132753465Y-113988677D01*
X132749000Y-113943339D01*
X132749000Y-113106661D01*
X132753465Y-113061323D01*
X132764898Y-113023636D01*
X132783466Y-112988897D01*
X132808452Y-112958452D01*
X132838897Y-112933466D01*
X132873636Y-112914898D01*
X132911323Y-112903465D01*
X132956661Y-112899000D01*
X134043339Y-112899000D01*
X134088677Y-112903465D01*
X134088677Y-112903465D01*
G37*
G36*
X136588677Y-112878465D02*
X136626364Y-112889898D01*
X136661103Y-112908466D01*
X136691548Y-112933452D01*
X136716534Y-112963897D01*
X136735102Y-112998636D01*
X136746535Y-113036323D01*
X136751000Y-113081661D01*
X136751000Y-113918339D01*
X136746535Y-113963677D01*
X136735102Y-114001364D01*
X136716534Y-114036103D01*
X136691548Y-114066548D01*
X136661103Y-114091534D01*
X136626364Y-114110102D01*
X136588677Y-114121535D01*
X136543339Y-114126000D01*
X135456661Y-114126000D01*
X135411323Y-114121535D01*
X135373636Y-114110102D01*
X135338897Y-114091534D01*
X135308452Y-114066548D01*
X135283466Y-114036103D01*
X135264898Y-114001364D01*
X135253465Y-113963677D01*
X135249000Y-113918339D01*
X135249000Y-113081661D01*
X135253465Y-113036323D01*
X135264898Y-112998636D01*
X135283466Y-112963897D01*
X135308452Y-112933452D01*
X135338897Y-112908466D01*
X135373636Y-112889898D01*
X135411323Y-112878465D01*
X135456661Y-112874000D01*
X136543339Y-112874000D01*
X136588677Y-112878465D01*
X136588677Y-112878465D01*
G37*
G36*
X115501000Y-114001000D02*
X114599000Y-114001000D01*
X114599000Y-112999000D01*
X115501000Y-112999000D01*
X115501000Y-114001000D01*
X115501000Y-114001000D01*
G37*
G36*
X117401000Y-114001000D02*
X116499000Y-114001000D01*
X116499000Y-112999000D01*
X117401000Y-112999000D01*
X117401000Y-114001000D01*
X117401000Y-114001000D01*
G37*
G36*
X158626000Y-113256000D02*
X156974000Y-113256000D01*
X156974000Y-112554000D01*
X158626000Y-112554000D01*
X158626000Y-113256000D01*
X158626000Y-113256000D01*
G37*
G36*
X164026000Y-113256000D02*
X162374000Y-113256000D01*
X162374000Y-112554000D01*
X164026000Y-112554000D01*
X164026000Y-113256000D01*
X164026000Y-113256000D01*
G37*
G36*
X90151000Y-113101000D02*
X88849000Y-113101000D01*
X88849000Y-112099000D01*
X90151000Y-112099000D01*
X90151000Y-113101000D01*
X90151000Y-113101000D01*
G37*
G36*
X178688677Y-111503465D02*
X178726364Y-111514898D01*
X178761103Y-111533466D01*
X178791548Y-111558452D01*
X178816534Y-111588897D01*
X178835102Y-111623636D01*
X178846535Y-111661323D01*
X178851000Y-111706661D01*
X178851000Y-112793339D01*
X178846535Y-112838677D01*
X178835102Y-112876364D01*
X178816534Y-112911103D01*
X178791548Y-112941548D01*
X178761103Y-112966534D01*
X178726364Y-112985102D01*
X178688677Y-112996535D01*
X178643339Y-113001000D01*
X177806661Y-113001000D01*
X177761323Y-112996535D01*
X177723636Y-112985102D01*
X177688897Y-112966534D01*
X177658452Y-112941548D01*
X177633466Y-112911103D01*
X177614898Y-112876364D01*
X177603465Y-112838677D01*
X177599000Y-112793339D01*
X177599000Y-111706661D01*
X177603465Y-111661323D01*
X177614898Y-111623636D01*
X177633466Y-111588897D01*
X177658452Y-111558452D01*
X177688897Y-111533466D01*
X177723636Y-111514898D01*
X177761323Y-111503465D01*
X177806661Y-111499000D01*
X178643339Y-111499000D01*
X178688677Y-111503465D01*
X178688677Y-111503465D01*
G37*
G36*
X180738677Y-111503465D02*
X180776364Y-111514898D01*
X180811103Y-111533466D01*
X180841548Y-111558452D01*
X180866534Y-111588897D01*
X180885102Y-111623636D01*
X180896535Y-111661323D01*
X180901000Y-111706661D01*
X180901000Y-112793339D01*
X180896535Y-112838677D01*
X180885102Y-112876364D01*
X180866534Y-112911103D01*
X180841548Y-112941548D01*
X180811103Y-112966534D01*
X180776364Y-112985102D01*
X180738677Y-112996535D01*
X180693339Y-113001000D01*
X179856661Y-113001000D01*
X179811323Y-112996535D01*
X179773636Y-112985102D01*
X179738897Y-112966534D01*
X179708452Y-112941548D01*
X179683466Y-112911103D01*
X179664898Y-112876364D01*
X179653465Y-112838677D01*
X179649000Y-112793339D01*
X179649000Y-111706661D01*
X179653465Y-111661323D01*
X179664898Y-111623636D01*
X179683466Y-111588897D01*
X179708452Y-111558452D01*
X179738897Y-111533466D01*
X179773636Y-111514898D01*
X179811323Y-111503465D01*
X179856661Y-111499000D01*
X180693339Y-111499000D01*
X180738677Y-111503465D01*
X180738677Y-111503465D01*
G37*
G36*
X190763677Y-111253465D02*
X190801364Y-111264898D01*
X190836103Y-111283466D01*
X190866548Y-111308452D01*
X190891534Y-111338897D01*
X190910102Y-111373636D01*
X190921535Y-111411323D01*
X190926000Y-111456661D01*
X190926000Y-112543339D01*
X190921535Y-112588677D01*
X190910102Y-112626364D01*
X190891534Y-112661103D01*
X190866548Y-112691548D01*
X190836103Y-112716534D01*
X190801364Y-112735102D01*
X190763677Y-112746535D01*
X190718339Y-112751000D01*
X189881661Y-112751000D01*
X189836323Y-112746535D01*
X189798636Y-112735102D01*
X189763897Y-112716534D01*
X189733452Y-112691548D01*
X189708466Y-112661103D01*
X189689898Y-112626364D01*
X189678465Y-112588677D01*
X189674000Y-112543339D01*
X189674000Y-111456661D01*
X189678465Y-111411323D01*
X189689898Y-111373636D01*
X189708466Y-111338897D01*
X189733452Y-111308452D01*
X189763897Y-111283466D01*
X189798636Y-111264898D01*
X189836323Y-111253465D01*
X189881661Y-111249000D01*
X190718339Y-111249000D01*
X190763677Y-111253465D01*
X190763677Y-111253465D01*
G37*
G36*
X188713677Y-111253465D02*
X188751364Y-111264898D01*
X188786103Y-111283466D01*
X188816548Y-111308452D01*
X188841534Y-111338897D01*
X188860102Y-111373636D01*
X188871535Y-111411323D01*
X188876000Y-111456661D01*
X188876000Y-112543339D01*
X188871535Y-112588677D01*
X188860102Y-112626364D01*
X188841534Y-112661103D01*
X188816548Y-112691548D01*
X188786103Y-112716534D01*
X188751364Y-112735102D01*
X188713677Y-112746535D01*
X188668339Y-112751000D01*
X187831661Y-112751000D01*
X187786323Y-112746535D01*
X187748636Y-112735102D01*
X187713897Y-112716534D01*
X187683452Y-112691548D01*
X187658466Y-112661103D01*
X187639898Y-112626364D01*
X187628465Y-112588677D01*
X187624000Y-112543339D01*
X187624000Y-111456661D01*
X187628465Y-111411323D01*
X187639898Y-111373636D01*
X187658466Y-111338897D01*
X187683452Y-111308452D01*
X187713897Y-111283466D01*
X187748636Y-111264898D01*
X187786323Y-111253465D01*
X187831661Y-111249000D01*
X188668339Y-111249000D01*
X188713677Y-111253465D01*
X188713677Y-111253465D01*
G37*
G36*
X172306565Y-110239389D02*
X172497834Y-110318615D01*
X172669976Y-110433637D01*
X172816363Y-110580024D01*
X172931385Y-110752166D01*
X173010611Y-110943435D01*
X173051000Y-111146484D01*
X173051000Y-111353516D01*
X173010611Y-111556565D01*
X172931385Y-111747834D01*
X172816363Y-111919976D01*
X172669976Y-112066363D01*
X172497834Y-112181385D01*
X172306565Y-112260611D01*
X172103516Y-112301000D01*
X171896484Y-112301000D01*
X171693435Y-112260611D01*
X171502166Y-112181385D01*
X171330024Y-112066363D01*
X171183637Y-111919976D01*
X171068615Y-111747834D01*
X170989389Y-111556565D01*
X170949000Y-111353516D01*
X170949000Y-111146484D01*
X170989389Y-110943435D01*
X171068615Y-110752166D01*
X171183637Y-110580024D01*
X171330024Y-110433637D01*
X171502166Y-110318615D01*
X171693435Y-110239389D01*
X171896484Y-110199000D01*
X172103516Y-110199000D01*
X172306565Y-110239389D01*
X172306565Y-110239389D01*
G37*
G36*
X131588677Y-110878465D02*
X131626364Y-110889898D01*
X131661103Y-110908466D01*
X131691548Y-110933452D01*
X131716534Y-110963897D01*
X131735102Y-110998636D01*
X131746535Y-111036323D01*
X131751000Y-111081661D01*
X131751000Y-111918339D01*
X131746535Y-111963677D01*
X131735102Y-112001364D01*
X131716534Y-112036103D01*
X131691548Y-112066548D01*
X131661103Y-112091534D01*
X131626364Y-112110102D01*
X131588677Y-112121535D01*
X131543339Y-112126000D01*
X130456661Y-112126000D01*
X130411323Y-112121535D01*
X130373636Y-112110102D01*
X130338897Y-112091534D01*
X130308452Y-112066548D01*
X130283466Y-112036103D01*
X130264898Y-112001364D01*
X130253465Y-111963677D01*
X130249000Y-111918339D01*
X130249000Y-111081661D01*
X130253465Y-111036323D01*
X130264898Y-110998636D01*
X130283466Y-110963897D01*
X130308452Y-110933452D01*
X130338897Y-110908466D01*
X130373636Y-110889898D01*
X130411323Y-110878465D01*
X130456661Y-110874000D01*
X131543339Y-110874000D01*
X131588677Y-110878465D01*
X131588677Y-110878465D01*
G37*
G36*
X129088677Y-110878465D02*
X129126364Y-110889898D01*
X129161103Y-110908466D01*
X129191548Y-110933452D01*
X129216534Y-110963897D01*
X129235102Y-110998636D01*
X129246535Y-111036323D01*
X129251000Y-111081661D01*
X129251000Y-111918339D01*
X129246535Y-111963677D01*
X129235102Y-112001364D01*
X129216534Y-112036103D01*
X129191548Y-112066548D01*
X129161103Y-112091534D01*
X129126364Y-112110102D01*
X129088677Y-112121535D01*
X129043339Y-112126000D01*
X127956661Y-112126000D01*
X127911323Y-112121535D01*
X127873636Y-112110102D01*
X127838897Y-112091534D01*
X127808452Y-112066548D01*
X127783466Y-112036103D01*
X127764898Y-112001364D01*
X127753465Y-111963677D01*
X127749000Y-111918339D01*
X127749000Y-111081661D01*
X127753465Y-111036323D01*
X127764898Y-110998636D01*
X127783466Y-110963897D01*
X127808452Y-110933452D01*
X127838897Y-110908466D01*
X127873636Y-110889898D01*
X127911323Y-110878465D01*
X127956661Y-110874000D01*
X129043339Y-110874000D01*
X129088677Y-110878465D01*
X129088677Y-110878465D01*
G37*
G36*
X124088677Y-110878465D02*
X124126364Y-110889898D01*
X124161103Y-110908466D01*
X124191548Y-110933452D01*
X124216534Y-110963897D01*
X124235102Y-110998636D01*
X124246535Y-111036323D01*
X124251000Y-111081661D01*
X124251000Y-111918339D01*
X124246535Y-111963677D01*
X124235102Y-112001364D01*
X124216534Y-112036103D01*
X124191548Y-112066548D01*
X124161103Y-112091534D01*
X124126364Y-112110102D01*
X124088677Y-112121535D01*
X124043339Y-112126000D01*
X122956661Y-112126000D01*
X122911323Y-112121535D01*
X122873636Y-112110102D01*
X122838897Y-112091534D01*
X122808452Y-112066548D01*
X122783466Y-112036103D01*
X122764898Y-112001364D01*
X122753465Y-111963677D01*
X122749000Y-111918339D01*
X122749000Y-111081661D01*
X122753465Y-111036323D01*
X122764898Y-110998636D01*
X122783466Y-110963897D01*
X122808452Y-110933452D01*
X122838897Y-110908466D01*
X122873636Y-110889898D01*
X122911323Y-110878465D01*
X122956661Y-110874000D01*
X124043339Y-110874000D01*
X124088677Y-110878465D01*
X124088677Y-110878465D01*
G37*
G36*
X139088677Y-110853465D02*
X139126364Y-110864898D01*
X139161103Y-110883466D01*
X139191548Y-110908452D01*
X139216534Y-110938897D01*
X139235102Y-110973636D01*
X139246535Y-111011323D01*
X139251000Y-111056661D01*
X139251000Y-111893339D01*
X139246535Y-111938677D01*
X139235102Y-111976364D01*
X139216534Y-112011103D01*
X139191548Y-112041548D01*
X139161103Y-112066534D01*
X139126364Y-112085102D01*
X139088677Y-112096535D01*
X139043339Y-112101000D01*
X137956661Y-112101000D01*
X137911323Y-112096535D01*
X137873636Y-112085102D01*
X137838897Y-112066534D01*
X137808452Y-112041548D01*
X137783466Y-112011103D01*
X137764898Y-111976364D01*
X137753465Y-111938677D01*
X137749000Y-111893339D01*
X137749000Y-111056661D01*
X137753465Y-111011323D01*
X137764898Y-110973636D01*
X137783466Y-110938897D01*
X137808452Y-110908452D01*
X137838897Y-110883466D01*
X137873636Y-110864898D01*
X137911323Y-110853465D01*
X137956661Y-110849000D01*
X139043339Y-110849000D01*
X139088677Y-110853465D01*
X139088677Y-110853465D01*
G37*
G36*
X126588677Y-110853465D02*
X126626364Y-110864898D01*
X126661103Y-110883466D01*
X126691548Y-110908452D01*
X126716534Y-110938897D01*
X126735102Y-110973636D01*
X126746535Y-111011323D01*
X126751000Y-111056661D01*
X126751000Y-111893339D01*
X126746535Y-111938677D01*
X126735102Y-111976364D01*
X126716534Y-112011103D01*
X126691548Y-112041548D01*
X126661103Y-112066534D01*
X126626364Y-112085102D01*
X126588677Y-112096535D01*
X126543339Y-112101000D01*
X125456661Y-112101000D01*
X125411323Y-112096535D01*
X125373636Y-112085102D01*
X125338897Y-112066534D01*
X125308452Y-112041548D01*
X125283466Y-112011103D01*
X125264898Y-111976364D01*
X125253465Y-111938677D01*
X125249000Y-111893339D01*
X125249000Y-111056661D01*
X125253465Y-111011323D01*
X125264898Y-110973636D01*
X125283466Y-110938897D01*
X125308452Y-110908452D01*
X125338897Y-110883466D01*
X125373636Y-110864898D01*
X125411323Y-110853465D01*
X125456661Y-110849000D01*
X126543339Y-110849000D01*
X126588677Y-110853465D01*
X126588677Y-110853465D01*
G37*
G36*
X134088677Y-110853465D02*
X134126364Y-110864898D01*
X134161103Y-110883466D01*
X134191548Y-110908452D01*
X134216534Y-110938897D01*
X134235102Y-110973636D01*
X134246535Y-111011323D01*
X134251000Y-111056661D01*
X134251000Y-111893339D01*
X134246535Y-111938677D01*
X134235102Y-111976364D01*
X134216534Y-112011103D01*
X134191548Y-112041548D01*
X134161103Y-112066534D01*
X134126364Y-112085102D01*
X134088677Y-112096535D01*
X134043339Y-112101000D01*
X132956661Y-112101000D01*
X132911323Y-112096535D01*
X132873636Y-112085102D01*
X132838897Y-112066534D01*
X132808452Y-112041548D01*
X132783466Y-112011103D01*
X132764898Y-111976364D01*
X132753465Y-111938677D01*
X132749000Y-111893339D01*
X132749000Y-111056661D01*
X132753465Y-111011323D01*
X132764898Y-110973636D01*
X132783466Y-110938897D01*
X132808452Y-110908452D01*
X132838897Y-110883466D01*
X132873636Y-110864898D01*
X132911323Y-110853465D01*
X132956661Y-110849000D01*
X134043339Y-110849000D01*
X134088677Y-110853465D01*
X134088677Y-110853465D01*
G37*
G36*
X121588677Y-110853465D02*
X121626364Y-110864898D01*
X121661103Y-110883466D01*
X121691548Y-110908452D01*
X121716534Y-110938897D01*
X121735102Y-110973636D01*
X121746535Y-111011323D01*
X121751000Y-111056661D01*
X121751000Y-111893339D01*
X121746535Y-111938677D01*
X121735102Y-111976364D01*
X121716534Y-112011103D01*
X121691548Y-112041548D01*
X121661103Y-112066534D01*
X121626364Y-112085102D01*
X121588677Y-112096535D01*
X121543339Y-112101000D01*
X120456661Y-112101000D01*
X120411323Y-112096535D01*
X120373636Y-112085102D01*
X120338897Y-112066534D01*
X120308452Y-112041548D01*
X120283466Y-112011103D01*
X120264898Y-111976364D01*
X120253465Y-111938677D01*
X120249000Y-111893339D01*
X120249000Y-111056661D01*
X120253465Y-111011323D01*
X120264898Y-110973636D01*
X120283466Y-110938897D01*
X120308452Y-110908452D01*
X120338897Y-110883466D01*
X120373636Y-110864898D01*
X120411323Y-110853465D01*
X120456661Y-110849000D01*
X121543339Y-110849000D01*
X121588677Y-110853465D01*
X121588677Y-110853465D01*
G37*
G36*
X136588677Y-110828465D02*
X136626364Y-110839898D01*
X136661103Y-110858466D01*
X136691548Y-110883452D01*
X136716534Y-110913897D01*
X136735102Y-110948636D01*
X136746535Y-110986323D01*
X136751000Y-111031661D01*
X136751000Y-111868339D01*
X136746535Y-111913677D01*
X136735102Y-111951364D01*
X136716534Y-111986103D01*
X136691548Y-112016548D01*
X136661103Y-112041534D01*
X136626364Y-112060102D01*
X136588677Y-112071535D01*
X136543339Y-112076000D01*
X135456661Y-112076000D01*
X135411323Y-112071535D01*
X135373636Y-112060102D01*
X135338897Y-112041534D01*
X135308452Y-112016548D01*
X135283466Y-111986103D01*
X135264898Y-111951364D01*
X135253465Y-111913677D01*
X135249000Y-111868339D01*
X135249000Y-111031661D01*
X135253465Y-110986323D01*
X135264898Y-110948636D01*
X135283466Y-110913897D01*
X135308452Y-110883452D01*
X135338897Y-110858466D01*
X135373636Y-110839898D01*
X135411323Y-110828465D01*
X135456661Y-110824000D01*
X136543339Y-110824000D01*
X136588677Y-110828465D01*
X136588677Y-110828465D01*
G37*
G36*
X116451000Y-112001000D02*
X115549000Y-112001000D01*
X115549000Y-110999000D01*
X116451000Y-110999000D01*
X116451000Y-112001000D01*
X116451000Y-112001000D01*
G37*
G36*
X158626000Y-111986000D02*
X156974000Y-111986000D01*
X156974000Y-111284000D01*
X158626000Y-111284000D01*
X158626000Y-111986000D01*
X158626000Y-111986000D01*
G37*
G36*
X164026000Y-111986000D02*
X162374000Y-111986000D01*
X162374000Y-111284000D01*
X164026000Y-111284000D01*
X164026000Y-111986000D01*
X164026000Y-111986000D01*
G37*
G36*
X78551000Y-111801000D02*
X77449000Y-111801000D01*
X77449000Y-108499000D01*
X78551000Y-108499000D01*
X78551000Y-111801000D01*
X78551000Y-111801000D01*
G37*
G36*
X82551000Y-111801000D02*
X81449000Y-111801000D01*
X81449000Y-108499000D01*
X82551000Y-108499000D01*
X82551000Y-111801000D01*
X82551000Y-111801000D01*
G37*
G36*
X94056565Y-109739389D02*
X94247834Y-109818615D01*
X94419976Y-109933637D01*
X94566363Y-110080024D01*
X94681385Y-110252166D01*
X94760611Y-110443435D01*
X94801000Y-110646484D01*
X94801000Y-110853516D01*
X94760611Y-111056565D01*
X94681385Y-111247834D01*
X94566363Y-111419976D01*
X94419976Y-111566363D01*
X94247834Y-111681385D01*
X94056565Y-111760611D01*
X93853516Y-111801000D01*
X93646484Y-111801000D01*
X93443435Y-111760611D01*
X93252166Y-111681385D01*
X93080024Y-111566363D01*
X92933637Y-111419976D01*
X92818615Y-111247834D01*
X92739389Y-111056565D01*
X92699000Y-110853516D01*
X92699000Y-110646484D01*
X92739389Y-110443435D01*
X92818615Y-110252166D01*
X92933637Y-110080024D01*
X93080024Y-109933637D01*
X93252166Y-109818615D01*
X93443435Y-109739389D01*
X93646484Y-109699000D01*
X93853516Y-109699000D01*
X94056565Y-109739389D01*
X94056565Y-109739389D01*
G37*
G36*
X199938677Y-109753465D02*
X199976364Y-109764898D01*
X200011103Y-109783466D01*
X200041548Y-109808452D01*
X200066534Y-109838897D01*
X200085102Y-109873636D01*
X200096535Y-109911323D01*
X200101000Y-109956661D01*
X200101000Y-111043339D01*
X200096535Y-111088677D01*
X200085102Y-111126364D01*
X200066534Y-111161103D01*
X200041548Y-111191548D01*
X200011103Y-111216534D01*
X199976364Y-111235102D01*
X199938677Y-111246535D01*
X199893339Y-111251000D01*
X199056661Y-111251000D01*
X199011323Y-111246535D01*
X198973636Y-111235102D01*
X198938897Y-111216534D01*
X198908452Y-111191548D01*
X198883466Y-111161103D01*
X198864898Y-111126364D01*
X198853465Y-111088677D01*
X198849000Y-111043339D01*
X198849000Y-109956661D01*
X198853465Y-109911323D01*
X198864898Y-109873636D01*
X198883466Y-109838897D01*
X198908452Y-109808452D01*
X198938897Y-109783466D01*
X198973636Y-109764898D01*
X199011323Y-109753465D01*
X199056661Y-109749000D01*
X199893339Y-109749000D01*
X199938677Y-109753465D01*
X199938677Y-109753465D01*
G37*
G36*
X201988677Y-109753465D02*
X202026364Y-109764898D01*
X202061103Y-109783466D01*
X202091548Y-109808452D01*
X202116534Y-109838897D01*
X202135102Y-109873636D01*
X202146535Y-109911323D01*
X202151000Y-109956661D01*
X202151000Y-111043339D01*
X202146535Y-111088677D01*
X202135102Y-111126364D01*
X202116534Y-111161103D01*
X202091548Y-111191548D01*
X202061103Y-111216534D01*
X202026364Y-111235102D01*
X201988677Y-111246535D01*
X201943339Y-111251000D01*
X201106661Y-111251000D01*
X201061323Y-111246535D01*
X201023636Y-111235102D01*
X200988897Y-111216534D01*
X200958452Y-111191548D01*
X200933466Y-111161103D01*
X200914898Y-111126364D01*
X200903465Y-111088677D01*
X200899000Y-111043339D01*
X200899000Y-109956661D01*
X200903465Y-109911323D01*
X200914898Y-109873636D01*
X200933466Y-109838897D01*
X200958452Y-109808452D01*
X200988897Y-109783466D01*
X201023636Y-109764898D01*
X201061323Y-109753465D01*
X201106661Y-109749000D01*
X201943339Y-109749000D01*
X201988677Y-109753465D01*
X201988677Y-109753465D01*
G37*
G36*
X113056565Y-108739389D02*
X113247834Y-108818615D01*
X113419976Y-108933637D01*
X113566363Y-109080024D01*
X113681385Y-109252166D01*
X113760611Y-109443435D01*
X113801000Y-109646484D01*
X113801000Y-109853516D01*
X113760611Y-110056565D01*
X113681385Y-110247834D01*
X113566363Y-110419976D01*
X113419976Y-110566363D01*
X113247834Y-110681385D01*
X113056565Y-110760611D01*
X112853516Y-110801000D01*
X112646484Y-110801000D01*
X112443435Y-110760611D01*
X112252166Y-110681385D01*
X112080024Y-110566363D01*
X111933637Y-110419976D01*
X111818615Y-110247834D01*
X111739389Y-110056565D01*
X111699000Y-109853516D01*
X111699000Y-109646484D01*
X111739389Y-109443435D01*
X111818615Y-109252166D01*
X111933637Y-109080024D01*
X112080024Y-108933637D01*
X112252166Y-108818615D01*
X112443435Y-108739389D01*
X112646484Y-108699000D01*
X112853516Y-108699000D01*
X113056565Y-108739389D01*
X113056565Y-108739389D01*
G37*
G36*
X164026000Y-110716000D02*
X162374000Y-110716000D01*
X162374000Y-110014000D01*
X164026000Y-110014000D01*
X164026000Y-110716000D01*
X164026000Y-110716000D01*
G37*
G36*
X158626000Y-110716000D02*
X156974000Y-110716000D01*
X156974000Y-110014000D01*
X158626000Y-110014000D01*
X158626000Y-110716000D01*
X158626000Y-110716000D01*
G37*
G36*
X85348228Y-108981703D02*
X85503100Y-109045853D01*
X85642481Y-109138985D01*
X85761015Y-109257519D01*
X85854147Y-109396900D01*
X85918297Y-109551772D01*
X85951000Y-109716184D01*
X85951000Y-109883816D01*
X85918297Y-110048228D01*
X85854147Y-110203100D01*
X85761015Y-110342481D01*
X85642481Y-110461015D01*
X85503100Y-110554147D01*
X85348228Y-110618297D01*
X85183816Y-110651000D01*
X85016184Y-110651000D01*
X84851772Y-110618297D01*
X84696900Y-110554147D01*
X84557519Y-110461015D01*
X84438985Y-110342481D01*
X84345853Y-110203100D01*
X84281703Y-110048228D01*
X84249000Y-109883816D01*
X84249000Y-109716184D01*
X84281703Y-109551772D01*
X84345853Y-109396900D01*
X84438985Y-109257519D01*
X84557519Y-109138985D01*
X84696900Y-109045853D01*
X84851772Y-108981703D01*
X85016184Y-108949000D01*
X85183816Y-108949000D01*
X85348228Y-108981703D01*
X85348228Y-108981703D01*
G37*
G36*
X108148228Y-108981703D02*
X108303100Y-109045853D01*
X108442481Y-109138985D01*
X108561015Y-109257519D01*
X108654147Y-109396900D01*
X108718297Y-109551772D01*
X108751000Y-109716184D01*
X108751000Y-109883816D01*
X108718297Y-110048228D01*
X108654147Y-110203100D01*
X108561015Y-110342481D01*
X108442481Y-110461015D01*
X108303100Y-110554147D01*
X108148228Y-110618297D01*
X107983816Y-110651000D01*
X107816184Y-110651000D01*
X107651772Y-110618297D01*
X107496900Y-110554147D01*
X107357519Y-110461015D01*
X107238985Y-110342481D01*
X107145853Y-110203100D01*
X107081703Y-110048228D01*
X107049000Y-109883816D01*
X107049000Y-109716184D01*
X107081703Y-109551772D01*
X107145853Y-109396900D01*
X107238985Y-109257519D01*
X107357519Y-109138985D01*
X107496900Y-109045853D01*
X107651772Y-108981703D01*
X107816184Y-108949000D01*
X107983816Y-108949000D01*
X108148228Y-108981703D01*
X108148228Y-108981703D01*
G37*
G36*
X190738677Y-108253465D02*
X190776364Y-108264898D01*
X190811103Y-108283466D01*
X190841548Y-108308452D01*
X190866534Y-108338897D01*
X190885102Y-108373636D01*
X190896535Y-108411323D01*
X190901000Y-108456661D01*
X190901000Y-109543339D01*
X190896535Y-109588677D01*
X190885102Y-109626364D01*
X190866534Y-109661103D01*
X190841548Y-109691548D01*
X190811103Y-109716534D01*
X190776364Y-109735102D01*
X190738677Y-109746535D01*
X190693339Y-109751000D01*
X189856661Y-109751000D01*
X189811323Y-109746535D01*
X189773636Y-109735102D01*
X189738897Y-109716534D01*
X189708452Y-109691548D01*
X189683466Y-109661103D01*
X189664898Y-109626364D01*
X189653465Y-109588677D01*
X189649000Y-109543339D01*
X189649000Y-108456661D01*
X189653465Y-108411323D01*
X189664898Y-108373636D01*
X189683466Y-108338897D01*
X189708452Y-108308452D01*
X189738897Y-108283466D01*
X189773636Y-108264898D01*
X189811323Y-108253465D01*
X189856661Y-108249000D01*
X190693339Y-108249000D01*
X190738677Y-108253465D01*
X190738677Y-108253465D01*
G37*
G36*
X188688677Y-108253465D02*
X188726364Y-108264898D01*
X188761103Y-108283466D01*
X188791548Y-108308452D01*
X188816534Y-108338897D01*
X188835102Y-108373636D01*
X188846535Y-108411323D01*
X188851000Y-108456661D01*
X188851000Y-109543339D01*
X188846535Y-109588677D01*
X188835102Y-109626364D01*
X188816534Y-109661103D01*
X188791548Y-109691548D01*
X188761103Y-109716534D01*
X188726364Y-109735102D01*
X188688677Y-109746535D01*
X188643339Y-109751000D01*
X187806661Y-109751000D01*
X187761323Y-109746535D01*
X187723636Y-109735102D01*
X187688897Y-109716534D01*
X187658452Y-109691548D01*
X187633466Y-109661103D01*
X187614898Y-109626364D01*
X187603465Y-109588677D01*
X187599000Y-109543339D01*
X187599000Y-108456661D01*
X187603465Y-108411323D01*
X187614898Y-108373636D01*
X187633466Y-108338897D01*
X187658452Y-108308452D01*
X187688897Y-108283466D01*
X187723636Y-108264898D01*
X187761323Y-108253465D01*
X187806661Y-108249000D01*
X188643339Y-108249000D01*
X188688677Y-108253465D01*
X188688677Y-108253465D01*
G37*
G36*
X158626000Y-109446000D02*
X156974000Y-109446000D01*
X156974000Y-108744000D01*
X158626000Y-108744000D01*
X158626000Y-109446000D01*
X158626000Y-109446000D01*
G37*
G36*
X164026000Y-109446000D02*
X162374000Y-109446000D01*
X162374000Y-108744000D01*
X164026000Y-108744000D01*
X164026000Y-109446000D01*
X164026000Y-109446000D01*
G37*
G36*
X169056565Y-106989389D02*
X169247834Y-107068615D01*
X169419976Y-107183637D01*
X169566363Y-107330024D01*
X169681385Y-107502166D01*
X169760611Y-107693435D01*
X169801000Y-107896484D01*
X169801000Y-108103516D01*
X169760611Y-108306565D01*
X169681385Y-108497834D01*
X169566363Y-108669976D01*
X169419976Y-108816363D01*
X169247834Y-108931385D01*
X169056565Y-109010611D01*
X168853516Y-109051000D01*
X168646484Y-109051000D01*
X168443435Y-109010611D01*
X168252166Y-108931385D01*
X168080024Y-108816363D01*
X167933637Y-108669976D01*
X167818615Y-108497834D01*
X167739389Y-108306565D01*
X167699000Y-108103516D01*
X167699000Y-107896484D01*
X167739389Y-107693435D01*
X167818615Y-107502166D01*
X167933637Y-107330024D01*
X168080024Y-107183637D01*
X168252166Y-107068615D01*
X168443435Y-106989389D01*
X168646484Y-106949000D01*
X168853516Y-106949000D01*
X169056565Y-106989389D01*
X169056565Y-106989389D01*
G37*
G36*
X183876000Y-108981000D02*
X182024000Y-108981000D01*
X182024000Y-108329000D01*
X183876000Y-108329000D01*
X183876000Y-108981000D01*
X183876000Y-108981000D01*
G37*
G36*
X176476000Y-108981000D02*
X174624000Y-108981000D01*
X174624000Y-108329000D01*
X176476000Y-108329000D01*
X176476000Y-108981000D01*
X176476000Y-108981000D01*
G37*
G36*
X199938677Y-106753465D02*
X199976364Y-106764898D01*
X200011103Y-106783466D01*
X200041548Y-106808452D01*
X200066534Y-106838897D01*
X200085102Y-106873636D01*
X200096535Y-106911323D01*
X200101000Y-106956661D01*
X200101000Y-108043339D01*
X200096535Y-108088677D01*
X200085102Y-108126364D01*
X200066534Y-108161103D01*
X200041548Y-108191548D01*
X200011103Y-108216534D01*
X199976364Y-108235102D01*
X199938677Y-108246535D01*
X199893339Y-108251000D01*
X199056661Y-108251000D01*
X199011323Y-108246535D01*
X198973636Y-108235102D01*
X198938897Y-108216534D01*
X198908452Y-108191548D01*
X198883466Y-108161103D01*
X198864898Y-108126364D01*
X198853465Y-108088677D01*
X198849000Y-108043339D01*
X198849000Y-106956661D01*
X198853465Y-106911323D01*
X198864898Y-106873636D01*
X198883466Y-106838897D01*
X198908452Y-106808452D01*
X198938897Y-106783466D01*
X198973636Y-106764898D01*
X199011323Y-106753465D01*
X199056661Y-106749000D01*
X199893339Y-106749000D01*
X199938677Y-106753465D01*
X199938677Y-106753465D01*
G37*
G36*
X201988677Y-106753465D02*
X202026364Y-106764898D01*
X202061103Y-106783466D01*
X202091548Y-106808452D01*
X202116534Y-106838897D01*
X202135102Y-106873636D01*
X202146535Y-106911323D01*
X202151000Y-106956661D01*
X202151000Y-108043339D01*
X202146535Y-108088677D01*
X202135102Y-108126364D01*
X202116534Y-108161103D01*
X202091548Y-108191548D01*
X202061103Y-108216534D01*
X202026364Y-108235102D01*
X201988677Y-108246535D01*
X201943339Y-108251000D01*
X201106661Y-108251000D01*
X201061323Y-108246535D01*
X201023636Y-108235102D01*
X200988897Y-108216534D01*
X200958452Y-108191548D01*
X200933466Y-108161103D01*
X200914898Y-108126364D01*
X200903465Y-108088677D01*
X200899000Y-108043339D01*
X200899000Y-106956661D01*
X200903465Y-106911323D01*
X200914898Y-106873636D01*
X200933466Y-106838897D01*
X200958452Y-106808452D01*
X200988897Y-106783466D01*
X201023636Y-106764898D01*
X201061323Y-106753465D01*
X201106661Y-106749000D01*
X201943339Y-106749000D01*
X201988677Y-106753465D01*
X201988677Y-106753465D01*
G37*
G36*
X176476000Y-107711000D02*
X174624000Y-107711000D01*
X174624000Y-107059000D01*
X176476000Y-107059000D01*
X176476000Y-107711000D01*
X176476000Y-107711000D01*
G37*
G36*
X183876000Y-107711000D02*
X182024000Y-107711000D01*
X182024000Y-107059000D01*
X183876000Y-107059000D01*
X183876000Y-107711000D01*
X183876000Y-107711000D01*
G37*
G36*
X190738677Y-105253465D02*
X190776364Y-105264898D01*
X190811103Y-105283466D01*
X190841548Y-105308452D01*
X190866534Y-105338897D01*
X190885102Y-105373636D01*
X190896535Y-105411323D01*
X190901000Y-105456661D01*
X190901000Y-106543339D01*
X190896535Y-106588677D01*
X190885102Y-106626364D01*
X190866534Y-106661103D01*
X190841548Y-106691548D01*
X190811103Y-106716534D01*
X190776364Y-106735102D01*
X190738677Y-106746535D01*
X190693339Y-106751000D01*
X189856661Y-106751000D01*
X189811323Y-106746535D01*
X189773636Y-106735102D01*
X189738897Y-106716534D01*
X189708452Y-106691548D01*
X189683466Y-106661103D01*
X189664898Y-106626364D01*
X189653465Y-106588677D01*
X189649000Y-106543339D01*
X189649000Y-105456661D01*
X189653465Y-105411323D01*
X189664898Y-105373636D01*
X189683466Y-105338897D01*
X189708452Y-105308452D01*
X189738897Y-105283466D01*
X189773636Y-105264898D01*
X189811323Y-105253465D01*
X189856661Y-105249000D01*
X190693339Y-105249000D01*
X190738677Y-105253465D01*
X190738677Y-105253465D01*
G37*
G36*
X188688677Y-105253465D02*
X188726364Y-105264898D01*
X188761103Y-105283466D01*
X188791548Y-105308452D01*
X188816534Y-105338897D01*
X188835102Y-105373636D01*
X188846535Y-105411323D01*
X188851000Y-105456661D01*
X188851000Y-106543339D01*
X188846535Y-106588677D01*
X188835102Y-106626364D01*
X188816534Y-106661103D01*
X188791548Y-106691548D01*
X188761103Y-106716534D01*
X188726364Y-106735102D01*
X188688677Y-106746535D01*
X188643339Y-106751000D01*
X187806661Y-106751000D01*
X187761323Y-106746535D01*
X187723636Y-106735102D01*
X187688897Y-106716534D01*
X187658452Y-106691548D01*
X187633466Y-106661103D01*
X187614898Y-106626364D01*
X187603465Y-106588677D01*
X187599000Y-106543339D01*
X187599000Y-105456661D01*
X187603465Y-105411323D01*
X187614898Y-105373636D01*
X187633466Y-105338897D01*
X187658452Y-105308452D01*
X187688897Y-105283466D01*
X187723636Y-105264898D01*
X187761323Y-105253465D01*
X187806661Y-105249000D01*
X188643339Y-105249000D01*
X188688677Y-105253465D01*
X188688677Y-105253465D01*
G37*
G36*
X176476000Y-106441000D02*
X174624000Y-106441000D01*
X174624000Y-105789000D01*
X176476000Y-105789000D01*
X176476000Y-106441000D01*
X176476000Y-106441000D01*
G37*
G36*
X183876000Y-106441000D02*
X182024000Y-106441000D01*
X182024000Y-105789000D01*
X183876000Y-105789000D01*
X183876000Y-106441000D01*
X183876000Y-106441000D01*
G37*
G36*
X161088677Y-104928465D02*
X161126364Y-104939898D01*
X161161103Y-104958466D01*
X161191548Y-104983452D01*
X161216534Y-105013897D01*
X161235102Y-105048636D01*
X161246535Y-105086323D01*
X161251000Y-105131661D01*
X161251000Y-105968339D01*
X161246535Y-106013677D01*
X161235102Y-106051364D01*
X161216534Y-106086103D01*
X161191548Y-106116548D01*
X161161103Y-106141534D01*
X161126364Y-106160102D01*
X161088677Y-106171535D01*
X161043339Y-106176000D01*
X159956661Y-106176000D01*
X159911323Y-106171535D01*
X159873636Y-106160102D01*
X159838897Y-106141534D01*
X159808452Y-106116548D01*
X159783466Y-106086103D01*
X159764898Y-106051364D01*
X159753465Y-106013677D01*
X159749000Y-105968339D01*
X159749000Y-105131661D01*
X159753465Y-105086323D01*
X159764898Y-105048636D01*
X159783466Y-105013897D01*
X159808452Y-104983452D01*
X159838897Y-104958466D01*
X159873636Y-104939898D01*
X159911323Y-104928465D01*
X159956661Y-104924000D01*
X161043339Y-104924000D01*
X161088677Y-104928465D01*
X161088677Y-104928465D01*
G37*
G36*
X163588677Y-104928465D02*
X163626364Y-104939898D01*
X163661103Y-104958466D01*
X163691548Y-104983452D01*
X163716534Y-105013897D01*
X163735102Y-105048636D01*
X163746535Y-105086323D01*
X163751000Y-105131661D01*
X163751000Y-105968339D01*
X163746535Y-106013677D01*
X163735102Y-106051364D01*
X163716534Y-106086103D01*
X163691548Y-106116548D01*
X163661103Y-106141534D01*
X163626364Y-106160102D01*
X163588677Y-106171535D01*
X163543339Y-106176000D01*
X162456661Y-106176000D01*
X162411323Y-106171535D01*
X162373636Y-106160102D01*
X162338897Y-106141534D01*
X162308452Y-106116548D01*
X162283466Y-106086103D01*
X162264898Y-106051364D01*
X162253465Y-106013677D01*
X162249000Y-105968339D01*
X162249000Y-105131661D01*
X162253465Y-105086323D01*
X162264898Y-105048636D01*
X162283466Y-105013897D01*
X162308452Y-104983452D01*
X162338897Y-104958466D01*
X162373636Y-104939898D01*
X162411323Y-104928465D01*
X162456661Y-104924000D01*
X163543339Y-104924000D01*
X163588677Y-104928465D01*
X163588677Y-104928465D01*
G37*
G36*
X145640591Y-102002602D02*
X141502602Y-106140591D01*
X140511238Y-105149227D01*
X144649227Y-101011238D01*
X145640591Y-102002602D01*
X145640591Y-102002602D01*
G37*
G36*
X139488762Y-105149227D02*
X138497398Y-106140591D01*
X134359409Y-102002602D01*
X135350773Y-101011238D01*
X139488762Y-105149227D01*
X139488762Y-105149227D01*
G37*
G36*
X158588677Y-104878465D02*
X158626364Y-104889898D01*
X158661103Y-104908466D01*
X158691548Y-104933452D01*
X158716534Y-104963897D01*
X158735102Y-104998636D01*
X158746535Y-105036323D01*
X158751000Y-105081661D01*
X158751000Y-105918339D01*
X158746535Y-105963677D01*
X158735102Y-106001364D01*
X158716534Y-106036103D01*
X158691548Y-106066548D01*
X158661103Y-106091534D01*
X158626364Y-106110102D01*
X158588677Y-106121535D01*
X158543339Y-106126000D01*
X157456661Y-106126000D01*
X157411323Y-106121535D01*
X157373636Y-106110102D01*
X157338897Y-106091534D01*
X157308452Y-106066548D01*
X157283466Y-106036103D01*
X157264898Y-106001364D01*
X157253465Y-105963677D01*
X157249000Y-105918339D01*
X157249000Y-105081661D01*
X157253465Y-105036323D01*
X157264898Y-104998636D01*
X157283466Y-104963897D01*
X157308452Y-104933452D01*
X157338897Y-104908466D01*
X157373636Y-104889898D01*
X157411323Y-104878465D01*
X157456661Y-104874000D01*
X158543339Y-104874000D01*
X158588677Y-104878465D01*
X158588677Y-104878465D01*
G37*
G36*
X169056565Y-103489389D02*
X169247834Y-103568615D01*
X169419976Y-103683637D01*
X169566363Y-103830024D01*
X169681385Y-104002166D01*
X169760611Y-104193435D01*
X169801000Y-104396484D01*
X169801000Y-104603516D01*
X169760611Y-104806565D01*
X169681385Y-104997834D01*
X169566363Y-105169976D01*
X169419976Y-105316363D01*
X169247834Y-105431385D01*
X169056565Y-105510611D01*
X168853516Y-105551000D01*
X168646484Y-105551000D01*
X168443435Y-105510611D01*
X168252166Y-105431385D01*
X168080024Y-105316363D01*
X167933637Y-105169976D01*
X167818615Y-104997834D01*
X167739389Y-104806565D01*
X167699000Y-104603516D01*
X167699000Y-104396484D01*
X167739389Y-104193435D01*
X167818615Y-104002166D01*
X167933637Y-103830024D01*
X168080024Y-103683637D01*
X168252166Y-103568615D01*
X168443435Y-103489389D01*
X168646484Y-103449000D01*
X168853516Y-103449000D01*
X169056565Y-103489389D01*
X169056565Y-103489389D01*
G37*
G36*
X183876000Y-105171000D02*
X182024000Y-105171000D01*
X182024000Y-104519000D01*
X183876000Y-104519000D01*
X183876000Y-105171000D01*
X183876000Y-105171000D01*
G37*
G36*
X176476000Y-105171000D02*
X174624000Y-105171000D01*
X174624000Y-104519000D01*
X176476000Y-104519000D01*
X176476000Y-105171000D01*
X176476000Y-105171000D01*
G37*
G36*
X82551000Y-105001000D02*
X81449000Y-105001000D01*
X81449000Y-101699000D01*
X82551000Y-101699000D01*
X82551000Y-105001000D01*
X82551000Y-105001000D01*
G37*
G36*
X78551000Y-105001000D02*
X77449000Y-105001000D01*
X77449000Y-101699000D01*
X78551000Y-101699000D01*
X78551000Y-105001000D01*
X78551000Y-105001000D01*
G37*
G36*
X105088677Y-102903465D02*
X105126364Y-102914898D01*
X105161103Y-102933466D01*
X105191548Y-102958452D01*
X105216534Y-102988897D01*
X105235102Y-103023636D01*
X105246535Y-103061323D01*
X105251000Y-103106661D01*
X105251000Y-103943339D01*
X105246535Y-103988677D01*
X105235102Y-104026364D01*
X105216534Y-104061103D01*
X105191548Y-104091548D01*
X105161103Y-104116534D01*
X105126364Y-104135102D01*
X105088677Y-104146535D01*
X105043339Y-104151000D01*
X103956661Y-104151000D01*
X103911323Y-104146535D01*
X103873636Y-104135102D01*
X103838897Y-104116534D01*
X103808452Y-104091548D01*
X103783466Y-104061103D01*
X103764898Y-104026364D01*
X103753465Y-103988677D01*
X103749000Y-103943339D01*
X103749000Y-103106661D01*
X103753465Y-103061323D01*
X103764898Y-103023636D01*
X103783466Y-102988897D01*
X103808452Y-102958452D01*
X103838897Y-102933466D01*
X103873636Y-102914898D01*
X103911323Y-102903465D01*
X103956661Y-102899000D01*
X105043339Y-102899000D01*
X105088677Y-102903465D01*
X105088677Y-102903465D01*
G37*
G36*
X102588677Y-102903465D02*
X102626364Y-102914898D01*
X102661103Y-102933466D01*
X102691548Y-102958452D01*
X102716534Y-102988897D01*
X102735102Y-103023636D01*
X102746535Y-103061323D01*
X102751000Y-103106661D01*
X102751000Y-103943339D01*
X102746535Y-103988677D01*
X102735102Y-104026364D01*
X102716534Y-104061103D01*
X102691548Y-104091548D01*
X102661103Y-104116534D01*
X102626364Y-104135102D01*
X102588677Y-104146535D01*
X102543339Y-104151000D01*
X101456661Y-104151000D01*
X101411323Y-104146535D01*
X101373636Y-104135102D01*
X101338897Y-104116534D01*
X101308452Y-104091548D01*
X101283466Y-104061103D01*
X101264898Y-104026364D01*
X101253465Y-103988677D01*
X101249000Y-103943339D01*
X101249000Y-103106661D01*
X101253465Y-103061323D01*
X101264898Y-103023636D01*
X101283466Y-102988897D01*
X101308452Y-102958452D01*
X101338897Y-102933466D01*
X101373636Y-102914898D01*
X101411323Y-102903465D01*
X101456661Y-102899000D01*
X102543339Y-102899000D01*
X102588677Y-102903465D01*
X102588677Y-102903465D01*
G37*
G36*
X161088677Y-102878465D02*
X161126364Y-102889898D01*
X161161103Y-102908466D01*
X161191548Y-102933452D01*
X161216534Y-102963897D01*
X161235102Y-102998636D01*
X161246535Y-103036323D01*
X161251000Y-103081661D01*
X161251000Y-103918339D01*
X161246535Y-103963677D01*
X161235102Y-104001364D01*
X161216534Y-104036103D01*
X161191548Y-104066548D01*
X161161103Y-104091534D01*
X161126364Y-104110102D01*
X161088677Y-104121535D01*
X161043339Y-104126000D01*
X159956661Y-104126000D01*
X159911323Y-104121535D01*
X159873636Y-104110102D01*
X159838897Y-104091534D01*
X159808452Y-104066548D01*
X159783466Y-104036103D01*
X159764898Y-104001364D01*
X159753465Y-103963677D01*
X159749000Y-103918339D01*
X159749000Y-103081661D01*
X159753465Y-103036323D01*
X159764898Y-102998636D01*
X159783466Y-102963897D01*
X159808452Y-102933452D01*
X159838897Y-102908466D01*
X159873636Y-102889898D01*
X159911323Y-102878465D01*
X159956661Y-102874000D01*
X161043339Y-102874000D01*
X161088677Y-102878465D01*
X161088677Y-102878465D01*
G37*
G36*
X163588677Y-102878465D02*
X163626364Y-102889898D01*
X163661103Y-102908466D01*
X163691548Y-102933452D01*
X163716534Y-102963897D01*
X163735102Y-102998636D01*
X163746535Y-103036323D01*
X163751000Y-103081661D01*
X163751000Y-103918339D01*
X163746535Y-103963677D01*
X163735102Y-104001364D01*
X163716534Y-104036103D01*
X163691548Y-104066548D01*
X163661103Y-104091534D01*
X163626364Y-104110102D01*
X163588677Y-104121535D01*
X163543339Y-104126000D01*
X162456661Y-104126000D01*
X162411323Y-104121535D01*
X162373636Y-104110102D01*
X162338897Y-104091534D01*
X162308452Y-104066548D01*
X162283466Y-104036103D01*
X162264898Y-104001364D01*
X162253465Y-103963677D01*
X162249000Y-103918339D01*
X162249000Y-103081661D01*
X162253465Y-103036323D01*
X162264898Y-102998636D01*
X162283466Y-102963897D01*
X162308452Y-102933452D01*
X162338897Y-102908466D01*
X162373636Y-102889898D01*
X162411323Y-102878465D01*
X162456661Y-102874000D01*
X163543339Y-102874000D01*
X163588677Y-102878465D01*
X163588677Y-102878465D01*
G37*
G36*
X158588677Y-102828465D02*
X158626364Y-102839898D01*
X158661103Y-102858466D01*
X158691548Y-102883452D01*
X158716534Y-102913897D01*
X158735102Y-102948636D01*
X158746535Y-102986323D01*
X158751000Y-103031661D01*
X158751000Y-103868339D01*
X158746535Y-103913677D01*
X158735102Y-103951364D01*
X158716534Y-103986103D01*
X158691548Y-104016548D01*
X158661103Y-104041534D01*
X158626364Y-104060102D01*
X158588677Y-104071535D01*
X158543339Y-104076000D01*
X157456661Y-104076000D01*
X157411323Y-104071535D01*
X157373636Y-104060102D01*
X157338897Y-104041534D01*
X157308452Y-104016548D01*
X157283466Y-103986103D01*
X157264898Y-103951364D01*
X157253465Y-103913677D01*
X157249000Y-103868339D01*
X157249000Y-103031661D01*
X157253465Y-102986323D01*
X157264898Y-102948636D01*
X157283466Y-102913897D01*
X157308452Y-102883452D01*
X157338897Y-102858466D01*
X157373636Y-102839898D01*
X157411323Y-102828465D01*
X157456661Y-102824000D01*
X158543339Y-102824000D01*
X158588677Y-102828465D01*
X158588677Y-102828465D01*
G37*
G36*
X91338677Y-102653465D02*
X91376364Y-102664898D01*
X91411103Y-102683466D01*
X91441548Y-102708452D01*
X91466534Y-102738897D01*
X91485102Y-102773636D01*
X91496535Y-102811323D01*
X91501000Y-102856661D01*
X91501000Y-103693339D01*
X91496535Y-103738677D01*
X91485102Y-103776364D01*
X91466534Y-103811103D01*
X91441548Y-103841548D01*
X91411103Y-103866534D01*
X91376364Y-103885102D01*
X91338677Y-103896535D01*
X91293339Y-103901000D01*
X90206661Y-103901000D01*
X90161323Y-103896535D01*
X90123636Y-103885102D01*
X90088897Y-103866534D01*
X90058452Y-103841548D01*
X90033466Y-103811103D01*
X90014898Y-103776364D01*
X90003465Y-103738677D01*
X89999000Y-103693339D01*
X89999000Y-102856661D01*
X90003465Y-102811323D01*
X90014898Y-102773636D01*
X90033466Y-102738897D01*
X90058452Y-102708452D01*
X90088897Y-102683466D01*
X90123636Y-102664898D01*
X90161323Y-102653465D01*
X90206661Y-102649000D01*
X91293339Y-102649000D01*
X91338677Y-102653465D01*
X91338677Y-102653465D01*
G37*
G36*
X88588677Y-102653465D02*
X88626364Y-102664898D01*
X88661103Y-102683466D01*
X88691548Y-102708452D01*
X88716534Y-102738897D01*
X88735102Y-102773636D01*
X88746535Y-102811323D01*
X88751000Y-102856661D01*
X88751000Y-103693339D01*
X88746535Y-103738677D01*
X88735102Y-103776364D01*
X88716534Y-103811103D01*
X88691548Y-103841548D01*
X88661103Y-103866534D01*
X88626364Y-103885102D01*
X88588677Y-103896535D01*
X88543339Y-103901000D01*
X87456661Y-103901000D01*
X87411323Y-103896535D01*
X87373636Y-103885102D01*
X87338897Y-103866534D01*
X87308452Y-103841548D01*
X87283466Y-103811103D01*
X87264898Y-103776364D01*
X87253465Y-103738677D01*
X87249000Y-103693339D01*
X87249000Y-102856661D01*
X87253465Y-102811323D01*
X87264898Y-102773636D01*
X87283466Y-102738897D01*
X87308452Y-102708452D01*
X87338897Y-102683466D01*
X87373636Y-102664898D01*
X87411323Y-102653465D01*
X87456661Y-102649000D01*
X88543339Y-102649000D01*
X88588677Y-102653465D01*
X88588677Y-102653465D01*
G37*
G36*
X94501000Y-103701000D02*
X92899000Y-103701000D01*
X92899000Y-101599000D01*
X94501000Y-101599000D01*
X94501000Y-103701000D01*
X94501000Y-103701000D01*
G37*
G36*
X96801000Y-103701000D02*
X95199000Y-103701000D01*
X95199000Y-101599000D01*
X96801000Y-101599000D01*
X96801000Y-103701000D01*
X96801000Y-103701000D01*
G37*
G36*
X99101000Y-103701000D02*
X97499000Y-103701000D01*
X97499000Y-101599000D01*
X99101000Y-101599000D01*
X99101000Y-103701000D01*
X99101000Y-103701000D01*
G37*
G36*
X202751000Y-103501000D02*
X200949000Y-103501000D01*
X200949000Y-101399000D01*
X202751000Y-101399000D01*
X202751000Y-103501000D01*
X202751000Y-103501000D01*
G37*
G36*
X197301000Y-103501000D02*
X195499000Y-103501000D01*
X195499000Y-101399000D01*
X197301000Y-101399000D01*
X197301000Y-103501000D01*
X197301000Y-103501000D01*
G37*
G36*
X85348228Y-101381703D02*
X85503100Y-101445853D01*
X85642481Y-101538985D01*
X85761015Y-101657519D01*
X85854147Y-101796900D01*
X85918297Y-101951772D01*
X85951000Y-102116184D01*
X85951000Y-102283816D01*
X85918297Y-102448228D01*
X85854147Y-102603100D01*
X85761015Y-102742481D01*
X85642481Y-102861015D01*
X85503100Y-102954147D01*
X85348228Y-103018297D01*
X85183816Y-103051000D01*
X85016184Y-103051000D01*
X84851772Y-103018297D01*
X84696900Y-102954147D01*
X84557519Y-102861015D01*
X84438985Y-102742481D01*
X84345853Y-102603100D01*
X84281703Y-102448228D01*
X84249000Y-102283816D01*
X84249000Y-102116184D01*
X84281703Y-101951772D01*
X84345853Y-101796900D01*
X84438985Y-101657519D01*
X84557519Y-101538985D01*
X84696900Y-101445853D01*
X84851772Y-101381703D01*
X85016184Y-101349000D01*
X85183816Y-101349000D01*
X85348228Y-101381703D01*
X85348228Y-101381703D01*
G37*
G36*
X108148228Y-101381703D02*
X108303100Y-101445853D01*
X108442481Y-101538985D01*
X108561015Y-101657519D01*
X108654147Y-101796900D01*
X108718297Y-101951772D01*
X108751000Y-102116184D01*
X108751000Y-102283816D01*
X108718297Y-102448228D01*
X108654147Y-102603100D01*
X108561015Y-102742481D01*
X108442481Y-102861015D01*
X108303100Y-102954147D01*
X108148228Y-103018297D01*
X107983816Y-103051000D01*
X107816184Y-103051000D01*
X107651772Y-103018297D01*
X107496900Y-102954147D01*
X107357519Y-102861015D01*
X107238985Y-102742481D01*
X107145853Y-102603100D01*
X107081703Y-102448228D01*
X107049000Y-102283816D01*
X107049000Y-102116184D01*
X107081703Y-101951772D01*
X107145853Y-101796900D01*
X107238985Y-101657519D01*
X107357519Y-101538985D01*
X107496900Y-101445853D01*
X107651772Y-101381703D01*
X107816184Y-101349000D01*
X107983816Y-101349000D01*
X108148228Y-101381703D01*
X108148228Y-101381703D01*
G37*
G36*
X105088677Y-100853465D02*
X105126364Y-100864898D01*
X105161103Y-100883466D01*
X105191548Y-100908452D01*
X105216534Y-100938897D01*
X105235102Y-100973636D01*
X105246535Y-101011323D01*
X105251000Y-101056661D01*
X105251000Y-101893339D01*
X105246535Y-101938677D01*
X105235102Y-101976364D01*
X105216534Y-102011103D01*
X105191548Y-102041548D01*
X105161103Y-102066534D01*
X105126364Y-102085102D01*
X105088677Y-102096535D01*
X105043339Y-102101000D01*
X103956661Y-102101000D01*
X103911323Y-102096535D01*
X103873636Y-102085102D01*
X103838897Y-102066534D01*
X103808452Y-102041548D01*
X103783466Y-102011103D01*
X103764898Y-101976364D01*
X103753465Y-101938677D01*
X103749000Y-101893339D01*
X103749000Y-101056661D01*
X103753465Y-101011323D01*
X103764898Y-100973636D01*
X103783466Y-100938897D01*
X103808452Y-100908452D01*
X103838897Y-100883466D01*
X103873636Y-100864898D01*
X103911323Y-100853465D01*
X103956661Y-100849000D01*
X105043339Y-100849000D01*
X105088677Y-100853465D01*
X105088677Y-100853465D01*
G37*
G36*
X102588677Y-100853465D02*
X102626364Y-100864898D01*
X102661103Y-100883466D01*
X102691548Y-100908452D01*
X102716534Y-100938897D01*
X102735102Y-100973636D01*
X102746535Y-101011323D01*
X102751000Y-101056661D01*
X102751000Y-101893339D01*
X102746535Y-101938677D01*
X102735102Y-101976364D01*
X102716534Y-102011103D01*
X102691548Y-102041548D01*
X102661103Y-102066534D01*
X102626364Y-102085102D01*
X102588677Y-102096535D01*
X102543339Y-102101000D01*
X101456661Y-102101000D01*
X101411323Y-102096535D01*
X101373636Y-102085102D01*
X101338897Y-102066534D01*
X101308452Y-102041548D01*
X101283466Y-102011103D01*
X101264898Y-101976364D01*
X101253465Y-101938677D01*
X101249000Y-101893339D01*
X101249000Y-101056661D01*
X101253465Y-101011323D01*
X101264898Y-100973636D01*
X101283466Y-100938897D01*
X101308452Y-100908452D01*
X101338897Y-100883466D01*
X101373636Y-100864898D01*
X101411323Y-100853465D01*
X101456661Y-100849000D01*
X102543339Y-100849000D01*
X102588677Y-100853465D01*
X102588677Y-100853465D01*
G37*
G36*
X131652677Y-100733465D02*
X131690364Y-100744898D01*
X131725103Y-100763466D01*
X131755548Y-100788452D01*
X131780534Y-100818897D01*
X131799102Y-100853636D01*
X131810535Y-100891323D01*
X131815000Y-100936661D01*
X131815000Y-101773339D01*
X131810535Y-101818677D01*
X131799102Y-101856364D01*
X131780534Y-101891103D01*
X131755548Y-101921548D01*
X131725103Y-101946534D01*
X131690364Y-101965102D01*
X131652677Y-101976535D01*
X131607339Y-101981000D01*
X130520661Y-101981000D01*
X130475323Y-101976535D01*
X130437636Y-101965102D01*
X130402897Y-101946534D01*
X130372452Y-101921548D01*
X130347466Y-101891103D01*
X130328898Y-101856364D01*
X130317465Y-101818677D01*
X130313000Y-101773339D01*
X130313000Y-100936661D01*
X130317465Y-100891323D01*
X130328898Y-100853636D01*
X130347466Y-100818897D01*
X130372452Y-100788452D01*
X130402897Y-100763466D01*
X130437636Y-100744898D01*
X130475323Y-100733465D01*
X130520661Y-100729000D01*
X131607339Y-100729000D01*
X131652677Y-100733465D01*
X131652677Y-100733465D01*
G37*
G36*
X88588677Y-100603465D02*
X88626364Y-100614898D01*
X88661103Y-100633466D01*
X88691548Y-100658452D01*
X88716534Y-100688897D01*
X88735102Y-100723636D01*
X88746535Y-100761323D01*
X88751000Y-100806661D01*
X88751000Y-101643339D01*
X88746535Y-101688677D01*
X88735102Y-101726364D01*
X88716534Y-101761103D01*
X88691548Y-101791548D01*
X88661103Y-101816534D01*
X88626364Y-101835102D01*
X88588677Y-101846535D01*
X88543339Y-101851000D01*
X87456661Y-101851000D01*
X87411323Y-101846535D01*
X87373636Y-101835102D01*
X87338897Y-101816534D01*
X87308452Y-101791548D01*
X87283466Y-101761103D01*
X87264898Y-101726364D01*
X87253465Y-101688677D01*
X87249000Y-101643339D01*
X87249000Y-100806661D01*
X87253465Y-100761323D01*
X87264898Y-100723636D01*
X87283466Y-100688897D01*
X87308452Y-100658452D01*
X87338897Y-100633466D01*
X87373636Y-100614898D01*
X87411323Y-100603465D01*
X87456661Y-100599000D01*
X88543339Y-100599000D01*
X88588677Y-100603465D01*
X88588677Y-100603465D01*
G37*
G36*
X91338677Y-100603465D02*
X91376364Y-100614898D01*
X91411103Y-100633466D01*
X91441548Y-100658452D01*
X91466534Y-100688897D01*
X91485102Y-100723636D01*
X91496535Y-100761323D01*
X91501000Y-100806661D01*
X91501000Y-101643339D01*
X91496535Y-101688677D01*
X91485102Y-101726364D01*
X91466534Y-101761103D01*
X91441548Y-101791548D01*
X91411103Y-101816534D01*
X91376364Y-101835102D01*
X91338677Y-101846535D01*
X91293339Y-101851000D01*
X90206661Y-101851000D01*
X90161323Y-101846535D01*
X90123636Y-101835102D01*
X90088897Y-101816534D01*
X90058452Y-101791548D01*
X90033466Y-101761103D01*
X90014898Y-101726364D01*
X90003465Y-101688677D01*
X89999000Y-101643339D01*
X89999000Y-100806661D01*
X90003465Y-100761323D01*
X90014898Y-100723636D01*
X90033466Y-100688897D01*
X90058452Y-100658452D01*
X90088897Y-100633466D01*
X90123636Y-100614898D01*
X90161323Y-100603465D01*
X90206661Y-100599000D01*
X91293339Y-100599000D01*
X91338677Y-100603465D01*
X91338677Y-100603465D01*
G37*
G36*
X180306565Y-98739389D02*
X180497834Y-98818615D01*
X180669976Y-98933637D01*
X180816363Y-99080024D01*
X180931385Y-99252166D01*
X181010611Y-99443435D01*
X181051000Y-99646484D01*
X181051000Y-99853516D01*
X181010611Y-100056565D01*
X180931385Y-100247834D01*
X180816363Y-100419976D01*
X180669976Y-100566363D01*
X180497834Y-100681385D01*
X180306565Y-100760611D01*
X180103516Y-100801000D01*
X179896484Y-100801000D01*
X179693435Y-100760611D01*
X179502166Y-100681385D01*
X179330024Y-100566363D01*
X179183637Y-100419976D01*
X179068615Y-100247834D01*
X178989389Y-100056565D01*
X178949000Y-99853516D01*
X178949000Y-99646484D01*
X178989389Y-99443435D01*
X179068615Y-99252166D01*
X179183637Y-99080024D01*
X179330024Y-98933637D01*
X179502166Y-98818615D01*
X179693435Y-98739389D01*
X179896484Y-98699000D01*
X180103516Y-98699000D01*
X180306565Y-98739389D01*
X180306565Y-98739389D01*
G37*
G36*
X188556565Y-98739389D02*
X188747834Y-98818615D01*
X188919976Y-98933637D01*
X189066363Y-99080024D01*
X189181385Y-99252166D01*
X189260611Y-99443435D01*
X189301000Y-99646484D01*
X189301000Y-99853516D01*
X189260611Y-100056565D01*
X189181385Y-100247834D01*
X189066363Y-100419976D01*
X188919976Y-100566363D01*
X188747834Y-100681385D01*
X188556565Y-100760611D01*
X188353516Y-100801000D01*
X188146484Y-100801000D01*
X187943435Y-100760611D01*
X187752166Y-100681385D01*
X187580024Y-100566363D01*
X187433637Y-100419976D01*
X187318615Y-100247834D01*
X187239389Y-100056565D01*
X187199000Y-99853516D01*
X187199000Y-99646484D01*
X187239389Y-99443435D01*
X187318615Y-99252166D01*
X187433637Y-99080024D01*
X187580024Y-98933637D01*
X187752166Y-98818615D01*
X187943435Y-98739389D01*
X188146484Y-98699000D01*
X188353516Y-98699000D01*
X188556565Y-98739389D01*
X188556565Y-98739389D01*
G37*
G36*
X184306565Y-98739389D02*
X184497834Y-98818615D01*
X184669976Y-98933637D01*
X184816363Y-99080024D01*
X184931385Y-99252166D01*
X185010611Y-99443435D01*
X185051000Y-99646484D01*
X185051000Y-99853516D01*
X185010611Y-100056565D01*
X184931385Y-100247834D01*
X184816363Y-100419976D01*
X184669976Y-100566363D01*
X184497834Y-100681385D01*
X184306565Y-100760611D01*
X184103516Y-100801000D01*
X183896484Y-100801000D01*
X183693435Y-100760611D01*
X183502166Y-100681385D01*
X183330024Y-100566363D01*
X183183637Y-100419976D01*
X183068615Y-100247834D01*
X182989389Y-100056565D01*
X182949000Y-99853516D01*
X182949000Y-99646484D01*
X182989389Y-99443435D01*
X183068615Y-99252166D01*
X183183637Y-99080024D01*
X183330024Y-98933637D01*
X183502166Y-98818615D01*
X183693435Y-98739389D01*
X183896484Y-98699000D01*
X184103516Y-98699000D01*
X184306565Y-98739389D01*
X184306565Y-98739389D01*
G37*
G36*
X199160721Y-99670174D02*
X199260995Y-99711709D01*
X199351245Y-99772012D01*
X199427988Y-99848755D01*
X199488291Y-99939005D01*
X199529826Y-100039279D01*
X199551000Y-100145730D01*
X199551000Y-100254270D01*
X199529826Y-100360721D01*
X199488291Y-100460995D01*
X199427988Y-100551245D01*
X199351245Y-100627988D01*
X199260995Y-100688291D01*
X199160721Y-100729826D01*
X199054270Y-100751000D01*
X198945730Y-100751000D01*
X198839279Y-100729826D01*
X198739005Y-100688291D01*
X198648755Y-100627988D01*
X198572012Y-100551245D01*
X198511709Y-100460995D01*
X198470174Y-100360721D01*
X198449000Y-100254270D01*
X198449000Y-100145730D01*
X198470174Y-100039279D01*
X198511709Y-99939005D01*
X198572012Y-99848755D01*
X198648755Y-99772012D01*
X198739005Y-99711709D01*
X198839279Y-99670174D01*
X198945730Y-99649000D01*
X199054270Y-99649000D01*
X199160721Y-99670174D01*
X199160721Y-99670174D01*
G37*
G36*
X78551000Y-100551000D02*
X77449000Y-100551000D01*
X77449000Y-97249000D01*
X78551000Y-97249000D01*
X78551000Y-100551000D01*
X78551000Y-100551000D01*
G37*
G36*
X82551000Y-100551000D02*
X81449000Y-100551000D01*
X81449000Y-97249000D01*
X82551000Y-97249000D01*
X82551000Y-100551000D01*
X82551000Y-100551000D01*
G37*
G36*
X139488762Y-95850773D02*
X135350773Y-99988762D01*
X134359409Y-98997398D01*
X138497398Y-94859409D01*
X139488762Y-95850773D01*
X139488762Y-95850773D01*
G37*
G36*
X145640591Y-98997398D02*
X144649227Y-99988762D01*
X140511238Y-95850773D01*
X141502602Y-94859409D01*
X145640591Y-98997398D01*
X145640591Y-98997398D01*
G37*
G36*
X131652677Y-98683465D02*
X131690364Y-98694898D01*
X131725103Y-98713466D01*
X131755548Y-98738452D01*
X131780534Y-98768897D01*
X131799102Y-98803636D01*
X131810535Y-98841323D01*
X131815000Y-98886661D01*
X131815000Y-99723339D01*
X131810535Y-99768677D01*
X131799102Y-99806364D01*
X131780534Y-99841103D01*
X131755548Y-99871548D01*
X131725103Y-99896534D01*
X131690364Y-99915102D01*
X131652677Y-99926535D01*
X131607339Y-99931000D01*
X130520661Y-99931000D01*
X130475323Y-99926535D01*
X130437636Y-99915102D01*
X130402897Y-99896534D01*
X130372452Y-99871548D01*
X130347466Y-99841103D01*
X130328898Y-99806364D01*
X130317465Y-99768677D01*
X130313000Y-99723339D01*
X130313000Y-98886661D01*
X130317465Y-98841323D01*
X130328898Y-98803636D01*
X130347466Y-98768897D01*
X130372452Y-98738452D01*
X130402897Y-98713466D01*
X130437636Y-98694898D01*
X130475323Y-98683465D01*
X130520661Y-98679000D01*
X131607339Y-98679000D01*
X131652677Y-98683465D01*
X131652677Y-98683465D01*
G37*
G36*
X197351000Y-99901000D02*
X195249000Y-99901000D01*
X195249000Y-96099000D01*
X197351000Y-96099000D01*
X197351000Y-99901000D01*
X197351000Y-99901000D01*
G37*
G36*
X101806565Y-96989389D02*
X101997834Y-97068615D01*
X102169976Y-97183637D01*
X102316363Y-97330024D01*
X102431385Y-97502166D01*
X102510611Y-97693435D01*
X102551000Y-97896484D01*
X102551000Y-98103516D01*
X102510611Y-98306565D01*
X102431385Y-98497834D01*
X102316363Y-98669976D01*
X102169976Y-98816363D01*
X101997834Y-98931385D01*
X101806565Y-99010611D01*
X101603516Y-99051000D01*
X101396484Y-99051000D01*
X101193435Y-99010611D01*
X101002166Y-98931385D01*
X100830024Y-98816363D01*
X100683637Y-98669976D01*
X100568615Y-98497834D01*
X100489389Y-98306565D01*
X100449000Y-98103516D01*
X100449000Y-97896484D01*
X100489389Y-97693435D01*
X100568615Y-97502166D01*
X100683637Y-97330024D01*
X100830024Y-97183637D01*
X101002166Y-97068615D01*
X101193435Y-96989389D01*
X101396484Y-96949000D01*
X101603516Y-96949000D01*
X101806565Y-96989389D01*
X101806565Y-96989389D01*
G37*
G36*
X90056565Y-96739389D02*
X90247834Y-96818615D01*
X90419976Y-96933637D01*
X90566363Y-97080024D01*
X90681385Y-97252166D01*
X90760611Y-97443435D01*
X90801000Y-97646484D01*
X90801000Y-97853516D01*
X90760611Y-98056565D01*
X90681385Y-98247834D01*
X90566363Y-98419976D01*
X90419976Y-98566363D01*
X90247834Y-98681385D01*
X90056565Y-98760611D01*
X89853516Y-98801000D01*
X89646484Y-98801000D01*
X89443435Y-98760611D01*
X89252166Y-98681385D01*
X89080024Y-98566363D01*
X88933637Y-98419976D01*
X88818615Y-98247834D01*
X88739389Y-98056565D01*
X88699000Y-97853516D01*
X88699000Y-97646484D01*
X88739389Y-97443435D01*
X88818615Y-97252166D01*
X88933637Y-97080024D01*
X89080024Y-96933637D01*
X89252166Y-96818615D01*
X89443435Y-96739389D01*
X89646484Y-96699000D01*
X89853516Y-96699000D01*
X90056565Y-96739389D01*
X90056565Y-96739389D01*
G37*
G36*
X106079485Y-95548996D02*
X106079487Y-95548997D01*
X106079488Y-95548997D01*
X106297448Y-95639279D01*
X106316255Y-95647069D01*
X106529342Y-95789449D01*
X106710551Y-95970658D01*
X106852931Y-96183745D01*
X106951004Y-96420515D01*
X107001000Y-96671861D01*
X107001000Y-96928139D01*
X106988817Y-96989389D01*
X106951003Y-97179488D01*
X106888649Y-97330024D01*
X106852931Y-97416255D01*
X106710551Y-97629342D01*
X106529342Y-97810551D01*
X106529339Y-97810553D01*
X106316255Y-97952931D01*
X106079488Y-98051003D01*
X106079487Y-98051003D01*
X106079485Y-98051004D01*
X105828139Y-98101000D01*
X105571861Y-98101000D01*
X105320515Y-98051004D01*
X105320513Y-98051003D01*
X105320512Y-98051003D01*
X105083745Y-97952931D01*
X104870661Y-97810553D01*
X104870658Y-97810551D01*
X104689449Y-97629342D01*
X104547069Y-97416255D01*
X104511351Y-97330024D01*
X104448997Y-97179488D01*
X104411184Y-96989389D01*
X104399000Y-96928139D01*
X104399000Y-96671861D01*
X104448996Y-96420515D01*
X104547069Y-96183745D01*
X104689449Y-95970658D01*
X104870658Y-95789449D01*
X105083745Y-95647069D01*
X105102552Y-95639279D01*
X105320512Y-95548997D01*
X105320513Y-95548997D01*
X105320515Y-95548996D01*
X105571861Y-95499000D01*
X105828139Y-95499000D01*
X106079485Y-95548996D01*
X106079485Y-95548996D01*
G37*
G36*
X97951000Y-97401000D02*
X94049000Y-97401000D01*
X94049000Y-95299000D01*
X97951000Y-95299000D01*
X97951000Y-97401000D01*
X97951000Y-97401000D01*
G37*
G36*
X174231677Y-95150465D02*
X174269364Y-95161898D01*
X174304103Y-95180466D01*
X174334548Y-95205452D01*
X174359534Y-95235897D01*
X174378102Y-95270636D01*
X174389535Y-95308323D01*
X174394000Y-95353661D01*
X174394000Y-96440339D01*
X174389535Y-96485677D01*
X174378102Y-96523364D01*
X174359534Y-96558103D01*
X174334548Y-96588548D01*
X174304103Y-96613534D01*
X174269364Y-96632102D01*
X174231677Y-96643535D01*
X174186339Y-96648000D01*
X173349661Y-96648000D01*
X173304323Y-96643535D01*
X173266636Y-96632102D01*
X173231897Y-96613534D01*
X173201452Y-96588548D01*
X173176466Y-96558103D01*
X173157898Y-96523364D01*
X173146465Y-96485677D01*
X173142000Y-96440339D01*
X173142000Y-95353661D01*
X173146465Y-95308323D01*
X173157898Y-95270636D01*
X173176466Y-95235897D01*
X173201452Y-95205452D01*
X173231897Y-95180466D01*
X173266636Y-95161898D01*
X173304323Y-95150465D01*
X173349661Y-95146000D01*
X174186339Y-95146000D01*
X174231677Y-95150465D01*
X174231677Y-95150465D01*
G37*
G36*
X176281677Y-95150465D02*
X176319364Y-95161898D01*
X176354103Y-95180466D01*
X176384548Y-95205452D01*
X176409534Y-95235897D01*
X176428102Y-95270636D01*
X176439535Y-95308323D01*
X176444000Y-95353661D01*
X176444000Y-96440339D01*
X176439535Y-96485677D01*
X176428102Y-96523364D01*
X176409534Y-96558103D01*
X176384548Y-96588548D01*
X176354103Y-96613534D01*
X176319364Y-96632102D01*
X176281677Y-96643535D01*
X176236339Y-96648000D01*
X175399661Y-96648000D01*
X175354323Y-96643535D01*
X175316636Y-96632102D01*
X175281897Y-96613534D01*
X175251452Y-96588548D01*
X175226466Y-96558103D01*
X175207898Y-96523364D01*
X175196465Y-96485677D01*
X175192000Y-96440339D01*
X175192000Y-95353661D01*
X175196465Y-95308323D01*
X175207898Y-95270636D01*
X175226466Y-95235897D01*
X175251452Y-95205452D01*
X175281897Y-95180466D01*
X175316636Y-95161898D01*
X175354323Y-95150465D01*
X175399661Y-95146000D01*
X176236339Y-95146000D01*
X176281677Y-95150465D01*
X176281677Y-95150465D01*
G37*
G36*
X199160721Y-95270174D02*
X199260995Y-95311709D01*
X199351245Y-95372012D01*
X199427988Y-95448755D01*
X199488291Y-95539005D01*
X199529826Y-95639279D01*
X199551000Y-95745730D01*
X199551000Y-95854270D01*
X199529826Y-95960721D01*
X199488291Y-96060995D01*
X199427988Y-96151245D01*
X199351245Y-96227988D01*
X199260995Y-96288291D01*
X199160721Y-96329826D01*
X199054270Y-96351000D01*
X198945730Y-96351000D01*
X198839279Y-96329826D01*
X198739005Y-96288291D01*
X198648755Y-96227988D01*
X198572012Y-96151245D01*
X198511709Y-96060995D01*
X198470174Y-95960721D01*
X198449000Y-95854270D01*
X198449000Y-95745730D01*
X198470174Y-95639279D01*
X198511709Y-95539005D01*
X198572012Y-95448755D01*
X198648755Y-95372012D01*
X198739005Y-95311709D01*
X198839279Y-95270174D01*
X198945730Y-95249000D01*
X199054270Y-95249000D01*
X199160721Y-95270174D01*
X199160721Y-95270174D01*
G37*
G36*
X118401000Y-95401000D02*
X116599000Y-95401000D01*
X116599000Y-93599000D01*
X118401000Y-93599000D01*
X118401000Y-95401000D01*
X118401000Y-95401000D01*
G37*
G36*
X162016677Y-93233465D02*
X162054364Y-93244898D01*
X162089103Y-93263466D01*
X162119548Y-93288452D01*
X162144534Y-93318897D01*
X162163102Y-93353636D01*
X162174535Y-93391323D01*
X162179000Y-93436661D01*
X162179000Y-94523339D01*
X162174535Y-94568677D01*
X162163102Y-94606364D01*
X162144534Y-94641103D01*
X162119548Y-94671548D01*
X162089103Y-94696534D01*
X162054364Y-94715102D01*
X162016677Y-94726535D01*
X161971339Y-94731000D01*
X161134661Y-94731000D01*
X161089323Y-94726535D01*
X161051636Y-94715102D01*
X161016897Y-94696534D01*
X160986452Y-94671548D01*
X160961466Y-94641103D01*
X160942898Y-94606364D01*
X160931465Y-94568677D01*
X160927000Y-94523339D01*
X160927000Y-93436661D01*
X160931465Y-93391323D01*
X160942898Y-93353636D01*
X160961466Y-93318897D01*
X160986452Y-93288452D01*
X161016897Y-93263466D01*
X161051636Y-93244898D01*
X161089323Y-93233465D01*
X161134661Y-93229000D01*
X161971339Y-93229000D01*
X162016677Y-93233465D01*
X162016677Y-93233465D01*
G37*
G36*
X159966677Y-93233465D02*
X160004364Y-93244898D01*
X160039103Y-93263466D01*
X160069548Y-93288452D01*
X160094534Y-93318897D01*
X160113102Y-93353636D01*
X160124535Y-93391323D01*
X160129000Y-93436661D01*
X160129000Y-94523339D01*
X160124535Y-94568677D01*
X160113102Y-94606364D01*
X160094534Y-94641103D01*
X160069548Y-94671548D01*
X160039103Y-94696534D01*
X160004364Y-94715102D01*
X159966677Y-94726535D01*
X159921339Y-94731000D01*
X159084661Y-94731000D01*
X159039323Y-94726535D01*
X159001636Y-94715102D01*
X158966897Y-94696534D01*
X158936452Y-94671548D01*
X158911466Y-94641103D01*
X158892898Y-94606364D01*
X158881465Y-94568677D01*
X158877000Y-94523339D01*
X158877000Y-93436661D01*
X158881465Y-93391323D01*
X158892898Y-93353636D01*
X158911466Y-93318897D01*
X158936452Y-93288452D01*
X158966897Y-93263466D01*
X159001636Y-93244898D01*
X159039323Y-93233465D01*
X159084661Y-93229000D01*
X159921339Y-93229000D01*
X159966677Y-93233465D01*
X159966677Y-93233465D01*
G37*
G36*
X197301000Y-94601000D02*
X195499000Y-94601000D01*
X195499000Y-92499000D01*
X197301000Y-92499000D01*
X197301000Y-94601000D01*
X197301000Y-94601000D01*
G37*
G36*
X202751000Y-94601000D02*
X200949000Y-94601000D01*
X200949000Y-92499000D01*
X202751000Y-92499000D01*
X202751000Y-94601000D01*
X202751000Y-94601000D01*
G37*
G36*
X174206677Y-92650465D02*
X174244364Y-92661898D01*
X174279103Y-92680466D01*
X174309548Y-92705452D01*
X174334534Y-92735897D01*
X174353102Y-92770636D01*
X174364535Y-92808323D01*
X174369000Y-92853661D01*
X174369000Y-93940339D01*
X174364535Y-93985677D01*
X174353102Y-94023364D01*
X174334534Y-94058103D01*
X174309548Y-94088548D01*
X174279103Y-94113534D01*
X174244364Y-94132102D01*
X174206677Y-94143535D01*
X174161339Y-94148000D01*
X173324661Y-94148000D01*
X173279323Y-94143535D01*
X173241636Y-94132102D01*
X173206897Y-94113534D01*
X173176452Y-94088548D01*
X173151466Y-94058103D01*
X173132898Y-94023364D01*
X173121465Y-93985677D01*
X173117000Y-93940339D01*
X173117000Y-92853661D01*
X173121465Y-92808323D01*
X173132898Y-92770636D01*
X173151466Y-92735897D01*
X173176452Y-92705452D01*
X173206897Y-92680466D01*
X173241636Y-92661898D01*
X173279323Y-92650465D01*
X173324661Y-92646000D01*
X174161339Y-92646000D01*
X174206677Y-92650465D01*
X174206677Y-92650465D01*
G37*
G36*
X176256677Y-92650465D02*
X176294364Y-92661898D01*
X176329103Y-92680466D01*
X176359548Y-92705452D01*
X176384534Y-92735897D01*
X176403102Y-92770636D01*
X176414535Y-92808323D01*
X176419000Y-92853661D01*
X176419000Y-93940339D01*
X176414535Y-93985677D01*
X176403102Y-94023364D01*
X176384534Y-94058103D01*
X176359548Y-94088548D01*
X176329103Y-94113534D01*
X176294364Y-94132102D01*
X176256677Y-94143535D01*
X176211339Y-94148000D01*
X175374661Y-94148000D01*
X175329323Y-94143535D01*
X175291636Y-94132102D01*
X175256897Y-94113534D01*
X175226452Y-94088548D01*
X175201466Y-94058103D01*
X175182898Y-94023364D01*
X175171465Y-93985677D01*
X175167000Y-93940339D01*
X175167000Y-92853661D01*
X175171465Y-92808323D01*
X175182898Y-92770636D01*
X175201466Y-92735897D01*
X175226452Y-92705452D01*
X175256897Y-92680466D01*
X175291636Y-92661898D01*
X175329323Y-92650465D01*
X175374661Y-92646000D01*
X176211339Y-92646000D01*
X176256677Y-92650465D01*
X176256677Y-92650465D01*
G37*
G36*
X82551000Y-93751000D02*
X81449000Y-93751000D01*
X81449000Y-90449000D01*
X82551000Y-90449000D01*
X82551000Y-93751000D01*
X82551000Y-93751000D01*
G37*
G36*
X78551000Y-93751000D02*
X77449000Y-93751000D01*
X77449000Y-90449000D01*
X78551000Y-90449000D01*
X78551000Y-93751000D01*
X78551000Y-93751000D01*
G37*
G36*
X117610442Y-91065518D02*
X117676627Y-91072037D01*
X117789853Y-91106384D01*
X117846467Y-91123557D01*
X117935753Y-91171282D01*
X118002991Y-91207222D01*
X118031089Y-91230282D01*
X118140186Y-91319814D01*
X118203108Y-91396486D01*
X118252778Y-91457009D01*
X118252779Y-91457011D01*
X118336443Y-91613533D01*
X118342076Y-91632102D01*
X118387963Y-91783373D01*
X118405359Y-91960000D01*
X118387963Y-92136627D01*
X118353616Y-92249853D01*
X118336443Y-92306467D01*
X118331153Y-92316363D01*
X118252778Y-92462991D01*
X118223448Y-92498729D01*
X118140186Y-92600186D01*
X118059115Y-92666718D01*
X118002991Y-92712778D01*
X118002989Y-92712779D01*
X117846467Y-92796443D01*
X117807303Y-92808323D01*
X117676627Y-92847963D01*
X117618773Y-92853661D01*
X117544260Y-92861000D01*
X117455740Y-92861000D01*
X117381227Y-92853661D01*
X117323373Y-92847963D01*
X117192697Y-92808323D01*
X117153533Y-92796443D01*
X116997011Y-92712779D01*
X116997009Y-92712778D01*
X116940885Y-92666718D01*
X116859814Y-92600186D01*
X116776552Y-92498729D01*
X116747222Y-92462991D01*
X116668847Y-92316363D01*
X116663557Y-92306467D01*
X116646384Y-92249853D01*
X116612037Y-92136627D01*
X116594641Y-91960000D01*
X116612037Y-91783373D01*
X116657924Y-91632102D01*
X116663557Y-91613533D01*
X116747221Y-91457011D01*
X116747222Y-91457009D01*
X116796892Y-91396486D01*
X116859814Y-91319814D01*
X116968911Y-91230282D01*
X116997009Y-91207222D01*
X117064247Y-91171282D01*
X117153533Y-91123557D01*
X117210147Y-91106384D01*
X117323373Y-91072037D01*
X117389558Y-91065518D01*
X117455740Y-91059000D01*
X117544260Y-91059000D01*
X117610442Y-91065518D01*
X117610442Y-91065518D01*
G37*
G36*
X151463677Y-91253465D02*
X151501364Y-91264898D01*
X151536103Y-91283466D01*
X151566548Y-91308452D01*
X151591534Y-91338897D01*
X151610102Y-91373636D01*
X151621535Y-91411323D01*
X151626000Y-91456661D01*
X151626000Y-92543339D01*
X151621535Y-92588677D01*
X151610102Y-92626364D01*
X151591534Y-92661103D01*
X151566548Y-92691548D01*
X151536103Y-92716534D01*
X151501364Y-92735102D01*
X151463677Y-92746535D01*
X151418339Y-92751000D01*
X150581661Y-92751000D01*
X150536323Y-92746535D01*
X150498636Y-92735102D01*
X150463897Y-92716534D01*
X150433452Y-92691548D01*
X150408466Y-92661103D01*
X150389898Y-92626364D01*
X150378465Y-92588677D01*
X150374000Y-92543339D01*
X150374000Y-91456661D01*
X150378465Y-91411323D01*
X150389898Y-91373636D01*
X150408466Y-91338897D01*
X150433452Y-91308452D01*
X150463897Y-91283466D01*
X150498636Y-91264898D01*
X150536323Y-91253465D01*
X150581661Y-91249000D01*
X151418339Y-91249000D01*
X151463677Y-91253465D01*
X151463677Y-91253465D01*
G37*
G36*
X149413677Y-91253465D02*
X149451364Y-91264898D01*
X149486103Y-91283466D01*
X149516548Y-91308452D01*
X149541534Y-91338897D01*
X149560102Y-91373636D01*
X149571535Y-91411323D01*
X149576000Y-91456661D01*
X149576000Y-92543339D01*
X149571535Y-92588677D01*
X149560102Y-92626364D01*
X149541534Y-92661103D01*
X149516548Y-92691548D01*
X149486103Y-92716534D01*
X149451364Y-92735102D01*
X149413677Y-92746535D01*
X149368339Y-92751000D01*
X148531661Y-92751000D01*
X148486323Y-92746535D01*
X148448636Y-92735102D01*
X148413897Y-92716534D01*
X148383452Y-92691548D01*
X148358466Y-92661103D01*
X148339898Y-92626364D01*
X148328465Y-92588677D01*
X148324000Y-92543339D01*
X148324000Y-91456661D01*
X148328465Y-91411323D01*
X148339898Y-91373636D01*
X148358466Y-91338897D01*
X148383452Y-91308452D01*
X148413897Y-91283466D01*
X148448636Y-91264898D01*
X148486323Y-91253465D01*
X148531661Y-91249000D01*
X149368339Y-91249000D01*
X149413677Y-91253465D01*
X149413677Y-91253465D01*
G37*
G36*
X154413677Y-91253465D02*
X154451364Y-91264898D01*
X154486103Y-91283466D01*
X154516548Y-91308452D01*
X154541534Y-91338897D01*
X154560102Y-91373636D01*
X154571535Y-91411323D01*
X154576000Y-91456661D01*
X154576000Y-92543339D01*
X154571535Y-92588677D01*
X154560102Y-92626364D01*
X154541534Y-92661103D01*
X154516548Y-92691548D01*
X154486103Y-92716534D01*
X154451364Y-92735102D01*
X154413677Y-92746535D01*
X154368339Y-92751000D01*
X153531661Y-92751000D01*
X153486323Y-92746535D01*
X153448636Y-92735102D01*
X153413897Y-92716534D01*
X153383452Y-92691548D01*
X153358466Y-92661103D01*
X153339898Y-92626364D01*
X153328465Y-92588677D01*
X153324000Y-92543339D01*
X153324000Y-91456661D01*
X153328465Y-91411323D01*
X153339898Y-91373636D01*
X153358466Y-91338897D01*
X153383452Y-91308452D01*
X153413897Y-91283466D01*
X153448636Y-91264898D01*
X153486323Y-91253465D01*
X153531661Y-91249000D01*
X154368339Y-91249000D01*
X154413677Y-91253465D01*
X154413677Y-91253465D01*
G37*
G36*
X156463677Y-91253465D02*
X156501364Y-91264898D01*
X156536103Y-91283466D01*
X156566548Y-91308452D01*
X156591534Y-91338897D01*
X156610102Y-91373636D01*
X156621535Y-91411323D01*
X156626000Y-91456661D01*
X156626000Y-92543339D01*
X156621535Y-92588677D01*
X156610102Y-92626364D01*
X156591534Y-92661103D01*
X156566548Y-92691548D01*
X156536103Y-92716534D01*
X156501364Y-92735102D01*
X156463677Y-92746535D01*
X156418339Y-92751000D01*
X155581661Y-92751000D01*
X155536323Y-92746535D01*
X155498636Y-92735102D01*
X155463897Y-92716534D01*
X155433452Y-92691548D01*
X155408466Y-92661103D01*
X155389898Y-92626364D01*
X155378465Y-92588677D01*
X155374000Y-92543339D01*
X155374000Y-91456661D01*
X155378465Y-91411323D01*
X155389898Y-91373636D01*
X155408466Y-91338897D01*
X155433452Y-91308452D01*
X155463897Y-91283466D01*
X155498636Y-91264898D01*
X155536323Y-91253465D01*
X155581661Y-91249000D01*
X156418339Y-91249000D01*
X156463677Y-91253465D01*
X156463677Y-91253465D01*
G37*
G36*
X191556565Y-90489389D02*
X191747834Y-90568615D01*
X191919976Y-90683637D01*
X192066363Y-90830024D01*
X192181385Y-91002166D01*
X192260611Y-91193435D01*
X192301000Y-91396484D01*
X192301000Y-91603516D01*
X192260611Y-91806565D01*
X192181385Y-91997834D01*
X192066363Y-92169976D01*
X191919976Y-92316363D01*
X191747834Y-92431385D01*
X191556565Y-92510611D01*
X191353516Y-92551000D01*
X191146484Y-92551000D01*
X190943435Y-92510611D01*
X190752166Y-92431385D01*
X190580024Y-92316363D01*
X190433637Y-92169976D01*
X190318615Y-91997834D01*
X190239389Y-91806565D01*
X190199000Y-91603516D01*
X190199000Y-91396484D01*
X190239389Y-91193435D01*
X190318615Y-91002166D01*
X190433637Y-90830024D01*
X190580024Y-90683637D01*
X190752166Y-90568615D01*
X190943435Y-90489389D01*
X191146484Y-90449000D01*
X191353516Y-90449000D01*
X191556565Y-90489389D01*
X191556565Y-90489389D01*
G37*
G36*
X176281677Y-90150465D02*
X176319364Y-90161898D01*
X176354103Y-90180466D01*
X176384548Y-90205452D01*
X176409534Y-90235897D01*
X176428102Y-90270636D01*
X176439535Y-90308323D01*
X176444000Y-90353661D01*
X176444000Y-91440339D01*
X176439535Y-91485677D01*
X176428102Y-91523364D01*
X176409534Y-91558103D01*
X176384548Y-91588548D01*
X176354103Y-91613534D01*
X176319364Y-91632102D01*
X176281677Y-91643535D01*
X176236339Y-91648000D01*
X175399661Y-91648000D01*
X175354323Y-91643535D01*
X175316636Y-91632102D01*
X175281897Y-91613534D01*
X175251452Y-91588548D01*
X175226466Y-91558103D01*
X175207898Y-91523364D01*
X175196465Y-91485677D01*
X175192000Y-91440339D01*
X175192000Y-90353661D01*
X175196465Y-90308323D01*
X175207898Y-90270636D01*
X175226466Y-90235897D01*
X175251452Y-90205452D01*
X175281897Y-90180466D01*
X175316636Y-90161898D01*
X175354323Y-90150465D01*
X175399661Y-90146000D01*
X176236339Y-90146000D01*
X176281677Y-90150465D01*
X176281677Y-90150465D01*
G37*
G36*
X174231677Y-90150465D02*
X174269364Y-90161898D01*
X174304103Y-90180466D01*
X174334548Y-90205452D01*
X174359534Y-90235897D01*
X174378102Y-90270636D01*
X174389535Y-90308323D01*
X174394000Y-90353661D01*
X174394000Y-91440339D01*
X174389535Y-91485677D01*
X174378102Y-91523364D01*
X174359534Y-91558103D01*
X174334548Y-91588548D01*
X174304103Y-91613534D01*
X174269364Y-91632102D01*
X174231677Y-91643535D01*
X174186339Y-91648000D01*
X173349661Y-91648000D01*
X173304323Y-91643535D01*
X173266636Y-91632102D01*
X173231897Y-91613534D01*
X173201452Y-91588548D01*
X173176466Y-91558103D01*
X173157898Y-91523364D01*
X173146465Y-91485677D01*
X173142000Y-91440339D01*
X173142000Y-90353661D01*
X173146465Y-90308323D01*
X173157898Y-90270636D01*
X173176466Y-90235897D01*
X173201452Y-90205452D01*
X173231897Y-90180466D01*
X173266636Y-90161898D01*
X173304323Y-90150465D01*
X173349661Y-90146000D01*
X174186339Y-90146000D01*
X174231677Y-90150465D01*
X174231677Y-90150465D01*
G37*
G36*
X159913677Y-89753465D02*
X159951364Y-89764898D01*
X159986103Y-89783466D01*
X160016548Y-89808452D01*
X160041534Y-89838897D01*
X160060102Y-89873636D01*
X160071535Y-89911323D01*
X160076000Y-89956661D01*
X160076000Y-91043339D01*
X160071535Y-91088677D01*
X160060102Y-91126364D01*
X160041534Y-91161103D01*
X160016548Y-91191548D01*
X159986103Y-91216534D01*
X159951364Y-91235102D01*
X159913677Y-91246535D01*
X159868339Y-91251000D01*
X159031661Y-91251000D01*
X158986323Y-91246535D01*
X158948636Y-91235102D01*
X158913897Y-91216534D01*
X158883452Y-91191548D01*
X158858466Y-91161103D01*
X158839898Y-91126364D01*
X158828465Y-91088677D01*
X158824000Y-91043339D01*
X158824000Y-89956661D01*
X158828465Y-89911323D01*
X158839898Y-89873636D01*
X158858466Y-89838897D01*
X158883452Y-89808452D01*
X158913897Y-89783466D01*
X158948636Y-89764898D01*
X158986323Y-89753465D01*
X159031661Y-89749000D01*
X159868339Y-89749000D01*
X159913677Y-89753465D01*
X159913677Y-89753465D01*
G37*
G36*
X161963677Y-89753465D02*
X162001364Y-89764898D01*
X162036103Y-89783466D01*
X162066548Y-89808452D01*
X162091534Y-89838897D01*
X162110102Y-89873636D01*
X162121535Y-89911323D01*
X162126000Y-89956661D01*
X162126000Y-91043339D01*
X162121535Y-91088677D01*
X162110102Y-91126364D01*
X162091534Y-91161103D01*
X162066548Y-91191548D01*
X162036103Y-91216534D01*
X162001364Y-91235102D01*
X161963677Y-91246535D01*
X161918339Y-91251000D01*
X161081661Y-91251000D01*
X161036323Y-91246535D01*
X160998636Y-91235102D01*
X160963897Y-91216534D01*
X160933452Y-91191548D01*
X160908466Y-91161103D01*
X160889898Y-91126364D01*
X160878465Y-91088677D01*
X160874000Y-91043339D01*
X160874000Y-89956661D01*
X160878465Y-89911323D01*
X160889898Y-89873636D01*
X160908466Y-89838897D01*
X160933452Y-89808452D01*
X160963897Y-89783466D01*
X160998636Y-89764898D01*
X161036323Y-89753465D01*
X161081661Y-89749000D01*
X161918339Y-89749000D01*
X161963677Y-89753465D01*
X161963677Y-89753465D01*
G37*
G36*
X117610443Y-88525519D02*
X117676627Y-88532037D01*
X117789853Y-88566384D01*
X117846467Y-88583557D01*
X117985087Y-88657652D01*
X118002991Y-88667222D01*
X118038729Y-88696552D01*
X118140186Y-88779814D01*
X118223448Y-88881271D01*
X118252778Y-88917009D01*
X118252779Y-88917011D01*
X118336443Y-89073533D01*
X118341037Y-89088677D01*
X118387963Y-89243373D01*
X118405359Y-89420000D01*
X118387963Y-89596627D01*
X118353616Y-89709853D01*
X118336443Y-89766467D01*
X118297728Y-89838897D01*
X118252778Y-89922991D01*
X118225146Y-89956661D01*
X118140186Y-90060186D01*
X118038729Y-90143448D01*
X118002991Y-90172778D01*
X118002989Y-90172779D01*
X117846467Y-90256443D01*
X117799678Y-90270636D01*
X117676627Y-90307963D01*
X117615159Y-90314017D01*
X117544260Y-90321000D01*
X117455740Y-90321000D01*
X117384841Y-90314017D01*
X117323373Y-90307963D01*
X117200322Y-90270636D01*
X117153533Y-90256443D01*
X116997011Y-90172779D01*
X116997009Y-90172778D01*
X116961271Y-90143448D01*
X116859814Y-90060186D01*
X116774854Y-89956661D01*
X116747222Y-89922991D01*
X116702272Y-89838897D01*
X116663557Y-89766467D01*
X116646384Y-89709853D01*
X116612037Y-89596627D01*
X116594641Y-89420000D01*
X116612037Y-89243373D01*
X116658963Y-89088677D01*
X116663557Y-89073533D01*
X116747221Y-88917011D01*
X116747222Y-88917009D01*
X116776552Y-88881271D01*
X116859814Y-88779814D01*
X116961271Y-88696552D01*
X116997009Y-88667222D01*
X117014913Y-88657652D01*
X117153533Y-88583557D01*
X117210147Y-88566384D01*
X117323373Y-88532037D01*
X117389557Y-88525519D01*
X117455740Y-88519000D01*
X117544260Y-88519000D01*
X117610443Y-88525519D01*
X117610443Y-88525519D01*
G37*
G36*
X131413677Y-87753465D02*
X131451364Y-87764898D01*
X131486103Y-87783466D01*
X131516548Y-87808452D01*
X131541534Y-87838897D01*
X131560102Y-87873636D01*
X131571535Y-87911323D01*
X131576000Y-87956661D01*
X131576000Y-89043339D01*
X131571535Y-89088677D01*
X131560102Y-89126364D01*
X131541534Y-89161103D01*
X131516548Y-89191548D01*
X131486103Y-89216534D01*
X131451364Y-89235102D01*
X131413677Y-89246535D01*
X131368339Y-89251000D01*
X130531661Y-89251000D01*
X130486323Y-89246535D01*
X130448636Y-89235102D01*
X130413897Y-89216534D01*
X130383452Y-89191548D01*
X130358466Y-89161103D01*
X130339898Y-89126364D01*
X130328465Y-89088677D01*
X130324000Y-89043339D01*
X130324000Y-87956661D01*
X130328465Y-87911323D01*
X130339898Y-87873636D01*
X130358466Y-87838897D01*
X130383452Y-87808452D01*
X130413897Y-87783466D01*
X130448636Y-87764898D01*
X130486323Y-87753465D01*
X130531661Y-87749000D01*
X131368339Y-87749000D01*
X131413677Y-87753465D01*
X131413677Y-87753465D01*
G37*
G36*
X133463677Y-87753465D02*
X133501364Y-87764898D01*
X133536103Y-87783466D01*
X133566548Y-87808452D01*
X133591534Y-87838897D01*
X133610102Y-87873636D01*
X133621535Y-87911323D01*
X133626000Y-87956661D01*
X133626000Y-89043339D01*
X133621535Y-89088677D01*
X133610102Y-89126364D01*
X133591534Y-89161103D01*
X133566548Y-89191548D01*
X133536103Y-89216534D01*
X133501364Y-89235102D01*
X133463677Y-89246535D01*
X133418339Y-89251000D01*
X132581661Y-89251000D01*
X132536323Y-89246535D01*
X132498636Y-89235102D01*
X132463897Y-89216534D01*
X132433452Y-89191548D01*
X132408466Y-89161103D01*
X132389898Y-89126364D01*
X132378465Y-89088677D01*
X132374000Y-89043339D01*
X132374000Y-87956661D01*
X132378465Y-87911323D01*
X132389898Y-87873636D01*
X132408466Y-87838897D01*
X132433452Y-87808452D01*
X132463897Y-87783466D01*
X132498636Y-87764898D01*
X132536323Y-87753465D01*
X132581661Y-87749000D01*
X133418339Y-87749000D01*
X133463677Y-87753465D01*
X133463677Y-87753465D01*
G37*
G36*
X170306565Y-86489389D02*
X170497834Y-86568615D01*
X170669976Y-86683637D01*
X170816363Y-86830024D01*
X170931385Y-87002166D01*
X171010611Y-87193435D01*
X171051000Y-87396484D01*
X171051000Y-87603516D01*
X171010611Y-87806565D01*
X170931385Y-87997834D01*
X170816363Y-88169976D01*
X170669976Y-88316363D01*
X170497834Y-88431385D01*
X170306565Y-88510611D01*
X170103516Y-88551000D01*
X169896484Y-88551000D01*
X169693435Y-88510611D01*
X169502166Y-88431385D01*
X169330024Y-88316363D01*
X169183637Y-88169976D01*
X169068615Y-87997834D01*
X168989389Y-87806565D01*
X168949000Y-87603516D01*
X168949000Y-87396484D01*
X168989389Y-87193435D01*
X169068615Y-87002166D01*
X169183637Y-86830024D01*
X169330024Y-86683637D01*
X169502166Y-86568615D01*
X169693435Y-86489389D01*
X169896484Y-86449000D01*
X170103516Y-86449000D01*
X170306565Y-86489389D01*
X170306565Y-86489389D01*
G37*
G36*
X165806565Y-86489389D02*
X165997834Y-86568615D01*
X166169976Y-86683637D01*
X166316363Y-86830024D01*
X166431385Y-87002166D01*
X166510611Y-87193435D01*
X166551000Y-87396484D01*
X166551000Y-87603516D01*
X166510611Y-87806565D01*
X166431385Y-87997834D01*
X166316363Y-88169976D01*
X166169976Y-88316363D01*
X165997834Y-88431385D01*
X165806565Y-88510611D01*
X165603516Y-88551000D01*
X165396484Y-88551000D01*
X165193435Y-88510611D01*
X165002166Y-88431385D01*
X164830024Y-88316363D01*
X164683637Y-88169976D01*
X164568615Y-87997834D01*
X164489389Y-87806565D01*
X164449000Y-87603516D01*
X164449000Y-87396484D01*
X164489389Y-87193435D01*
X164568615Y-87002166D01*
X164683637Y-86830024D01*
X164830024Y-86683637D01*
X165002166Y-86568615D01*
X165193435Y-86489389D01*
X165396484Y-86449000D01*
X165603516Y-86449000D01*
X165806565Y-86489389D01*
X165806565Y-86489389D01*
G37*
G36*
X145551000Y-88551000D02*
X137574000Y-88551000D01*
X137574000Y-86449000D01*
X145551000Y-86449000D01*
X145551000Y-88551000D01*
X145551000Y-88551000D01*
G37*
G36*
X157426000Y-88551000D02*
X149449000Y-88551000D01*
X149449000Y-86449000D01*
X157426000Y-86449000D01*
X157426000Y-88551000D01*
X157426000Y-88551000D01*
G37*
G36*
X87488677Y-86253465D02*
X87526364Y-86264898D01*
X87561103Y-86283466D01*
X87591548Y-86308452D01*
X87616534Y-86338897D01*
X87635102Y-86373636D01*
X87646535Y-86411323D01*
X87651000Y-86456661D01*
X87651000Y-87543339D01*
X87646535Y-87588677D01*
X87635102Y-87626364D01*
X87616534Y-87661103D01*
X87591548Y-87691548D01*
X87561103Y-87716534D01*
X87526364Y-87735102D01*
X87488677Y-87746535D01*
X87443339Y-87751000D01*
X86606661Y-87751000D01*
X86561323Y-87746535D01*
X86523636Y-87735102D01*
X86488897Y-87716534D01*
X86458452Y-87691548D01*
X86433466Y-87661103D01*
X86414898Y-87626364D01*
X86403465Y-87588677D01*
X86399000Y-87543339D01*
X86399000Y-86456661D01*
X86403465Y-86411323D01*
X86414898Y-86373636D01*
X86433466Y-86338897D01*
X86458452Y-86308452D01*
X86488897Y-86283466D01*
X86523636Y-86264898D01*
X86561323Y-86253465D01*
X86606661Y-86249000D01*
X87443339Y-86249000D01*
X87488677Y-86253465D01*
X87488677Y-86253465D01*
G37*
G36*
X89538677Y-86253465D02*
X89576364Y-86264898D01*
X89611103Y-86283466D01*
X89641548Y-86308452D01*
X89666534Y-86338897D01*
X89685102Y-86373636D01*
X89696535Y-86411323D01*
X89701000Y-86456661D01*
X89701000Y-87543339D01*
X89696535Y-87588677D01*
X89685102Y-87626364D01*
X89666534Y-87661103D01*
X89641548Y-87691548D01*
X89611103Y-87716534D01*
X89576364Y-87735102D01*
X89538677Y-87746535D01*
X89493339Y-87751000D01*
X88656661Y-87751000D01*
X88611323Y-87746535D01*
X88573636Y-87735102D01*
X88538897Y-87716534D01*
X88508452Y-87691548D01*
X88483466Y-87661103D01*
X88464898Y-87626364D01*
X88453465Y-87588677D01*
X88449000Y-87543339D01*
X88449000Y-86456661D01*
X88453465Y-86411323D01*
X88464898Y-86373636D01*
X88483466Y-86338897D01*
X88508452Y-86308452D01*
X88538897Y-86283466D01*
X88573636Y-86264898D01*
X88611323Y-86253465D01*
X88656661Y-86249000D01*
X89493339Y-86249000D01*
X89538677Y-86253465D01*
X89538677Y-86253465D01*
G37*
G36*
X126201000Y-87551000D02*
X124299000Y-87551000D01*
X124299000Y-86449000D01*
X126201000Y-86449000D01*
X126201000Y-87551000D01*
X126201000Y-87551000D01*
G37*
G36*
X159938677Y-85253465D02*
X159976364Y-85264898D01*
X160011103Y-85283466D01*
X160041548Y-85308452D01*
X160066534Y-85338897D01*
X160085102Y-85373636D01*
X160096535Y-85411323D01*
X160101000Y-85456661D01*
X160101000Y-86543339D01*
X160096535Y-86588677D01*
X160085102Y-86626364D01*
X160066534Y-86661103D01*
X160041548Y-86691548D01*
X160011103Y-86716534D01*
X159976364Y-86735102D01*
X159938677Y-86746535D01*
X159893339Y-86751000D01*
X159056661Y-86751000D01*
X159011323Y-86746535D01*
X158973636Y-86735102D01*
X158938897Y-86716534D01*
X158908452Y-86691548D01*
X158883466Y-86661103D01*
X158864898Y-86626364D01*
X158853465Y-86588677D01*
X158849000Y-86543339D01*
X158849000Y-85456661D01*
X158853465Y-85411323D01*
X158864898Y-85373636D01*
X158883466Y-85338897D01*
X158908452Y-85308452D01*
X158938897Y-85283466D01*
X158973636Y-85264898D01*
X159011323Y-85253465D01*
X159056661Y-85249000D01*
X159893339Y-85249000D01*
X159938677Y-85253465D01*
X159938677Y-85253465D01*
G37*
G36*
X161988677Y-85253465D02*
X162026364Y-85264898D01*
X162061103Y-85283466D01*
X162091548Y-85308452D01*
X162116534Y-85338897D01*
X162135102Y-85373636D01*
X162146535Y-85411323D01*
X162151000Y-85456661D01*
X162151000Y-86543339D01*
X162146535Y-86588677D01*
X162135102Y-86626364D01*
X162116534Y-86661103D01*
X162091548Y-86691548D01*
X162061103Y-86716534D01*
X162026364Y-86735102D01*
X161988677Y-86746535D01*
X161943339Y-86751000D01*
X161106661Y-86751000D01*
X161061323Y-86746535D01*
X161023636Y-86735102D01*
X160988897Y-86716534D01*
X160958452Y-86691548D01*
X160933466Y-86661103D01*
X160914898Y-86626364D01*
X160903465Y-86588677D01*
X160899000Y-86543339D01*
X160899000Y-85456661D01*
X160903465Y-85411323D01*
X160914898Y-85373636D01*
X160933466Y-85338897D01*
X160958452Y-85308452D01*
X160988897Y-85283466D01*
X161023636Y-85264898D01*
X161061323Y-85253465D01*
X161106661Y-85249000D01*
X161943339Y-85249000D01*
X161988677Y-85253465D01*
X161988677Y-85253465D01*
G37*
G36*
X91806565Y-83489389D02*
X91997834Y-83568615D01*
X92169976Y-83683637D01*
X92316363Y-83830024D01*
X92431385Y-84002166D01*
X92510611Y-84193435D01*
X92551000Y-84396484D01*
X92551000Y-84603516D01*
X92510611Y-84806565D01*
X92431385Y-84997834D01*
X92316363Y-85169976D01*
X92169976Y-85316363D01*
X91997834Y-85431385D01*
X91806565Y-85510611D01*
X91603516Y-85551000D01*
X91396484Y-85551000D01*
X91193435Y-85510611D01*
X91002166Y-85431385D01*
X90830024Y-85316363D01*
X90683637Y-85169976D01*
X90568615Y-84997834D01*
X90489389Y-84806565D01*
X90449000Y-84603516D01*
X90449000Y-84396484D01*
X90489389Y-84193435D01*
X90568615Y-84002166D01*
X90683637Y-83830024D01*
X90830024Y-83683637D01*
X91002166Y-83568615D01*
X91193435Y-83489389D01*
X91396484Y-83449000D01*
X91603516Y-83449000D01*
X91806565Y-83489389D01*
X91806565Y-83489389D01*
G37*
G36*
X128938677Y-83753465D02*
X128976364Y-83764898D01*
X129011103Y-83783466D01*
X129041548Y-83808452D01*
X129066534Y-83838897D01*
X129085102Y-83873636D01*
X129096535Y-83911323D01*
X129101000Y-83956661D01*
X129101000Y-85043339D01*
X129096535Y-85088677D01*
X129085102Y-85126364D01*
X129066534Y-85161103D01*
X129041548Y-85191548D01*
X129011103Y-85216534D01*
X128976364Y-85235102D01*
X128938677Y-85246535D01*
X128893339Y-85251000D01*
X128056661Y-85251000D01*
X128011323Y-85246535D01*
X127973636Y-85235102D01*
X127938897Y-85216534D01*
X127908452Y-85191548D01*
X127883466Y-85161103D01*
X127864898Y-85126364D01*
X127853465Y-85088677D01*
X127849000Y-85043339D01*
X127849000Y-83956661D01*
X127853465Y-83911323D01*
X127864898Y-83873636D01*
X127883466Y-83838897D01*
X127908452Y-83808452D01*
X127938897Y-83783466D01*
X127973636Y-83764898D01*
X128011323Y-83753465D01*
X128056661Y-83749000D01*
X128893339Y-83749000D01*
X128938677Y-83753465D01*
X128938677Y-83753465D01*
G37*
G36*
X130988677Y-83753465D02*
X131026364Y-83764898D01*
X131061103Y-83783466D01*
X131091548Y-83808452D01*
X131116534Y-83838897D01*
X131135102Y-83873636D01*
X131146535Y-83911323D01*
X131151000Y-83956661D01*
X131151000Y-85043339D01*
X131146535Y-85088677D01*
X131135102Y-85126364D01*
X131116534Y-85161103D01*
X131091548Y-85191548D01*
X131061103Y-85216534D01*
X131026364Y-85235102D01*
X130988677Y-85246535D01*
X130943339Y-85251000D01*
X130106661Y-85251000D01*
X130061323Y-85246535D01*
X130023636Y-85235102D01*
X129988897Y-85216534D01*
X129958452Y-85191548D01*
X129933466Y-85161103D01*
X129914898Y-85126364D01*
X129903465Y-85088677D01*
X129899000Y-85043339D01*
X129899000Y-83956661D01*
X129903465Y-83911323D01*
X129914898Y-83873636D01*
X129933466Y-83838897D01*
X129958452Y-83808452D01*
X129988897Y-83783466D01*
X130023636Y-83764898D01*
X130061323Y-83753465D01*
X130106661Y-83749000D01*
X130943339Y-83749000D01*
X130988677Y-83753465D01*
X130988677Y-83753465D01*
G37*
G36*
X126201000Y-85051000D02*
X124299000Y-85051000D01*
X124299000Y-83949000D01*
X126201000Y-83949000D01*
X126201000Y-85051000D01*
X126201000Y-85051000D01*
G37*
G36*
X103306565Y-82489389D02*
X103497834Y-82568615D01*
X103669976Y-82683637D01*
X103816363Y-82830024D01*
X103931385Y-83002166D01*
X104010611Y-83193435D01*
X104051000Y-83396484D01*
X104051000Y-83603516D01*
X104010611Y-83806565D01*
X103931385Y-83997834D01*
X103816363Y-84169976D01*
X103669976Y-84316363D01*
X103497834Y-84431385D01*
X103306565Y-84510611D01*
X103103516Y-84551000D01*
X102896484Y-84551000D01*
X102693435Y-84510611D01*
X102502166Y-84431385D01*
X102330024Y-84316363D01*
X102183637Y-84169976D01*
X102068615Y-83997834D01*
X101989389Y-83806565D01*
X101949000Y-83603516D01*
X101949000Y-83396484D01*
X101989389Y-83193435D01*
X102068615Y-83002166D01*
X102183637Y-82830024D01*
X102330024Y-82683637D01*
X102502166Y-82568615D01*
X102693435Y-82489389D01*
X102896484Y-82449000D01*
X103103516Y-82449000D01*
X103306565Y-82489389D01*
X103306565Y-82489389D01*
G37*
M02*
